<svg width="65" height="65" viewBox="0 0 65 65" fill="none" xmlns="http://www.w3.org/2000/svg">
<g clip-path="url(#clip0_2034_3552)">
<path opacity="0.25" d="M12.6953 0H7.61719C3.41707 0 0 3.41707 0 7.61719V12.6953C0 14.0976 1.13674 15.2344 2.53906 15.2344C3.94139 15.2344 5.07812 14.0976 5.07812 12.6953V7.61719C5.07812 6.21715 6.21715 5.07812 7.61719 5.07812H12.6953C14.0976 5.07812 15.2344 3.94139 15.2344 2.53906C15.2344 1.13674 14.0976 0 12.6953 0Z" fill="#F08021"/>
<path opacity="0.25" d="M52.3047 5.07812H57.3828C58.7829 5.07812 59.9219 6.21715 59.9219 7.61719V12.6953C59.9219 14.0976 61.0586 15.2344 62.4609 15.2344C63.8633 15.2344 65 14.0976 65 12.6953V7.61719C65 3.41707 61.5829 0 57.3828 0H52.3047C50.9024 0 49.7656 1.13674 49.7656 2.53906C49.7656 3.94139 50.9024 5.07812 52.3047 5.07812Z" fill="#F08021"/>
<path opacity="0.25" d="M52.3047 65H57.3828C61.5829 65 65 61.5829 65 57.3828V52.3047C65 50.9024 63.8633 49.7656 62.4609 49.7656C61.0586 49.7656 59.9219 50.9024 59.9219 52.3047V57.3828C59.9219 58.7829 58.7829 59.9219 57.3828 59.9219H52.3047C50.9024 59.9219 49.7656 61.0586 49.7656 62.4609C49.7656 63.8633 50.9024 65 52.3047 65Z" fill="#F08021"/>
<path opacity="0.25" d="M12.6953 59.9219H7.61719C6.21715 59.9219 5.07812 58.7829 5.07812 57.3828V52.3047C5.07812 50.9024 3.94139 49.7656 2.53906 49.7656C1.13674 49.7656 0 50.9024 0 52.3047V57.3828C0 61.5829 3.41707 65 7.61719 65H12.6953C14.0976 65 15.2344 63.8633 15.2344 62.4609C15.2344 61.0586 14.0976 59.9219 12.6953 59.9219Z" fill="#F08021"/>
<path d="M60.4398 25.5218C60.4398 25.5218 39.6124 16.2075 39.6056 16.2046C37.3591 15.2238 34.9686 14.7266 32.5 14.7266C30.0314 14.7266 27.6407 15.2238 25.3944 16.2046C25.3876 16.2075 4.56028 25.5218 4.56028 25.5218C1.78953 26.7366 0 29.4743 0 32.5C0 35.5257 1.78953 38.2634 4.56016 39.4782C4.56016 39.4782 25.3875 48.7925 25.3943 48.7954C27.6407 49.7762 30.0314 50.2734 32.5 50.2734C34.9686 50.2734 37.3591 49.7762 39.6056 48.7954C39.6125 48.7925 60.4398 39.4782 60.4398 39.4782C63.2105 38.2634 65 35.5257 65 32.5C65 29.4743 63.2105 26.7366 60.4398 25.5218ZM32.5 45.1953C25.4998 45.1953 19.8047 39.5002 19.8047 32.5C19.8047 25.4998 25.4998 19.8047 32.5 19.8047C39.5003 19.8047 45.1953 25.4998 45.1953 32.5C45.1953 39.5002 39.5003 45.1953 32.5 45.1953ZM6.60321 34.8292C5.67671 34.4247 5.07812 33.5104 5.07812 32.5C5.07812 31.4896 5.67671 30.5753 6.60321 30.1708C6.6102 30.1677 15.9632 25.985 15.9632 25.985C15.1652 28.0033 14.7266 30.2014 14.7266 32.5C14.7266 34.7986 15.1652 36.9967 15.9631 39.015C15.9631 39.015 6.61007 34.8323 6.60321 34.8292ZM58.3968 34.8292C58.3898 34.8323 49.0368 39.015 49.0368 39.015C49.8348 36.9967 50.2734 34.7986 50.2734 32.5C50.2734 30.2014 49.8348 28.0033 49.0368 25.985C49.0368 25.985 58.3898 30.1679 58.3968 30.1708C59.3232 30.5753 59.9219 31.4896 59.9219 32.5C59.9219 33.5104 59.3232 34.4247 58.3968 34.8292Z" fill="#F08021"/>
<path d="M37.5781 29.9609H35.0391V27.4219C35.0391 26.0196 33.9023 24.8828 32.5 24.8828C31.0977 24.8828 29.9609 26.0196 29.9609 27.4219V29.9609H27.4219C26.0196 29.9609 24.8828 31.0977 24.8828 32.5C24.8828 33.9023 26.0196 35.0391 27.4219 35.0391H29.9609V37.5781C29.9609 38.9804 31.0977 40.1172 32.5 40.1172C33.9023 40.1172 35.0391 38.9804 35.0391 37.5781V35.0391H37.5781C38.9804 35.0391 40.1172 33.9023 40.1172 32.5C40.1172 31.0977 38.9804 29.9609 37.5781 29.9609Z" fill="#F08021"/>
</g>
<defs>
<clipPath id="clip0_2034_3552">
<rect width="65" height="65" fill="white"/>
</clipPath>
</defs>
</svg>
