<svg width="65" height="65" viewBox="0 0 65 65" fill="none" xmlns="http://www.w3.org/2000/svg">
<g clip-path="url(#clip0_2034_3568)">
<path d="M38.0867 45.704C36.6843 45.704 35.5475 44.5673 35.5475 43.1649V33.0085C35.5475 31.6061 36.6843 30.4694 38.0867 30.4694C39.489 30.4694 40.6258 31.6061 40.6258 33.0085V43.1649C40.6258 44.5673 39.489 45.704 38.0867 45.704Z" fill="#F08021"/>
<path d="M64.2563 60.6655L52.3212 48.7305C57.5298 41.7741 56.975 31.8392 50.6547 25.5187C47.2977 22.1617 42.8343 20.3129 38.0867 20.3129C33.3391 20.3129 28.8757 22.1616 25.5187 25.5187C18.5887 32.4487 18.5887 43.7246 25.5187 50.6546C28.8757 54.0117 33.3391 55.8604 38.0867 55.8604C41.9769 55.8604 45.6759 54.6183 48.7321 52.3229L60.6655 64.2563C61.6571 65.2479 63.2648 65.2479 64.2563 64.2563C65.2478 63.2646 65.2478 61.657 64.2563 60.6655ZM29.1097 47.0638C24.1597 42.1138 24.1597 34.0595 29.1097 29.1095C31.5075 26.7117 34.6956 25.3911 38.0867 25.3911C41.4778 25.3911 44.6659 26.7117 47.0637 29.1095C52.0137 34.0595 52.0137 42.1138 47.0637 47.0638C44.6659 49.4616 41.4778 50.7822 38.0867 50.7822C34.6956 50.7822 31.5075 49.4616 29.1097 47.0638Z" fill="#F08021"/>
<path opacity="0.25" d="M2.53911 0C1.13676 0 0 1.13676 0 2.53911V12.6956C0 14.0979 1.13676 15.2347 2.53911 15.2347C3.94146 15.2347 5.07822 14.0979 5.07822 12.6956V2.53911C5.07822 1.13676 3.94146 0 2.53911 0Z" fill="#F08021"/>
<path opacity="0.25" d="M33.0085 15.2347C34.4108 15.2347 35.5476 14.0979 35.5476 12.6956V2.53911C35.5476 1.13676 34.4108 0 33.0085 0C31.6061 0 30.4694 1.13676 30.4694 2.53911V12.6956C30.4694 14.0979 31.6061 15.2347 33.0085 15.2347Z" fill="#F08021"/>
<path opacity="0.25" d="M43.1649 15.2347C44.5673 15.2347 45.704 14.0979 45.704 12.6956V2.53911C45.704 1.13676 44.5673 0 43.1649 0C41.7626 0 40.6258 1.13676 40.6258 2.53911V12.6956C40.6258 14.0979 41.7626 15.2347 43.1649 15.2347Z" fill="#F08021"/>
<path opacity="0.25" d="M2.53911 20.3129C1.13676 20.3129 0 21.4496 0 22.852V33.0084C0 34.4108 1.13676 35.5475 2.53911 35.5475C3.94146 35.5475 5.07822 34.4108 5.07822 33.0084V22.852C5.07822 21.4496 3.94146 20.3129 2.53911 20.3129Z" fill="#F08021"/>
<path opacity="0.25" d="M12.6955 20.3129C11.2932 20.3129 10.1564 21.4496 10.1564 22.852V33.0084C10.1564 34.4108 11.2932 35.5475 12.6955 35.5475C14.0979 35.5475 15.2347 34.4108 15.2347 33.0084V22.852C15.2347 21.4496 14.0979 20.3129 12.6955 20.3129Z" fill="#F08021"/>
<path opacity="0.25" d="M25.3911 7.61734C25.3911 3.41714 21.974 0 17.7738 0C13.5736 0 10.1564 3.41714 10.1564 7.61734C10.1564 11.8175 13.5736 15.2347 17.7738 15.2347C21.974 15.2347 25.3911 11.8175 25.3911 7.61734ZM17.7738 10.1564C16.3737 10.1564 15.2347 9.0174 15.2347 7.61734C15.2347 6.21727 16.3737 5.07822 17.7738 5.07822C19.1738 5.07822 20.3129 6.21727 20.3129 7.61734C20.3129 9.0174 19.1738 10.1564 17.7738 10.1564Z" fill="#F08021"/>
</g>
<defs>
<clipPath id="clip0_2034_3568">
<rect width="65" height="65" fill="white"/>
</clipPath>
</defs>
</svg>
