<svg width="144" height="144" viewBox="0 0 144 144" fill="none" xmlns="http://www.w3.org/2000/svg">
<circle opacity="0.5" cx="72" cy="72" r="70" stroke="#5687B9" stroke-width="3" stroke-linecap="round" stroke-dasharray="4 12"/>
<g clip-path="url(#clip0_6004_1368)">
<path d="M102.461 75.0391C103.863 75.0391 105 73.9023 105 72.5C105 71.0977 103.863 69.9609 102.461 69.9609H99.9219V67.4219C99.9219 66.0196 98.7851 64.8828 97.3828 64.8828C95.9805 64.8828 94.8438 66.0196 94.8438 67.4219V92.3047C94.8438 93.7047 93.7047 94.8438 92.3047 94.8438H52.6953C51.2953 94.8438 50.1562 93.7047 50.1562 92.3047V52.6953C50.1562 51.2953 51.2953 50.1562 52.6953 50.1562H92.3047C93.7047 50.1562 94.8438 51.2953 94.8438 52.6953V57.2656C94.8438 58.6679 95.9805 59.8047 97.3828 59.8047H102.461C103.863 59.8047 105 58.6679 105 57.2656C105 55.8633 103.863 54.7266 102.461 54.7266H99.9219V52.6953C99.9219 48.4952 96.5048 45.0781 92.3047 45.0781H90.2734V42.5391C90.2734 41.1367 89.1367 40 87.7344 40C86.3321 40 85.1953 41.1367 85.1953 42.5391V45.0781H75.0391V42.5391C75.0391 41.1367 73.9023 40 72.5 40C71.0977 40 69.9609 41.1367 69.9609 42.5391V45.0781H59.8047V42.5391C59.8047 41.1367 58.6679 40 57.2656 40C55.8633 40 54.7266 41.1367 54.7266 42.5391V45.0781H52.6953C48.4952 45.0781 45.0781 48.4952 45.0781 52.6953V54.7266H42.5391C41.1367 54.7266 40 55.8633 40 57.2656C40 58.6679 41.1367 59.8047 42.5391 59.8047H45.0781V69.9609H42.5391C41.1367 69.9609 40 71.0977 40 72.5C40 73.9023 41.1367 75.0391 42.5391 75.0391H45.0781V85.1953H42.5391C41.1367 85.1953 40 86.3321 40 87.7344C40 89.1367 41.1367 90.2734 42.5391 90.2734H45.0781V92.3047C45.0781 96.5048 48.4952 99.9219 52.6953 99.9219H54.7266V102.461C54.7266 103.863 55.8633 105 57.2656 105C58.6679 105 59.8047 103.863 59.8047 102.461V99.9219H69.9609V102.461C69.9609 103.863 71.0977 105 72.5 105C73.9023 105 75.0391 103.863 75.0391 102.461V99.9219H85.1953V102.461C85.1953 103.863 86.3321 105 87.7344 105C89.1367 105 90.2734 103.863 90.2734 102.461V99.9219H92.3047C96.5048 99.9219 99.9219 96.5048 99.9219 92.3047V90.2734H102.461C103.863 90.2734 105 89.1367 105 87.7344C105 86.3321 103.863 85.1953 102.461 85.1953H99.9219V75.0391H102.461Z" fill="#F08021"/>
<path d="M82.6562 54.7266H62.3438C58.1436 54.7266 54.7266 58.1436 54.7266 62.3438V82.6562C54.7266 86.8564 58.1436 90.2734 62.3438 90.2734H82.6562C86.8564 90.2734 90.2734 86.8564 90.2734 82.6562V62.3438C90.2734 58.1436 86.8564 54.7266 82.6562 54.7266ZM82.6562 85.1953H75.0391V77.5781C75.0391 76.1758 73.9023 75.0391 72.5 75.0391H67.4219C66.0196 75.0391 64.8828 76.1758 64.8828 77.5781C64.8828 78.9804 66.0196 80.1172 67.4219 80.1172H69.9609V85.1953H62.3438C60.9437 85.1953 59.8047 84.0563 59.8047 82.6562V69.9609H62.3438C63.7461 69.9609 64.8828 68.8242 64.8828 67.4219C64.8828 66.0196 63.7461 64.8828 62.3438 64.8828H59.8047V62.3438C59.8047 60.9437 60.9437 59.8047 62.3438 59.8047H69.9609V67.4219C69.9609 68.8242 71.0977 69.9609 72.5 69.9609H77.5781C78.9804 69.9609 80.1172 68.8242 80.1172 67.4219C80.1172 66.0196 78.9804 64.8828 77.5781 64.8828H75.0391V59.8047H82.6562C84.0563 59.8047 85.1953 60.9437 85.1953 62.3438V75.0391H82.6562C81.2539 75.0391 80.1172 76.1758 80.1172 77.5781C80.1172 78.9804 81.2539 80.1172 82.6562 80.1172H85.1953V82.6562C85.1953 84.0563 84.0563 85.1953 82.6562 85.1953Z" fill="#F08021"/>
</g>
<defs>
<clipPath id="clip0_6004_1368">
<rect width="65" height="65" fill="white" transform="translate(40 40)"/>
</clipPath>
</defs>
</svg>
