<svg width="144" height="144" viewBox="0 0 144 144" fill="none" xmlns="http://www.w3.org/2000/svg">
<circle opacity="0.5" cx="72" cy="72" r="70" stroke="#5687B9" stroke-width="3" stroke-linecap="round" stroke-dasharray="4 12"/>
<circle opacity="0.5" cx="72" cy="72" r="59" stroke="#5687B9" stroke-width="3" stroke-linecap="round"/>
<path d="M72 39C58.2553 51.5519 44 49.5589 44 49.5589L44.2128 69.5316C44.383 85.5608 54.4681 99.8089 69.617 105.237C71.1064 105.746 72 106 72 106C72 106 72.8936 105.788 74.383 105.237C84.5957 101.59 92.4681 93.9146 96.6383 84.4158C93.7021 86.0696 88.7234 88.1899 81.7447 89.0804C79.2766 91.3703 76.0851 93.6177 72.0426 95.3139C58.8511 89.8013 54.8511 78.5215 54.8511 78.5215C61.2766 81.4475 72.0426 81.8291 72.0426 81.8291C72.0426 81.8291 78 81.6171 83.7021 80.3025C85.1489 79.9633 86.6809 79.4968 88.2128 78.9456C88.5532 78.8184 88.8936 78.6487 89.234 78.5215C89.234 78.5215 89.234 78.5215 89.234 78.5639C92.8511 77.1222 96.5957 75.0443 99.6596 72.076C99.7447 71.2278 99.7872 70.3797 99.7872 69.5316L100 49.5589C100 49.5589 85.7447 51.5519 72 39ZM90.2128 66.5209C90.2128 66.5209 83.1064 71.3551 72.6809 71.3551C62.2553 71.3551 55.1064 66.5209 55.1064 66.5209V59.1424C65.1489 57.2342 72.6383 51.4247 72.6383 51.4247C72.6383 51.4247 79.5319 57.2766 90.1702 59.1424V66.5209H90.2128Z" fill="#F08021"/>
</svg>
