<svg width="144" height="144" viewBox="0 0 144 144" fill="none" xmlns="http://www.w3.org/2000/svg">
<circle opacity="0.5" cx="72" cy="72" r="70" stroke="#5687B9" stroke-width="3" stroke-linecap="round" stroke-dasharray="4 12"/>
<g clip-path="url(#clip0_6004_1367)">
<path d="M41.5391 95.8438C42.9414 95.8438 44.0781 94.707 44.0781 93.3047C44.0781 89.1046 47.4952 85.6875 51.6953 85.6875H81.1484C88.1486 85.6875 93.8438 79.9924 93.8438 72.9922V53.6953C93.8438 46.6951 88.1486 41 81.1484 41H51.6953C44.6951 41 39 46.6951 39 53.6953V93.3047C39 94.707 40.1367 95.8438 41.5391 95.8438ZM44.0781 53.6953C44.0781 49.4952 47.4952 46.0781 51.6953 46.0781H81.1484C85.3486 46.0781 88.7656 49.4952 88.7656 53.6953V72.9922C88.7656 77.1923 85.3486 80.6094 81.1484 80.6094H51.6953C48.8399 80.6094 46.2013 81.5572 44.0781 83.1544V53.6953Z" fill="#F08021"/>
<path d="M101.461 60.2969C100.059 60.2969 98.9219 61.4336 98.9219 62.8359V93.3107C96.7987 91.7135 94.1601 90.7656 91.3047 90.7656H61.3438C59.9414 90.7656 58.8047 91.9024 58.8047 93.3047C58.8047 94.707 59.9414 95.8438 61.3438 95.8438H91.3047C95.5048 95.8438 98.9219 99.2608 98.9219 103.461C98.9219 104.863 100.059 106 101.461 106C102.863 106 104 104.863 104 103.461V62.8359C104 61.4336 102.863 60.2969 101.461 60.2969Z" fill="#F08021"/>
<path d="M54.4703 70.2172C55.4619 71.2089 57.0695 71.2089 58.061 70.2172C59.0527 69.2256 59.0527 67.618 58.061 66.6265L54.7783 63.3437L58.061 60.061C59.0527 59.0693 59.0527 57.4617 58.061 56.4702C57.0694 55.4787 55.4618 55.4786 54.4703 56.4702L49.3922 61.5484C48.4005 62.54 48.4005 64.1476 49.3922 65.1391L54.4703 70.2172Z" fill="#F08021"/>
<path d="M74.7828 70.2173C75.7744 71.2089 77.382 71.2089 78.3735 70.2173L83.4517 65.1392C84.4433 64.1475 84.4433 62.5399 83.4517 61.5484L78.3735 56.4703C77.3819 55.4787 75.7743 55.4787 74.7828 56.4703C73.7913 57.4619 73.7912 59.0695 74.7828 60.061L78.0655 63.3438L74.7828 66.6265C73.7912 67.618 73.7912 69.2258 74.7828 70.2173Z" fill="#F08021"/>
<path d="M66.4978 52.5717L61.4197 72.8842C61.0796 74.2446 61.9067 75.623 63.2671 75.9632C64.6274 76.3034 66.006 75.476 66.3461 74.1157L71.4242 53.8032C71.7643 52.4428 70.9372 51.0643 69.5768 50.7242C68.2166 50.3841 66.8379 51.2114 66.4978 52.5717Z" fill="#F08021"/>
</g>
<defs>
<clipPath id="clip0_6004_1367">
<rect width="65" height="65" fill="white" transform="translate(39 41)"/>
</clipPath>
</defs>
</svg>
