<svg width="24" height="24" viewBox="0 0 24 24" fill="none" xmlns="http://www.w3.org/2000/svg">
<g clip-path="url(#clip0_2034_3925)">
<path d="M18 13C17.1205 12.997 16.2646 13.2849 15.5657 13.8189C14.8668 14.3529 14.364 15.103 14.1358 15.9525C13.9076 16.8019 13.9667 17.703 14.3038 18.5154C14.641 19.3278 15.2374 20.0058 16 20.444V23.277C16 23.4197 16.0422 23.5591 16.1214 23.6778C16.2006 23.7964 16.3133 23.8889 16.4451 23.9435C16.5769 23.9981 16.7219 24.0124 16.8618 23.9845C17.0017 23.9567 17.1302 23.8879 17.231 23.787L18 23.019L18.769 23.787C18.8699 23.8879 18.9984 23.9567 19.1383 23.9845C19.2782 24.0124 19.4232 23.9981 19.555 23.9435C19.6868 23.8889 19.7994 23.7964 19.8786 23.6778C19.9578 23.5591 20.0001 23.4197 20 23.277V20.444C20.7627 20.0058 21.359 19.3278 21.6962 18.5154C22.0334 17.703 22.0925 16.8019 21.8642 15.9525C21.636 15.103 21.1333 14.3529 20.4344 13.8189C19.7355 13.2849 18.8796 12.997 18 13Z" fill="#7EACE0"/>
<path d="M12 17C11.9988 15.9464 12.2753 14.9111 12.8018 13.9984C13.3283 13.0858 14.086 12.328 14.9987 11.8016C15.9114 11.2752 16.9467 10.9987 18.0004 11C19.054 11.0013 20.0886 11.2803 21 11.809V5C20.9984 3.67441 20.4711 2.40356 19.5338 1.46622C18.5964 0.528882 17.3256 0.00158786 16 0L8 0C6.67441 0.00158786 5.40356 0.528882 4.46622 1.46622C3.52888 2.40356 3.00159 3.67441 3 5V17C3.00159 18.3256 3.52888 19.5964 4.46622 20.5338C5.40356 21.4711 6.67441 21.9984 8 22H14V21.46C13.3711 20.8996 12.8678 20.2125 12.5231 19.4439C12.1784 18.6752 12.0001 17.8424 12 17ZM8 4H16C16.2652 4 16.5196 4.10536 16.7071 4.29289C16.8946 4.48043 17 4.73478 17 5C17 5.26522 16.8946 5.51957 16.7071 5.70711C16.5196 5.89464 16.2652 6 16 6H8C7.73478 6 7.48043 5.89464 7.29289 5.70711C7.10536 5.51957 7 5.26522 7 5C7 4.73478 7.10536 4.48043 7.29289 4.29289C7.48043 4.10536 7.73478 4 8 4ZM8 8H16C16.2652 8 16.5196 8.10536 16.7071 8.29289C16.8946 8.48043 17 8.73478 17 9C17 9.26522 16.8946 9.51957 16.7071 9.70711C16.5196 9.89464 16.2652 10 16 10H8C7.73478 10 7.48043 9.89464 7.29289 9.70711C7.10536 9.51957 7 9.26522 7 9C7 8.73478 7.10536 8.48043 7.29289 8.29289C7.48043 8.10536 7.73478 8 8 8ZM11 14H8C7.73478 14 7.48043 13.8946 7.29289 13.7071C7.10536 13.5196 7 13.2652 7 13C7 12.7348 7.10536 12.4804 7.29289 12.2929C7.48043 12.1054 7.73478 12 8 12H11C11.2652 12 11.5196 12.1054 11.7071 12.2929C11.8946 12.4804 12 12.7348 12 13C12 13.2652 11.8946 13.5196 11.7071 13.7071C11.5196 13.8946 11.2652 14 11 14Z" fill="#7EACE0"/>
</g>
<defs>
<clipPath id="clip0_2034_3925">
<rect width="24" height="24" fill="white"/>
</clipPath>
</defs>
</svg>
