<svg width="24" height="24" viewBox="0 0 24 24" fill="none" xmlns="http://www.w3.org/2000/svg">
<g clip-path="url(#clip0_2034_3938)">
<path d="M11.5 8.988H8.423C7.804 8.988 7.361 8.391 7.54 7.798L9.928 0.674C10.067 0.271 10.447 0 10.873 0H12.767C13.469 0 13.952 0.704 13.7 1.359L12.499 4.988H15.592C16.314 4.988 16.745 5.792 16.346 6.394L11.592 13.619C11.032 14.432 9.765 13.834 10.036 12.885L11.499 8.988H11.5ZM23 17V15C23 14.447 22.552 14 22 14C21.448 14 21 14.447 21 15V21C21 21.553 21.448 22 22 22C22.552 22 23 21.553 23 21V19C23.552 19 24 18.553 24 18C24 17.447 23.552 17 23 17ZM19 12C18.448 12 18 12.447 18 13V17H6V13C6 12.447 5.552 12 5 12C4.448 12 4 12.447 4 13V23C4 23.553 4.448 24 5 24C5.552 24 6 23.553 6 23V19H18V23C18 23.553 18.448 24 19 24C19.552 24 20 23.553 20 23V13C20 12.447 19.552 12 19 12ZM2 14C1.448 14 1 14.447 1 15V17C0.448 17 0 17.447 0 18C0 18.553 0.448 19 1 19V21C1 21.553 1.448 22 2 22C2.552 22 3 21.553 3 21V15C3 14.447 2.552 14 2 14Z" fill="#7EACE0"/>
</g>
<defs>
<clipPath id="clip0_2034_3938">
<rect width="24" height="24" fill="white"/>
</clipPath>
</defs>
</svg>
