<svg width="24" height="24" viewBox="0 0 24 24" fill="none" xmlns="http://www.w3.org/2000/svg">
<g clip-path="url(#clip0_2034_3930)">
<path d="M14.181 0.206994C14.0368 0.180457 13.8885 0.185951 13.7467 0.223086C13.6049 0.260221 13.4729 0.328089 13.3603 0.421883C13.2476 0.515676 13.1569 0.633101 13.0946 0.765839C13.0324 0.898577 13.0001 1.04338 13 1.18999V4.06899C11.3317 3.84898 9.63633 4.15712 8.15213 4.95013C6.66793 5.74314 5.46943 6.98118 4.72499 8.49033C3.98056 9.99948 3.72758 11.7039 4.00161 13.3642C4.27563 15.0245 5.06289 16.5573 6.25279 17.7472C7.44269 18.9371 8.97545 19.7244 10.6358 19.9984C12.2961 20.2724 14.0005 20.0194 15.5097 19.275C17.0188 18.5306 18.2568 17.3321 19.0499 15.8479C19.8429 14.3637 20.151 12.6683 19.931 11H22.817C22.9636 10.9999 23.1084 10.9676 23.2412 10.9054C23.3739 10.8431 23.4913 10.7524 23.5851 10.6397C23.6789 10.527 23.7468 10.3951 23.7839 10.2533C23.821 10.1114 23.8265 9.96319 23.8 9.81899C23.3511 7.43451 22.1927 5.24113 20.4764 3.52605C18.76 1.81098 16.5658 0.654133 14.181 0.206994ZM16 13H13.723C13.5703 13.2652 13.3586 13.4917 13.1042 13.662C12.8499 13.8322 12.5598 13.9417 12.2564 13.9818C11.953 14.0219 11.6444 13.9917 11.3546 13.8934C11.0647 13.7951 10.8014 13.6314 10.585 13.415C10.3686 13.1986 10.2049 12.9352 10.1066 12.6454C10.0083 12.3556 9.97806 12.047 10.0182 11.7436C10.0583 11.4402 10.1677 11.1501 10.338 10.8958C10.5083 10.6414 10.7348 10.4297 11 10.277V6.99999C11 6.73478 11.1054 6.48042 11.2929 6.29289C11.4804 6.10535 11.7348 5.99999 12 5.99999C12.2652 5.99999 12.5196 6.10535 12.7071 6.29289C12.8946 6.48042 13 6.73478 13 6.99999V10.277C13.2996 10.4513 13.5487 10.7004 13.723 11H16C16.2652 11 16.5196 11.1054 16.7071 11.2929C16.8946 11.4804 17 11.7348 17 12C17 12.2652 16.8946 12.5196 16.7071 12.7071C16.5196 12.8946 16.2652 13 16 13ZM2.986 4.96799C3.18011 5.0049 3.35894 5.09848 3.49991 5.23694C3.64089 5.37539 3.73769 5.5525 3.77809 5.74592C3.81849 5.93933 3.80069 6.14039 3.72693 6.32369C3.65317 6.507 3.52676 6.66435 3.36365 6.77588C3.20054 6.8874 3.00805 6.94811 2.81047 6.95033C2.61289 6.95256 2.41908 6.8962 2.25351 6.78837C2.08793 6.68054 1.95801 6.52608 1.88014 6.34447C1.80228 6.16287 1.77995 5.96227 1.816 5.76799C1.84002 5.63851 1.88938 5.51504 1.96125 5.40468C2.03312 5.29432 2.12608 5.19925 2.23479 5.12492C2.3435 5.05058 2.46583 4.99846 2.59474 4.97153C2.72365 4.9446 2.85662 4.9434 2.986 4.96799ZM1.386 8.95499C1.58011 8.9919 1.75894 9.08548 1.89991 9.22394C2.04089 9.36239 2.13769 9.5395 2.17809 9.73292C2.21849 9.92633 2.20069 10.1274 2.12693 10.3107C2.05317 10.494 1.92676 10.6514 1.76365 10.7629C1.60054 10.8744 1.40805 10.9351 1.21047 10.9373C1.01289 10.9396 0.819082 10.8832 0.653505 10.7754C0.487929 10.6675 0.358008 10.5131 0.280142 10.3315C0.202275 10.1499 0.179954 9.94927 0.215995 9.75499C0.240035 9.62581 0.289299 9.50263 0.360971 9.3925C0.432644 9.28236 0.525319 9.18744 0.633699 9.11314C0.74208 9.03884 0.86404 8.98663 0.992609 8.9595C1.12118 8.93236 1.25383 8.93083 1.383 8.95499H1.386ZM10.128 21.823C10.3223 21.8602 10.5012 21.9541 10.642 22.0929C10.7829 22.2318 10.8795 22.4093 10.9195 22.603C10.9595 22.7967 10.9411 22.9979 10.8668 23.1812C10.7924 23.3645 10.6653 23.5216 10.5017 23.6326C10.338 23.7437 10.1451 23.8037 9.94728 23.8052C9.74949 23.8066 9.55572 23.7493 9.39048 23.6406C9.22524 23.5319 9.09596 23.3766 9.01898 23.1944C8.94199 23.0122 8.92077 22.8113 8.958 22.617C9.00793 22.3572 9.15877 22.1278 9.3775 21.979C9.59622 21.8301 9.86501 21.7741 10.125 21.823H10.128ZM6.008 1.89999C6.20211 1.9369 6.38094 2.03048 6.52191 2.16894C6.66289 2.30739 6.75969 2.4845 6.80009 2.67792C6.84049 2.87133 6.82269 3.07239 6.74893 3.25569C6.67517 3.439 6.54876 3.59635 6.38565 3.70788C6.22254 3.8194 6.03005 3.88011 5.83247 3.88233C5.63489 3.88456 5.44108 3.8282 5.27551 3.72037C5.10993 3.61254 4.98001 3.45808 4.90214 3.27647C4.82428 3.09487 4.80195 2.89427 4.838 2.69999C4.86202 2.57051 4.91138 2.44704 4.98325 2.33668C5.05512 2.22633 5.14808 2.13125 5.25679 2.05692C5.3655 1.98258 5.48783 1.93046 5.61674 1.90353C5.74565 1.8766 5.87862 1.8754 6.008 1.89999ZM10.182 0.208994C10.3758 0.249353 10.5533 0.346325 10.6919 0.487626C10.8306 0.628927 10.9241 0.8082 10.9608 1.00273C10.9975 1.19727 10.9756 1.39831 10.8979 1.58039C10.8202 1.76248 10.6903 1.91741 10.5245 2.02556C10.3587 2.13371 10.1645 2.19022 9.96653 2.18792C9.76858 2.18563 9.57577 2.12463 9.41251 2.01267C9.24926 1.9007 9.12291 1.74279 9.04948 1.55896C8.97604 1.37512 8.95882 1.17363 9 0.979994C9.05501 0.721293 9.21027 0.494921 9.43179 0.350424C9.65332 0.205927 9.92306 0.155073 10.182 0.208994ZM0.233995 14.046C0.270901 13.8519 0.364486 13.673 0.502937 13.5321C0.641389 13.3911 0.818501 13.2943 1.01192 13.2539C1.20534 13.2135 1.40639 13.2313 1.58969 13.3051C1.773 13.3788 1.93035 13.5052 2.04188 13.6683C2.15341 13.8314 2.21411 14.0239 2.21633 14.2215C2.21856 14.4191 2.1622 14.6129 2.05437 14.7785C1.94654 14.9441 1.79208 15.074 1.61047 15.1518C1.42887 15.2297 1.22827 15.252 1.034 15.216C0.904508 15.192 0.781042 15.1426 0.670684 15.0707C0.560326 14.9989 0.465251 14.9059 0.390918 14.7972C0.316584 14.6885 0.264456 14.5662 0.237527 14.4373C0.210598 14.3083 0.209398 14.1754 0.233995 14.046ZM1.915 18.009C1.9519 17.8149 2.04549 17.636 2.18394 17.4951C2.32239 17.3541 2.4995 17.2573 2.69292 17.2169C2.88633 17.1765 3.08739 17.1943 3.27069 17.2681C3.454 17.3418 3.61135 17.4682 3.72288 17.6313C3.8344 17.7944 3.89511 17.9869 3.89733 18.1845C3.89956 18.3821 3.8432 18.5759 3.73537 18.7415C3.62754 18.9071 3.47308 19.037 3.29147 19.1148C3.10987 19.1927 2.90927 19.215 2.715 19.179C2.58551 19.155 2.46204 19.1056 2.35168 19.0337C2.24133 18.9619 2.14625 18.8689 2.07192 18.7602C1.99758 18.6515 1.94546 18.5292 1.91853 18.4002C1.8916 18.2713 1.8904 18.1384 1.915 18.009ZM4.967 21C5.0039 20.8059 5.09749 20.627 5.23594 20.4861C5.37439 20.3451 5.5515 20.2483 5.74492 20.2079C5.93833 20.1675 6.13939 20.1853 6.32269 20.2591C6.506 20.3328 6.66335 20.4592 6.77488 20.6223C6.8864 20.7854 6.94711 20.9779 6.94933 21.1755C6.95156 21.3731 6.8952 21.5669 6.78737 21.7325C6.67954 21.8981 6.52508 22.028 6.34347 22.1058C6.16187 22.1837 5.96127 22.206 5.767 22.17C5.63751 22.146 5.51404 22.0966 5.40368 22.0247C5.29333 21.9529 5.19825 21.8599 5.12392 21.7512C5.04958 21.6425 4.99746 21.5202 4.97053 21.3913C4.9436 21.2623 4.9424 21.1294 4.967 21ZM21.014 19.033C20.8199 18.9961 20.6411 18.9025 20.5001 18.7641C20.3591 18.6256 20.2623 18.4485 20.2219 18.2551C20.1815 18.0617 20.1993 17.8606 20.2731 17.6773C20.3468 17.494 20.4732 17.3366 20.6363 17.2251C20.7994 17.1136 20.9919 17.0529 21.1895 17.0507C21.3871 17.0484 21.5809 17.1048 21.7465 17.2126C21.9121 17.3204 22.042 17.4749 22.1199 17.6565C22.1977 17.8381 22.22 18.0387 22.184 18.233C22.1599 18.3624 22.1104 18.4858 22.0385 18.596C21.9666 18.7062 21.8736 18.8012 21.7649 18.8754C21.6562 18.9497 21.5339 19.0017 21.4051 19.0286C21.2762 19.0554 21.1433 19.0566 21.014 19.032V19.033ZM17.992 22.1C17.7979 22.0631 17.6191 21.9695 17.4781 21.8311C17.3371 21.6926 17.2403 21.5155 17.1999 21.3221C17.1595 21.1287 17.1773 20.9276 17.2511 20.7443C17.3248 20.561 17.4512 20.4036 17.6143 20.2921C17.7775 20.1806 17.9699 20.1199 18.1675 20.1177C18.3651 20.1154 18.5589 20.1718 18.7245 20.2796C18.8901 20.3874 19.02 20.5419 19.0978 20.7235C19.1757 20.9051 19.198 21.1057 19.162 21.3C19.138 21.4295 19.0886 21.5529 19.0167 21.6633C18.9449 21.7737 18.8519 21.8687 18.7432 21.9431C18.6345 22.0174 18.5122 22.0695 18.3833 22.0965C18.2543 22.1234 18.1214 22.1246 17.992 22.1ZM14.053 23.756C13.8587 23.7189 13.6799 23.625 13.539 23.4862C13.3981 23.3475 13.3015 23.17 13.2614 22.9764C13.2214 22.7827 13.2396 22.5815 13.3139 22.3982C13.3881 22.2149 13.5151 22.0578 13.6787 21.9466C13.8422 21.8355 14.0351 21.7753 14.2328 21.7738C14.4306 21.7722 14.6244 21.8294 14.7897 21.9379C14.955 22.0465 15.0844 22.2016 15.1615 22.3837C15.2386 22.5658 15.26 22.7667 15.223 22.961C15.1724 23.2209 15.0208 23.4501 14.8015 23.5983C14.5822 23.7466 14.313 23.8019 14.053 23.752V23.756ZM23.712 14C23.712 14.1978 23.6533 14.3911 23.5435 14.5556C23.4336 14.72 23.2774 14.8482 23.0947 14.9239C22.912 14.9996 22.7109 15.0194 22.5169 14.9808C22.3229 14.9422 22.1447 14.847 22.0049 14.7071C21.865 14.5672 21.7698 14.3891 21.7312 14.1951C21.6926 14.0011 21.7124 13.8 21.7881 13.6173C21.8638 13.4346 21.992 13.2784 22.1564 13.1685C22.3209 13.0586 22.5142 13 22.712 13C22.9772 13 23.2316 13.1054 23.4191 13.2929C23.6066 13.4804 23.712 13.7348 23.712 14Z" fill="#7EACE0"/>
</g>
<defs>
<clipPath id="clip0_2034_3930">
<rect width="24" height="24" fill="white"/>
</clipPath>
</defs>
</svg>
