<svg width="24" height="24" viewBox="0 0 24 24" fill="none" xmlns="http://www.w3.org/2000/svg">
<g clip-path="url(#clip0_2034_3942)">
<path d="M20.5519 12.139C21.1499 9.561 21.5999 6.247 17.9999 6H9.9999V10.584C10.8719 11.441 12.0999 12.471 11.9999 13.827V15.5C11.9999 15.8283 11.9352 16.1534 11.8096 16.4567C11.684 16.76 11.4998 17.0356 11.2677 17.2678C11.0355 17.4999 10.7599 17.6841 10.4566 17.8097C10.1533 17.9353 9.82821 18 9.4999 18H8.4999C7.83686 18 7.20098 17.7366 6.73214 17.2678C6.2633 16.7989 5.9999 16.163 5.9999 15.5V13.829C5.8999 12.476 7.1269 11.439 7.9999 10.586V6H2.9999C2.57803 5.99828 2.16045 6.08464 1.77387 6.25356C1.38729 6.42249 1.04023 6.67025 0.754903 6.981C0.47655 7.28681 0.266079 7.64807 0.137331 8.04103C0.00858346 8.434 -0.0355261 8.84977 0.00790315 9.261C0.405159 13.02 1.46699 16.6785 3.1439 20.066C3.71639 21.2474 4.61063 22.2434 5.72385 22.9393C6.83707 23.6352 8.12407 24.0029 9.4369 24H11.5639C12.6916 24.0024 13.8029 23.7306 14.8022 23.208C15.8015 22.6854 16.6586 21.9276 17.2999 21H18.9999C24.0909 21.162 26.3769 13.16 20.5519 12.139ZM18.9999 19H18.3569C19.0666 17.4119 19.6495 15.7701 20.0999 14.09C21.9909 14.415 21.9999 15.547 21.9999 16C21.9999 16.7956 21.6838 17.5587 21.1212 18.1213C20.5586 18.6839 19.7956 19 18.9999 19ZM9.0259 3V1C9.0259 0.734784 9.13126 0.48043 9.3188 0.292893C9.50633 0.105357 9.76069 0 10.0259 0C10.2911 0 10.5455 0.105357 10.733 0.292893C10.9205 0.48043 11.0259 0.734784 11.0259 1V3C11.0259 3.26522 10.9205 3.51957 10.733 3.70711C10.5455 3.89464 10.2911 4 10.0259 4C9.76069 4 9.50633 3.89464 9.3188 3.70711C9.13126 3.51957 9.0259 3.26522 9.0259 3ZM13.0259 3V1C13.0259 0.734784 13.1313 0.48043 13.3188 0.292893C13.5063 0.105357 13.7607 0 14.0259 0C14.2911 0 14.5455 0.105357 14.733 0.292893C14.9205 0.48043 15.0259 0.734784 15.0259 1V3C15.0259 3.26522 14.9205 3.51957 14.733 3.70711C14.5455 3.89464 14.2911 4 14.0259 4C13.7607 4 13.5063 3.89464 13.3188 3.70711C13.1313 3.51957 13.0259 3.26522 13.0259 3ZM5.0259 3V1C5.0259 0.734784 5.13126 0.48043 5.3188 0.292893C5.50633 0.105357 5.76069 0 6.0259 0C6.29112 0 6.54547 0.105357 6.73301 0.292893C6.92055 0.48043 7.0259 0.734784 7.0259 1V3C7.0259 3.26522 6.92055 3.51957 6.73301 3.70711C6.54547 3.89464 6.29112 4 6.0259 4C5.76069 4 5.50633 3.89464 5.3188 3.70711C5.13126 3.51957 5.0259 3.26522 5.0259 3ZM7.9999 13.829C7.9439 13.278 8.6839 12.771 8.9999 12.414C9.3169 12.777 10.0549 13.274 9.9999 13.829V15.5C9.9999 15.6326 9.94723 15.7598 9.85346 15.8536C9.75969 15.9473 9.63251 16 9.4999 16H8.4999C8.3673 16 8.24012 15.9473 8.14635 15.8536C8.05258 15.7598 7.9999 15.6326 7.9999 15.5V13.829Z" fill="#7EACE0"/>
</g>
<defs>
<clipPath id="clip0_2034_3942">
<rect width="24" height="24" fill="white"/>
</clipPath>
</defs>
</svg>
