<svg width="760" height="706" viewBox="0 0 760 706" fill="none" xmlns="http://www.w3.org/2000/svg">
<g clip-path="url(#clip0_2034_3956)">
<circle cx="355" cy="397" r="159.5" stroke="#092E58" stroke-width="3"/>
<circle cx="355" cy="397" r="285.5" stroke="#5687B9" stroke-opacity="0.25" stroke-width="3" stroke-linecap="round" stroke-dasharray="4 12"/>
<path d="M758.697 703.812C758.697 703.812 662.376 639.06 620.266 632.619C578.137 626.162 472.081 637.572 405.212 618.706C366.988 607.926 265.502 513.072 265.502 487.871C265.502 462.67 313.058 398.757 321.988 387.382C330.901 376.006 386.056 340.568 393.428 346.885C424.822 373.766 347.727 423.538 347.727 423.538C347.727 423.538 345.941 435.544 340.338 450.892" fill="#082C55"/>
<path d="M422.826 610.219C418.291 613.789 412.513 616.711 405.194 618.724L422.826 610.219Z" fill="#082C55"/>
<path d="M343.052 578.262C343.052 578.262 315.229 546.971 304.251 524.99C300.259 516.975 336.766 454.427 340.321 450.91C348.708 442.614 415.21 401.628 422.301 413.721C435.433 436.051 411.252 452.45 379.893 472.103C379.893 472.103 374.36 505.284 362.068 516.975C362.068 516.975 408.801 520.055 432.789 546.481C432.789 546.481 434.575 551.031 436.064 557.909" fill="#082C55"/>
<path d="M268.216 474.833C268.216 474.833 255.066 457.77 252.002 443.542C248.92 429.296 268.216 363.948 268.216 363.948C268.216 363.948 290.593 279.35 307.227 282.395C349.776 290.2 311.027 373.171 311.027 373.171C312.866 387.924 307.385 407.193 307.385 407.193" fill="#082C55"/>
<path d="M251.984 434.004C251.984 434.004 183.119 312.531 193.747 303.676C219.399 282.308 240.113 332.78 240.113 332.78C240.113 332.78 254.366 347.27 264.959 375.376" fill="#082C55"/>
<path d="M400.396 367.029C422.949 376.864 439.548 384.827 439.548 384.827C444.153 402.8 459.334 417.011 459.334 417.011C459.334 417.011 443.278 428.264 416.628 446.709C411.322 450.385 406.858 455.197 403.793 460.867C396.019 475.288 387.404 503.762 416.243 533.303" fill="#082C55"/>
<path d="M324.982 331.117C330.778 336.997 338.657 342.265 349.146 346.15C355.939 348.67 362.838 351.365 369.632 354.096" fill="#082C55"/>
<path d="M988.984 624.674L650.767 485.316C650.767 485.316 610.11 422.261 589.886 406.038C569.663 389.815 542.102 369.864 519.497 355.128C496.91 340.358 328.852 274.275 317.786 282.308C316.805 283.025 315.912 283.97 315.107 285.143" fill="#082C55"/>
<path d="M416.033 310.816C416.033 310.816 419.062 345.118 401.657 359.153L416.033 310.816Z" fill="#082C55"/>
<path d="M495.964 343.368C495.964 343.368 483.2 378.684 439.531 384.844L495.964 343.368Z" fill="#082C55"/>
<path d="M311.027 373.154C311.027 373.154 283.537 382.797 269.529 359.153L311.027 373.154Z" fill="#082C55"/>
<path d="M240.113 332.78C240.113 332.78 229.992 346.728 206.284 346.15L240.113 332.78Z" fill="#082C55"/>
<path d="M260.214 364.088C260.214 364.088 252.405 388.975 225.37 384.827L260.214 364.088Z" fill="#082C55"/>
<path d="M280.368 449.16C280.368 449.16 263.681 456.142 251.984 443.542L280.368 449.16Z" fill="#082C55"/>
<path d="M347.727 423.556C347.727 423.556 323.862 425.271 321.971 387.382L347.727 423.556Z" fill="#082C55"/>
<path d="M317.401 490.181C317.401 490.181 293.01 510.709 265.502 487.871L317.401 490.181Z" fill="#082C55"/>
<path d="M548.161 374.694C548.161 374.694 495.964 371.929 459.334 417.011L548.161 374.694Z" fill="#082C55"/>
<path d="M633.818 480.083C628.11 470.458 587.663 401.103 543.258 392.282C498.853 383.462 430.373 442.159 442.577 467.763C454.782 493.366 555.147 480.101 622.122 500.489C636.882 504.987 639.526 489.691 633.818 480.066V480.083Z" fill="#082C55"/>
<path d="M362.05 516.975C362.05 516.975 332.529 549.596 304.251 524.99L362.05 516.975Z" fill="#082C55"/>
<path d="M379.893 472.103C379.893 472.103 351.79 469.653 340.321 450.91L379.893 472.103Z" fill="#082C55"/>
<path d="M432.247 611.881C447.236 611.881 459.387 599.736 459.387 584.755C459.387 569.774 447.236 557.629 432.247 557.629C417.258 557.629 405.107 569.774 405.107 584.755C405.107 599.736 417.258 611.881 432.247 611.881Z" fill="#082C55"/>
<path d="M432.247 600.733C441.076 600.733 448.233 593.58 448.233 584.755C448.233 575.931 441.076 568.777 432.247 568.777C423.418 568.777 416.26 575.931 416.26 584.755C416.26 593.58 423.418 600.733 432.247 600.733Z" fill="#082C55"/>
<path d="M656.194 619.922C666.793 609.328 666.793 592.153 656.194 581.56C645.595 570.966 628.411 570.966 617.812 581.56C607.213 592.153 607.213 609.328 617.812 619.922C628.411 630.515 645.595 630.515 656.194 619.922Z" fill="#082C55"/>
<path d="M639.582 616.506C648.297 615.092 654.216 606.885 652.801 598.174C651.386 589.464 643.175 583.549 634.46 584.963C625.745 586.377 619.827 594.584 621.241 603.295C622.656 612.005 630.868 617.92 639.582 616.506Z" fill="#082C55"/>
<path d="M615.048 508.574C582.41 493.209 460.542 498.774 441.999 506.404C421.093 515.015 434.978 531.85 443.348 540.531C451.717 549.229 453.381 555.879 475.215 562.337C495.176 568.234 601.74 560.219 616.694 554.146C631.647 548.074 639.491 520.072 615.065 508.574H615.048Z" fill="#082C55"/>
<path d="M650.767 485.316C650.767 485.316 661.238 562.494 621.964 577.44C580.764 562.914 516.678 593.96 458.739 578.822" fill="#082C55"/>
<path d="M687.275 500.367C687.275 500.367 692.738 557.629 662.184 590.618L687.275 500.367Z" fill="#082C55"/>
<path d="M758.697 703.812C758.697 703.812 662.376 639.06 620.266 632.619C578.137 626.162 472.081 637.572 405.212 618.706C366.988 607.926 265.502 513.072 265.502 487.871M265.502 487.871C265.502 462.67 313.058 398.757 321.988 387.382C330.901 376.006 386.056 340.568 393.428 346.885C424.822 373.766 347.727 423.538 347.727 423.538C347.727 423.538 345.941 435.544 340.338 450.892M265.502 487.871C293.01 510.709 317.401 490.181 317.401 490.181M422.826 610.219C418.291 613.789 412.513 616.711 405.194 618.724M343.052 578.262C343.052 578.262 315.229 546.971 304.251 524.99M304.251 524.99C300.259 516.975 336.766 454.427 340.321 450.91M304.251 524.99C332.529 549.596 362.05 516.975 362.05 516.975M340.321 450.91C348.708 442.614 415.21 401.628 422.301 413.721C435.433 436.051 411.252 452.45 379.893 472.103M340.321 450.91C351.79 469.653 379.893 472.103 379.893 472.103M379.893 472.103C379.893 472.103 374.36 505.284 362.068 516.975C362.068 516.975 408.801 520.055 432.789 546.481C432.789 546.481 434.575 551.031 436.064 557.909M268.216 474.833C268.216 474.833 255.066 457.77 252.002 443.542C248.92 429.296 268.216 363.948 268.216 363.948C268.216 363.948 290.593 279.35 307.227 282.395C349.776 290.2 311.027 373.171 311.027 373.171C312.866 387.924 307.385 407.193 307.385 407.193M251.984 434.004C251.984 434.004 183.119 312.531 193.747 303.676C219.399 282.308 240.113 332.78 240.113 332.78M240.113 332.78C240.113 332.78 254.366 347.27 264.959 375.376M240.113 332.78C240.113 332.78 229.992 346.728 206.284 346.15M400.396 367.029C422.949 376.864 439.548 384.827 439.548 384.827C444.153 402.8 459.334 417.011 459.334 417.011M459.334 417.011C459.334 417.011 443.278 428.264 416.628 446.709C411.322 450.385 406.858 455.197 403.793 460.867C396.019 475.288 387.404 503.762 416.243 533.303M459.334 417.011C495.964 371.929 548.161 374.694 548.161 374.694M324.982 331.117C330.778 336.997 338.657 342.265 349.146 346.15C355.939 348.67 362.838 351.365 369.632 354.096M988.984 624.674L650.767 485.316M650.767 485.316C650.767 485.316 610.11 422.261 589.886 406.038C569.663 389.815 542.102 369.864 519.497 355.128C496.91 340.358 328.852 274.275 317.786 282.308C316.805 283.025 315.912 283.97 315.107 285.143M650.767 485.316C650.767 485.316 661.238 562.494 621.964 577.44C580.764 562.914 516.678 593.96 458.739 578.822M416.033 310.816C416.033 310.816 419.062 345.118 401.657 359.153M495.964 343.368C495.964 343.368 483.2 378.684 439.531 384.844M311.027 373.154C311.027 373.154 283.537 382.797 269.529 359.153M260.214 364.088C260.214 364.088 252.405 388.975 225.37 384.827M280.368 449.16C280.368 449.16 263.681 456.142 251.984 443.542M347.727 423.556C347.727 423.556 323.862 425.271 321.971 387.382M867.537 695.832L662.184 590.6M687.275 500.367C687.275 500.367 692.738 557.629 662.184 590.618M633.818 480.083C628.11 470.458 587.662 401.103 543.258 392.282C498.853 383.462 430.373 442.159 442.577 467.763C454.782 493.366 555.147 480.101 622.122 500.489C636.882 504.987 639.526 489.691 633.818 480.066V480.083ZM459.387 584.755C459.387 599.736 447.236 611.881 432.247 611.881C417.258 611.881 405.107 599.736 405.107 584.755C405.107 569.774 417.258 557.629 432.247 557.629C447.236 557.629 459.387 569.774 459.387 584.755ZM448.233 584.755C448.233 593.58 441.076 600.733 432.247 600.733C423.418 600.733 416.26 593.58 416.26 584.755C416.26 575.931 423.418 568.777 432.247 568.777C441.076 568.777 448.233 575.931 448.233 584.755ZM656.194 581.56C666.793 592.153 666.793 609.328 656.194 619.922C645.595 630.515 628.411 630.515 617.812 619.922C607.213 609.328 607.213 592.153 617.812 581.56C628.411 570.966 645.595 570.966 656.194 581.56ZM652.801 598.174C654.216 606.885 648.297 615.092 639.582 616.506C630.868 617.92 622.656 612.005 621.241 603.295C619.827 594.584 625.745 586.377 634.46 584.963C643.175 583.549 651.386 589.464 652.801 598.174ZM615.048 508.574C582.41 493.209 460.542 498.774 441.999 506.404C421.093 515.015 434.978 531.85 443.348 540.531C451.717 549.229 453.381 555.879 475.215 562.337C495.176 568.234 601.74 560.219 616.694 554.146C631.647 548.074 639.491 520.072 615.065 508.574H615.048Z" stroke="#5687B9" stroke-width="5" stroke-miterlimit="10"/>
<g filter="url(#filter0_d_2034_3956)">
<rect x="472" y="159" width="119.25" height="119.25" rx="26" fill="#002147" shape-rendering="crispEdges"/>
<rect x="472" y="159" width="119.25" height="119.25" rx="26" stroke="#5687B9" stroke-opacity="0.25" stroke-width="3" stroke-linecap="round" stroke-dasharray="8 8" shape-rendering="crispEdges"/>
</g>
<g filter="url(#filter1_d_2034_3956)">
<rect x="484" y="171" width="95.25" height="95.25" rx="16" fill="#1B518D"/>
</g>
<g clip-path="url(#clip1_2034_3956)">
<path d="M554 214.633C554 211.725 551.634 209.359 548.727 209.359H546.924C545.954 209.359 545.167 210.146 545.167 211.117C545.167 212.088 545.954 212.875 546.924 212.875H548.727C549.696 212.875 550.484 213.664 550.484 214.633V221.664C550.484 222.633 549.696 223.422 548.727 223.422H514.273C513.304 223.422 512.516 222.633 512.516 221.664V214.633C512.516 213.664 513.304 212.875 514.273 212.875H516.076C517.046 212.875 517.833 212.088 517.833 211.117C517.833 210.146 517.046 209.359 516.076 209.359H514.273C511.366 209.359 509 211.725 509 214.633V221.664C509 223.014 509.51 224.246 510.347 225.18C509.51 226.113 509 227.346 509 228.695V235.727C509 238.634 511.366 241 514.273 241H548.727C551.634 241 554 238.634 554 235.727V228.695C554 227.346 553.49 226.113 552.653 225.18C553.49 224.246 554 223.014 554 221.664V214.633ZM550.484 235.727C550.484 236.696 549.696 237.484 548.727 237.484H514.273C513.304 237.484 512.516 236.696 512.516 235.727V228.695C512.516 227.726 513.304 226.938 514.273 226.938H548.727C549.696 226.938 550.484 227.726 550.484 228.695V235.727Z" fill="white"/>
<path d="M545.562 230.453H542.047C541.076 230.453 540.289 231.24 540.289 232.211C540.289 233.182 541.076 233.969 542.047 233.969H545.562C546.533 233.969 547.32 233.182 547.32 232.211C547.32 231.24 546.533 230.453 545.562 230.453Z" fill="white"/>
<path d="M542.047 219.906H545.562C546.533 219.906 547.32 219.119 547.32 218.148C547.32 217.178 546.533 216.391 545.562 216.391H542.047C541.076 216.391 540.289 217.178 540.289 218.148C540.289 219.119 541.076 219.906 542.047 219.906Z" fill="white"/>
<path d="M517.438 233.969C518.408 233.969 519.195 233.182 519.195 232.211C519.195 231.24 518.408 230.453 517.438 230.453C516.467 230.453 515.68 231.24 515.68 232.211C515.68 233.182 516.467 233.969 517.438 233.969Z" fill="white"/>
<path d="M524.469 233.969C525.44 233.969 526.227 233.182 526.227 232.211C526.227 231.24 525.44 230.453 524.469 230.453C523.498 230.453 522.711 231.24 522.711 232.211C522.711 233.182 523.498 233.969 524.469 233.969Z" fill="white"/>
<path d="M517.438 219.906C518.408 219.906 519.195 219.119 519.195 218.148C519.195 217.178 518.408 216.391 517.438 216.391C516.467 216.391 515.68 217.178 515.68 218.148C515.68 219.119 516.467 219.906 517.438 219.906Z" fill="white"/>
<path d="M531.5 219.906C530.215 219.906 528.976 219.438 528.013 218.589L524.528 215.515C522.256 213.513 520.953 210.628 520.953 207.602V203.031C520.953 201.73 521.667 200.541 522.815 199.928L529.021 196.618C529.779 196.214 530.636 196 531.5 196C532.364 196 533.221 196.214 533.979 196.618L540.185 199.928C541.333 200.541 542.047 201.73 542.047 203.031V207.602C542.047 210.627 540.744 213.512 538.474 215.514L534.987 218.589C534.024 219.438 532.785 219.906 531.5 219.906ZM524.47 203.03L524.469 207.602C524.469 209.619 525.338 211.543 526.853 212.878L530.338 215.952C530.659 216.235 531.072 216.391 531.5 216.391C531.928 216.391 532.341 216.235 532.662 215.952L536.148 212.877C537.663 211.542 538.531 209.619 538.531 207.602V203.031L532.325 199.72C532.07 199.585 531.793 199.516 531.5 199.516C531.207 199.516 530.93 199.585 530.675 199.72L524.47 203.03Z" fill="white"/>
</g>
<g filter="url(#filter2_d_2034_3956)">
<rect x="57" y="479" width="119.25" height="119.25" rx="26" fill="#002147" shape-rendering="crispEdges"/>
<rect x="57" y="479" width="119.25" height="119.25" rx="26" stroke="#5687B9" stroke-opacity="0.25" stroke-width="3" stroke-linecap="round" stroke-dasharray="8 8" shape-rendering="crispEdges"/>
</g>
<g filter="url(#filter3_d_2034_3956)">
<rect x="69" y="491" width="95.25" height="95.25" rx="16" fill="#5687B9"/>
</g>
<g clip-path="url(#clip2_2034_3956)">
<path d="M137.248 536.742H136.027C135.383 527.565 127.441 519.623 118.264 518.979V517.758C118.264 516.787 117.477 516 116.506 516C115.535 516 114.748 516.787 114.748 517.758V518.979C105.57 519.623 97.6284 527.565 96.9848 536.742H95.7634C94.7926 536.742 94.0056 537.529 94.0056 538.5C94.0056 539.471 94.7926 540.258 95.7634 540.258H96.9847C97.6283 549.435 105.571 557.377 114.748 558.021V559.242C114.748 560.213 115.535 561 116.506 561C117.476 561 118.263 560.213 118.263 559.242V558.021C127.441 557.377 135.383 549.435 136.027 540.258H137.248C139.577 540.172 139.576 536.828 137.248 536.742ZM118.264 554.488V552.826C118.264 551.855 117.477 551.068 116.506 551.068C115.535 551.068 114.748 551.855 114.748 552.826V554.488C107.281 553.672 101.334 547.725 100.518 540.258H102.179C103.15 540.258 103.937 539.471 103.937 538.5C103.937 537.529 103.15 536.742 102.179 536.742H100.518C101.334 529.275 107.281 523.328 114.748 522.512V524.174C114.748 525.145 115.535 525.932 116.506 525.932C117.476 525.932 118.263 525.145 118.263 524.174V522.512C125.731 523.328 131.678 529.275 132.493 536.742H130.832C129.861 536.742 129.074 537.529 129.074 538.5C129.074 539.471 129.861 540.258 130.832 540.258H132.493C131.678 547.725 125.731 553.672 118.264 554.488ZM123.662 541.576C126.214 541.715 126.33 538.068 123.786 538.061C124.534 537.436 125.07 536.538 125.192 535.605C125.415 533.517 122.556 532.836 121.8 534.77C121.266 534.263 120.631 533.874 119.919 533.614C124.237 529.977 119.393 527.337 118.259 530.22C117.6 531.666 115.499 531.867 114.84 530.22C113.756 527.395 108.904 529.853 113.106 533.606C113.106 533.607 113.106 533.608 113.105 533.609C112.358 533.88 111.695 534.292 111.144 534.833C110.444 532.834 107.508 533.48 107.731 535.605C107.853 536.533 108.411 537.432 109.191 538.061C106.67 538.108 106.821 541.719 109.349 541.576C108.437 542.2 107.773 543.166 107.644 544.159C107.416 546.078 110.022 546.965 110.965 545.159C114.521 550.106 118.498 550.097 122.046 545.159C122.99 546.966 125.596 546.077 125.368 544.159C125.238 543.166 124.574 542.2 123.662 541.576ZM118.31 544.176C116.8 545.725 116.215 545.73 114.702 544.176C113.587 543.053 112.896 541.85 112.896 539.327C112.884 537.672 113.857 536.705 115.363 536.742H117.648C118.242 536.742 119.054 536.875 119.552 537.505C119.931 537.985 120.115 538.581 120.115 539.327C120.115 541.85 119.424 543.053 118.31 544.176Z" fill="white"/>
</g>
<g filter="url(#filter4_d_2034_3956)">
<rect x="57" y="163" width="119.25" height="119.25" rx="26" fill="#002147" shape-rendering="crispEdges"/>
<rect x="57" y="163" width="119.25" height="119.25" rx="26" stroke="#5687B9" stroke-opacity="0.25" stroke-width="3" stroke-linecap="round" stroke-dasharray="8 8" shape-rendering="crispEdges"/>
</g>
<g filter="url(#filter5_d_2034_3956)">
<rect x="69" y="175" width="95.25" height="95.25" rx="16" fill="#F08021"/>
</g>
<path d="M131.269 210.284C129.184 209.599 127.733 207.689 127.657 205.532C127.574 203.181 125.772 201.163 123.371 200.735C120.638 200.247 117.934 200 115.336 200C112.738 200 110.034 200.247 107.301 200.735C104.901 201.163 103.098 203.181 103.014 205.534C102.937 207.69 101.487 209.599 99.4055 210.284C97.3685 210.954 96 212.951 96 215.251V217.574C96 223.256 97.6115 228.787 100.66 233.568C103.696 238.33 108.005 242.113 113.12 244.508C113.814 244.833 114.575 244.996 115.336 244.996C116.097 244.996 116.858 244.833 117.552 244.508C118.687 243.977 119.798 243.368 120.854 242.699C121.674 242.18 121.918 241.094 121.399 240.274C120.879 239.454 119.794 239.21 118.973 239.729C118.042 240.319 117.062 240.856 116.061 241.324C115.614 241.534 115.058 241.534 114.611 241.324C105.441 237.031 99.5156 227.708 99.5156 217.574V215.251C99.5156 214.497 99.9315 213.812 100.505 213.623C103.978 212.48 106.398 209.279 106.528 205.659C106.553 204.962 107.151 204.333 107.918 204.196C110.448 203.744 112.944 203.516 115.336 203.516C117.728 203.516 120.224 203.744 122.754 204.196C123.522 204.333 124.119 204.96 124.143 205.656C124.271 209.278 126.693 212.48 130.17 213.624C130.742 213.812 131.156 214.494 131.156 215.247V217.574C131.156 223.139 129.435 228.458 126.178 232.958C125.608 233.744 125.784 234.843 126.571 235.412C127.357 235.981 128.456 235.805 129.025 235.019C132.719 229.916 134.672 223.884 134.672 217.574V215.247C134.672 212.948 133.304 210.954 131.269 210.284Z" fill="white"/>
<path d="M125.349 225.9L123.673 224.932C123.966 224.057 124.125 223.121 124.125 222.148C124.125 221.176 123.966 220.24 123.673 219.365L125.349 218.397C126.19 217.912 126.478 216.837 125.992 215.996C125.507 215.155 124.432 214.867 123.591 215.353L121.911 216.323C120.671 214.925 118.993 213.923 117.094 213.536V211.602C117.094 210.631 116.307 209.844 115.336 209.844C114.365 209.844 113.578 210.631 113.578 211.602V213.536C111.679 213.923 110.002 214.925 108.761 216.323L107.081 215.353C106.24 214.867 105.165 215.155 104.68 215.996C104.194 216.837 104.483 217.912 105.323 218.397L106.999 219.365C106.706 220.24 106.547 221.176 106.547 222.148C106.547 223.121 106.706 224.057 106.999 224.932L105.323 225.9C104.483 226.385 104.194 227.46 104.68 228.301C105.165 229.142 106.24 229.43 107.081 228.944L108.761 227.974C110.001 229.372 111.679 230.374 113.578 230.761V232.695C113.578 233.666 114.365 234.453 115.336 234.453C116.307 234.453 117.094 233.666 117.094 232.695V230.761C118.993 230.374 120.671 229.372 121.911 227.974L123.591 228.944C124.432 229.43 125.507 229.141 125.992 228.301C126.478 227.46 126.19 226.385 125.349 225.9ZM115.336 227.422C112.428 227.422 110.063 225.056 110.063 222.148C110.063 219.241 112.428 216.875 115.336 216.875C118.244 216.875 120.609 219.241 120.609 222.148C120.609 225.056 118.244 227.422 115.336 227.422Z" fill="white"/>
<path d="M115.336 223.906C116.307 223.906 117.094 223.119 117.094 222.148C117.094 221.178 116.307 220.391 115.336 220.391C114.365 220.391 113.578 221.178 113.578 222.148C113.578 223.119 114.365 223.906 115.336 223.906Z" fill="white"/>
<path d="M129.398 245C128.949 245 128.499 244.828 128.156 244.485L124.64 240.97C123.953 240.283 123.953 239.17 124.64 238.484C125.326 237.797 126.439 237.797 127.126 238.484L129.398 240.756L135.187 234.968C135.873 234.281 136.986 234.281 137.673 234.968C138.359 235.654 138.359 236.767 137.673 237.454L130.641 244.485C130.298 244.828 129.848 245 129.398 245Z" fill="white"/>
</g>
<defs>
<filter id="filter0_d_2034_3956" x="425.5" y="122.5" width="212.25" height="212.25" filterUnits="userSpaceOnUse" color-interpolation-filters="sRGB">
<feFlood flood-opacity="0" result="BackgroundImageFix"/>
<feColorMatrix in="SourceAlpha" type="matrix" values="0 0 0 0 0 0 0 0 0 0 0 0 0 0 0 0 0 0 127 0" result="hardAlpha"/>
<feOffset dy="10"/>
<feGaussianBlur stdDeviation="22.5"/>
<feComposite in2="hardAlpha" operator="out"/>
<feColorMatrix type="matrix" values="0 0 0 0 0.0108248 0 0 0 0 0.0576239 0 0 0 0 0.111514 0 0 0 0.3 0"/>
<feBlend mode="normal" in2="BackgroundImageFix" result="effect1_dropShadow_2034_3956"/>
<feBlend mode="normal" in="SourceGraphic" in2="effect1_dropShadow_2034_3956" result="shape"/>
</filter>
<filter id="filter1_d_2034_3956" x="439" y="136" width="185.25" height="185.25" filterUnits="userSpaceOnUse" color-interpolation-filters="sRGB">
<feFlood flood-opacity="0" result="BackgroundImageFix"/>
<feColorMatrix in="SourceAlpha" type="matrix" values="0 0 0 0 0 0 0 0 0 0 0 0 0 0 0 0 0 0 127 0" result="hardAlpha"/>
<feOffset dy="10"/>
<feGaussianBlur stdDeviation="22.5"/>
<feComposite in2="hardAlpha" operator="out"/>
<feColorMatrix type="matrix" values="0 0 0 0 0.0108248 0 0 0 0 0.0576239 0 0 0 0 0.111514 0 0 0 0.3 0"/>
<feBlend mode="normal" in2="BackgroundImageFix" result="effect1_dropShadow_2034_3956"/>
<feBlend mode="normal" in="SourceGraphic" in2="effect1_dropShadow_2034_3956" result="shape"/>
</filter>
<filter id="filter2_d_2034_3956" x="10.5" y="442.5" width="212.25" height="212.25" filterUnits="userSpaceOnUse" color-interpolation-filters="sRGB">
<feFlood flood-opacity="0" result="BackgroundImageFix"/>
<feColorMatrix in="SourceAlpha" type="matrix" values="0 0 0 0 0 0 0 0 0 0 0 0 0 0 0 0 0 0 127 0" result="hardAlpha"/>
<feOffset dy="10"/>
<feGaussianBlur stdDeviation="22.5"/>
<feComposite in2="hardAlpha" operator="out"/>
<feColorMatrix type="matrix" values="0 0 0 0 0.0108248 0 0 0 0 0.0576239 0 0 0 0 0.111514 0 0 0 0.3 0"/>
<feBlend mode="normal" in2="BackgroundImageFix" result="effect1_dropShadow_2034_3956"/>
<feBlend mode="normal" in="SourceGraphic" in2="effect1_dropShadow_2034_3956" result="shape"/>
</filter>
<filter id="filter3_d_2034_3956" x="24" y="456" width="185.25" height="185.25" filterUnits="userSpaceOnUse" color-interpolation-filters="sRGB">
<feFlood flood-opacity="0" result="BackgroundImageFix"/>
<feColorMatrix in="SourceAlpha" type="matrix" values="0 0 0 0 0 0 0 0 0 0 0 0 0 0 0 0 0 0 127 0" result="hardAlpha"/>
<feOffset dy="10"/>
<feGaussianBlur stdDeviation="22.5"/>
<feComposite in2="hardAlpha" operator="out"/>
<feColorMatrix type="matrix" values="0 0 0 0 0.0108248 0 0 0 0 0.0576239 0 0 0 0 0.111514 0 0 0 0.3 0"/>
<feBlend mode="normal" in2="BackgroundImageFix" result="effect1_dropShadow_2034_3956"/>
<feBlend mode="normal" in="SourceGraphic" in2="effect1_dropShadow_2034_3956" result="shape"/>
</filter>
<filter id="filter4_d_2034_3956" x="10.5" y="126.5" width="212.25" height="212.25" filterUnits="userSpaceOnUse" color-interpolation-filters="sRGB">
<feFlood flood-opacity="0" result="BackgroundImageFix"/>
<feColorMatrix in="SourceAlpha" type="matrix" values="0 0 0 0 0 0 0 0 0 0 0 0 0 0 0 0 0 0 127 0" result="hardAlpha"/>
<feOffset dy="10"/>
<feGaussianBlur stdDeviation="22.5"/>
<feComposite in2="hardAlpha" operator="out"/>
<feColorMatrix type="matrix" values="0 0 0 0 0.0108248 0 0 0 0 0.0576239 0 0 0 0 0.111514 0 0 0 0.3 0"/>
<feBlend mode="normal" in2="BackgroundImageFix" result="effect1_dropShadow_2034_3956"/>
<feBlend mode="normal" in="SourceGraphic" in2="effect1_dropShadow_2034_3956" result="shape"/>
</filter>
<filter id="filter5_d_2034_3956" x="24" y="140" width="185.25" height="185.25" filterUnits="userSpaceOnUse" color-interpolation-filters="sRGB">
<feFlood flood-opacity="0" result="BackgroundImageFix"/>
<feColorMatrix in="SourceAlpha" type="matrix" values="0 0 0 0 0 0 0 0 0 0 0 0 0 0 0 0 0 0 127 0" result="hardAlpha"/>
<feOffset dy="10"/>
<feGaussianBlur stdDeviation="22.5"/>
<feComposite in2="hardAlpha" operator="out"/>
<feColorMatrix type="matrix" values="0 0 0 0 0.0108248 0 0 0 0 0.0576239 0 0 0 0 0.111514 0 0 0 0.3 0"/>
<feBlend mode="normal" in2="BackgroundImageFix" result="effect1_dropShadow_2034_3956"/>
<feBlend mode="normal" in="SourceGraphic" in2="effect1_dropShadow_2034_3956" result="shape"/>
</filter>
<clipPath id="clip0_2034_3956">
<rect width="760" height="706" fill="white"/>
</clipPath>
<clipPath id="clip1_2034_3956">
<rect width="45" height="45" fill="white" transform="translate(509 196)"/>
</clipPath>
<clipPath id="clip2_2034_3956">
<rect width="45" height="45" fill="white" transform="translate(94 516)"/>
</clipPath>
</defs>
</svg>
