<svg width="152" height="366" viewBox="0 0 152 366" fill="none" xmlns="http://www.w3.org/2000/svg">
<path fill-rule="evenodd" clip-rule="evenodd" d="M3.41667 2C3.41667 2.82843 2.74509 3.5 1.91667 3.5H0V2V0.5H1.91667C2.74509 0.5 3.41667 1.17157 3.41667 2ZM13.4167 0.5C12.5882 0.5 11.9167 1.17157 11.9167 2C11.9167 2.82843 12.5882 3.5 13.4167 3.5H17.25C18.0784 3.5 18.75 2.82843 18.75 2C18.75 1.17157 18.0784 0.5 17.25 0.5H13.4167ZM28.75 0.5C27.9216 0.5 27.25 1.17157 27.25 2C27.25 2.82843 27.9216 3.5 28.75 3.5H32.5833C33.4118 3.5 34.0833 2.82843 34.0833 2C34.0833 1.17157 33.4118 0.5 32.5833 0.5H28.75ZM44.0833 0.5C43.2549 0.5 42.5833 1.17157 42.5833 2C42.5833 2.82843 43.2549 3.5 44.0833 3.5H46C46.3922 3.5 46.7825 3.50791 47.1707 3.52359C47.4037 3.53299 47.6358 3.54518 47.8672 3.56014C48.6939 3.61356 49.4074 2.98669 49.4608 2.15999C49.5143 1.33329 48.8874 0.619805 48.0607 0.566381C47.8644 0.553696 47.6676 0.542811 47.4704 0.533741C46.983 0.511326 46.4928 0.5 46 0.5H44.0833ZM57.9267 4.42333C58.2937 3.68062 59.1933 3.37601 59.936 3.74297C61.1732 4.35428 62.3644 5.04435 63.503 5.80659C64.1913 6.26746 64.3758 7.19912 63.9149 7.88752C63.4541 8.57592 62.5224 8.76036 61.834 8.29949C60.8037 7.60972 59.7261 6.98546 58.6071 6.43259C57.8644 6.06563 57.5598 5.16605 57.9267 4.42333ZM70.1125 14.0851C70.8009 13.6242 71.7325 13.8087 72.1934 14.4971C72.9557 15.6356 73.6457 16.8268 74.257 18.064C74.624 18.8067 74.3194 19.7063 73.5767 20.0733C72.834 20.4402 71.9344 20.1356 71.5674 19.3929C71.0145 18.2739 70.3903 17.1963 69.7005 16.166C69.2396 15.4776 69.4241 14.5459 70.1125 14.0851ZM75.84 28.5392C76.6667 28.4857 77.3802 29.1126 77.4336 29.9393C77.4391 30.0245 77.4443 30.1097 77.4491 30.1951C77.4829 30.7926 77.5 31.3944 77.5 32V33.9881C77.5 34.8165 76.8284 35.4881 76 35.4881C75.1716 35.4881 74.5 34.8165 74.5 33.9881V32C74.5 31.3724 74.4797 30.7498 74.4399 30.1328C74.3864 29.3061 75.0133 28.5926 75.84 28.5392ZM74.5 45.9167C74.5 45.0882 75.1716 44.4167 76 44.4167C76.8284 44.4167 77.5 45.0882 77.5 45.9167V49.8929C77.5 50.7213 76.8284 51.3929 76 51.3929C75.1716 51.3929 74.5 50.7213 74.5 49.8929V45.9167ZM74.5 61.8214C74.5 60.993 75.1716 60.3214 76 60.3214C76.8284 60.3214 77.5 60.993 77.5 61.8214V65.7976C77.5 66.626 76.8284 67.2976 76 67.2976C75.1716 67.2976 74.5 66.626 74.5 65.7976V61.8214ZM74.5 77.7262C74.5 76.8978 75.1716 76.2262 76 76.2262C76.8284 76.2262 77.5 76.8978 77.5 77.7262V81.7024C77.5 82.5308 76.8284 83.2024 76 83.2024C75.1716 83.2024 74.5 82.5308 74.5 81.7024V77.7262ZM74.5 93.631C74.5 92.8025 75.1716 92.131 76 92.131C76.8284 92.131 77.5 92.8025 77.5 93.631V97.6071C77.5 98.4356 76.8284 99.1071 76 99.1071C75.1716 99.1071 74.5 98.4356 74.5 97.6071V93.631ZM74.5 109.536C74.5 108.707 75.1716 108.036 76 108.036C76.8284 108.036 77.5 108.707 77.5 109.536V113.512C77.5 114.34 76.8284 115.012 76 115.012C75.1716 115.012 74.5 114.34 74.5 113.512V109.536ZM74.5 125.44C74.5 124.612 75.1716 123.94 76 123.94C76.8284 123.94 77.5 124.612 77.5 125.44V129.417C77.5 130.245 76.8284 130.917 76 130.917C75.1716 130.917 74.5 130.245 74.5 129.417V125.44ZM74.5 141.345C74.5 140.517 75.1716 139.845 76 139.845C76.8284 139.845 77.5 140.517 77.5 141.345V145.321C77.5 146.15 76.8284 146.821 76 146.821C75.1716 146.821 74.5 146.15 74.5 145.321V141.345ZM74.5 157.25C74.5 156.422 75.1716 155.75 76 155.75C76.8284 155.75 77.5 156.422 77.5 157.25V161.226C77.5 162.055 76.8284 162.726 76 162.726C75.1716 162.726 74.5 162.055 74.5 161.226V157.25ZM74.5 173.155C74.5 172.326 75.1716 171.655 76 171.655C76.8284 171.655 77.5 172.326 77.5 173.155V177.131C77.5 177.959 76.8284 178.631 76 178.631C75.1716 178.631 74.5 177.959 74.5 177.131V173.155ZM74.5 189.06C74.5 188.231 75.1716 187.56 76 187.56C76.8284 187.56 77.5 188.231 77.5 189.06V193.036C77.5 193.864 76.8284 194.536 76 194.536C75.1716 194.536 74.5 193.864 74.5 193.036V189.06ZM74.5 204.964C74.5 204.136 75.1716 203.464 76 203.464C76.8284 203.464 77.5 204.136 77.5 204.964V208.941C77.5 209.769 76.8284 210.441 76 210.441C75.1716 210.441 74.5 209.769 74.5 208.941V204.964ZM74.5 220.869C74.5 220.041 75.1716 219.369 76 219.369C76.8284 219.369 77.5 220.041 77.5 220.869V224.845C77.5 225.674 76.8284 226.345 76 226.345C75.1716 226.345 74.5 225.674 74.5 224.845V220.869ZM74.5 236.774C74.5 235.945 75.1716 235.274 76 235.274C76.8284 235.274 77.5 235.945 77.5 236.774V240.75C77.5 241.578 76.8284 242.25 76 242.25C75.1716 242.25 74.5 241.578 74.5 240.75V236.774ZM74.5 252.679C74.5 251.85 75.1716 251.179 76 251.179C76.8284 251.179 77.5 251.85 77.5 252.679V256.655C77.5 257.483 76.8284 258.155 76 258.155C75.1716 258.155 74.5 257.483 74.5 256.655V252.679ZM74.5 268.583C74.5 267.755 75.1716 267.083 76 267.083C76.8284 267.083 77.5 267.755 77.5 268.583V272.56C77.5 273.388 76.8284 274.06 76 274.06C75.1716 274.06 74.5 273.388 74.5 272.56V268.583ZM74.5 284.488C74.5 283.66 75.1716 282.988 76 282.988C76.8284 282.988 77.5 283.66 77.5 284.488V288.464C77.5 289.293 76.8284 289.964 76 289.964C75.1716 289.964 74.5 289.293 74.5 288.464V284.488ZM74.5 300.393C74.5 299.564 75.1716 298.893 76 298.893C76.8284 298.893 77.5 299.564 77.5 300.393V304.369C77.5 305.198 76.8284 305.869 76 305.869C75.1716 305.869 74.5 305.198 74.5 304.369V300.393ZM74.5 316.298C74.5 315.469 75.1716 314.798 76 314.798C76.8284 314.798 77.5 315.469 77.5 316.298V320.274C77.5 321.102 76.8284 321.774 76 321.774C75.1716 321.774 74.5 321.102 74.5 320.274V316.298ZM74.5 332.202C74.5 331.374 75.1716 330.702 76 330.702C76.8284 330.702 77.5 331.374 77.5 332.202V336.179C77.5 337.007 76.8284 337.679 76 337.679C75.1716 337.679 74.5 337.007 74.5 336.179V332.202ZM74.5 348.107C74.5 347.279 75.1716 346.607 76 346.607C76.8284 346.607 77.5 347.279 77.5 348.107V352.083C77.5 352.912 76.8284 353.583 76 353.583C75.1716 353.583 74.5 352.912 74.5 352.083V348.107ZM74.5 364.012C74.5 363.184 75.1716 362.512 76 362.512C76.8284 362.512 77.5 363.184 77.5 364.012V366H76H74.5V364.012Z" fill="#2B5480"/>
<path fill-rule="evenodd" clip-rule="evenodd" d="M76 362.512C76.8284 362.512 77.5 363.183 77.5 364.012V366H76H74.5V364.012C74.5 363.183 75.1716 362.512 76 362.512ZM74.5 352.083C74.5 352.912 75.1716 353.583 76 353.583C76.8284 353.583 77.5 352.912 77.5 352.083V348.107C77.5 347.279 76.8284 346.607 76 346.607C75.1716 346.607 74.5 347.279 74.5 348.107V352.083ZM74.5 336.179C74.5 337.007 75.1716 337.679 76 337.679C76.8284 337.679 77.5 337.007 77.5 336.179V332.202C77.5 331.374 76.8284 330.702 76 330.702C75.1716 330.702 74.5 331.374 74.5 332.202V336.179ZM74.5 320.274C74.5 321.102 75.1716 321.774 76 321.774C76.8284 321.774 77.5 321.102 77.5 320.274V316.298C77.5 315.469 76.8284 314.798 76 314.798C75.1716 314.798 74.5 315.469 74.5 316.298V320.274ZM74.5 304.369C74.5 305.197 75.1716 305.869 76 305.869C76.8284 305.869 77.5 305.197 77.5 304.369V300.393C77.5 299.564 76.8284 298.893 76 298.893C75.1716 298.893 74.5 299.564 74.5 300.393V304.369ZM74.5 288.464C74.5 289.293 75.1716 289.964 76 289.964C76.8284 289.964 77.5 289.293 77.5 288.464V284.488C77.5 283.66 76.8284 282.988 76 282.988C75.1716 282.988 74.5 283.66 74.5 284.488V288.464ZM74.5 272.56C74.5 273.388 75.1716 274.06 76 274.06C76.8284 274.06 77.5 273.388 77.5 272.56V268.583C77.5 267.755 76.8284 267.083 76 267.083C75.1716 267.083 74.5 267.755 74.5 268.583V272.56ZM74.5 256.655C74.5 257.483 75.1716 258.155 76 258.155C76.8284 258.155 77.5 257.483 77.5 256.655V252.679C77.5 251.85 76.8284 251.179 76 251.179C75.1716 251.179 74.5 251.85 74.5 252.679V256.655ZM74.5 240.75C74.5 241.578 75.1716 242.25 76 242.25C76.8284 242.25 77.5 241.578 77.5 240.75V236.774C77.5 235.945 76.8284 235.274 76 235.274C75.1716 235.274 74.5 235.945 74.5 236.774V240.75ZM74.5 224.845C74.5 225.674 75.1716 226.345 76 226.345C76.8284 226.345 77.5 225.674 77.5 224.845V220.869C77.5 220.041 76.8284 219.369 76 219.369C75.1716 219.369 74.5 220.041 74.5 220.869V224.845ZM74.5 208.94C74.5 209.769 75.1716 210.44 76 210.44C76.8284 210.44 77.5 209.769 77.5 208.94V204.964C77.5 204.136 76.8284 203.464 76 203.464C75.1716 203.464 74.5 204.136 74.5 204.964V208.94ZM74.5 193.036C74.5 193.864 75.1716 194.536 76 194.536C76.8284 194.536 77.5 193.864 77.5 193.036V189.06C77.5 188.231 76.8284 187.56 76 187.56C75.1716 187.56 74.5 188.231 74.5 189.06V193.036ZM74.5 177.131C74.5 177.959 75.1716 178.631 76 178.631C76.8284 178.631 77.5 177.959 77.5 177.131V173.155C77.5 172.326 76.8284 171.655 76 171.655C75.1716 171.655 74.5 172.326 74.5 173.155V177.131ZM74.5 161.226C74.5 162.055 75.1716 162.726 76 162.726C76.8284 162.726 77.5 162.055 77.5 161.226V157.25C77.5 156.422 76.8284 155.75 76 155.75C75.1716 155.75 74.5 156.422 74.5 157.25V161.226ZM74.5 145.321C74.5 146.15 75.1716 146.821 76 146.821C76.8284 146.821 77.5 146.15 77.5 145.321V141.345C77.5 140.517 76.8284 139.845 76 139.845C75.1716 139.845 74.5 140.517 74.5 141.345V145.321ZM74.5 129.417C74.5 130.245 75.1716 130.917 76 130.917C76.8284 130.917 77.5 130.245 77.5 129.417V125.44C77.5 124.612 76.8284 123.94 76 123.94C75.1716 123.94 74.5 124.612 74.5 125.44V129.417ZM74.5 113.512C74.5 114.34 75.1716 115.012 76 115.012C76.8284 115.012 77.5 114.34 77.5 113.512V109.536C77.5 108.707 76.8284 108.036 76 108.036C75.1716 108.036 74.5 108.707 74.5 109.536V113.512ZM74.5 97.6071C74.5 98.4355 75.1716 99.1071 76 99.1071C76.8284 99.1071 77.5 98.4355 77.5 97.6071V93.6309C77.5 92.8025 76.8284 92.1309 76 92.1309C75.1716 92.1309 74.5 92.8025 74.5 93.6309V97.6071ZM74.5 81.7023C74.5 82.5308 75.1716 83.2023 76 83.2023C76.8284 83.2023 77.5 82.5308 77.5 81.7023V77.7261C77.5 76.8977 76.8284 76.2261 76 76.2261C75.1716 76.2261 74.5 76.8977 74.5 77.7261V81.7023ZM74.5 65.7976C74.5 66.626 75.1716 67.2976 76 67.2976C76.8284 67.2976 77.5 66.626 77.5 65.7976V61.8214C77.5 60.993 76.8284 60.3214 76 60.3214C75.1716 60.3214 74.5 60.993 74.5 61.8214V65.7976ZM74.5 49.8928C74.5 50.7213 75.1716 51.3928 76 51.3928C76.8284 51.3928 77.5 50.7213 77.5 49.8928V45.9166C77.5 45.0882 76.8284 44.4166 76 44.4166C75.1716 44.4166 74.5 45.0882 74.5 45.9166V49.8928ZM74.5 33.9881C74.5 34.8165 75.1716 35.4881 76 35.4881C76.8284 35.4881 77.5 34.8165 77.5 33.9881V32C77.5 31.7647 77.5028 31.53 77.5085 31.2961C77.518 30.9063 77.5352 30.5184 77.5601 30.1328C77.6136 29.3061 76.9867 28.5926 76.16 28.5392C75.3333 28.4857 74.6198 29.1126 74.5664 29.9393C74.5432 30.2976 74.5261 30.6575 74.515 31.0189C74.5063 31.3018 74.5014 31.5856 74.5003 31.8703C74.5001 31.9135 74.5 31.9568 74.5 32V33.9881ZM78.4233 20.0733C77.6806 19.7063 77.376 18.8067 77.743 18.064C78.3543 16.8268 79.0444 15.6356 79.8066 14.4971C80.2675 13.8087 81.1991 13.6242 81.8875 14.0851C82.5759 14.546 82.7604 15.4776 82.2995 16.166C81.6097 17.1963 80.9855 18.2739 80.4326 19.3929C80.0656 20.1356 79.166 20.4402 78.4233 20.0733ZM88.0851 7.88752C87.6242 7.19912 87.8087 6.26746 88.497 5.80659C89.6356 5.04436 90.8268 4.35428 92.064 3.74297C92.8067 3.37601 93.7063 3.68062 94.0733 4.42333C94.4402 5.16605 94.1356 6.06563 93.3929 6.43259C92.2739 6.98546 91.1963 7.60972 90.166 8.29949C89.4776 8.76036 88.5459 8.57592 88.0851 7.88752ZM102.539 2.15999C102.486 1.33329 103.113 0.619805 103.939 0.566382C104.365 0.538859 104.793 0.51981 105.223 0.509393C105.482 0.503142 105.74 0.5 106 0.5H107.917C108.745 0.5 109.417 1.17157 109.417 2C109.417 2.82843 108.745 3.5 107.917 3.5H106C105.698 3.5 105.397 3.5047 105.097 3.51402C104.774 3.52406 104.453 3.53946 104.133 3.56014C103.306 3.61356 102.593 2.98669 102.539 2.15999ZM119.417 3.5C118.588 3.5 117.917 2.82843 117.917 2C117.917 1.17157 118.588 0.5 119.417 0.5H123.25C124.078 0.5 124.75 1.17157 124.75 2C124.75 2.82843 124.078 3.5 123.25 3.5H119.417ZM134.75 3.5C133.922 3.5 133.25 2.82843 133.25 2C133.25 1.17157 133.922 0.5 134.75 0.5H138.583C139.412 0.5 140.083 1.17157 140.083 2C140.083 2.82843 139.412 3.5 138.583 3.5H134.75ZM150.083 3.5C149.255 3.5 148.583 2.82843 148.583 2C148.583 1.17157 149.255 0.5 150.083 0.5H152V2V3.5H150.083Z" fill="#2B5480"/>
</svg>
