<svg width="65" height="57" viewBox="0 0 65 57" fill="none" xmlns="http://www.w3.org/2000/svg">
<path d="M1.67262 23.7506C-0.553633 26.5025 -0.553633 30.4974 1.67262 33.2493C5.10784 37.4959 17.4651 51.3516 32.246 51.3516C43.9052 51.3516 56.0366 42.2617 63.3274 33.2493C65.5534 30.4974 65.5534 26.5026 63.3274 23.7507C56.0229 14.7209 43.8918 5.64844 32.246 5.64844C17.4651 5.64844 5.10784 19.5041 1.67262 23.7506ZM32.246 10.7266C43.3083 10.7266 54.5064 20.9209 59.3794 26.9444C60.1085 27.8458 60.1084 29.1543 59.3794 30.0556C54.5064 36.0791 43.3083 46.2734 32.246 46.2734C19.3912 46.2734 7.81131 32.7637 5.62048 30.0556C4.89139 29.1542 4.89139 27.8458 5.62048 26.9444C7.81131 24.2363 19.3912 10.7266 32.246 10.7266Z" fill="#072D58"/>
<path d="M2.53906 15.8047C3.94139 15.8047 5.07812 14.6679 5.07812 13.2656V10.7266C5.07812 7.92648 7.35617 5.64844 10.1562 5.64844H12.6953C14.0976 5.64844 15.2344 4.5117 15.2344 3.10938C15.2344 1.70705 14.0976 0.570312 12.6953 0.570312H10.1562C4.55609 0.570312 0 5.12641 0 10.7266V13.2656C0 14.6679 1.13674 15.8047 2.53906 15.8047Z" fill="#072D58"/>
<path d="M65 10.7266C65 5.12641 60.4439 0.570312 54.8438 0.570312H52.3047C50.9024 0.570312 49.7656 1.70705 49.7656 3.10938C49.7656 4.5117 50.9024 5.64844 52.3047 5.64844H54.8438C57.6438 5.64844 59.9219 7.92648 59.9219 10.7266V13.2656C59.9219 14.6679 61.0586 15.8047 62.4609 15.8047C63.8633 15.8047 65 14.6679 65 13.2656V10.7266Z" fill="#072D58"/>
<path d="M10.1562 56.4297H12.6953C14.0976 56.4297 15.2344 55.2929 15.2344 53.8906C15.2344 52.4883 14.0976 51.3516 12.6953 51.3516H10.1562C7.35617 51.3516 5.07812 49.0735 5.07812 46.2734V43.7344C5.07812 42.3321 3.94139 41.1953 2.53906 41.1953C1.13674 41.1953 0 42.3321 0 43.7344V46.2734C0 51.8736 4.55609 56.4297 10.1562 56.4297Z" fill="#072D58"/>
<path d="M52.3047 56.4297H54.8438C60.4439 56.4297 65 51.8736 65 46.2734V43.7344C65 42.3321 63.8633 41.1953 62.4609 41.1953C61.0586 41.1953 59.9219 42.3321 59.9219 43.7344V46.2734C59.9219 49.0735 57.6438 51.3516 54.8438 51.3516H52.3047C50.9024 51.3516 49.7656 52.4883 49.7656 53.8906C49.7656 55.2929 50.9024 56.4297 52.3047 56.4297Z" fill="#072D58"/>
<path opacity="0.35" d="M15.2163 30.2954L20.2944 35.3735C21.2859 36.365 22.8938 36.365 23.8853 35.3735C24.8769 34.3818 24.8769 32.7742 23.8853 31.7827L20.6025 28.5L23.8853 25.2172C24.8769 24.2256 24.8769 22.618 23.8853 21.6265C22.8936 20.635 21.2859 20.6349 20.2944 21.6265L15.2163 26.7046C14.2248 27.6961 14.2248 29.3039 15.2163 30.2954Z" fill="#072D58"/>
<path opacity="0.35" d="M40.6069 25.2173L43.8898 28.5L40.607 31.7828C39.6154 32.7744 39.6154 34.382 40.607 35.3735C41.5985 36.365 43.2064 36.365 44.1979 35.3735L49.276 30.2954C50.2676 29.3038 50.2676 27.6962 49.276 26.7047L44.1979 21.6265C43.2062 20.6349 41.5985 20.6349 40.607 21.6265C39.6155 22.6182 39.6154 24.2258 40.6069 25.2173Z" fill="#072D58"/>
<path opacity="0.35" d="M29.0911 41.1195C30.4516 41.4596 31.83 40.6324 32.1703 39.2721L37.2484 18.9596C37.5885 17.5992 36.7613 16.2206 35.4008 15.8805C34.0404 15.5404 32.662 16.3675 32.3217 17.7279L27.2436 38.0404C26.9036 39.4008 27.7308 40.7794 29.0911 41.1195Z" fill="#072D58"/>
</svg>
