<svg width="675" height="606" viewBox="0 0 675 606" fill="none" xmlns="http://www.w3.org/2000/svg">
<g clip-path="url(#clip0_2053_17265)">
<path d="M247.365 507.704C246.575 507.458 245.736 507.898 245.488 508.687C242.768 507.825 240.076 506.93 237.41 506C237.684 505.22 237.276 504.365 236.496 504.088C235.295 503.662 234.099 503.229 232.909 502.789C232.133 502.502 231.272 502.897 230.983 503.672C228.314 502.668 225.672 501.629 223.059 500.555C223.376 499.791 223.015 498.915 222.251 498.597C221.076 498.106 219.906 497.608 218.742 497.102C217.984 496.773 217.102 497.12 216.771 497.877C214.163 496.728 211.584 495.542 209.035 494.319C209.394 493.575 209.084 492.68 208.34 492.318C207.195 491.761 206.055 491.196 204.921 490.624C204.183 490.251 203.283 490.546 202.908 491.283C200.375 489.985 197.871 488.65 195.396 487.278C195.799 486.556 195.543 485.644 194.822 485.239C193.712 484.615 192.608 483.983 191.51 483.343C190.796 482.927 189.879 483.168 189.461 483.881C187.013 482.435 184.594 480.95 182.206 479.428C182.652 478.733 182.452 477.807 181.757 477.358C180.688 476.667 179.625 475.969 178.569 475.263C177.881 474.804 176.952 474.987 176.491 475.673C174.138 474.081 171.816 472.449 169.525 470.78C170.013 470.113 169.871 469.177 169.206 468.686C168.183 467.93 167.166 467.167 166.155 466.396C165.497 465.895 164.558 466.02 164.055 466.676C161.809 464.941 159.594 463.168 157.409 461.356C157.938 460.722 157.855 459.778 157.221 459.246C156.248 458.429 155.281 457.604 154.32 456.771C153.695 456.229 152.75 456.296 152.207 456.919C150.076 455.049 147.975 453.14 145.905 451.194C146.473 450.593 146.449 449.646 145.85 449.076C144.93 448.2 144.016 447.317 143.108 446.425C142.518 445.846 141.571 445.854 140.99 446.442C138.981 444.445 137.002 442.411 135.053 440.339C135.657 439.775 135.691 438.828 135.128 438.222C134.263 437.292 133.405 436.354 132.552 435.409C131.998 434.795 131.052 434.745 130.437 435.296C128.555 433.184 126.702 431.034 124.878 428.847C125.515 428.32 125.605 427.377 125.079 426.739C124.271 425.759 123.469 424.772 122.674 423.777C122.157 423.131 121.215 423.025 120.569 423.54C118.815 421.323 117.091 419.069 115.395 416.779C116.06 416.289 116.204 415.353 115.715 414.685C115.339 414.172 114.965 413.656 114.591 413.139C114.199 412.595 113.809 412.05 113.421 411.505C112.941 410.831 112.006 410.673 111.332 411.15C109.576 408.658 107.868 406.155 106.207 403.643C106.898 403.189 107.092 402.261 106.639 401.568C105.906 400.447 105.183 399.323 104.469 398.197C104.026 397.499 103.101 397.291 102.402 397.732C100.783 395.15 99.2143 392.558 97.6954 389.956C98.4104 389.541 98.6554 388.626 98.2423 387.909C97.5732 386.749 96.9142 385.586 96.2651 384.422C95.8625 383.699 94.9512 383.439 94.2282 383.84C92.7606 381.172 91.3448 378.494 89.9807 375.805C90.7188 375.434 91.0173 374.534 90.6473 373.795C90.0484 372.597 89.4597 371.398 88.8813 370.196C88.5227 369.451 87.6288 369.137 86.8831 369.493C85.5797 366.745 84.3296 363.985 83.1329 361.215C83.8926 360.889 84.2462 360.01 83.9227 359.249C83.3996 358.018 82.887 356.785 82.385 355.549C82.0737 354.783 81.2013 354.414 80.4348 354.723C79.3075 351.9 78.2349 349.066 77.2169 346.221C77.9958 345.945 78.4051 345.09 78.1313 344.31C77.6889 343.049 77.2572 341.786 76.8362 340.521C76.5752 339.736 75.7287 339.311 74.9438 339.569C74.0033 336.683 73.1184 333.785 72.289 330.875C73.0844 330.651 73.5491 329.826 73.3273 329.029C72.9692 327.742 72.6219 326.453 72.2855 325.162C72.0771 324.362 71.2606 323.881 70.4604 324.087C69.7144 321.149 69.0244 318.199 68.3903 315.237C69.1989 315.066 69.7177 314.274 69.5496 313.464C69.2783 312.157 69.018 310.848 68.7686 309.536C68.6141 308.724 67.8316 308.19 67.0193 308.342C66.4722 305.364 65.981 302.374 65.5455 299.372C66.3637 299.256 66.9342 298.5 66.8206 297.681C66.6372 296.359 66.4647 295.035 66.3031 293.709C66.2031 292.888 65.4578 292.303 64.6372 292.401C64.2899 289.397 63.9978 286.381 63.761 283.354C64.585 283.292 65.2042 282.575 65.1447 281.751C65.0487 280.42 64.9635 279.087 64.889 277.752C64.8429 276.927 64.1374 276.295 63.3122 276.338C63.1619 273.321 63.0659 270.293 63.0241 267.254C63.8505 267.245 64.5144 266.569 64.5079 265.742C64.5026 265.074 64.5 264.405 64.5 263.736V261.797C64.5 260.968 63.8284 260.297 63 260.297V251.66C63.8284 251.66 64.5 250.988 64.5 250.16V246.28C64.5 245.452 63.8284 244.78 63 244.78V236.143C63.8284 236.143 64.5 235.472 64.5 234.643V230.764C64.5 229.936 63.8284 229.264 63 229.264V220.627C63.8284 220.627 64.5 219.955 64.5 219.127V215.248C64.5 214.419 63.8284 213.748 63 213.748V205.11C63.8284 205.11 64.5 204.439 64.5 203.61V199.731C64.5 198.903 63.8284 198.231 63 198.231V189.594C63.8284 189.594 64.5 188.923 64.5 188.094V184.215C64.5 183.387 63.8284 182.715 63 182.715V174.078C63.8284 174.078 64.5 173.406 64.5 172.578V168.699C64.5 167.87 63.8284 167.199 63 167.199V158.561C63.8284 158.561 64.5 157.89 64.5 157.061V155.122C64.5 154.555 64.511 153.992 64.533 153.433C64.5653 152.614 63.9345 151.922 63.1192 151.876C63.3071 149.347 63.7173 146.888 64.3496 144.499C65.1336 144.723 65.9558 144.279 66.1954 143.496C66.523 142.425 66.8982 141.369 67.3211 140.328C67.6293 139.569 67.2716 138.705 66.5219 138.384C67.531 136.145 68.7569 133.974 70.1997 131.871C70.8656 132.345 71.7909 132.198 72.2769 131.538C72.6089 131.086 72.9516 130.638 73.3052 130.193C73.6753 129.727 74.052 129.27 74.4354 128.82C74.9684 128.195 74.8992 127.26 74.2841 126.72C76.0805 124.733 78.0133 122.908 80.0827 121.244C80.5856 121.89 81.5153 122.014 82.1702 121.519C83.1119 120.807 84.0816 120.127 85.0794 119.48C85.7685 119.034 85.9693 118.117 85.5339 117.424C87.773 116.064 90.1418 114.856 92.6403 113.802C92.949 114.561 93.8119 114.933 94.5772 114.633C95.1249 114.418 95.6791 114.211 96.2396 114.01L98.119 113.367C98.9028 113.099 99.3207 112.246 99.0525 111.462L107.549 108.555C107.817 109.338 108.67 109.756 109.453 109.488L113.232 108.195C114.015 107.927 114.433 107.074 114.165 106.29L122.661 103.382C122.929 104.166 123.782 104.584 124.566 104.316L128.344 103.023C129.128 102.755 129.546 101.902 129.277 101.118L137.773 98.2102C138.042 98.994 138.895 99.4119 139.678 99.1437L143.457 97.8506C144.24 97.5824 144.658 96.7295 144.39 95.9457L152.886 93.038C153.154 93.8218 154.007 94.2397 154.791 93.9715L158.569 92.6784C159.353 92.4102 159.771 91.5573 159.502 90.7735L167.998 87.8658C168.267 88.6496 169.12 89.0675 169.903 88.7993L173.682 87.5062C174.465 87.238 174.883 86.3851 174.615 85.6013L183.111 82.6936C183.379 83.4774 184.232 83.8954 185.016 83.6271L188.794 82.3341C189.578 82.0658 189.996 81.213 189.728 80.4292L198.223 77.5214C198.492 78.3052 199.345 78.7232 200.128 78.4549L203.907 77.1619C204.69 76.8936 205.108 76.0408 204.84 75.257L213.336 72.3493C213.604 73.1331 214.457 73.551 215.241 73.2827L219.019 71.9897C219.803 71.7214 220.221 70.8686 219.952 70.0848L228.449 67.1771C228.717 67.9609 229.57 68.3788 230.353 68.1105L234.132 66.8175C234.915 66.5493 235.333 65.6964 235.065 64.9126L243.561 62.0049C243.829 62.7887 244.682 63.2066 245.466 62.9384L247.334 62.2989C247.337 62.2977 247.341 62.2966 247.344 62.2955C248.038 62.0695 248.732 61.8572 249.426 61.6587C250.217 61.4325 250.676 60.6128 250.46 59.8218C253.894 58.931 257.327 58.3667 260.761 58.1293C260.806 58.947 261.5 59.5792 262.321 59.5452C263.047 59.5151 263.774 59.5 264.5 59.5C265.226 59.5 265.953 59.5151 266.679 59.5452C267.5 59.5792 268.194 58.947 268.239 58.1293C271.673 58.3667 275.106 58.931 278.54 59.8218C278.324 60.6128 278.783 61.4325 279.574 61.6587C280.268 61.8572 280.962 62.0695 281.656 62.2955C281.659 62.2966 281.663 62.2977 281.666 62.2989L283.534 62.9384C284.318 63.2066 285.171 62.7887 285.439 62.0049L293.935 64.9126C293.667 65.6964 294.085 66.5493 294.868 66.8175L298.647 68.1105C299.43 68.3788 300.283 67.9609 300.551 67.1771L309.048 70.0848C308.779 70.8686 309.197 71.7214 309.981 71.9897L313.759 73.2827C314.543 73.551 315.396 73.1331 315.664 72.3493L324.16 75.257C323.892 76.0408 324.31 76.8936 325.093 77.1619L328.872 78.4549C329.655 78.7232 330.508 78.3052 330.776 77.5214L339.272 80.4292C339.004 81.213 339.422 82.0658 340.206 82.3341L343.984 83.6271C344.768 83.8954 345.621 83.4774 345.889 82.6936L354.385 85.6013C354.117 86.3851 354.535 87.238 355.318 87.5062L359.097 88.7993C359.88 89.0675 360.733 88.6496 361.001 87.8658L369.497 90.7735C369.229 91.5573 369.647 92.4102 370.431 92.6784L374.209 93.9715C374.993 94.2397 375.846 93.8218 376.114 93.038L384.61 95.9457C384.342 96.7295 384.76 97.5824 385.543 97.8506L389.322 99.1437C390.105 99.4119 390.958 98.994 391.227 98.2102L399.723 101.118C399.454 101.902 399.872 102.755 400.656 103.023L404.434 104.316C405.218 104.584 406.071 104.166 406.339 103.382L414.835 106.29C414.567 107.074 414.985 107.927 415.768 108.195L419.547 109.488C420.33 109.756 421.183 109.338 421.452 108.555L429.948 111.462C429.679 112.246 430.097 113.099 430.881 113.367L432.751 114.007C432.754 114.008 432.757 114.009 432.76 114.01C433.321 114.211 433.875 114.418 434.423 114.633C435.188 114.933 436.051 114.561 436.36 113.802C438.858 114.856 441.227 116.064 443.466 117.424C443.031 118.117 443.232 119.034 443.921 119.48C444.918 120.127 445.888 120.807 446.83 121.519C447.485 122.014 448.414 121.89 448.917 121.244C450.987 122.908 452.92 124.733 454.716 126.72C454.101 127.26 454.032 128.195 454.565 128.82C454.948 129.27 455.325 129.727 455.695 130.193C456.048 130.638 456.391 131.086 456.723 131.538C457.209 132.198 458.134 132.345 458.8 131.871C460.243 133.974 461.469 136.145 462.478 138.384C461.728 138.705 461.371 139.569 461.679 140.328C462.102 141.369 462.477 142.425 462.805 143.496C463.044 144.279 463.866 144.723 464.65 144.499C465.283 146.888 465.693 149.347 465.881 151.876C465.066 151.922 464.435 152.614 464.467 153.433C464.489 153.992 464.5 154.555 464.5 155.122V157.061C464.5 157.89 465.172 158.561 466 158.561V167.199C465.172 167.199 464.5 167.87 464.5 168.699V172.578C464.5 173.406 465.172 174.078 466 174.078V182.715C465.172 182.715 464.5 183.387 464.5 184.215V188.094C464.5 188.923 465.172 189.594 466 189.594V198.231C465.172 198.231 464.5 198.903 464.5 199.731V203.61C464.5 204.439 465.172 205.11 466 205.11V213.748C465.172 213.748 464.5 214.419 464.5 215.248V219.127C464.5 219.955 465.172 220.627 466 220.627V229.264C465.172 229.264 464.5 229.936 464.5 230.764V234.643C464.5 235.472 465.172 236.143 466 236.143V244.78C465.172 244.78 464.5 245.452 464.5 246.28V250.16C464.5 250.988 465.172 251.66 466 251.66V260.297C465.172 260.297 464.5 260.968 464.5 261.797V263.736C464.5 264.405 464.497 265.074 464.492 265.742C464.486 266.569 465.15 267.245 465.976 267.254C465.934 270.293 465.838 273.321 465.688 276.338C464.863 276.295 464.157 276.927 464.111 277.752C464.036 279.087 463.951 280.42 463.855 281.751C463.796 282.575 464.415 283.292 465.239 283.354C465.002 286.381 464.71 289.397 464.363 292.401C463.542 292.303 462.797 292.888 462.697 293.709C462.535 295.035 462.363 296.359 462.179 297.681C462.066 298.5 462.636 299.256 463.454 299.372C463.019 302.374 462.528 305.364 461.981 308.342C461.168 308.19 460.386 308.724 460.231 309.536C459.982 310.848 459.722 312.157 459.45 313.464C459.282 314.274 459.801 315.066 460.61 315.237C459.976 318.199 459.286 321.149 458.54 324.087C457.739 323.881 456.923 324.362 456.714 325.162C456.378 326.453 456.031 327.742 455.673 329.029C455.451 329.826 455.916 330.651 456.711 330.875C455.882 333.785 454.997 336.683 454.056 339.569C453.271 339.311 452.425 339.736 452.164 340.521C451.743 341.786 451.311 343.049 450.869 344.31C450.595 345.09 451.004 345.945 451.783 346.221C450.765 349.066 449.693 351.9 448.565 354.723C447.799 354.414 446.926 354.783 446.615 355.549C446.113 356.785 445.6 358.018 445.077 359.249C444.754 360.01 445.107 360.889 445.867 361.215C444.67 363.985 443.42 366.745 442.117 369.493C441.371 369.137 440.477 369.451 440.119 370.196C439.54 371.398 438.952 372.597 438.353 373.795C437.983 374.534 438.281 375.434 439.019 375.805C437.655 378.494 436.239 381.172 434.772 383.84C434.049 383.439 433.138 383.699 432.735 384.422C432.086 385.586 431.427 386.749 430.758 387.909C430.345 388.626 430.59 389.541 431.305 389.956C429.786 392.558 428.217 395.15 426.598 397.732C425.899 397.291 424.974 397.499 424.531 398.197C423.818 399.323 423.094 400.447 422.361 401.568C421.908 402.261 422.102 403.189 422.793 403.643C421.132 406.155 419.424 408.658 417.668 411.15C416.994 410.673 416.059 410.831 415.579 411.505C415.191 412.05 414.801 412.595 414.409 413.139C414.035 413.656 413.661 414.172 413.285 414.685C412.796 415.353 412.94 416.289 413.605 416.779C411.909 419.069 410.185 421.323 408.431 423.54C407.785 423.025 406.843 423.131 406.326 423.777C405.531 424.772 404.729 425.759 403.921 426.739C403.396 427.377 403.485 428.32 404.122 428.847C402.298 431.034 400.445 433.184 398.563 435.296C397.948 434.745 397.002 434.795 396.448 435.409C395.595 436.354 394.737 437.292 393.872 438.222C393.309 438.828 393.343 439.775 393.947 440.339C391.998 442.411 390.019 444.446 388.01 446.442C387.429 445.854 386.482 445.846 385.892 446.425C384.984 447.317 384.07 448.2 383.15 449.076C382.551 449.646 382.527 450.593 383.095 451.194C381.025 453.14 378.924 455.049 376.793 456.919C376.25 456.296 375.305 456.229 374.68 456.771C373.719 457.604 372.752 458.429 371.779 459.246C371.145 459.778 371.062 460.722 371.591 461.356C369.407 463.168 367.191 464.941 364.945 466.676C364.442 466.02 363.503 465.895 362.845 466.396C361.835 467.167 360.817 467.93 359.794 468.686C359.129 469.177 358.987 470.113 359.475 470.78C357.184 472.449 354.862 474.081 352.509 475.673C352.048 474.987 351.119 474.804 350.431 475.263C349.375 475.969 348.312 476.667 347.243 477.358C346.548 477.807 346.348 478.733 346.794 479.428C344.406 480.95 341.987 482.435 339.539 483.881C339.121 483.168 338.204 482.927 337.49 483.343C336.392 483.983 335.288 484.615 334.178 485.239C333.457 485.644 333.201 486.556 333.604 487.278C331.129 488.65 328.625 489.985 326.092 491.283C325.717 490.546 324.817 490.251 324.079 490.624C322.945 491.196 321.805 491.761 320.66 492.318C319.916 492.68 319.606 493.575 319.965 494.319C317.416 495.542 314.837 496.728 312.229 497.877C311.898 497.12 311.016 496.773 310.258 497.102C309.094 497.608 307.924 498.106 306.749 498.597C305.985 498.915 305.624 499.791 305.941 500.555C303.328 501.629 300.686 502.668 298.017 503.672C297.728 502.897 296.867 502.502 296.091 502.789C294.901 503.229 293.705 503.662 292.504 504.088C291.724 504.365 291.316 505.22 291.59 506C288.924 506.93 286.232 507.825 283.512 508.687C283.264 507.898 282.425 507.458 281.635 507.704C281.027 507.893 280.417 508.081 279.806 508.267C279.504 508.358 279.202 508.447 278.901 508.533C278.111 508.759 277.65 509.577 277.864 510.368C276.949 510.602 276.033 510.811 275.118 510.996C274.968 510.191 274.199 509.653 273.39 509.792C273.08 509.845 272.77 509.895 272.461 509.943C272.137 509.992 271.809 510.038 271.478 510.081C270.664 510.186 270.087 510.925 270.179 511.737C269.159 511.837 268.108 511.908 267.026 511.951C267.004 511.131 266.326 510.48 265.504 510.492C265.172 510.497 264.838 510.5 264.5 510.5C264.162 510.5 263.828 510.497 263.496 510.492C262.674 510.48 261.996 511.131 261.974 511.951C260.892 511.908 259.841 511.837 258.821 511.737C258.913 510.925 258.336 510.186 257.522 510.081C257.191 510.038 256.863 509.992 256.539 509.943C256.23 509.895 255.92 509.845 255.61 509.792C254.801 509.653 254.032 510.191 253.882 510.996C252.967 510.811 252.051 510.602 251.136 510.368C251.35 509.577 250.889 508.759 250.099 508.533C249.798 508.447 249.496 508.358 249.194 508.267C248.583 508.081 247.973 507.893 247.365 507.704Z" stroke="#5687B9" stroke-opacity="0.25" stroke-width="3" stroke-linecap="round" stroke-dasharray="4 12"/>
<path d="M270.05 446.361L270.05 446.361C271.755 446.097 273.461 445.701 275.174 445.171C314.887 432.864 346.48 410.118 370.002 376.912C393.551 343.665 405.301 307.934 405.301 269.683V191.556C405.301 185.008 403.267 179.13 399.17 173.877C395.053 168.6 389.735 164.769 383.173 162.381C383.17 162.38 383.167 162.378 383.163 162.377L276.479 125.189C276.475 125.188 276.472 125.187 276.468 125.186C272.465 123.858 268.478 123.199 264.5 123.199C260.522 123.199 256.534 123.858 252.532 125.186C252.528 125.187 252.524 125.188 252.521 125.189L145.834 162.377C145.831 162.378 145.828 162.379 145.825 162.381C139.265 164.769 133.945 168.6 129.828 173.877L270.05 446.361ZM270.05 446.361C268.358 446.623 266.509 446.757 264.5 446.757C262.491 446.757 260.641 446.623 258.947 446.361C257.245 446.098 255.537 445.701 253.826 445.171M270.05 446.361L270.28 447.843C268.502 448.119 266.575 448.257 264.5 448.257C262.425 448.257 260.498 448.119 258.718 447.843C256.94 447.568 255.16 447.154 253.382 446.604M253.382 446.604L253.826 445.171M253.382 446.604L253.826 445.171C253.826 445.171 253.826 445.171 253.826 445.171M253.382 446.604L253.826 445.171M253.826 445.171C214.111 432.864 182.52 410.118 158.997 376.912C135.449 343.665 123.698 307.934 123.698 269.683V191.556C123.698 185.008 125.733 179.13 129.828 173.877L253.826 445.171Z" stroke="#092E58" stroke-width="3"/>
</g>
<g clip-path="url(#clip1_2053_17265)">
<path d="M672.918 45.0401V562.893C672.918 585.554 654.844 603.917 632.538 603.917H381.479C380.779 603.917 380.096 603.9 379.413 603.867C378.73 603.834 378.047 603.784 377.381 603.717H377.331C356.975 601.601 341.099 584.122 341.099 562.893V45.0401C341.082 22.7283 358.607 2.71606 380.446 2.09953C380.796 2.08287 381.129 2.08287 381.479 2.08287H632.555C654.844 2.08287 672.935 22.3784 672.935 45.0401H672.918Z" fill="#204269"/>
<path d="M348.129 569.858V50.2056C348.129 27.8939 362.122 9.6812 383.961 9.06467C384.311 9.04801 388.176 9.04801 388.509 9.04801H639.584C648.33 9.04801 656.409 12.1806 663.023 17.3462C655.626 8.16486 644.715 2.09953 632.538 2.09953H381.479C381.129 2.09953 380.796 2.09953 380.446 2.1162C358.607 2.71606 341.083 22.7283 341.083 45.0401V562.893C341.083 576.273 347.396 588.154 357.158 595.636C351.527 588.587 348.129 579.622 348.129 569.858Z" fill="#072D58"/>
<path d="M672.918 45.0401V562.893C672.918 585.554 654.844 603.917 632.538 603.917H381.479C380.779 603.917 380.096 603.9 379.413 603.867C378.73 603.834 378.047 603.784 377.381 603.717H377.331C356.975 601.601 341.099 584.121 341.099 562.893V45.0401C341.082 22.7283 358.607 2.71606 380.446 2.09953C380.796 2.08287 381.129 2.08287 381.479 2.08287H632.555C654.844 2.08287 672.935 22.3784 672.935 45.0401H672.918Z" stroke="#5687B9" stroke-width="2.5" stroke-linecap="round" stroke-linejoin="round"/>
<path d="M625.674 20.1956H574.899C570.885 20.1956 566.953 21.412 563.605 23.6948C561.473 25.1611 559.69 27.0607 558.191 29.1769C557.092 30.7432 554.593 30.8765 551.678 30.8765H464.754C462.222 30.8765 460.006 29.6601 458.757 27.8272C456.991 25.2611 454.742 23.0949 451.894 21.9118L450.328 21.262C448.595 20.5455 446.746 20.1789 444.881 20.1789H388.642C372.25 20.1789 358.957 32.4929 358.957 47.6895V559.177C358.957 574.374 372.25 586.688 388.642 586.688H625.674C641.9 586.688 655.06 574.507 655.06 559.477V47.4062C655.06 32.3762 641.9 20.1956 625.674 20.1956Z" fill="#072D58" stroke="#5687B9" stroke-width="2.5" stroke-linecap="round" stroke-linejoin="round"/>
<path d="M623.392 92.613H390.591C383.231 92.613 377.264 98.5812 377.264 105.943V227.1C377.264 234.462 383.231 240.43 390.591 240.43H623.392C630.752 240.43 636.719 234.462 636.719 227.1V105.943C636.719 98.5812 630.752 92.613 623.392 92.613Z" fill="#204269"/>
<path d="M428.772 264.742H404.018C399.767 264.742 396.322 268.188 396.322 272.44V297.851C396.322 302.103 399.767 305.549 404.018 305.549H428.772C433.023 305.549 436.469 302.103 436.469 297.851V272.44C436.469 268.188 433.023 264.742 428.772 264.742Z" stroke="#5687B9" stroke-width="2.5" stroke-linecap="round" stroke-linejoin="round"/>
<path d="M489.176 264.742H464.421C460.171 264.742 456.725 268.188 456.725 272.44V297.851C456.725 302.103 460.171 305.549 464.421 305.549H489.176C493.426 305.549 496.872 302.103 496.872 297.851V272.44C496.872 268.188 493.426 264.742 489.176 264.742Z" stroke="#5687B9" stroke-width="2.5" stroke-linecap="round" stroke-linejoin="round"/>
<path d="M549.579 264.742H524.825C520.574 264.742 517.128 268.188 517.128 272.44V297.851C517.128 302.103 520.574 305.549 524.825 305.549H549.579C553.829 305.549 557.275 302.103 557.275 297.851V272.44C557.275 268.188 553.829 264.742 549.579 264.742Z" fill="#204269" stroke="#5687B9" stroke-width="2.5" stroke-linecap="round" stroke-linejoin="round"/>
<path d="M609.966 264.742H585.211C580.961 264.742 577.515 268.188 577.515 272.44V297.851C577.515 302.103 580.961 305.549 585.211 305.549H609.966C614.216 305.549 617.662 302.103 617.662 297.851V272.44C617.662 268.188 614.216 264.742 609.966 264.742Z" stroke="#5687B9" stroke-width="2.5" stroke-linecap="round" stroke-linejoin="round"/>
<path d="M428.772 326.878H404.018C399.767 326.878 396.322 330.325 396.322 334.576V359.987C396.322 364.239 399.767 367.686 404.018 367.686H428.772C433.023 367.686 436.469 364.239 436.469 359.987V334.576C436.469 330.325 433.023 326.878 428.772 326.878Z" stroke="#5687B9" stroke-width="2.5" stroke-linecap="round" stroke-linejoin="round"/>
<path d="M489.176 326.878H464.421C460.171 326.878 456.725 330.325 456.725 334.576V359.987C456.725 364.239 460.171 367.686 464.421 367.686H489.176C493.426 367.686 496.872 364.239 496.872 359.987V334.576C496.872 330.325 493.426 326.878 489.176 326.878Z" stroke="#5687B9" stroke-width="2.5" stroke-linecap="round" stroke-linejoin="round"/>
<path d="M549.579 326.878H524.825C520.574 326.878 517.128 330.325 517.128 334.576V359.987C517.128 364.239 520.574 367.686 524.825 367.686H549.579C553.829 367.686 557.275 364.239 557.275 359.987V334.576C557.275 330.325 553.829 326.878 549.579 326.878Z" stroke="#5687B9" stroke-width="2.5" stroke-linecap="round" stroke-linejoin="round"/>
<path d="M609.966 326.878H585.211C580.961 326.878 577.515 330.325 577.515 334.576V359.987C577.515 364.239 580.961 367.686 585.211 367.686H609.966C614.216 367.686 617.662 364.239 617.662 359.987V334.576C617.662 330.325 614.216 326.878 609.966 326.878Z" stroke="#5687B9" stroke-width="2.5" stroke-linecap="round" stroke-linejoin="round"/>
<path d="M491.441 112.892H407.566C401.126 112.892 395.905 118.114 395.905 124.556V208.454C395.905 214.896 401.126 220.118 407.566 220.118H491.441C497.881 220.118 503.102 214.896 503.102 208.454V124.556C503.102 118.114 497.881 112.892 491.441 112.892Z" fill="#072D58"/>
<path d="M520.943 126.106H618.778" stroke="#5687B9" stroke-width="2.5" stroke-linecap="round" stroke-linejoin="round"/>
<path d="M520.943 142.269H618.778" stroke="#5687B9" stroke-width="2.5" stroke-linecap="round" stroke-linejoin="round"/>
<path d="M520.943 158.432H618.778" stroke="#5687B9" stroke-width="2.5" stroke-linecap="round" stroke-linejoin="round"/>
<path d="M520.943 174.595H618.778" stroke="#5687B9" stroke-width="2.5" stroke-linecap="round" stroke-linejoin="round"/>
<path d="M520.943 190.758H618.778" stroke="#5687B9" stroke-width="2.5" stroke-linecap="round" stroke-linejoin="round"/>
<path d="M520.943 206.938H618.778" stroke="#5687B9" stroke-width="2.5" stroke-linecap="round" stroke-linejoin="round"/>
<path d="M621.377 59.037H392.623C386.965 59.037 382.378 63.6251 382.378 69.2848C382.378 74.9444 386.965 79.5325 392.623 79.5325H621.377C627.035 79.5325 631.621 74.9444 631.621 69.2848C631.621 63.6251 627.035 59.037 621.377 59.037Z" fill="#204269"/>
<path d="M382.378 398.996H631.621" stroke="#5687B9" stroke-width="2.5" stroke-linecap="round" stroke-linejoin="round"/>
<path d="M382.378 415.059H631.621" stroke="#5687B9" stroke-width="2.5" stroke-linecap="round" stroke-linejoin="round"/>
<path d="M382.378 431.122H631.621" stroke="#5687B9" stroke-width="2.5" stroke-linecap="round" stroke-linejoin="round"/>
<path d="M404.534 447.168H609.466" stroke="#5687B9" stroke-width="2.5" stroke-linecap="round" stroke-linejoin="round"/>
<path d="M610.165 474.879H403.818C397.377 474.879 392.157 480.101 392.157 486.543V543.33C392.157 549.772 397.377 554.995 403.818 554.995H610.165C616.605 554.995 621.826 549.772 621.826 543.33V486.543C621.826 480.101 616.605 474.879 610.165 474.879Z" fill="#204269" stroke="#5687B9" stroke-width="2.5" stroke-linecap="round" stroke-linejoin="round"/>
<path d="M489.725 498.207V531.65C489.725 535.382 493.69 537.765 496.988 536.015L528.456 519.286C531.954 517.42 531.954 512.404 528.456 510.554L496.988 493.825C493.69 492.075 489.725 494.458 489.725 498.19V498.207Z" fill="#072D58" stroke="#5687B9" stroke-width="2.5" stroke-linecap="round" stroke-linejoin="round"/>
</g>
<g filter="url(#filter0_d_2053_17265)">
<rect x="146" y="39" width="119.25" height="119.25" rx="26" fill="#002147" shape-rendering="crispEdges"/>
<rect x="146" y="39" width="119.25" height="119.25" rx="26" stroke="#5687B9" stroke-opacity="0.25" stroke-width="3" stroke-linecap="round" stroke-dasharray="8 8" shape-rendering="crispEdges"/>
</g>
<g filter="url(#filter1_d_2053_17265)">
<rect x="158" y="51" width="95.25" height="95.25" rx="16" fill="#1B518D"/>
</g>
<g clip-path="url(#clip2_2053_17265)">
<path d="M185.977 107.282C185.442 107.282 184.913 107.039 184.568 106.577C181.944 103.222 182.718 97.9019 186.107 95.384C184.8 89.7462 189.166 84.0885 194.917 83.9096C197.32 75.9676 207.557 73.3258 213.486 79.1529C215.187 80.7976 216.306 82.8959 216.728 85.1821C225.913 85.907 231.143 96.7168 225.938 104.389C225.4 105.197 224.309 105.416 223.501 104.877C222.693 104.339 222.474 103.247 223.013 102.439C227 96.5153 222.395 88.2876 215.224 88.6555C214.278 88.7137 213.409 87.9092 213.395 86.9611C212.912 77.6739 199.66 76.8623 198.03 85.9976C197.879 86.9316 197.016 87.5783 196.077 87.4623C191.686 86.8577 188.152 91.3949 189.806 95.5018C190.131 96.3364 189.776 97.282 188.983 97.6973C186.54 98.8974 185.708 102.324 187.383 104.471C187.964 105.248 187.806 106.35 187.029 106.931C186.713 107.168 186.343 107.282 185.977 107.282ZM218.96 118.208C222.747 114.635 222.777 108.126 219.045 104.512C217.222 102.671 214.781 101.658 212.172 101.658H199.073C193.861 101.546 189.247 106.202 189.404 111.413C189.302 116.565 193.843 121.102 198.995 120.996H212.136H212.14C214.711 120.996 217.133 120.006 218.96 118.208ZM212.172 105.174C213.836 105.174 215.389 105.817 216.547 106.986C217.709 108.159 218.341 109.723 218.325 111.388C218.292 114.748 215.519 117.48 212.14 117.48C212.139 117.48 212.138 117.48 212.137 117.48H198.995C195.729 117.547 192.852 114.67 192.92 111.405C192.92 111.399 192.92 111.393 192.92 111.388C192.904 109.74 193.539 108.183 194.707 107.003C195.876 105.823 197.426 105.174 199.073 105.174H212.172V105.174ZM214.895 111.325C214.787 114.238 210.607 114.236 210.5 111.325C210.608 108.413 214.788 108.415 214.895 111.325ZM207.863 111.325C207.755 114.238 203.575 114.236 203.468 111.325C203.576 108.413 207.756 108.415 207.863 111.325ZM200.831 111.325C200.723 114.238 196.543 114.236 196.436 111.325C196.544 108.413 200.724 108.415 200.831 111.325Z" fill="white"/>
</g>
<g filter="url(#filter2_d_2053_17265)">
<rect x="261" y="355" width="119.25" height="119.25" rx="26" fill="#002147" shape-rendering="crispEdges"/>
<rect x="261" y="355" width="119.25" height="119.25" rx="26" stroke="#5687B9" stroke-opacity="0.25" stroke-width="3" stroke-linecap="round" stroke-dasharray="8 8" shape-rendering="crispEdges"/>
</g>
<g filter="url(#filter3_d_2053_17265)">
<rect x="273" y="367" width="95.25" height="95.25" rx="16" fill="#F08021"/>
</g>
<g clip-path="url(#clip3_2053_17265)">
<path d="M339.484 399.333V397.273C339.484 396.302 338.697 395.515 337.727 395.515C336.756 395.515 335.969 396.302 335.969 397.273V399.031H332.453V397.273C332.453 396.302 331.666 395.515 330.695 395.515C329.724 395.515 328.938 396.302 328.938 397.273V399.031H319.646C318.982 399.031 318.36 398.603 318.023 397.915C315.943 393.666 311.389 391.353 306.691 392.159C301.582 393.036 298 397.728 298 402.912V405.697C298 410.883 301.584 415.573 306.691 416.45C311.379 417.255 315.939 414.953 318.023 410.694C318.36 410.006 318.982 409.578 319.646 409.578H337.727C340.634 409.578 343 407.212 343 404.305C343 402.013 341.53 400.059 339.484 399.333ZM337.727 406.062H319.646C317.629 406.062 315.797 407.245 314.865 409.149C313.478 411.983 310.432 413.525 307.286 412.985C303.996 412.42 301.516 409.287 301.516 405.697V402.912C301.516 399.322 303.996 396.189 307.286 395.624C310.433 395.084 313.478 396.626 314.865 399.46C315.797 401.364 317.629 402.547 319.646 402.547H337.727C338.696 402.547 339.484 403.335 339.484 404.305C339.484 405.274 338.696 406.062 337.727 406.062Z" fill="white"/>
<path d="M320.148 422.937C321.119 422.937 321.906 422.15 321.906 421.18V414.148C321.906 413.177 321.119 412.391 320.148 412.391C319.178 412.391 318.391 413.177 318.391 414.148V421.18C318.391 422.15 319.178 422.937 320.148 422.937Z" fill="white"/>
<path d="M341.242 412.391C340.271 412.391 339.484 413.177 339.484 414.148V421.18C339.484 422.15 340.271 422.937 341.242 422.937C342.213 422.937 343 422.15 343 421.18V414.148C343 413.177 342.213 412.391 341.242 412.391Z" fill="white"/>
<path d="M325.422 435.242C325.422 436.213 326.209 437 327.18 437C328.151 437 328.938 436.213 328.938 435.242V428.211C328.938 427.24 328.151 426.453 327.18 426.453C326.209 426.453 325.422 427.24 325.422 428.211V435.242Z" fill="white"/>
<path d="M318.391 435.242C318.391 436.213 319.178 437 320.148 437C321.119 437 321.906 436.213 321.906 435.242V428.211C321.906 427.24 321.119 426.453 320.148 426.453C319.178 426.453 318.391 427.24 318.391 428.211V435.242Z" fill="white"/>
<path d="M330.695 422.937C333.603 422.937 335.969 420.572 335.969 417.664C335.969 414.756 333.603 412.391 330.695 412.391C327.788 412.391 325.422 414.756 325.422 417.664C325.422 420.572 327.788 422.937 330.695 422.937ZM330.695 415.906C331.665 415.906 332.453 416.695 332.453 417.664C332.453 418.633 331.665 419.422 330.695 419.422C329.726 419.422 328.938 418.633 328.938 417.664C328.938 416.695 329.726 415.906 330.695 415.906Z" fill="white"/>
<path d="M337.727 426.453C334.819 426.453 332.453 428.819 332.453 431.726C332.453 434.634 334.819 437 337.727 437C340.634 437 343 434.634 343 431.726C343 428.819 340.634 426.453 337.727 426.453ZM337.727 433.484C336.757 433.484 335.969 432.696 335.969 431.726C335.969 430.757 336.757 429.969 337.727 429.969C338.696 429.969 339.484 430.757 339.484 431.726C339.484 432.696 338.696 433.484 337.727 433.484Z" fill="white"/>
<path d="M306.789 406.062C307.76 406.062 308.547 405.275 308.547 404.305C308.547 403.334 307.76 402.547 306.789 402.547C305.818 402.547 305.031 403.334 305.031 404.305C305.031 405.275 305.818 406.062 306.789 406.062Z" fill="white"/>
</g>
<g filter="url(#filter4_d_2053_17265)">
<rect x="47" y="267" width="119.25" height="119.25" rx="26" fill="#002147" shape-rendering="crispEdges"/>
<rect x="47" y="267" width="119.25" height="119.25" rx="26" stroke="#5687B9" stroke-opacity="0.25" stroke-width="3" stroke-linecap="round" stroke-dasharray="8 8" shape-rendering="crispEdges"/>
</g>
<g filter="url(#filter5_d_2053_17265)">
<rect x="59" y="279" width="95.25" height="95.25" rx="16" fill="#5687B9"/>
</g>
<g clip-path="url(#clip4_2053_17265)">
<path d="M89.2734 318.062H91.0312V341.969C91.0312 345.846 94.1855 349 98.0625 349H109.317C110.288 349 111.075 348.213 111.075 347.242C111.075 346.271 110.288 345.484 109.317 345.484H98.0625C96.124 345.484 94.5469 343.907 94.5469 341.969V309.273C94.5469 308.657 94.4396 308.066 94.2445 307.516H121.969C123.907 307.516 125.484 309.093 125.484 311.031V323.258C125.484 324.228 126.271 325.015 127.242 325.015C128.213 325.015 129 324.228 129 323.258V311.031C129 307.154 125.846 304 121.969 304H89.2734C86.3657 304 84 306.366 84 309.273V312.789C84 315.697 86.3657 318.062 89.2734 318.062ZM87.5156 309.273C87.5156 308.304 88.3042 307.516 89.2734 307.516C90.2427 307.516 91.0312 308.304 91.0312 309.273V314.547H89.2734C88.3042 314.547 87.5156 313.758 87.5156 312.789V309.273Z" fill="white"/>
<path d="M123.727 327.906H116.695C113.788 327.906 111.422 330.272 111.422 333.18V336.49C111.422 340.94 113.475 345.153 116.98 347.894C117.916 348.626 119.064 348.992 120.211 348.992C121.358 348.992 122.506 348.626 123.442 347.894C126.947 345.153 129 340.94 129 336.49V333.18C129 330.272 126.634 327.906 123.727 327.906ZM125.484 336.49C125.484 339.886 123.951 343.033 121.276 345.125C120.669 345.6 119.753 345.6 119.146 345.125C116.471 343.033 114.938 339.886 114.938 336.49V333.18C114.938 332.21 115.726 331.422 116.695 331.422H123.727C124.696 331.422 125.484 332.21 125.484 333.18V336.49Z" fill="white"/>
<path d="M106.148 331.422H99.8203C98.8495 331.422 98.0625 332.209 98.0625 333.18C98.0625 334.151 98.8495 334.938 99.8203 334.938H106.148C107.119 334.938 107.906 334.151 107.906 333.18C107.906 332.209 107.119 331.422 106.148 331.422Z" fill="white"/>
<path d="M106.148 338.453H99.8203C98.8495 338.453 98.0625 339.24 98.0625 340.211C98.0625 341.182 98.8495 341.969 99.8203 341.969H106.148C107.119 341.969 107.906 341.182 107.906 340.211C107.906 339.24 107.119 338.453 106.148 338.453Z" fill="white"/>
<path d="M101.741 324.227C102.428 324.914 103.541 324.914 104.227 324.227C104.914 323.541 104.914 322.428 104.227 321.741L101.955 319.469L104.227 317.196C104.914 316.51 104.914 315.397 104.227 314.71C103.541 314.024 102.428 314.024 101.741 314.71L98.2258 318.226C97.5393 318.912 97.5393 320.025 98.2258 320.712L101.741 324.227Z" fill="white"/>
<path d="M115.804 324.227C116.49 324.914 117.604 324.914 118.29 324.227L121.806 320.712C122.492 320.025 122.492 318.912 121.806 318.226L118.29 314.71C117.603 314.024 116.49 314.024 115.804 314.71C115.117 315.397 115.117 316.51 115.804 317.196L118.077 319.469L115.804 321.741C115.118 322.428 115.118 323.541 115.804 324.227Z" fill="white"/>
<path d="M107.831 328.205C108.773 328.441 109.728 327.868 109.963 326.926L113.479 312.864C113.714 311.922 113.142 310.968 112.2 310.732C111.258 310.497 110.304 311.069 110.068 312.011L106.552 326.074C106.317 327.015 106.89 327.97 107.831 328.205Z" fill="white"/>
</g>
<defs>
<filter id="filter0_d_2053_17265" x="99.5" y="2.5" width="212.25" height="212.25" filterUnits="userSpaceOnUse" color-interpolation-filters="sRGB">
<feFlood flood-opacity="0" result="BackgroundImageFix"/>
<feColorMatrix in="SourceAlpha" type="matrix" values="0 0 0 0 0 0 0 0 0 0 0 0 0 0 0 0 0 0 127 0" result="hardAlpha"/>
<feOffset dy="10"/>
<feGaussianBlur stdDeviation="22.5"/>
<feComposite in2="hardAlpha" operator="out"/>
<feColorMatrix type="matrix" values="0 0 0 0 0.0108248 0 0 0 0 0.0576239 0 0 0 0 0.111514 0 0 0 0.3 0"/>
<feBlend mode="normal" in2="BackgroundImageFix" result="effect1_dropShadow_2053_17265"/>
<feBlend mode="normal" in="SourceGraphic" in2="effect1_dropShadow_2053_17265" result="shape"/>
</filter>
<filter id="filter1_d_2053_17265" x="113" y="16" width="185.25" height="185.25" filterUnits="userSpaceOnUse" color-interpolation-filters="sRGB">
<feFlood flood-opacity="0" result="BackgroundImageFix"/>
<feColorMatrix in="SourceAlpha" type="matrix" values="0 0 0 0 0 0 0 0 0 0 0 0 0 0 0 0 0 0 127 0" result="hardAlpha"/>
<feOffset dy="10"/>
<feGaussianBlur stdDeviation="22.5"/>
<feComposite in2="hardAlpha" operator="out"/>
<feColorMatrix type="matrix" values="0 0 0 0 0.0108248 0 0 0 0 0.0576239 0 0 0 0 0.111514 0 0 0 0.3 0"/>
<feBlend mode="normal" in2="BackgroundImageFix" result="effect1_dropShadow_2053_17265"/>
<feBlend mode="normal" in="SourceGraphic" in2="effect1_dropShadow_2053_17265" result="shape"/>
</filter>
<filter id="filter2_d_2053_17265" x="214.5" y="318.5" width="212.25" height="212.25" filterUnits="userSpaceOnUse" color-interpolation-filters="sRGB">
<feFlood flood-opacity="0" result="BackgroundImageFix"/>
<feColorMatrix in="SourceAlpha" type="matrix" values="0 0 0 0 0 0 0 0 0 0 0 0 0 0 0 0 0 0 127 0" result="hardAlpha"/>
<feOffset dy="10"/>
<feGaussianBlur stdDeviation="22.5"/>
<feComposite in2="hardAlpha" operator="out"/>
<feColorMatrix type="matrix" values="0 0 0 0 0.0108248 0 0 0 0 0.0576239 0 0 0 0 0.111514 0 0 0 0.3 0"/>
<feBlend mode="normal" in2="BackgroundImageFix" result="effect1_dropShadow_2053_17265"/>
<feBlend mode="normal" in="SourceGraphic" in2="effect1_dropShadow_2053_17265" result="shape"/>
</filter>
<filter id="filter3_d_2053_17265" x="228" y="332" width="185.25" height="185.25" filterUnits="userSpaceOnUse" color-interpolation-filters="sRGB">
<feFlood flood-opacity="0" result="BackgroundImageFix"/>
<feColorMatrix in="SourceAlpha" type="matrix" values="0 0 0 0 0 0 0 0 0 0 0 0 0 0 0 0 0 0 127 0" result="hardAlpha"/>
<feOffset dy="10"/>
<feGaussianBlur stdDeviation="22.5"/>
<feComposite in2="hardAlpha" operator="out"/>
<feColorMatrix type="matrix" values="0 0 0 0 0.0108248 0 0 0 0 0.0576239 0 0 0 0 0.111514 0 0 0 0.3 0"/>
<feBlend mode="normal" in2="BackgroundImageFix" result="effect1_dropShadow_2053_17265"/>
<feBlend mode="normal" in="SourceGraphic" in2="effect1_dropShadow_2053_17265" result="shape"/>
</filter>
<filter id="filter4_d_2053_17265" x="0.5" y="230.5" width="212.25" height="212.25" filterUnits="userSpaceOnUse" color-interpolation-filters="sRGB">
<feFlood flood-opacity="0" result="BackgroundImageFix"/>
<feColorMatrix in="SourceAlpha" type="matrix" values="0 0 0 0 0 0 0 0 0 0 0 0 0 0 0 0 0 0 127 0" result="hardAlpha"/>
<feOffset dy="10"/>
<feGaussianBlur stdDeviation="22.5"/>
<feComposite in2="hardAlpha" operator="out"/>
<feColorMatrix type="matrix" values="0 0 0 0 0.0108248 0 0 0 0 0.0576239 0 0 0 0 0.111514 0 0 0 0.3 0"/>
<feBlend mode="normal" in2="BackgroundImageFix" result="effect1_dropShadow_2053_17265"/>
<feBlend mode="normal" in="SourceGraphic" in2="effect1_dropShadow_2053_17265" result="shape"/>
</filter>
<filter id="filter5_d_2053_17265" x="14" y="244" width="185.25" height="185.25" filterUnits="userSpaceOnUse" color-interpolation-filters="sRGB">
<feFlood flood-opacity="0" result="BackgroundImageFix"/>
<feColorMatrix in="SourceAlpha" type="matrix" values="0 0 0 0 0 0 0 0 0 0 0 0 0 0 0 0 0 0 127 0" result="hardAlpha"/>
<feOffset dy="10"/>
<feGaussianBlur stdDeviation="22.5"/>
<feComposite in2="hardAlpha" operator="out"/>
<feColorMatrix type="matrix" values="0 0 0 0 0.0108248 0 0 0 0 0.0576239 0 0 0 0 0.111514 0 0 0 0.3 0"/>
<feBlend mode="normal" in2="BackgroundImageFix" result="effect1_dropShadow_2053_17265"/>
<feBlend mode="normal" in="SourceGraphic" in2="effect1_dropShadow_2053_17265" result="shape"/>
</filter>
<clipPath id="clip0_2053_17265">
<rect width="403" height="454" fill="white" transform="translate(63 58)"/>
</clipPath>
<clipPath id="clip1_2053_17265">
<rect width="336" height="606" fill="white" transform="translate(339)"/>
</clipPath>
<clipPath id="clip2_2053_17265">
<rect width="45" height="45" fill="white" transform="translate(183 76)"/>
</clipPath>
<clipPath id="clip3_2053_17265">
<rect width="45" height="45" fill="white" transform="translate(298 392)"/>
</clipPath>
<clipPath id="clip4_2053_17265">
<rect width="45" height="45" fill="white" transform="translate(84 304)"/>
</clipPath>
</defs>
</svg>
