<svg width="730" height="720" viewBox="0 0 730 720" fill="none" xmlns="http://www.w3.org/2000/svg">
<g clip-path="url(#clip0_2052_17087)">
<circle cx="349" cy="387" r="140.5" stroke="#092E58" stroke-width="3"/>
<circle cx="349" cy="387" r="267.5" stroke="#5687B9" stroke-opacity="0.25" stroke-width="3" stroke-linecap="round" stroke-dasharray="4 12"/>
<path d="M308.895 193.579H163.794C159.632 193.579 156.258 196.955 156.258 201.119V289.213C156.258 293.378 159.632 296.754 163.794 296.754H308.895C313.057 296.754 316.431 293.378 316.431 289.213V201.119C316.431 196.955 313.057 193.579 308.895 193.579Z" fill="#03264D" stroke="#5687B9" stroke-width="2.5" stroke-linecap="round" stroke-linejoin="round"/>
<path d="M157.079 222.577H305.979" stroke="#5687B9" stroke-width="2.5" stroke-linecap="round" stroke-linejoin="round"/>
<path d="M173.905 213.433C176.533 213.433 178.664 211.301 178.664 208.672C178.664 206.042 176.533 203.91 173.905 203.91C171.277 203.91 169.146 206.042 169.146 208.672C169.146 211.301 171.277 213.433 173.905 213.433Z" fill="#204269"/>
<path d="M194.834 213.433C197.462 213.433 199.593 211.301 199.593 208.672C199.593 206.042 197.462 203.91 194.834 203.91C192.206 203.91 190.075 206.042 190.075 208.672C190.075 211.301 192.206 213.433 194.834 213.433Z" fill="#9ABAE3"/>
<path d="M220.509 208.672C220.509 211.299 218.376 213.433 215.75 213.433C213.124 213.433 210.991 211.299 210.991 208.672C210.991 206.045 213.124 203.91 215.75 203.91C218.376 203.91 220.509 206.045 220.509 208.672Z" fill="#5687B9"/>
<path d="M181.668 255.655L208.05 239.59V252.169L198.835 258.08L208.05 263.499V276.697L181.668 261.137V255.655Z" fill="#204269"/>
<path d="M258.895 236.041L226.782 280.246H213.781L245.831 236.041H258.895Z" fill="#204269"/>
<path d="M290.996 261.124L264.614 276.684V263.486L273.829 258.068L264.614 252.157V239.577L290.996 255.643V261.124Z" fill="#204269"/>
<path d="M235.215 324.843H90.1136C85.9516 324.843 82.5776 328.218 82.5776 332.383V420.477C82.5776 424.642 85.9516 428.017 90.1136 428.017H235.215C239.377 428.017 242.751 424.642 242.751 420.477V332.383C242.751 328.218 239.377 324.843 235.215 324.843Z" fill="#03264D" stroke="#5687B9" stroke-width="2.5" stroke-linecap="round" stroke-linejoin="round"/>
<path d="M83.3979 353.841H232.299" stroke="#5687B9" stroke-width="2.5" stroke-linecap="round" stroke-linejoin="round"/>
<path d="M100.237 344.71C102.866 344.71 104.996 342.578 104.996 339.948C104.996 337.318 102.866 335.187 100.237 335.187C97.6091 335.187 95.4785 337.318 95.4785 339.948C95.4785 342.578 97.6091 344.71 100.237 344.71Z" fill="#204269"/>
<path d="M121.153 344.71C123.782 344.71 125.912 342.578 125.912 339.948C125.912 337.318 123.782 335.187 121.153 335.187C118.525 335.187 116.395 337.318 116.395 339.948C116.395 342.578 118.525 344.71 121.153 344.71Z" fill="#9ABAE3"/>
<path d="M146.841 339.948C146.841 342.575 144.708 344.71 142.083 344.71C139.457 344.71 137.324 342.575 137.324 339.948C137.324 337.321 139.457 335.187 142.083 335.187C144.708 335.187 146.841 337.321 146.841 339.948Z" fill="#5687B9"/>
<path d="M114.64 386.793C114.64 384.09 115.145 381.438 116.168 378.823C117.177 376.209 118.667 373.86 120.611 371.789C122.555 369.717 124.928 368.037 127.705 366.749C130.482 365.461 133.663 364.817 137.223 364.817C141.489 364.817 145.2 365.701 148.331 367.469C151.461 369.237 153.797 371.574 155.337 374.479L146.059 381.084C145.642 380.011 145.099 379.114 144.405 378.407C143.723 377.699 142.966 377.144 142.133 376.727C141.3 376.31 140.442 376.02 139.545 375.855C138.649 375.691 137.791 375.603 136.958 375.603C135.216 375.603 133.713 375.944 132.451 376.626C131.189 377.308 130.154 378.205 129.346 379.303C128.538 380.402 127.932 381.653 127.541 383.042C127.15 384.431 126.948 385.808 126.948 387.185C126.948 388.725 127.175 390.191 127.629 391.605C128.084 393.02 128.753 394.257 129.624 395.344C130.495 396.417 131.568 397.289 132.83 397.933C134.092 398.577 135.519 398.893 137.096 398.893C137.93 398.893 138.775 398.804 139.646 398.615C140.517 398.425 141.363 398.122 142.171 397.68C142.979 397.251 143.711 396.682 144.355 396C144.998 395.318 145.503 394.472 145.882 393.474L155.778 399.385C155.109 401.002 154.112 402.454 152.762 403.743C151.411 405.031 149.884 406.104 148.154 406.976C146.437 407.847 144.582 408.517 142.613 408.971C140.643 409.426 138.725 409.653 136.857 409.653C133.575 409.653 130.583 408.997 127.869 407.696C125.155 406.395 122.807 404.652 120.838 402.492C118.869 400.332 117.341 397.882 116.269 395.141C115.196 392.401 114.653 389.622 114.653 386.793H114.64Z" fill="#204269"/>
<path d="M181.453 382.499V391.832H176.164V397.743H165.586V391.832H160.297V382.499H165.586V376.588H176.164V382.499H181.453Z" fill="#204269"/>
<path d="M210.688 382.499V391.832H205.399V397.743H194.821V391.832H189.532V382.499H194.821V376.588H205.399V382.499H210.688Z" fill="#204269"/>
<path d="M606.381 247.799H306.131C301.857 247.799 298.393 251.266 298.393 255.542V469.242C298.393 473.518 301.857 476.984 306.131 476.984H606.381C610.655 476.984 614.119 473.518 614.119 469.242V255.542C614.119 251.266 610.655 247.799 606.381 247.799Z" fill="#03264D" stroke="#5687B9" stroke-width="2.5" stroke-linecap="round" stroke-linejoin="round"/>
<path d="M299.213 276.798H603.667" stroke="#5687B9" stroke-width="2.5" stroke-linecap="round" stroke-linejoin="round"/>
<path d="M320.799 262.905C320.799 265.532 318.665 267.666 316.04 267.666C313.414 267.666 311.281 265.532 311.281 262.905C311.281 260.278 313.414 258.143 316.04 258.143C318.665 258.143 320.799 260.278 320.799 262.905Z" fill="#204269"/>
<path d="M336.969 267.666C339.597 267.666 341.728 265.535 341.728 262.905C341.728 260.275 339.597 258.143 336.969 258.143C334.341 258.143 332.21 260.275 332.21 262.905C332.21 265.535 334.341 267.666 336.969 267.666Z" fill="#9ABAE3"/>
<path d="M362.656 262.905C362.656 265.532 360.523 267.666 357.898 267.666C355.272 267.666 353.139 265.532 353.139 262.905C353.139 260.278 355.272 258.143 357.898 258.143C360.523 258.143 362.656 260.278 362.656 262.905Z" fill="#5687B9"/>
<path d="M351.637 433.272H411.798" stroke="#9ABAE3" stroke-width="2.5" stroke-linecap="round" stroke-linejoin="round"/>
<path d="M324.081 300.416H335.05" stroke="#5687B9" stroke-width="2.5" stroke-linecap="round" stroke-linejoin="round"/>
<path d="M324.106 324.843H335.025" stroke="#5687B9" stroke-width="2.5" stroke-linecap="round" stroke-linejoin="round"/>
<path d="M324.106 336.892H335.025" stroke="#5687B9" stroke-width="2.5" stroke-linecap="round" stroke-linejoin="round"/>
<path d="M324.106 348.941H335.025" stroke="#5687B9" stroke-width="2.5" stroke-linecap="round" stroke-linejoin="round"/>
<path d="M324.106 360.99H335.025" stroke="#5687B9" stroke-width="2.5" stroke-linecap="round" stroke-linejoin="round"/>
<path d="M324.106 373.039H335.025" stroke="#5687B9" stroke-width="2.5" stroke-linecap="round" stroke-linejoin="round"/>
<path d="M324.106 385.075H335.025" stroke="#5687B9" stroke-width="2.5" stroke-linecap="round" stroke-linejoin="round"/>
<path d="M324.106 397.124H335.025" stroke="#5687B9" stroke-width="2.5" stroke-linecap="round" stroke-linejoin="round"/>
<path d="M324.106 409.173H335.025" stroke="#5687B9" stroke-width="2.5" stroke-linecap="round" stroke-linejoin="round"/>
<path d="M324.106 421.223H335.025" stroke="#5687B9" stroke-width="2.5" stroke-linecap="round" stroke-linejoin="round"/>
<path d="M324.106 433.272H335.025" stroke="#5687B9" stroke-width="2.5" stroke-linecap="round" stroke-linejoin="round"/>
<path d="M351.637 324.843H411.798" stroke="#204269" stroke-width="2.5" stroke-linecap="round" stroke-linejoin="round"/>
<path d="M427.614 324.843H465.736" stroke="#9ABAE3" stroke-width="2.5" stroke-linecap="round" stroke-linejoin="round"/>
<path d="M469.485 385.075H513.678" stroke="#5687B9" stroke-width="2.5" stroke-linecap="round" stroke-linejoin="round"/>
<path d="M510.219 433.272H533.004" stroke="#5687B9" stroke-width="2.5" stroke-linecap="round" stroke-linejoin="round"/>
<path d="M481.262 324.843H513.678" stroke="#5687B9" stroke-width="2.5" stroke-linecap="round" stroke-linejoin="round"/>
<path d="M427.614 348.941H485.175" stroke="#204269" stroke-width="2.5" stroke-linecap="round" stroke-linejoin="round"/>
<path d="M351.637 336.892H421.593" stroke="#204269" stroke-width="2.5" stroke-linecap="round" stroke-linejoin="round"/>
<path d="M405.764 397.124H501.648" stroke="#9ABAE3" stroke-width="2.5" stroke-linecap="round" stroke-linejoin="round"/>
<path d="M417.793 421.223H513.678" stroke="#9ABAE3" stroke-width="2.5" stroke-linecap="round" stroke-linejoin="round"/>
<path d="M435.075 409.173H530.946" stroke="#5687B9" stroke-width="2.5" stroke-linecap="round" stroke-linejoin="round"/>
<path d="M518.475 373.039H589.719" stroke="#5687B9" stroke-width="2.5" stroke-linecap="round" stroke-linejoin="round"/>
<path d="M351.637 348.941H411.798" stroke="#9ABAE3" stroke-width="2.5" stroke-linecap="round" stroke-linejoin="round"/>
<path d="M351.637 360.99H391.286" stroke="#204269" stroke-width="2.5" stroke-linecap="round" stroke-linejoin="round"/>
<path d="M518.386 397.124H570.999" stroke="#204269" stroke-width="2.5" stroke-linecap="round" stroke-linejoin="round"/>
<path d="M518.475 336.892H571.1" stroke="#9ABAE3" stroke-width="2.5" stroke-linecap="round" stroke-linejoin="round"/>
<path d="M405.764 360.99H469.485" stroke="#5687B9" stroke-width="2.5" stroke-linecap="round" stroke-linejoin="round"/>
<path d="M528.964 421.223H581.59" stroke="#5687B9" stroke-width="2.5" stroke-linecap="round" stroke-linejoin="round"/>
<path d="M436.703 336.892H502.28" stroke="#5687B9" stroke-width="2.5" stroke-linecap="round" stroke-linejoin="round"/>
<path d="M500.07 348.941H552.683" stroke="#5687B9" stroke-width="2.5" stroke-linecap="round" stroke-linejoin="round"/>
<path d="M351.637 373.039H421.593" stroke="#9ABAE3" stroke-width="2.5" stroke-linecap="round" stroke-linejoin="round"/>
<path d="M486.64 360.99H569.56" stroke="#9ABAE3" stroke-width="2.5" stroke-linecap="round" stroke-linejoin="round"/>
<path d="M436.703 373.039H504.299" stroke="#204269" stroke-width="2.5" stroke-linecap="round" stroke-linejoin="round"/>
<path d="M427.614 433.272H495.21" stroke="#204269" stroke-width="2.5" stroke-linecap="round" stroke-linejoin="round"/>
<path d="M351.637 385.075H450.399" stroke="#204269" stroke-width="2.5" stroke-linecap="round" stroke-linejoin="round"/>
<path d="M351.637 397.124H391.286" stroke="#204269" stroke-width="2.5" stroke-linecap="round" stroke-linejoin="round"/>
<path d="M351.637 409.173H421.593" stroke="#9ABAE3" stroke-width="2.5" stroke-linecap="round" stroke-linejoin="round"/>
<path d="M351.637 421.223H403.896" stroke="#204269" stroke-width="2.5" stroke-linecap="round" stroke-linejoin="round"/>
<path d="M324.106 445.321H335.025" stroke="#5687B9" stroke-width="2.5" stroke-linecap="round" stroke-linejoin="round"/>
<path d="M417.793 445.321H513.678" stroke="#9ABAE3" stroke-width="2.5" stroke-linecap="round" stroke-linejoin="round"/>
<path d="M528.964 445.321H581.59" stroke="#5687B9" stroke-width="2.5" stroke-linecap="round" stroke-linejoin="round"/>
<path d="M351.637 445.321H403.896" stroke="#204269" stroke-width="2.5" stroke-linecap="round" stroke-linejoin="round"/>
<path d="M324.106 457.37H335.025" stroke="#5687B9" stroke-width="2.5" stroke-linecap="round" stroke-linejoin="round"/>
<path d="M395.577 457.37H491.461" stroke="#5687B9" stroke-width="2.5" stroke-linecap="round" stroke-linejoin="round"/>
<path d="M504.299 457.37H572.412" stroke="#204269" stroke-width="2.5" stroke-linecap="round" stroke-linejoin="round"/>
<path d="M351.637 457.37H381.717" stroke="#9ABAE3" stroke-width="2.5" stroke-linecap="round" stroke-linejoin="round"/>
<path d="M544.841 549.674L567.574 537.252L613.175 620.797C615.843 625.686 614.043 631.821 609.157 634.491L604.128 637.239C599.242 639.909 593.11 638.108 590.442 633.219L544.841 549.674Z" fill="#204269"/>
<path d="M607.53 635.339L605.775 636.299C604.867 636.792 603.945 637.158 602.986 637.386C606.141 633.723 606.874 628.342 604.425 623.833L559.714 541.94L545.034 549.96L544.844 549.632L567.578 537.217L612.276 619.11C615.457 624.907 613.311 632.169 607.517 635.339H607.53Z" fill="#204269"/>
<path d="M544.841 549.674L567.574 537.252L613.175 620.797C615.843 625.686 614.043 631.821 609.157 634.491L604.128 637.239C599.242 639.909 593.11 638.108 590.442 633.219L544.841 549.674Z" stroke="#5687B9" stroke-width="2.5" stroke-linecap="round" stroke-linejoin="round"/>
<path d="M591.41 420.515C614.763 463.28 601.407 515.569 561.595 537.318C559.322 538.556 557.025 539.667 554.702 540.652C589.378 516.983 597.065 469.785 575.051 429.445C553.036 389.13 509.184 370.096 470.545 386.49C472.628 385.063 474.799 383.737 477.071 382.499C516.884 360.75 568.057 377.763 591.397 420.515" fill="#5687B9"/>
<path d="M591.41 420.515C614.763 463.28 601.407 515.569 561.595 537.318C559.322 538.556 557.025 539.667 554.702 540.652C589.378 516.983 597.065 469.785 575.051 429.445C553.036 389.13 509.184 370.096 470.545 386.49C472.628 385.063 474.799 383.737 477.071 382.499C516.884 360.75 568.057 377.763 591.397 420.515" stroke="#5687B9" stroke-width="2.5" stroke-linecap="round" stroke-linejoin="round"/>
<path d="M554.715 540.652C552.632 542.079 550.461 543.405 548.189 544.656C508.364 566.417 457.19 549.405 433.837 506.639C410.498 463.887 423.853 411.598 463.666 389.837C465.938 388.599 468.235 387.488 470.558 386.502C435.87 410.184 429.647 456.574 451.649 496.902C473.663 537.242 516.051 557.071 554.703 540.665L554.715 540.652Z" fill="#204269" stroke="#5687B9" stroke-width="2.5" stroke-linecap="round" stroke-linejoin="round"/>
<path d="M451.081 437.831C448.278 459.795 457.443 489.74 476.465 510.668" stroke="#5687B9" stroke-width="2.5" stroke-linecap="round" stroke-linejoin="round"/>
<path d="M484.607 518.512C489.871 523.804 498.581 528.123 498.581 528.123" stroke="#5687B9" stroke-width="2.5" stroke-linecap="round" stroke-linejoin="round"/>
<path d="M569.848 529.492L537.088 547.392L542.606 557.502L575.365 539.601L569.848 529.492Z" fill="#204269" stroke="#5687B9" stroke-width="2.5" stroke-linecap="round" stroke-linejoin="round"/>
<g filter="url(#filter0_d_2052_17087)">
<rect x="294" y="554" width="119.25" height="119.25" rx="26" fill="#002147" shape-rendering="crispEdges"/>
<rect x="294" y="554" width="119.25" height="119.25" rx="26" stroke="#5687B9" stroke-opacity="0.25" stroke-width="3" stroke-linecap="round" stroke-dasharray="8 8" shape-rendering="crispEdges"/>
</g>
<g filter="url(#filter1_d_2052_17087)">
<rect x="306" y="566" width="95.25" height="95.25" rx="16" fill="#F08021"/>
</g>
<g clip-path="url(#clip1_2052_17087)">
<path d="M346.469 605.062C345.499 605.062 344.711 604.274 344.711 603.305C344.711 601.955 344.201 600.723 343.364 599.789C344.201 598.855 344.711 597.623 344.711 596.273C344.711 595.304 345.499 594.516 346.469 594.516C347.44 594.516 348.227 593.729 348.227 592.758C348.227 591.787 347.44 591 346.469 591C343.561 591 341.195 593.366 341.195 596.273C341.195 597.243 340.407 598.031 339.438 598.031C338.467 598.031 337.68 598.818 337.68 599.789C337.68 600.76 338.467 601.547 339.438 601.547C340.407 601.547 341.195 602.335 341.195 603.305C341.195 606.212 343.561 608.578 346.469 608.578C347.44 608.578 348.227 607.791 348.227 606.82C348.227 605.849 347.44 605.062 346.469 605.062Z" fill="white"/>
<path d="M360.531 605.062C359.56 605.062 358.773 605.849 358.773 606.82C358.773 607.791 359.56 608.578 360.531 608.578C363.439 608.578 365.805 606.212 365.805 603.305C365.805 602.335 366.593 601.547 367.562 601.547C368.533 601.547 369.32 600.76 369.32 599.789C369.32 598.818 368.533 598.031 367.562 598.031C366.593 598.031 365.805 597.243 365.805 596.273C365.805 593.366 363.439 591 360.531 591C359.56 591 358.773 591.787 358.773 592.758C358.773 593.729 359.56 594.516 360.531 594.516C361.501 594.516 362.289 595.304 362.289 596.273C362.289 597.623 362.799 598.855 363.636 599.789C362.799 600.723 362.289 601.955 362.289 603.305C362.289 604.274 361.501 605.062 360.531 605.062Z" fill="white"/>
<path d="M349.984 601.547C350.955 601.547 351.742 600.76 351.742 599.789C351.742 598.818 350.955 598.031 349.984 598.031C349.014 598.031 348.227 598.818 348.227 599.789C348.227 600.76 349.014 601.547 349.984 601.547Z" fill="white"/>
<path d="M357.016 601.547C357.986 601.547 358.773 600.76 358.773 599.789C358.773 598.818 357.986 598.031 357.016 598.031C356.045 598.031 355.258 598.818 355.258 599.789C355.258 600.76 356.045 601.547 357.016 601.547Z" fill="white"/>
<path d="M332.758 618.422H337.982C338.708 620.468 340.662 621.938 342.953 621.938H346.469C349.377 621.938 351.742 619.572 351.742 616.664C351.742 613.756 349.377 611.391 346.469 611.391H342.953C340.662 611.391 338.708 612.86 337.982 614.906H332.758C331.787 614.906 331 615.693 331 616.664C331 617.635 331.787 618.422 332.758 618.422ZM342.953 614.906H346.469C347.438 614.906 348.227 615.695 348.227 616.664C348.227 617.633 347.438 618.422 346.469 618.422H342.953C341.984 618.422 341.195 617.633 341.195 616.664C341.195 615.695 341.984 614.906 342.953 614.906Z" fill="white"/>
<path d="M374.242 614.906H357.016C356.045 614.906 355.258 615.693 355.258 616.664C355.258 617.635 356.045 618.422 357.016 618.422H374.242C375.213 618.422 376 617.635 376 616.664C376 615.693 375.213 614.906 374.242 614.906Z" fill="white"/>
<path d="M332.758 632.484H348.529C349.255 634.53 351.208 636 353.5 636H357.016C359.923 636 362.289 633.634 362.289 630.727C362.289 627.819 359.923 625.453 357.016 625.453H353.5C351.208 625.453 349.255 626.923 348.529 628.969H332.758C331.787 628.969 331 629.756 331 630.727C331 631.697 331.787 632.484 332.758 632.484ZM353.5 628.969H357.016C357.985 628.969 358.773 629.757 358.773 630.727C358.773 631.696 357.985 632.484 357.016 632.484H353.5C352.531 632.484 351.742 631.696 351.742 630.727C351.742 629.757 352.531 628.969 353.5 628.969Z" fill="white"/>
<path d="M374.242 628.969H367.562C366.592 628.969 365.805 629.756 365.805 630.727C365.805 631.697 366.592 632.484 367.562 632.484H374.242C375.213 632.484 376 631.697 376 630.727C376 629.756 375.213 628.969 374.242 628.969Z" fill="white"/>
</g>
<g filter="url(#filter2_d_2052_17087)">
<rect x="345" y="158" width="119.25" height="119.25" rx="26" fill="#002147" shape-rendering="crispEdges"/>
<rect x="345" y="158" width="119.25" height="119.25" rx="26" stroke="#5687B9" stroke-opacity="0.25" stroke-width="3" stroke-linecap="round" stroke-dasharray="8 8" shape-rendering="crispEdges"/>
</g>
<g filter="url(#filter3_d_2052_17087)">
<rect x="357" y="170" width="95.25" height="95.25" rx="16" fill="#5687B9"/>
</g>
<g clip-path="url(#clip2_2052_17087)">
<path d="M416.805 195C411.958 195 408.016 198.943 408.016 203.789V208.359H395.711C392.803 208.359 390.438 210.725 390.438 213.633V220.664C390.438 223.572 392.803 225.938 395.711 225.938H409.773C412.681 225.938 415.047 223.572 415.047 220.664V213.633C415.047 211.341 413.577 209.387 411.531 208.662V203.789C411.531 200.881 413.897 198.516 416.805 198.516C419.712 198.516 422.078 200.881 422.078 203.789V210.117C422.078 211.088 422.865 211.875 423.836 211.875C424.807 211.875 425.594 211.088 425.594 210.117V203.789C425.594 198.943 421.651 195 416.805 195ZM411.531 220.664C411.531 221.633 410.743 222.422 409.773 222.422H395.711C394.742 222.422 393.953 221.633 393.953 220.664V213.633C393.953 212.664 394.742 211.875 395.711 211.875H409.773C410.743 211.875 411.531 212.664 411.531 213.633V220.664Z" fill="white"/>
<path d="M402.742 218.906C403.713 218.906 404.5 218.119 404.5 217.148C404.5 216.178 403.713 215.391 402.742 215.391C401.771 215.391 400.984 216.178 400.984 217.148C400.984 218.119 401.771 218.906 402.742 218.906Z" fill="white"/>
<path d="M407.501 229.968C406.814 229.281 405.701 229.282 405.015 229.968L402.742 232.241L400.47 229.968C399.783 229.281 398.67 229.281 397.984 229.968C397.297 230.655 397.297 231.767 397.984 232.454L400.256 234.727L397.984 236.999C397.297 237.686 397.297 238.799 397.984 239.485C398.67 240.172 399.783 240.172 400.47 239.485L402.742 237.212L405.015 239.485C405.701 240.172 406.814 240.172 407.501 239.485C408.187 238.799 408.187 237.686 407.501 236.999L405.228 234.727L407.501 232.454C408.187 231.767 408.187 230.654 407.501 229.968Z" fill="white"/>
<path d="M419.291 234.727L421.563 232.454C422.25 231.767 422.25 230.654 421.563 229.968C420.877 229.282 419.764 229.281 419.077 229.968L416.805 232.241L414.532 229.968C413.846 229.281 412.733 229.281 412.046 229.968C411.36 230.655 411.36 231.767 412.046 232.454L414.319 234.727L412.046 236.999C411.36 237.686 411.36 238.799 412.046 239.485C412.733 240.172 413.846 240.172 414.532 239.485L416.805 237.213L419.077 239.485C419.764 240.172 420.877 240.172 421.563 239.485C422.25 238.799 422.25 237.686 421.563 236.999L419.291 234.727Z" fill="white"/>
<path d="M393.438 229.968C392.752 229.281 391.639 229.281 390.952 229.968L388.68 232.241L386.407 229.968C385.721 229.281 384.608 229.281 383.921 229.968C383.235 230.655 383.235 231.767 383.921 232.454L386.194 234.727L383.921 236.999C383.235 237.686 383.235 238.799 383.921 239.485C384.608 240.172 385.721 240.172 386.407 239.485L388.68 237.212L390.952 239.485C391.639 240.172 392.752 240.172 393.438 239.485C394.125 238.799 394.125 237.686 393.438 236.999L391.166 234.727L393.438 232.454C394.125 231.767 394.125 230.654 393.438 229.968Z" fill="white"/>
</g>
</g>
<defs>
<filter id="filter0_d_2052_17087" x="247.5" y="517.5" width="212.25" height="212.25" filterUnits="userSpaceOnUse" color-interpolation-filters="sRGB">
<feFlood flood-opacity="0" result="BackgroundImageFix"/>
<feColorMatrix in="SourceAlpha" type="matrix" values="0 0 0 0 0 0 0 0 0 0 0 0 0 0 0 0 0 0 127 0" result="hardAlpha"/>
<feOffset dy="10"/>
<feGaussianBlur stdDeviation="22.5"/>
<feComposite in2="hardAlpha" operator="out"/>
<feColorMatrix type="matrix" values="0 0 0 0 0.0108248 0 0 0 0 0.0576239 0 0 0 0 0.111514 0 0 0 0.3 0"/>
<feBlend mode="normal" in2="BackgroundImageFix" result="effect1_dropShadow_2052_17087"/>
<feBlend mode="normal" in="SourceGraphic" in2="effect1_dropShadow_2052_17087" result="shape"/>
</filter>
<filter id="filter1_d_2052_17087" x="261" y="531" width="185.25" height="185.25" filterUnits="userSpaceOnUse" color-interpolation-filters="sRGB">
<feFlood flood-opacity="0" result="BackgroundImageFix"/>
<feColorMatrix in="SourceAlpha" type="matrix" values="0 0 0 0 0 0 0 0 0 0 0 0 0 0 0 0 0 0 127 0" result="hardAlpha"/>
<feOffset dy="10"/>
<feGaussianBlur stdDeviation="22.5"/>
<feComposite in2="hardAlpha" operator="out"/>
<feColorMatrix type="matrix" values="0 0 0 0 0.0108248 0 0 0 0 0.0576239 0 0 0 0 0.111514 0 0 0 0.3 0"/>
<feBlend mode="normal" in2="BackgroundImageFix" result="effect1_dropShadow_2052_17087"/>
<feBlend mode="normal" in="SourceGraphic" in2="effect1_dropShadow_2052_17087" result="shape"/>
</filter>
<filter id="filter2_d_2052_17087" x="298.5" y="121.5" width="212.25" height="212.25" filterUnits="userSpaceOnUse" color-interpolation-filters="sRGB">
<feFlood flood-opacity="0" result="BackgroundImageFix"/>
<feColorMatrix in="SourceAlpha" type="matrix" values="0 0 0 0 0 0 0 0 0 0 0 0 0 0 0 0 0 0 127 0" result="hardAlpha"/>
<feOffset dy="10"/>
<feGaussianBlur stdDeviation="22.5"/>
<feComposite in2="hardAlpha" operator="out"/>
<feColorMatrix type="matrix" values="0 0 0 0 0.0108248 0 0 0 0 0.0576239 0 0 0 0 0.111514 0 0 0 0.3 0"/>
<feBlend mode="normal" in2="BackgroundImageFix" result="effect1_dropShadow_2052_17087"/>
<feBlend mode="normal" in="SourceGraphic" in2="effect1_dropShadow_2052_17087" result="shape"/>
</filter>
<filter id="filter3_d_2052_17087" x="312" y="135" width="185.25" height="185.25" filterUnits="userSpaceOnUse" color-interpolation-filters="sRGB">
<feFlood flood-opacity="0" result="BackgroundImageFix"/>
<feColorMatrix in="SourceAlpha" type="matrix" values="0 0 0 0 0 0 0 0 0 0 0 0 0 0 0 0 0 0 127 0" result="hardAlpha"/>
<feOffset dy="10"/>
<feGaussianBlur stdDeviation="22.5"/>
<feComposite in2="hardAlpha" operator="out"/>
<feColorMatrix type="matrix" values="0 0 0 0 0.0108248 0 0 0 0 0.0576239 0 0 0 0 0.111514 0 0 0 0.3 0"/>
<feBlend mode="normal" in2="BackgroundImageFix" result="effect1_dropShadow_2052_17087"/>
<feBlend mode="normal" in="SourceGraphic" in2="effect1_dropShadow_2052_17087" result="shape"/>
</filter>
<clipPath id="clip0_2052_17087">
<rect width="730" height="720" fill="white"/>
</clipPath>
<clipPath id="clip1_2052_17087">
<rect width="45" height="45" fill="white" transform="translate(331 591)"/>
</clipPath>
<clipPath id="clip2_2052_17087">
<rect width="45" height="45" fill="white" transform="translate(382 195)"/>
</clipPath>
</defs>
</svg>
