<svg width="733" height="596" viewBox="0 0 733 596" fill="none" xmlns="http://www.w3.org/2000/svg">
<path d="M425.129 162.216L424.821 161.121C424.645 160.492 424.462 159.866 424.273 159.243C424.034 158.454 424.477 157.621 425.263 157.376C424.356 154.544 423.328 151.785 422.187 149.1C421.432 149.428 420.552 149.086 420.218 148.333C419.69 147.142 419.14 145.966 418.567 144.805C418.202 144.066 418.503 143.171 419.238 142.802C417.889 140.168 416.427 137.609 414.862 135.125C414.169 135.569 413.246 135.371 412.796 134.68C412.089 133.592 411.361 132.519 410.614 131.461C410.138 130.787 410.296 129.856 410.966 129.376C409.232 126.992 407.4 124.682 405.48 122.444C404.858 122.985 403.916 122.923 403.37 122.304C402.512 121.33 401.637 120.37 400.746 119.424C400.179 118.823 400.205 117.879 400.802 117.31C398.757 115.194 396.632 113.149 394.434 111.173C393.887 111.789 392.943 111.848 392.323 111.303C391.348 110.445 390.358 109.601 389.356 108.769C388.72 108.242 388.63 107.301 389.153 106.664C386.869 104.811 384.521 103.026 382.119 101.306C381.642 101.979 380.71 102.141 380.033 101.666C378.967 100.918 377.89 100.183 376.802 99.4603C376.115 99.0029 375.926 98.0757 376.38 97.3864C373.914 95.7795 371.401 94.236 368.849 92.7544C368.437 93.4701 367.524 93.7191 366.806 93.3102C365.672 92.6646 364.53 92.0309 363.382 91.4092C362.655 91.0158 362.384 90.1089 362.774 89.3813C360.17 87.9981 357.533 86.6756 354.873 85.4123C354.521 86.1597 353.631 86.4826 352.882 86.1335C351.696 85.5809 350.505 85.0401 349.311 84.5108C348.555 84.1758 348.213 83.2928 348.545 82.5365C345.833 81.3571 343.104 80.2366 340.365 79.1736C340.069 79.9448 339.204 80.3314 338.431 80.0373C337.208 79.5715 335.982 79.1171 334.756 78.6741C333.979 78.3931 333.576 77.536 333.854 76.7581C331.055 75.7667 328.254 74.8337 325.46 73.9577C325.215 74.7469 324.378 75.1898 323.587 74.9472C322.332 74.562 321.078 74.1882 319.827 73.8258C319.033 73.5958 318.575 72.7665 318.802 71.9721C315.935 71.1602 313.084 70.4077 310.258 69.7129C310.063 70.516 309.255 71.0105 308.45 70.8178C307.167 70.5104 305.89 70.2149 304.619 69.9313C303.812 69.7511 303.303 68.9519 303.481 68.1448C300.547 67.5082 297.65 66.9342 294.803 66.421C294.659 67.2347 293.883 67.779 293.069 67.6373C291.767 67.4109 290.476 67.1974 289.197 66.9965C288.38 66.8682 287.822 66.1033 287.947 65.2866C284.948 64.835 282.018 64.4532 279.173 64.1387C279.085 64.9599 278.349 65.5562 277.527 65.4712C276.21 65.335 274.913 65.2137 273.637 65.1068C272.813 65.0378 272.201 64.3158 272.267 63.4926C269.182 63.2584 266.225 63.1095 263.418 63.0421C263.403 63.8669 262.723 64.5249 261.898 64.5135C261.249 64.5045 260.61 64.5 259.98 64.5C259.35 64.5 258.71 64.5045 258.062 64.5135C257.236 64.5249 256.557 63.8669 256.542 63.0421C253.735 63.1095 250.778 63.2584 247.694 63.4925C247.76 64.3157 247.148 65.0377 246.324 65.1067C245.048 65.2136 243.751 65.3349 242.434 65.471C241.612 65.556 240.876 64.9598 240.788 64.1385C237.943 64.453 235.014 64.8347 232.015 65.2863C232.14 66.1029 231.582 66.8679 230.765 66.9962C229.486 67.197 228.196 67.4105 226.894 67.6369C226.079 67.7785 225.304 67.2342 225.16 66.4206C222.312 66.9337 219.416 67.5076 216.482 68.1442C216.66 68.9512 216.151 69.7504 215.344 69.9306C214.073 70.2142 212.796 70.5096 211.513 70.817C210.709 71.0097 209.901 70.5152 209.706 69.7121C206.88 70.4068 204.029 71.1592 201.162 71.971C201.39 72.7654 200.932 73.5947 200.137 73.8247C198.886 74.1871 197.633 74.5608 196.378 74.946C195.587 75.1886 194.75 74.7457 194.505 73.9565C191.711 74.8324 188.91 75.7653 186.112 76.7566C186.39 77.5345 185.987 78.3916 185.209 78.6726C183.983 79.1156 182.758 79.5699 181.535 80.0357C180.762 80.3298 179.897 79.9432 179.601 79.172C176.863 80.2349 174.133 81.3553 171.421 82.5345C171.753 83.2909 171.411 84.1739 170.656 84.5089C169.462 85.0381 168.271 85.579 167.085 86.1315C166.336 86.4806 165.446 86.1577 165.095 85.4103C162.434 86.6735 159.798 87.996 157.194 89.3791C157.584 90.1067 157.313 91.0136 156.586 91.407C155.438 92.0287 154.296 92.6623 153.162 93.308C152.444 93.7169 151.531 93.4679 151.12 92.7521C148.568 94.2337 146.055 95.7771 143.589 97.384C144.043 98.0732 143.855 99.0004 143.167 99.4579C142.08 100.181 141.003 100.916 139.937 101.664C139.26 102.138 138.328 101.977 137.851 101.303C135.449 103.023 133.102 104.809 130.818 106.661C131.341 107.299 131.251 108.24 130.616 108.767C129.613 109.598 128.624 110.443 127.649 111.3C127.029 111.845 126.085 111.787 125.537 111.171C123.341 113.147 121.216 115.192 119.172 117.308C119.768 117.877 119.794 118.821 119.228 119.422C118.336 120.368 117.461 121.328 116.604 122.302C116.058 122.921 115.116 122.983 114.494 122.443C112.574 124.68 110.744 126.991 109.01 129.375C109.68 129.854 109.838 130.785 109.362 131.459C108.615 132.518 107.888 133.591 107.181 134.679C106.731 135.37 105.808 135.568 105.115 135.124C103.551 137.609 102.09 140.167 100.741 142.801C101.476 143.171 101.777 144.065 101.413 144.805C100.841 145.966 100.29 147.141 99.7628 148.332C99.4287 149.086 98.5494 149.428 97.7944 149.1C96.6542 151.785 95.6271 154.543 94.7212 157.376C95.5071 157.621 95.95 158.454 95.7112 159.243C95.5228 159.865 95.3403 160.491 95.1639 161.121L95.1638 161.121C94.9886 161.745 94.8169 162.368 94.6486 162.99C94.4324 163.788 93.6116 164.26 92.8136 164.047C92.0733 166.857 91.4016 169.637 90.7946 172.386C91.6018 172.562 92.1159 173.357 91.9435 174.165C91.6761 175.419 91.4222 176.667 91.1814 177.908C91.024 178.719 90.2399 179.25 89.4285 179.096C88.8955 181.954 88.4314 184.778 88.0317 187.567C88.8497 187.681 89.422 188.436 89.3108 189.255C89.1382 190.526 88.9791 191.79 88.8329 193.046C88.7373 193.867 87.9958 194.456 87.1751 194.363C86.8609 197.251 86.6143 200.1 86.4299 202.91C87.2542 202.96 87.8827 203.669 87.8348 204.494C87.7601 205.778 87.6985 207.055 87.6494 208.322C87.6174 209.148 86.9234 209.792 86.098 209.763C86.0075 212.661 85.9812 215.513 86.0128 218.321C86.8386 218.308 87.5196 218.966 87.535 219.793C87.5591 221.085 87.5954 222.368 87.6434 223.641C87.6745 224.467 87.0316 225.162 86.2064 225.196C86.337 228.1 86.5268 230.952 86.7683 233.753C87.5909 233.679 88.3191 234.285 88.3959 235.108C88.5149 236.383 88.6445 237.648 88.784 238.902C88.8754 239.723 88.2849 240.464 87.4642 240.558C87.8063 243.452 88.1998 246.286 88.6352 249.061C89.451 248.93 90.2194 249.484 90.3528 250.3C90.5616 251.577 90.7791 252.841 91.0044 254.092C91.151 254.905 90.6114 255.684 89.7986 255.833C90.3338 258.704 90.9085 261.506 91.511 264.237C92.3177 264.056 93.1186 264.563 93.3011 265.37C93.5865 266.631 93.8776 267.877 94.1731 269.108C94.3663 269.912 93.8719 270.72 93.0684 270.915C93.7686 273.77 94.4905 276.539 95.2191 279.221C96.0169 279.003 96.8412 279.472 97.061 280.27C97.4063 281.523 97.7525 282.758 98.0982 283.973C98.3246 284.769 97.8634 285.598 97.0678 285.826C97.887 288.676 98.6984 291.416 99.4807 294.045C100.275 293.809 101.11 294.26 101.346 295.054L101.376 295.153C101.741 296.381 102.1 297.584 102.449 298.762C102.684 299.556 102.23 300.391 101.436 300.626C101.436 300.626 101.435 300.626 101.435 300.626C102.292 303.541 103.08 306.293 103.763 308.881C103.766 308.88 103.768 308.88 103.77 308.879C104.573 308.675 105.39 309.161 105.594 309.963C105.925 311.267 106.228 312.53 106.496 313.753C106.674 314.562 106.162 315.362 105.353 315.54C105.349 315.541 105.345 315.542 105.341 315.543C105.978 318.702 106.349 321.541 106.357 324.054C106.374 324.054 106.39 324.055 106.407 324.056C107.234 324.106 107.864 324.817 107.814 325.644C107.771 326.351 107.696 327.039 107.585 327.705C107.486 328.306 107.385 328.907 107.284 329.506C107.147 330.323 106.374 330.874 105.557 330.737C105.556 330.737 105.556 330.737 105.556 330.737C105.471 331.238 105.387 331.738 105.302 332.238C104.943 334.36 104.585 336.472 104.244 338.565C105.06 338.697 105.616 339.465 105.486 340.282C105.293 341.487 105.107 342.684 104.931 343.871C104.809 344.689 104.049 345.254 103.231 345.134C102.849 347.817 102.52 350.45 102.279 353.013C103.099 353.085 103.709 353.806 103.642 354.629C103.543 355.843 103.466 357.037 103.415 358.21C103.378 359.033 102.685 359.672 101.864 359.643C101.792 362.411 101.872 365.064 102.151 367.571C102.96 367.467 103.707 368.03 103.827 368.84C104.001 370.026 104.226 371.168 104.506 372.264C104.707 373.054 104.24 373.858 103.459 374.078C104.267 376.69 105.415 379.062 106.982 381.142C107.604 380.635 108.521 380.707 109.055 381.314C109.423 381.733 109.813 382.137 110.225 382.526C110.658 382.934 111.163 383.32 111.742 383.684C112.422 384.112 112.641 384.995 112.253 385.687C114.866 386.994 118.263 387.874 122.137 388.487C122.257 387.675 123.01 387.108 123.826 387.221C125.215 387.412 126.664 387.574 128.159 387.713C128.981 387.789 129.586 388.515 129.515 389.336C132.819 389.606 136.294 389.777 139.803 389.921C139.836 389.094 140.533 388.45 141.36 388.482C142.163 388.514 142.961 388.544 143.76 388.575C144.437 388.6 145.113 388.626 145.792 388.652C146.62 388.685 147.265 389.382 147.233 390.21C147.233 390.21 147.233 390.21 147.233 390.211C150.775 390.354 154.252 390.522 157.523 390.789C157.523 390.786 157.523 390.783 157.523 390.78C157.6 389.955 158.331 389.348 159.156 389.425C160.699 389.569 162.196 389.739 163.631 389.944C164.451 390.061 165.021 390.82 164.904 391.64C164.903 391.646 164.902 391.651 164.901 391.657C168.92 392.324 172.299 393.308 174.638 394.818C174.661 394.786 174.686 394.756 174.713 394.726C175.262 394.105 176.21 394.048 176.83 394.597C177.506 395.195 178.086 395.87 178.542 396.632C178.976 397.356 179.359 398.106 179.696 398.876C180.028 399.635 179.682 400.519 178.923 400.852C178.906 400.859 178.889 400.866 178.873 400.873C180.061 404.225 180.476 407.97 180.53 411.711C180.536 411.711 180.542 411.711 180.547 411.711C181.376 411.719 182.041 412.397 182.033 413.225C182.018 414.836 181.947 416.429 181.854 417.971C181.804 418.798 181.093 419.428 180.266 419.378C180.264 419.377 180.261 419.377 180.259 419.377C180.198 420.246 180.133 421.098 180.07 421.927C179.818 425.226 179.594 428.164 179.782 430.37C180.551 430.256 181.289 430.752 181.463 431.522C181.635 432.28 181.865 432.641 182.042 432.803L182.045 432.805C182.044 432.805 182.045 432.805 182.047 432.807C182.053 432.812 182.074 432.829 182.117 432.856C182.174 432.893 182.255 432.941 182.365 432.998C183.066 433.36 183.361 434.2 183.057 434.916C183.514 435.083 184.036 435.257 184.618 435.437C184.849 434.65 185.672 434.194 186.463 434.417C186.7 434.483 186.945 434.551 187.197 434.619L188.524 434.979L188.28 436.333C188.152 437.044 188.019 437.793 187.884 438.565C187.743 439.38 186.968 439.926 186.153 439.786C185.528 443.481 184.923 447.487 184.701 450.351C185.509 450.396 186.139 451.075 186.118 451.889C186.104 452.406 186.114 452.809 186.143 453.102C186.155 453.226 186.17 453.314 186.182 453.372C186.199 453.388 186.224 453.41 186.259 453.437C186.375 453.526 186.555 453.637 186.813 453.762C187.523 454.108 187.838 454.94 187.552 455.662C189.593 456.334 192.354 456.814 194.469 457.113C194.576 456.298 195.321 455.72 196.138 455.82C196.635 455.881 197.042 455.927 197.325 455.956C197.4 455.964 197.467 455.971 197.523 455.977C197.573 455.982 197.615 455.986 197.65 455.99L197.733 455.998L197.753 456L197.758 456L197.758 456L198.225 456.044L198.584 456.345L198.584 456.345L198.584 456.345L198.585 456.346L198.585 456.346L198.596 456.355L198.646 456.396C198.691 456.433 198.761 456.489 198.853 456.562C199.038 456.708 199.313 456.919 199.662 457.175C200.323 457.657 200.474 458.577 200.009 459.244C201.347 460.133 203.139 461.19 205.104 461.983C205.376 461.229 206.198 460.819 206.969 461.064C207.397 461.2 207.826 461.317 208.252 461.411C208.649 461.499 209.044 461.578 209.435 461.649C210.24 461.796 210.777 462.559 210.647 463.363C212.381 463.606 213.957 463.707 215.198 463.741C215.205 462.926 215.863 462.264 216.682 462.255C217.064 462.251 217.363 462.241 217.564 462.232C217.665 462.228 217.74 462.224 217.789 462.221L217.843 462.218L217.854 462.217L217.855 462.217L217.855 462.217H217.855L217.856 462.217L218.274 462.188L218.647 462.381L218.648 462.381L218.651 462.383L218.668 462.392L218.735 462.426C218.795 462.457 218.884 462.502 218.999 462.56C219.23 462.676 219.565 462.842 219.979 463.043C220.72 463.403 221.032 464.293 220.679 465.036C222.313 465.797 224.445 466.729 226.383 467.388C226.621 466.618 227.429 466.17 228.212 466.385C228.709 466.521 229.15 466.618 229.523 466.672L229.525 466.673C229.961 466.737 230.407 466.792 230.856 466.839C231.671 466.924 232.265 467.646 232.195 468.458C234.187 468.593 236.124 468.593 237.628 468.553C237.597 467.733 238.232 467.039 239.054 466.999C239.481 466.978 239.821 466.957 240.053 466.941C240.169 466.933 240.258 466.927 240.317 466.922L240.383 466.917L240.398 466.916L240.402 466.916L240.736 466.888L241.049 467.004L241.05 467.004L241.053 467.006L241.07 467.012L241.142 467.038C241.207 467.061 241.305 467.096 241.433 467.141C241.69 467.23 242.068 467.357 242.542 467.507C243.325 467.755 243.761 468.586 243.525 469.37C245.338 469.889 247.778 470.485 250.277 470.793C250.356 469.986 251.064 469.385 251.877 469.443C252.4 469.48 252.916 469.5 253.42 469.5C253.707 469.5 253.981 469.497 254.242 469.492C255.059 469.475 255.737 470.115 255.772 470.927C256.622 470.87 257.305 470.782 257.851 470.681C257.653 469.96 258.019 469.188 258.728 468.897C258.772 468.879 258.809 468.862 258.838 468.848L260.031 466.733L261.182 468.856C261.209 468.869 261.242 468.883 261.281 468.9C261.99 469.191 262.356 469.962 262.157 470.683C262.704 470.783 263.387 470.871 264.238 470.928C264.273 470.115 264.95 469.475 265.768 469.492C266.029 469.497 266.303 469.5 266.591 469.5C267.095 469.5 267.611 469.48 268.134 469.443C268.947 469.385 269.655 469.987 269.733 470.794C272.237 470.487 274.674 469.891 276.486 469.372C276.249 468.588 276.686 467.757 277.468 467.509C277.942 467.359 278.319 467.231 278.576 467.142C278.638 467.12 278.693 467.101 278.741 467.084C278.791 467.066 278.834 467.051 278.867 467.039L278.939 467.012L278.956 467.006L278.959 467.005L278.959 467.005L279.274 466.888L425.129 162.216ZM425.129 162.216H425.15M425.129 162.216H425.15M425.15 162.216C425.221 162.474 425.291 162.732 425.361 162.99C425.577 163.788 426.398 164.26 427.196 164.047C427.935 166.857 428.606 169.637 429.213 172.387C428.405 172.562 427.891 173.357 428.063 174.165C428.33 175.419 428.584 176.667 428.825 177.908C428.982 178.719 429.766 179.25 430.577 179.096C431.11 181.955 431.573 184.779 431.972 187.568C431.154 187.682 430.582 188.436 430.693 189.255C430.865 190.526 431.024 191.79 431.17 193.046C431.265 193.867 432.007 194.456 432.828 194.364C433.141 197.252 433.388 200.101 433.572 202.91C432.747 202.961 432.119 203.669 432.166 204.494C432.241 205.779 432.302 207.055 432.351 208.323C432.383 209.149 433.077 209.793 433.903 209.764C433.993 212.661 434.019 215.513 433.987 218.321C433.161 218.309 432.48 218.966 432.465 219.793C432.441 221.085 432.404 222.368 432.356 223.641C432.325 224.467 432.968 225.162 433.793 225.196C433.662 228.1 433.472 230.952 433.231 233.753C432.408 233.679 431.68 234.285 431.603 235.108C431.484 236.383 431.355 237.648 431.215 238.901C431.124 239.723 431.714 240.463 432.535 240.557C432.193 243.451 431.8 246.286 431.364 249.06C430.548 248.929 429.78 249.483 429.647 250.299C429.438 251.576 429.221 252.84 428.995 254.091C428.849 254.905 429.388 255.683 430.201 255.832C429.666 258.704 429.092 261.505 428.49 264.236C427.683 264.056 426.882 264.562 426.7 265.369C426.414 266.63 426.124 267.876 425.828 269.107C425.635 269.911 426.13 270.72 426.933 270.915C426.233 273.769 425.512 276.538 424.784 279.221C423.986 279.003 423.161 279.472 422.942 280.27C422.597 281.523 422.251 282.758 421.905 283.973C421.679 284.769 422.14 285.598 422.936 285.825C422.117 288.676 421.306 291.416 420.524 294.045C419.73 293.808 418.895 294.26 418.659 295.054C418.283 296.316 417.915 297.552 417.557 298.762C417.322 299.557 417.776 300.391 418.57 300.626C418.57 300.626 418.571 300.626 418.571 300.626C417.715 303.541 416.927 306.293 416.244 308.881C416.242 308.88 416.24 308.88 416.237 308.879C415.435 308.675 414.618 309.161 414.414 309.964C414.083 311.267 413.781 312.531 413.512 313.754C413.335 314.563 413.847 315.363 414.656 315.54C414.66 315.541 414.664 315.542 414.668 315.543C414.032 318.702 413.661 321.541 413.653 324.054C413.636 324.054 413.62 324.055 413.603 324.056C412.776 324.106 412.147 324.817 412.197 325.644C412.24 326.351 412.315 327.039 412.425 327.705C412.525 328.306 412.625 328.907 412.726 329.506C412.863 330.323 413.637 330.875 414.454 330.737C414.454 330.737 414.454 330.737 414.454 330.737C414.539 331.238 414.624 331.738 414.708 332.238C415.068 334.36 415.425 336.472 415.767 338.565C414.95 338.697 414.394 339.465 414.525 340.282C414.717 341.487 414.903 342.684 415.08 343.871C415.201 344.689 415.962 345.254 416.779 345.134C417.162 347.817 417.49 350.45 417.732 353.013C416.911 353.085 416.301 353.806 416.368 354.629C416.467 355.843 416.544 357.037 416.596 358.21C416.632 359.033 417.325 359.672 418.147 359.643C418.218 362.411 418.139 365.064 417.859 367.571C417.05 367.467 416.303 368.03 416.184 368.84C416.009 370.026 415.784 371.168 415.505 372.264C415.303 373.054 415.77 373.858 416.552 374.078C415.743 376.69 414.595 379.062 413.029 381.142C412.407 380.635 411.49 380.707 410.955 381.314C410.587 381.733 410.198 382.136 409.786 382.525C409.353 382.933 408.847 383.319 408.268 383.683C407.588 384.11 407.368 384.993 407.756 385.685C405.142 386.992 401.745 387.872 397.872 388.486C397.752 387.673 397 387.107 396.184 387.219C394.794 387.411 393.345 387.573 391.85 387.712C391.028 387.788 390.423 388.514 390.495 389.335C387.19 389.605 383.715 389.777 380.207 389.921C380.174 389.094 379.477 388.45 378.649 388.482C377.847 388.513 377.048 388.544 376.25 388.574C375.573 388.6 374.896 388.626 374.217 388.652C373.39 388.684 372.745 389.382 372.777 390.209C372.777 390.21 372.777 390.21 372.777 390.21C369.235 390.354 365.758 390.522 362.487 390.788C362.487 390.785 362.487 390.782 362.486 390.779C362.41 389.954 361.678 389.348 360.854 389.425C359.311 389.569 357.813 389.739 356.379 389.943C355.559 390.06 354.989 390.82 355.106 391.64C355.107 391.645 355.108 391.651 355.109 391.656C351.09 392.323 347.711 393.307 345.373 394.818C345.349 394.786 345.324 394.755 345.297 394.726C344.748 394.105 343.8 394.048 343.18 394.597C342.505 395.195 341.924 395.87 341.468 396.632C341.034 397.356 340.652 398.106 340.315 398.876C339.983 399.635 340.328 400.519 341.087 400.852C341.104 400.859 341.121 400.866 341.138 400.873C339.949 404.225 339.534 407.97 339.48 411.711C339.475 411.711 339.469 411.711 339.463 411.711C338.635 411.719 337.969 412.397 337.977 413.225C337.992 414.836 338.063 416.429 338.156 417.971C338.207 418.798 338.917 419.428 339.744 419.378C339.747 419.377 339.749 419.377 339.752 419.377C339.812 420.246 339.877 421.098 339.941 421.927C340.192 425.226 340.417 428.164 340.228 430.37C339.46 430.256 338.722 430.752 338.547 431.522C338.375 432.28 338.145 432.641 337.968 432.803L337.966 432.805C337.966 432.805 337.945 432.823 337.894 432.856C337.837 432.893 337.756 432.941 337.646 432.998C336.944 433.36 336.649 434.2 336.954 434.916C336.497 435.083 335.975 435.257 335.393 435.437C335.161 434.65 334.339 434.194 333.547 434.417C333.31 434.483 333.066 434.551 332.814 434.619L331.486 434.979L331.73 436.333C331.858 437.043 331.991 437.792 332.125 438.564C332.266 439.379 333.041 439.925 333.856 439.786C334.477 443.48 335.076 447.486 335.298 450.35C334.49 450.395 333.86 451.076 333.882 451.89C333.897 452.407 333.888 452.813 333.86 453.108C333.849 453.226 333.836 453.313 333.824 453.372C333.807 453.387 333.785 453.406 333.755 453.428C333.638 453.518 333.457 453.629 333.197 453.754C332.486 454.098 332.168 454.929 332.453 455.653C330.412 456.323 327.653 456.805 325.54 457.107C325.432 456.292 324.686 455.716 323.868 455.818C323.372 455.879 322.965 455.925 322.682 455.956C322.541 455.971 322.431 455.982 322.358 455.99L322.274 455.998L322.254 456L322.25 456.001L322.249 456.001L425.15 162.216ZM290.485 466.673L290.489 466.672C290.863 466.618 291.304 466.522 291.801 466.386C292.584 466.173 293.391 466.621 293.628 467.391C295.569 466.733 297.7 465.8 299.333 465.039C298.979 464.296 299.29 463.406 300.031 463.045C300.444 462.844 300.779 462.677 301.01 462.561C301.125 462.503 301.214 462.458 301.274 462.427L301.341 462.393L301.357 462.384L301.361 462.382L290.485 466.673ZM290.485 466.673C290.049 466.737 289.604 466.792 289.154 466.839C288.339 466.924 287.745 467.646 287.815 468.458M290.485 466.673L287.815 468.458M304.812 463.741C306.055 463.707 307.633 463.607 309.363 463.364C309.234 462.561 309.77 461.797 310.575 461.65C310.965 461.579 311.36 461.5 311.757 461.412L311.759 461.411C312.185 461.317 312.613 461.2 313.041 461.064C313.812 460.819 314.634 461.229 314.906 461.983C316.872 461.19 318.664 460.133 320.001 459.244C319.536 458.577 319.688 457.657 320.348 457.175C320.698 456.919 320.973 456.708 321.157 456.562C321.25 456.489 321.319 456.433 321.365 456.396L321.414 456.355L321.425 456.346L321.426 456.346L321.426 456.345L321.426 456.345L321.427 456.345L304.812 463.741ZM304.812 463.741C304.805 462.927 304.147 462.264 303.329 462.255C302.947 462.251 302.647 462.241 302.446 462.232C302.346 462.228 302.27 462.224 302.221 462.221L302.167 462.218L302.156 462.217L302.155 462.217L302.155 462.217H302.154L304.812 463.741ZM267.52 397.11C269.961 399.524 272.923 400.07 275.882 398.609C275.9 398.64 275.92 398.67 275.94 398.699C276.413 399.38 277.348 399.548 278.028 399.075C279.153 398.294 280.236 397.274 281.265 396.03C281.792 395.391 281.703 394.446 281.064 393.918C281.05 393.906 281.036 393.895 281.022 393.884C282.516 391.793 283.921 389.095 285.154 385.77C285.161 385.772 285.168 385.774 285.175 385.777C285.959 386.042 286.811 385.622 287.076 384.837C287.293 384.196 287.504 383.535 287.708 382.854L287.709 382.853C287.905 382.197 288.051 381.512 288.154 380.805C288.272 379.985 287.703 379.224 286.883 379.106C286.86 379.102 286.836 379.099 286.813 379.097C286.941 376.67 286.607 373.882 285.921 370.855C285.928 370.853 285.934 370.851 285.941 370.85C286.744 370.644 287.227 369.827 287.021 369.024C286.711 367.815 286.353 366.578 285.952 365.319C285.701 364.529 284.857 364.093 284.068 364.344C284.063 364.346 284.059 364.347 284.054 364.349C283.204 361.839 282.192 359.238 281.066 356.599C281.069 356.598 281.071 356.597 281.074 356.596C281.832 356.263 282.177 355.378 281.844 354.62C281.338 353.467 280.813 352.31 280.272 351.153C279.922 350.403 279.029 350.079 278.278 350.429C278.276 350.43 278.275 350.431 278.273 350.432C277.082 347.939 275.825 345.449 274.54 343.005C274.541 343.004 274.542 343.004 274.544 343.003C275.274 342.613 275.551 341.704 275.161 340.973C274.561 339.849 273.957 338.737 273.352 337.641C272.952 336.915 272.04 336.652 271.314 337.052C271.313 337.052 271.312 337.053 271.311 337.054C269.908 334.541 268.51 332.123 267.165 329.855C267.166 329.855 267.167 329.854 267.168 329.853C267.879 329.428 268.11 328.507 267.685 327.796C267.356 327.246 267.03 326.706 266.71 326.177C266.709 326.176 266.709 326.176 266.709 326.175L265.426 326.952C265.282 326.714 265.127 326.49 264.961 326.28C264.642 325.874 264.285 325.521 263.9 325.219M267.52 397.11L263.9 325.219M267.52 397.11C267.497 397.13 267.473 397.15 267.448 397.17C266.795 397.679 265.852 397.561 265.343 396.908C264.928 396.375 264.535 395.794 264.167 395.167L264.156 395.156L264.06 394.994C263.953 394.815 263.838 394.647 263.715 394.491C263.243 393.889 263.304 393.038 263.83 392.509M267.52 397.11L263.83 392.509M263.9 325.219C263.393 324.821 262.836 324.512 262.252 324.292C262.265 324.236 262.276 324.178 262.284 324.12C262.387 323.298 261.805 322.547 260.983 322.443C260.65 322.401 260.315 322.38 259.98 322.38C259.645 322.38 259.31 322.401 258.976 322.443C258.154 322.547 257.572 323.298 257.676 324.12C257.684 324.178 257.694 324.236 257.708 324.292C257.124 324.512 256.567 324.821 256.059 325.219C256.018 325.178 255.974 325.138 255.926 325.101C255.275 324.589 254.332 324.701 253.82 325.352C253.616 325.611 253.426 325.886 253.251 326.176C252.93 326.706 252.605 327.247 252.276 327.797C251.851 328.508 252.083 329.43 252.794 329.855C252.795 329.855 252.795 329.856 252.796 329.856C251.453 332.125 250.056 334.543 248.654 337.056C248.653 337.055 248.652 337.055 248.651 337.054C247.925 336.654 247.013 336.918 246.613 337.644C246.009 338.74 245.405 339.852 244.805 340.977C244.415 341.708 244.692 342.616 245.423 343.006C245.424 343.007 245.425 343.007 245.427 343.008C244.142 345.452 242.885 347.942 241.694 350.435C241.692 350.434 241.691 350.433 241.689 350.432C240.938 350.082 240.045 350.406 239.695 351.156C239.154 352.313 238.629 353.47 238.123 354.623C237.79 355.381 238.135 356.266 238.893 356.599C238.895 356.6 238.898 356.601 238.9 356.602C237.775 359.241 236.762 361.841 235.911 364.35C235.907 364.349 235.902 364.347 235.898 364.346C235.108 364.094 234.265 364.53 234.013 365.32C233.612 366.579 233.253 367.816 232.942 369.024C232.736 369.827 233.219 370.644 234.022 370.85C234.028 370.852 234.035 370.854 234.042 370.855C233.354 373.883 233.019 376.671 233.146 379.097C233.123 379.1 233.099 379.102 233.076 379.106C232.256 379.224 231.687 379.985 231.806 380.805C231.908 381.512 232.054 382.197 232.251 382.853C232.454 383.533 232.664 384.194 232.88 384.835C233.145 385.62 233.996 386.042 234.781 385.777C234.788 385.775 234.794 385.773 234.801 385.771C236.031 389.097 237.433 391.795 238.926 393.884C238.912 393.896 238.898 393.907 238.884 393.918C238.245 394.446 238.156 395.392 238.683 396.03C239.712 397.274 240.797 398.294 241.923 399.074C242.604 399.546 243.538 399.376 244.01 398.695C244.03 398.665 244.05 398.635 244.068 398.604C247.024 400.057 249.985 399.508 252.431 397.103C252.454 397.123 252.478 397.143 252.503 397.163C253.155 397.674 254.098 397.559 254.609 396.907C255.035 396.364 255.437 395.77 255.815 395.128C255.825 395.115 255.833 395.101 255.842 395.087C255.867 395.051 255.89 395.014 255.911 394.976C256.014 394.807 256.125 394.648 256.243 394.499C256.719 393.899 256.661 393.047 256.137 392.516C256.623 392.143 257.158 391.851 257.721 391.64C257.899 392.369 258.599 392.866 259.363 392.771C259.567 392.746 259.773 392.733 259.98 392.733C260.188 392.733 260.396 392.745 260.601 392.77C261.365 392.863 262.065 392.365 262.241 391.634C262.805 391.843 263.342 392.135 263.83 392.509M263.9 325.219L263.83 392.509M287.815 468.458C285.823 468.593 283.886 468.593 282.382 468.553L287.815 468.458ZM181.23 253.299C183.706 252.328 186.293 251.935 188.938 252.007C188.939 251.991 188.94 251.975 188.941 251.96C189.016 251.135 189.746 250.527 190.571 250.602C191.827 250.716 193.086 250.923 194.343 251.209C195.151 251.393 195.656 252.197 195.472 253.005C195.47 253.017 195.467 253.028 195.464 253.04C197.904 253.719 200.356 254.701 202.783 255.905C202.786 255.899 202.789 255.893 202.792 255.887C203.18 255.156 204.089 254.877 204.82 255.265C205.905 255.841 206.981 256.456 208.045 257.102C208.753 257.533 208.978 258.455 208.547 259.163C208.545 259.168 208.542 259.172 208.539 259.177C210.74 260.579 212.892 262.116 214.965 263.721C214.967 263.718 214.969 263.715 214.971 263.712C215.488 263.065 216.432 262.958 217.079 263.475C218.044 264.244 218.99 265.025 219.912 265.81C220.543 266.347 220.619 267.294 220.082 267.925C220.08 267.927 220.078 267.93 220.076 267.932C222.136 269.73 224.074 271.54 225.852 273.279C225.853 273.278 225.855 273.276 225.857 273.274C226.442 272.688 227.392 272.687 227.978 273.272C228.418 273.711 228.847 274.144 229.264 274.57L229.264 274.57C229.666 274.981 230.049 275.404 230.413 275.839C230.945 276.474 230.861 277.421 230.226 277.952C230.212 277.964 230.198 277.976 230.184 277.987C231.485 279.792 232.468 281.772 233.119 283.844C233.136 283.839 233.154 283.835 233.172 283.83C233.978 283.64 234.786 284.14 234.976 284.946C235.238 286.058 235.414 287.188 235.502 288.327C235.566 289.153 234.948 289.874 234.122 289.938C234.104 289.94 234.086 289.941 234.068 289.941C234.078 292.112 233.745 294.297 233.059 296.415C233.076 296.421 233.093 296.428 233.11 296.435C233.877 296.746 234.247 297.621 233.936 298.388C233.723 298.913 233.489 299.433 233.234 299.947C232.927 300.564 232.612 301.179 232.287 301.793C231.9 302.525 230.992 302.805 230.26 302.417C230.256 302.415 230.251 302.413 230.247 302.41C228.777 305.065 227.132 307.675 225.326 310.203C225.329 310.206 225.333 310.209 225.337 310.211C226.002 310.706 226.14 311.645 225.646 312.31C224.823 313.417 223.97 314.507 223.087 315.577C222.559 316.215 221.614 316.306 220.975 315.778C220.971 315.775 220.968 315.772 220.964 315.769C218.968 318.095 216.828 320.315 214.555 322.393C214.559 322.397 214.562 322.401 214.566 322.405C215.112 323.028 215.05 323.975 214.427 324.522C213.385 325.436 212.316 326.321 211.223 327.174C210.569 327.683 209.627 327.567 209.117 326.914C209.114 326.909 209.111 326.905 209.107 326.901C206.64 328.739 204.051 330.409 201.351 331.873C201.354 331.879 201.357 331.884 201.36 331.89C201.736 332.628 201.444 333.531 200.706 333.908C199.466 334.541 198.205 335.132 196.922 335.678C196.159 336.002 195.278 335.647 194.954 334.885C194.951 334.879 194.949 334.873 194.946 334.867C192.101 335.989 189.156 336.882 186.124 337.509C186.125 337.517 186.127 337.524 186.128 337.531C186.272 338.347 185.728 339.125 184.912 339.269C183.544 339.511 182.16 339.701 180.76 339.835C179.935 339.914 179.202 339.309 179.123 338.485C179.123 338.477 179.122 338.47 179.121 338.463C176.12 338.661 173.049 338.596 169.917 338.237C169.916 338.244 169.915 338.251 169.914 338.258C169.797 339.078 169.036 339.648 168.216 339.53C167.528 339.431 166.838 339.319 166.145 339.192C165.493 339.073 164.851 338.943 164.22 338.802C163.411 338.621 162.902 337.819 163.083 337.011C163.084 337.003 163.086 336.995 163.088 336.987C160.26 336.26 157.663 335.305 155.28 334.16C155.275 334.168 155.271 334.177 155.267 334.185C154.88 334.918 153.973 335.198 153.24 334.811C152.064 334.191 150.94 333.524 149.866 332.816C149.175 332.36 148.984 331.429 149.44 330.738C149.445 330.73 149.45 330.722 149.456 330.714C147.143 329.056 145.086 327.194 143.257 325.185C143.25 325.191 143.244 325.197 143.237 325.202C142.605 325.738 141.658 325.659 141.123 325.027C140.275 324.026 139.479 322.996 138.732 321.941C138.252 321.265 138.412 320.329 139.088 319.85C139.094 319.845 139.101 319.84 139.108 319.836C137.559 317.493 136.237 315.04 135.11 312.543C135.104 312.545 135.098 312.548 135.092 312.55C134.329 312.872 133.449 312.513 133.127 311.75C132.622 310.551 132.16 309.346 131.736 308.143C131.46 307.361 131.871 306.505 132.652 306.23C132.657 306.228 132.662 306.226 132.668 306.224C131.776 303.5 131.076 300.791 130.528 298.181C130.524 298.181 130.52 298.182 130.515 298.183C129.702 298.339 128.916 297.806 128.76 296.992C128.512 295.699 128.299 294.436 128.117 293.212C127.996 292.392 128.561 291.629 129.381 291.508C129.384 291.507 129.388 291.506 129.392 291.506C128.976 288.365 128.759 285.531 128.642 283.2C128.638 283.2 128.635 283.2 128.632 283.201C127.804 283.231 127.108 282.585 127.077 281.757C127.052 281.065 127.034 280.432 127.022 279.866C127.006 279.109 127.085 278.381 127.259 277.682C127.46 276.879 128.275 276.39 129.078 276.591C129.137 276.606 129.195 276.624 129.25 276.645C130.276 274.69 132.34 273.153 135.166 271.785C135.162 271.776 135.158 271.767 135.154 271.757C134.825 270.997 135.175 270.114 135.935 269.785C137.008 269.321 138.157 268.877 139.368 268.442C140.148 268.162 141.007 268.567 141.287 269.347C141.288 269.351 141.29 269.355 141.291 269.359C143.461 268.618 145.838 267.883 148.362 267.102C148.48 267.066 148.598 267.029 148.716 266.993C148.471 266.202 148.913 265.362 149.703 265.116C150.82 264.769 151.958 264.413 153.116 264.041C153.904 263.789 154.747 264.221 155.001 265.008C157.388 264.227 159.85 263.379 162.351 262.428C162.054 261.66 162.433 260.794 163.201 260.492C164.292 260.062 165.388 259.613 166.485 259.14C167.243 258.814 168.121 259.161 168.452 259.915C170.777 258.874 173.109 257.724 175.418 256.44C175.011 255.726 175.256 254.816 175.968 254.402C176.475 254.107 176.981 253.806 177.484 253.497C178.048 253.152 178.619 252.838 179.198 252.555C179.942 252.191 180.84 252.5 181.204 253.244C181.213 253.262 181.221 253.281 181.23 253.299ZM353.841 339.192L353.841 339.192C354.493 339.072 355.135 338.942 355.766 338.8C356.574 338.619 357.083 337.817 356.902 337.009C356.9 337.001 356.898 336.993 356.896 336.985C359.724 336.256 362.32 335.3 364.702 334.154C364.707 334.163 364.711 334.171 364.715 334.179C365.102 334.912 366.01 335.192 366.742 334.805C367.918 334.184 369.042 333.517 370.115 332.809C370.807 332.353 370.998 331.423 370.542 330.731C370.536 330.723 370.531 330.715 370.525 330.707C372.838 329.049 374.895 327.187 376.723 325.179C376.73 325.185 376.737 325.19 376.744 325.196C377.376 325.732 378.322 325.653 378.858 325.021C379.706 324.021 380.502 322.99 381.249 321.936C381.728 321.26 381.569 320.324 380.893 319.845C380.887 319.84 380.88 319.835 380.873 319.831C382.423 317.489 383.745 315.036 384.873 312.539C384.878 312.542 384.884 312.544 384.89 312.547C385.653 312.868 386.533 312.51 386.855 311.747C387.36 310.548 387.823 309.343 388.247 308.14C388.523 307.359 388.113 306.502 387.331 306.227C387.326 306.225 387.321 306.223 387.315 306.221C388.208 303.498 388.908 300.789 389.456 298.179C389.46 298.18 389.465 298.181 389.469 298.182C390.283 298.338 391.069 297.805 391.225 296.991C391.473 295.698 391.685 294.435 391.867 293.211C391.989 292.391 391.424 291.628 390.604 291.506C390.6 291.506 390.596 291.505 390.592 291.505C391.009 288.364 391.226 285.531 391.343 283.2C391.347 283.2 391.35 283.2 391.353 283.2C392.181 283.231 392.877 282.585 392.908 281.757C392.933 281.065 392.951 280.432 392.963 279.866C392.979 279.109 392.9 278.381 392.726 277.682C392.525 276.879 391.71 276.39 390.907 276.591C390.848 276.606 390.79 276.624 390.735 276.645C389.709 274.69 387.645 273.153 384.819 271.785C384.823 271.776 384.827 271.767 384.831 271.757C385.16 270.997 384.81 270.114 384.05 269.785C382.977 269.321 381.828 268.877 380.617 268.442C379.837 268.162 378.978 268.567 378.698 269.347C378.697 269.351 378.695 269.355 378.694 269.359C376.524 268.618 374.147 267.883 371.623 267.102C371.505 267.066 371.387 267.029 371.269 266.993C371.514 266.202 371.072 265.362 370.282 265.116C369.166 264.769 368.027 264.413 366.869 264.041C366.081 263.789 365.238 264.221 364.984 265.008C362.598 264.227 360.135 263.379 357.634 262.428C357.931 261.66 357.552 260.794 356.784 260.492C355.693 260.062 354.597 259.613 353.5 259.14C352.742 258.814 351.864 259.161 351.533 259.915C349.208 258.874 346.876 257.724 344.567 256.44C344.974 255.726 344.729 254.816 344.017 254.402C343.51 254.107 343.004 253.806 342.501 253.497L342.5 253.497C341.936 253.152 341.365 252.838 340.786 252.556C340.042 252.192 339.144 252.501 338.78 253.245C338.771 253.263 338.763 253.282 338.755 253.3C336.276 252.329 333.69 251.934 331.046 252.004C331.045 251.988 331.044 251.972 331.042 251.957C330.968 251.132 330.239 250.523 329.414 250.598C328.157 250.711 326.898 250.917 325.64 251.202C324.832 251.386 324.326 252.189 324.51 252.997C324.512 253.009 324.515 253.02 324.518 253.032C322.077 253.709 319.624 254.691 317.197 255.894C317.194 255.888 317.191 255.882 317.187 255.876C316.799 255.144 315.891 254.866 315.159 255.254C314.075 255.829 312.998 256.444 311.934 257.091C311.226 257.521 311.001 258.444 311.431 259.152C311.434 259.156 311.437 259.161 311.44 259.165C309.239 260.568 307.087 262.105 305.014 263.711C305.011 263.708 305.009 263.705 305.007 263.702C304.49 263.055 303.546 262.949 302.899 263.466C301.934 264.235 300.989 265.017 300.067 265.803C299.436 266.34 299.361 267.287 299.898 267.918C299.9 267.92 299.902 267.922 299.904 267.925C297.845 269.723 295.908 271.535 294.131 273.277C294.13 273.275 294.128 273.273 294.126 273.272C293.54 272.686 292.591 272.686 292.005 273.271C291.566 273.711 291.137 274.144 290.721 274.57C290.319 274.981 289.936 275.404 289.572 275.839C289.04 276.474 289.124 277.421 289.759 277.952C289.773 277.964 289.787 277.976 289.801 277.987C288.5 279.792 287.517 281.772 286.866 283.844C286.849 283.839 286.831 283.835 286.813 283.83C286.007 283.64 285.199 284.14 285.009 284.946C284.747 286.058 284.571 287.188 284.483 288.327C284.419 289.153 285.037 289.874 285.863 289.938C285.881 289.94 285.899 289.941 285.917 289.941C285.907 292.112 286.24 294.297 286.926 296.415C286.909 296.421 286.892 296.428 286.875 296.435C286.108 296.746 285.738 297.621 286.049 298.388C286.262 298.913 286.496 299.433 286.751 299.947C287.058 300.564 287.373 301.179 287.698 301.793C288.085 302.525 288.993 302.805 289.725 302.417C289.729 302.415 289.734 302.413 289.738 302.41C291.208 305.065 292.853 307.675 294.659 310.203C294.656 310.206 294.652 310.209 294.648 310.211C293.983 310.706 293.845 311.645 294.339 312.31C295.162 313.417 296.015 314.507 296.898 315.577C297.426 316.215 298.371 316.306 299.01 315.778C299.014 315.775 299.017 315.772 299.021 315.769C301.017 318.095 303.157 320.315 305.43 322.393C305.426 322.397 305.423 322.401 305.419 322.405C304.873 323.028 304.935 323.975 305.558 324.522C306.6 325.436 307.669 326.321 308.762 327.174C309.416 327.683 310.358 327.567 310.868 326.914C310.871 326.909 310.874 326.905 310.878 326.901C313.345 328.739 315.934 330.409 318.634 331.873C318.631 331.879 318.628 331.884 318.626 331.89C318.249 332.628 318.541 333.531 319.279 333.908C320.519 334.541 321.78 335.132 323.063 335.678C323.826 336.002 324.707 335.647 325.031 334.885C325.034 334.879 325.036 334.873 325.039 334.867C327.884 335.989 330.829 336.882 333.861 337.509C333.86 337.517 333.858 337.524 333.857 337.531C333.713 338.347 334.257 339.125 335.073 339.269C336.441 339.511 337.825 339.701 339.226 339.835C340.05 339.914 340.783 339.309 340.862 338.485C340.862 338.477 340.863 338.47 340.864 338.463C343.865 338.661 346.936 338.596 350.068 338.237C350.069 338.244 350.07 338.251 350.071 338.258C350.188 339.078 350.949 339.648 351.769 339.53C352.457 339.431 353.147 339.319 353.841 339.192ZM426.266 162.216H426.269H426.266Z" stroke="#5687B9" stroke-opacity="0.25" stroke-width="3" stroke-linecap="round" stroke-dasharray="4 12"/>
<path d="M405.063 175.241L404.755 174.147C395.991 142.988 370.37 121.82 341.488 108.415C312.616 95.0146 280.744 89.5 259.982 89.5C239.221 89.5 207.349 95.0146 178.48 108.415C149.6 121.82 123.984 142.988 115.232 174.147L115.232 174.147C104.742 211.465 108.259 242.781 114.004 267.295C116.125 276.347 118.542 284.442 120.681 291.607C121.446 294.17 122.176 296.614 122.844 298.94C124.106 303.337 125.151 307.325 125.773 310.861C126.394 314.384 126.614 317.558 126.159 320.297C125.924 321.708 125.686 323.113 125.449 324.51C123.999 333.061 122.603 341.293 122.442 348.58C122.256 357.07 123.766 363.847 128.424 368.233C129.489 369.236 131.062 370.077 133.128 370.763C135.184 371.446 137.64 371.946 140.388 372.32C145.605 373.029 151.696 373.26 157.824 373.493C158.165 373.506 158.505 373.519 158.846 373.532C165.265 373.778 171.688 374.054 176.91 374.949C179.524 375.396 181.91 376.01 183.881 376.891C185.845 377.769 187.517 378.966 188.528 380.65C191.974 386.394 191.831 394.033 191.416 400.261C191.35 401.255 191.277 402.209 191.207 403.12C191.052 405.156 190.912 406.976 190.903 408.546C190.895 409.67 190.958 410.568 191.103 411.247C191.251 411.943 191.45 412.235 191.572 412.348L191.576 412.351C191.573 412.348 191.573 412.348 191.577 412.351C191.595 412.364 191.679 412.423 191.874 412.52C192.099 412.632 192.408 412.763 192.808 412.91C193.608 413.206 194.691 413.538 196.03 413.9L197.359 414.26L197.114 415.615C196.592 418.505 195.979 422.094 195.592 425.117C195.398 426.633 195.264 427.975 195.223 429.003C195.203 429.519 195.207 429.923 195.231 430.214C195.24 430.314 195.249 430.386 195.257 430.434C195.298 430.466 195.369 430.517 195.481 430.581C195.749 430.736 196.135 430.904 196.639 431.075C197.643 431.416 198.928 431.71 200.233 431.95C201.527 432.188 202.793 432.365 203.739 432.482C204.211 432.541 204.601 432.585 204.871 432.613C205.006 432.628 205.112 432.638 205.183 432.645L205.262 432.653L205.282 432.655L205.286 432.655L205.287 432.655L205.753 432.699L206.111 432.999L206.111 432.999L206.112 432.999L206.112 433L206.118 433.004L206.148 433.03C206.177 433.053 206.221 433.089 206.28 433.136C206.399 433.23 206.577 433.369 206.807 433.541C207.267 433.884 207.929 434.354 208.73 434.854C210.352 435.868 212.45 436.948 214.535 437.407C216.748 437.894 218.858 438.071 220.42 438.124C221.199 438.151 221.835 438.147 222.273 438.136C222.492 438.131 222.661 438.124 222.773 438.119C222.828 438.116 222.87 438.114 222.896 438.112L222.924 438.111L222.929 438.11L222.929 438.11H222.929L222.93 438.11L223.347 438.081L405.063 175.241ZM405.063 175.241H405.081H405.063ZM286.998 443.505C282.455 444.173 277.132 443.728 277.132 443.728C277.132 443.728 271.029 446 265.795 446C263.104 446 261.649 445.729 260.871 445.466C260.679 445.357 260.402 445.2 260.005 444.975M286.998 443.505L276.923 442.205L276.609 442.322C276.609 442.322 276.609 442.322 276.711 442.598L276.608 442.322L276.607 442.323L276.597 442.326L276.551 442.343C276.51 442.358 276.447 442.381 276.363 442.41C276.195 442.469 275.947 442.554 275.632 442.657C275.001 442.862 274.103 443.137 273.048 443.412C270.917 443.968 268.225 444.5 265.795 444.5C263.256 444.5 261.983 444.249 261.398 444.06C261.299 444.028 261.223 443.999 261.169 443.976M286.998 443.505C290.384 443.015 296.976 439.607 296.976 439.607M286.998 443.505L296.976 439.607M260.005 444.975L261.323 444.259L261.32 444.254C261.321 444.257 261.323 444.259 260.005 444.975ZM260.005 444.975C258.699 444.237 258.7 444.235 258.701 444.232L258.699 444.237L260.005 444.975ZM260.005 444.975C259.555 445.22 259.258 445.381 259.064 445.488C258.267 445.744 256.82 446 254.214 446C249.002 446 242.877 443.728 242.877 443.728M242.877 443.728L243.399 442.321L243.4 442.322L243.411 442.326L243.456 442.342C243.488 442.354 243.532 442.369 243.587 442.389L243.646 442.41C243.814 442.468 244.063 442.553 244.379 442.656C245.012 442.862 245.912 443.137 246.969 443.412C249.104 443.968 251.795 444.5 254.214 444.5C256.74 444.5 258.015 444.249 258.604 444.06C258.713 444.025 258.793 443.993 258.851 443.969M242.877 443.728C242.877 443.728 237.554 444.173 233.011 443.505L243.399 442.321M242.877 443.728C243.399 442.321 243.399 442.321 243.399 442.321M258.851 443.969L258.71 444.218L258.721 444.199L258.73 444.185C258.734 444.178 258.739 444.17 258.743 444.163C258.758 444.14 258.773 444.119 258.788 444.099C258.817 444.059 258.845 444.026 258.87 443.999C258.92 443.945 258.957 443.918 258.966 443.911L258.968 443.91C258.968 443.91 258.934 443.932 258.851 443.969ZM258.851 443.969L260.03 441.881L261.169 443.976M261.169 443.976C261.066 443.932 261.034 443.907 261.047 443.916C261.059 443.925 261.097 443.954 261.149 444.011C261.175 444.039 261.203 444.074 261.233 444.115C261.248 444.136 261.263 444.159 261.278 444.183C261.283 444.19 261.287 444.198 261.292 444.206L261.3 444.22L261.311 444.239L261.169 443.976ZM243.399 442.321L243.085 442.205L242.752 442.233L243.399 442.321ZM296.976 439.607C297.08 438.11 297.08 438.11 297.079 438.11L297.079 438.11H297.079L296.661 438.081L296.287 438.274L296.976 439.607ZM296.976 439.607L297.08 438.11M296.976 439.607C296.976 439.607 301.163 439.896 305.796 438.872L297.08 438.11M297.08 438.11L297.084 438.111L297.113 438.112L297.145 438.114C297.169 438.115 297.2 438.117 297.237 438.119C297.349 438.124 297.519 438.131 297.739 438.136C298.179 438.147 298.818 438.151 299.598 438.124C301.163 438.071 303.272 437.894 305.472 437.407L305.474 437.407C307.559 436.948 309.657 435.868 311.279 434.854C312.08 434.354 312.742 433.884 313.202 433.541C313.432 433.369 313.61 433.23 313.729 433.136C313.764 433.108 313.794 433.084 313.818 433.064C313.835 433.05 313.849 433.039 313.861 433.03L313.891 433.004L313.897 433L297.08 438.11ZM266.054 318.828C264.67 316.54 262.314 315.41 259.982 315.41C257.651 315.41 255.294 316.54 253.91 318.829C249.509 326.091 244.09 335.677 240.166 344.803C238.204 349.365 236.598 353.854 235.687 357.907C234.783 361.925 234.52 365.69 235.427 368.71C237.836 376.763 241.4 381.924 245.379 383.847C247.428 384.837 249.572 384.952 251.573 384.133C253.514 383.339 255.168 381.73 256.466 379.538C256.501 379.487 256.524 379.448 256.533 379.433C256.543 379.416 256.553 379.4 256.561 379.386C257.314 378.156 258.62 377.508 259.982 377.508C261.364 377.508 262.669 378.15 263.415 379.404L263.511 379.565L263.52 379.574C264.808 381.752 266.45 383.35 268.377 384.142C270.377 384.963 272.522 384.846 274.57 383.855C278.547 381.929 282.117 376.764 284.537 368.71L284.538 368.709C285.444 365.685 285.181 361.915 284.278 357.895C283.366 353.839 281.76 349.348 279.799 344.786C275.875 335.66 270.455 326.08 266.054 318.828ZM266.054 318.828C266.054 318.828 266.053 318.827 266.053 318.827L264.771 319.605L266.054 318.829C266.054 318.829 266.054 318.828 266.054 318.828ZM233.102 273.513L233.101 273.512C227.764 268.073 220.18 261.227 212.093 256.825C204.055 252.449 195.08 250.265 187.349 254.995C178.612 260.337 169.289 263.217 161.408 265.651C160.265 266.005 159.151 266.349 158.075 266.689C153.889 268.014 150.147 269.323 147.465 271.004C144.731 272.718 142.818 275.007 142.89 278.293C143.002 283.438 143.573 294.951 148.104 305.932C152.657 316.967 161.272 327.579 177.44 330.526C204.264 335.416 226.445 316.47 236.626 295.992C240.361 288.495 238.964 279.496 233.102 273.513ZM342.547 330.526L342.548 330.526C358.715 327.568 367.33 316.956 371.883 305.923C376.414 294.945 376.984 283.438 377.097 278.293C377.168 275.007 375.256 272.718 372.522 271.004C369.84 269.323 366.098 268.014 361.912 266.689C360.836 266.349 359.722 266.005 358.579 265.651C350.698 263.217 341.375 260.337 332.637 254.994L332.636 254.994C324.896 250.266 315.922 252.443 307.885 256.817C299.801 261.216 292.222 268.063 286.885 273.513C281.023 279.496 279.626 288.495 283.361 295.992C293.542 316.47 315.723 335.416 342.547 330.526Z" stroke="#5687B9" stroke-opacity="0.25" stroke-width="3" stroke-linecap="round"/>
<g clip-path="url(#clip0_2053_17266)">
<path d="M617.459 588.131C603.259 588.131 584.549 587.287 550.715 585.12C530.947 583.853 515.07 583.209 503.529 583.209C492.99 583.209 488.075 583.737 485.804 584.181L484.002 584.535L482.2 584.181C479.932 583.737 475.014 583.209 464.474 583.209C452.931 583.209 437.057 583.85 417.289 585.12C383.455 587.287 364.741 588.131 350.544 588.131C324.466 588.131 312.919 585.195 289.919 579.343C283.45 577.698 276.117 575.831 267.21 573.714C252.741 570.277 243.003 563.402 238.263 553.282C233.517 543.152 233.94 530.605 239.59 513.792C244.095 500.384 251.349 485.801 259.03 470.364C267.711 452.912 276.689 434.867 281.929 417.863C285.668 405.731 291.681 393.644 299.802 381.935C320.937 351.486 352.497 329.268 388.673 319.37C390.381 318.904 392.099 318.463 393.826 318.05C383.415 308.542 373.682 300.198 365.376 293.077C359.485 288.026 354.396 283.664 350.601 280.183C337.874 268.511 327.576 257.146 330.457 236.217C332.778 219.363 343.337 196.842 369.409 153.117C380.777 134.055 393.873 117.752 408.332 104.654C420.083 94.0111 432.765 85.4419 446.029 79.1838C469.076 68.3127 486.308 68 488.197 68H488.238H488.278C490.168 68 507.399 68.3127 530.446 79.1901C543.71 85.4481 556.39 94.0205 568.137 104.663C582.593 117.758 595.686 134.064 607.051 153.123C633.126 196.842 643.685 219.366 646.006 236.223C648.887 257.149 638.585 268.514 625.859 280.189C622.067 283.67 616.981 288.026 611.093 293.077C602.265 300.649 591.866 309.565 580.754 319.783C582.537 320.289 584.311 320.824 586.066 321.387C602.562 326.679 617.975 334.525 631.875 344.708C646.015 355.07 658.235 367.595 668.192 381.938C676.314 393.65 682.327 405.738 686.068 417.869C691.308 434.87 700.287 452.915 708.968 470.37C716.648 485.807 723.903 500.39 728.408 513.798C734.058 530.611 734.48 543.158 729.734 553.288C724.995 563.406 715.256 570.28 700.787 573.72C691.878 575.837 684.545 577.704 678.072 579.349C655.081 585.198 643.534 588.134 617.456 588.134L617.459 588.131ZM503.526 564.444C515.467 564.444 531.747 565.101 551.913 566.392C585.315 568.531 603.691 569.367 617.459 569.367C641.191 569.367 651.299 566.796 673.445 561.16C679.983 559.496 687.395 557.61 696.448 555.459C709.437 552.372 711.921 547.068 712.738 545.326C718.829 532.325 705.273 505.075 692.162 478.723C683.146 460.6 673.824 441.857 668.13 423.395C664.958 413.106 659.79 402.754 652.769 392.631C635.413 367.626 609.685 348.668 580.328 339.251C573.724 337.127 566.87 335.473 559.953 334.325L541.611 331.288L554.948 318.338C571.197 302.563 587.195 288.846 598.873 278.832C604.633 273.893 609.607 269.631 613.167 266.362C625.186 255.338 628.928 249.809 627.411 238.781C625.518 225.039 614.95 203.006 590.927 162.734C567.477 123.409 540.801 104.857 522.553 96.2191C503.216 87.065 488.954 86.7742 488.294 86.7648H488.147H488.141C487.205 86.7804 473.043 87.162 453.91 96.216C435.659 104.854 408.98 123.406 385.523 162.731C361.506 203.006 350.936 225.039 349.043 238.781C347.522 249.809 351.267 255.341 363.283 266.362C366.847 269.634 371.824 273.9 377.589 278.841C388.971 288.599 404.556 301.962 420.414 317.277L434.689 331.063L414.974 333.343C407.769 334.178 400.586 335.567 393.623 337.471C361.688 346.21 333.842 365.8 315.219 392.631C308.202 402.751 303.034 413.1 299.861 423.389C294.171 441.85 284.845 460.593 275.829 478.717C262.718 505.069 249.163 532.319 255.254 545.319C256.07 547.061 258.554 552.366 271.543 555.452C280.594 557.604 288.002 559.49 294.54 561.151C316.695 566.786 326.806 569.36 350.535 569.36C364.3 569.36 382.676 568.525 416.081 566.386C436.247 565.094 452.527 564.438 464.468 564.438C473.059 564.438 479.478 564.769 483.996 565.451C488.513 564.769 494.933 564.438 503.523 564.438L503.526 564.444Z" fill="#5687B9"/>
<path d="M698.854 564.585C639.683 578.652 648.374 581.958 551.547 575.753C509.727 573.073 491.472 573.557 484.233 574.971C476.997 573.557 458.743 573.073 416.92 575.753C320.093 581.958 328.783 578.652 269.613 564.585C210.442 550.524 272.513 481.028 291.133 420.628C294.856 408.546 300.734 397.397 307.748 387.283C328.007 358.094 357.843 337.6 391.386 328.421C404.4 324.858 417.977 323.004 431.767 323.004H536.7C552.751 323.004 568.509 325.518 583.432 330.313C614.378 340.239 641.745 359.949 660.719 387.279C667.732 397.394 673.611 408.543 677.334 420.624C695.954 481.025 758.021 550.52 698.854 564.582V564.585Z" fill="#072D58"/>
<path d="M344.71 509.466C344.71 509.466 321.021 477.407 293.088 487.956C293.088 487.956 323.193 490.695 331.88 517.222C331.88 517.222 310 503.727 287.191 524.047C287.191 524.047 300.121 510.189 330.845 526.633C330.845 526.633 308.986 526.714 308.52 544.863C308.52 544.863 318.772 528.028 349.34 536.56L349.258 512.669L344.706 509.463L344.71 509.466Z" fill="#5687B9"/>
<path d="M629.544 509.466C629.544 509.466 653.232 477.407 681.166 487.956C681.166 487.956 651.061 490.695 642.374 517.222C642.374 517.222 664.254 503.727 687.063 524.047C687.063 524.047 674.133 510.189 643.409 526.633C643.409 526.633 665.267 526.714 665.733 544.863C665.733 544.863 655.482 528.028 624.914 536.56L624.995 512.669L629.547 509.463L629.544 509.466Z" fill="#5687B9"/>
<path d="M583.431 330.316C569.372 342.857 553.565 357.772 538.711 374.26C538.664 374.313 538.614 374.366 538.567 374.419C535.148 378.188 530.981 381.206 526.288 383.176C523.867 384.193 521.067 385.193 517.87 386.1C510.383 388.23 500.695 389.816 488.475 389.816C476.256 389.816 466.558 388.227 459.074 386.1C455.871 385.197 453.071 384.193 450.647 383.173C445.907 381.181 441.699 378.119 438.267 374.294C438.255 374.279 438.239 374.263 438.227 374.247C422.629 356.937 405.97 341.356 391.392 328.424C404.406 324.862 417.983 323.007 431.773 323.007H536.706C552.757 323.007 568.515 325.521 583.438 330.316H583.431Z" fill="#204269"/>
<path d="M456.415 448.737C456.228 448.728 456.04 448.681 455.858 448.6C455.079 448.243 454.738 447.32 455.095 446.542C468.106 418.16 470.693 381.994 466.523 362.372C466.345 361.534 466.88 360.712 467.718 360.533C468.55 360.355 469.379 360.89 469.558 361.728C473.831 381.835 471.203 418.848 457.917 447.836C457.642 448.434 457.038 448.775 456.418 448.74L456.415 448.737Z" fill="#5687B9"/>
<path d="M511.191 360.114C511.372 360.061 511.563 360.042 511.763 360.061C512.617 360.139 513.246 360.893 513.168 361.747C510.346 392.837 519.944 427.805 530.405 444.922C530.853 445.653 530.621 446.607 529.889 447.055C529.163 447.499 528.203 447.27 527.756 446.539C517.034 428.997 507.193 393.222 510.077 361.465C510.136 360.812 510.593 360.289 511.191 360.114Z" fill="#5687B9"/>
<path d="M356.428 594.5L325.204 421.671H651.741L623.013 580.693L620.517 594.5H356.428Z" fill="#072D58" stroke="#244F7C" stroke-width="3"/>
<path d="M624.489 580.96L621.77 596H355.174L323.409 420.171H335.084C359.329 468.228 430.146 558.783 624.489 580.96Z" fill="#204269"/>
<path d="M503.976 518.717C502.374 524.791 495.554 528.863 488.472 528.863C481.389 528.863 474.569 524.791 472.967 518.717C470.947 511.061 477.651 503.218 488.472 503.218C499.293 503.218 505.997 511.061 503.976 518.717Z" fill="#002147"/>
<path d="M619.752 273.274C605.083 286.732 569.789 314.36 538.711 348.865C537.35 350.369 536.008 351.883 534.679 353.418C531.3 355.608 525.825 358.454 517.87 360.705C510.387 362.835 500.695 364.421 488.472 364.421C476.25 364.421 466.558 362.835 459.075 360.705C451.141 358.463 445.676 355.62 442.288 353.431C440.936 351.895 439.585 350.372 438.224 348.855C407.137 314.35 371.852 286.732 357.183 273.274C332.372 250.516 329.309 239.085 377.705 157.927C426.114 76.7694 488.472 77.3824 488.472 77.3824C488.472 77.3824 550.831 76.7694 599.227 157.927C647.633 239.085 644.564 250.516 619.749 273.274H619.752Z" fill="#072D58"/>
<path d="M594.418 282.481C584.501 289.934 561.601 310.46 538.589 336.074L538.583 336.086C534.294 340.865 530.005 344.352 525.784 348.305C525.406 348.665 525.015 349.018 524.636 349.39C519.162 354.688 512.601 358.76 505.334 361.062C505.315 361.074 505.29 361.074 505.271 361.087C505.171 361.118 505.068 361.15 504.955 361.187C504.471 361.343 503.979 361.484 503.485 361.628C502.988 361.772 502.512 361.913 502.009 362.038C501.73 362.119 501.455 362.194 501.176 362.26C500.604 362.416 500.009 362.557 499.421 362.694C498.796 362.838 498.161 362.967 497.516 363.092C497.391 363.11 497.269 363.135 497.138 363.167C496.803 363.223 496.474 363.279 496.133 363.329C495.451 363.454 494.744 363.551 494.028 363.633C493.446 363.708 492.849 363.77 492.248 363.808C492.135 363.833 492.032 363.833 491.919 363.839C491.666 363.864 491.403 363.883 491.144 363.895C490.268 363.945 489.382 363.977 488.481 363.977C487.58 363.977 486.689 363.945 485.819 363.895C485.553 363.883 485.297 363.864 485.043 363.839C484.931 363.833 484.827 363.833 484.715 363.808C484.114 363.77 483.517 363.708 482.935 363.633C482.221 363.551 481.521 363.451 480.823 363.329C480.488 363.279 480.16 363.223 479.825 363.167C479.7 363.135 479.565 363.11 479.447 363.092C478.802 362.967 478.161 362.838 477.541 362.694C476.187 362.385 474.867 362.038 473.587 361.659C472.943 361.472 472.32 361.281 471.694 361.087C464.421 358.791 457.854 354.719 452.361 349.428C451.964 349.049 451.56 348.671 451.163 348.293C446.942 344.346 442.653 340.846 438.358 336.067C415.343 310.453 392.446 289.934 382.529 282.481C350.929 258.735 348.645 246.287 357.88 231.36C361.628 225.299 373.751 219.088 391.367 213.812C392.217 213.558 393.087 213.302 393.96 213.055C393.96 213.055 393.968 213.051 393.985 213.042C399.206 211.56 404.866 210.143 410.894 208.836C410.906 208.836 410.913 208.836 410.925 208.83C413.525 208.276 416.193 207.732 418.937 207.21H418.968C429.724 205.161 441.48 203.457 453.894 202.209H453.906C464.981 201.092 476.587 200.342 488.484 200.057C500.376 200.342 511.985 201.092 523.063 202.209C546.009 204.511 566.71 208.389 583.047 213.061C583.059 213.074 583.065 213.074 583.078 213.074C583.929 213.314 584.773 213.565 585.599 213.812V213.818C603.215 219.091 615.338 225.302 619.092 231.36C628.314 246.29 626.043 258.738 594.431 282.481H594.418Z" fill="#204269"/>
<path d="M540.72 308.724C540.72 308.724 536.881 312.305 533.021 318.272C528.353 325.496 523.664 336.221 525.785 348.305L525.775 348.314C525.397 348.674 525.018 349.021 524.64 349.39C523.698 350.3 522.734 351.17 521.733 351.999C516.903 356.03 511.363 359.151 505.334 361.065C505.312 361.074 505.294 361.074 505.272 361.087C505.169 361.118 505.068 361.15 504.956 361.19C504.474 361.343 503.983 361.487 503.482 361.631C502.991 361.775 502.509 361.919 502.009 362.041C501.734 362.122 501.455 362.194 501.18 362.266C500.607 362.419 500.013 362.563 499.419 362.694C498.793 362.838 498.161 362.97 497.513 363.095C497.391 363.117 497.266 363.135 497.135 363.167C496.797 363.229 496.468 363.279 496.131 363.329C495.445 363.451 494.738 363.555 494.022 363.636C493.437 363.708 492.846 363.77 492.242 363.811C492.129 363.833 492.026 363.833 491.913 363.842C491.657 363.864 491.4 363.883 491.135 363.892C490.265 363.942 489.373 363.974 488.472 363.974C487.571 363.974 486.68 363.942 485.81 363.892C485.544 363.883 485.288 363.861 485.031 363.842C484.918 363.833 484.815 363.833 484.703 363.811C484.099 363.77 483.504 363.708 482.922 363.636C482.206 363.555 481.508 363.451 480.814 363.329C480.476 363.279 480.148 363.226 479.81 363.167C479.688 363.135 479.553 363.117 479.431 363.095C478.787 362.973 478.152 362.838 477.526 362.694C476.175 362.388 474.854 362.041 473.575 361.662C472.93 361.478 472.305 361.284 471.682 361.09C464.406 358.798 457.842 354.726 452.346 349.434C451.945 349.056 451.548 348.677 451.147 348.299C452.008 343.417 451.751 338.76 450.831 334.472C450.165 331.301 449.133 328.324 447.903 325.609C447.853 325.496 447.8 325.374 447.75 325.262C447.503 324.699 447.237 324.145 446.962 323.614C446.89 323.479 446.818 323.339 446.758 323.204C446.195 322.088 445.601 321.024 444.997 320.02C444.803 319.704 444.618 319.395 444.424 319.088C444.262 318.813 444.087 318.535 443.911 318.269C442.303 315.761 440.686 313.684 439.366 312.12C437.514 309.931 436.212 308.724 436.212 308.724L462.519 312.683L488.447 316.583L527.693 310.679H527.724L540.713 308.724H540.72Z" fill="#204269"/>
<path d="M534.916 310.441V315.495C534.291 316.345 533.646 317.274 533.002 318.269C528.334 325.493 523.645 336.227 525.775 348.314C525.397 348.674 525.018 349.021 524.639 349.39C523.698 350.3 522.734 351.17 521.733 351.999C505.509 339.442 451.717 334.55 450.837 334.469H450.828C450.152 331.298 449.12 328.321 447.909 325.606C447.859 325.493 447.806 325.371 447.756 325.259C447.499 324.696 447.234 324.155 446.968 323.611C446.896 323.476 446.824 323.335 446.764 323.201C446.192 322.084 445.597 321.021 445.003 320.017C444.809 319.701 444.624 319.392 444.431 319.085C444.255 318.81 444.083 318.532 443.908 318.266C442.291 315.758 440.673 313.681 439.344 312.117H439.375L462.528 312.68L488.456 316.58L527.702 310.675H527.733L534.919 310.441H534.916Z" fill="#204269"/>
<path d="M551.244 207.838C551.018 207.813 550.79 207.779 550.558 207.754C532.68 205.596 510.578 204.511 488.469 204.511C466.361 204.511 444.256 205.596 426.38 207.754C426.148 207.779 425.92 207.813 425.695 207.838C411.895 209.536 400.664 211.888 394.017 214.897C394.017 214.897 395.794 225.43 400.295 240.198C400.611 241.224 400.933 242.272 401.271 243.338C408.864 267.088 413.403 295.051 437.967 313.387C449.261 321.815 472.489 332.064 488.466 332.064C504.443 332.064 527.671 321.815 538.965 313.387C563.529 295.051 568.071 267.085 575.661 243.338C575.995 242.272 576.321 241.227 576.637 240.198C581.139 225.433 582.915 214.897 582.915 214.897C576.268 211.888 565.037 209.536 551.237 207.838H551.244Z" fill="#002147"/>
<path d="M585.856 214.209C585.856 214.209 584.022 225.067 579.377 240.292L575.66 243.332L563.478 253.34C563.478 253.34 533.927 271.247 516.606 266.775C512.839 265.803 509.388 264.758 506.288 263.717C500.504 261.793 494.485 260.821 488.466 260.821C482.447 260.821 476.428 261.793 470.643 263.717C467.543 264.761 464.083 265.803 460.326 266.775C443.007 271.247 413.453 253.34 413.453 253.34L401.262 243.332L397.558 240.292C392.912 225.064 391.079 214.209 391.079 214.209C391.958 213.809 392.912 213.43 393.944 213.052C393.944 213.052 393.952 213.049 393.966 213.042C398.377 211.447 404.13 210.034 410.875 208.836C410.884 208.836 410.897 208.836 410.906 208.826C413.444 208.385 416.115 207.957 418.921 207.569V207.21H418.953L453.878 202.206H523.044C545.994 204.507 566.691 208.385 583.028 213.064C583.037 213.074 583.049 213.074 583.059 213.074C584.063 213.443 584.992 213.821 585.853 214.209H585.856Z" fill="#204269"/>
<path d="M469.045 235.035L422.854 221.999C422.579 221.921 422.325 222.165 422.394 222.443C423.508 226.822 431.066 253.002 451.804 248.692C474.419 243.992 469.045 235.501 469.045 235.501V235.038V235.035Z" fill="#002147"/>
<path d="M507.896 235.035L554.087 221.999C554.362 221.921 554.616 222.165 554.547 222.443C553.433 226.822 545.875 253.002 525.137 248.692C502.522 243.992 507.896 235.501 507.896 235.501V235.038V235.035Z" fill="#002147"/>
<path d="M380.508 208.923C380.508 208.923 381.275 208.504 382.711 207.713C384.156 206.947 386.258 205.777 388.971 204.385C390.331 203.691 391.811 202.878 393.469 202.077C395.146 201.302 396.985 200.523 398.947 199.663C400.915 198.806 403.011 197.893 405.219 196.93C407.444 196.004 409.837 195.225 412.311 194.303C414.799 193.424 417.376 192.457 420.089 191.594C422.826 190.806 425.654 189.99 428.563 189.152C430.021 188.736 431.498 188.307 433.003 187.913C434.52 187.575 436.056 187.234 437.608 186.887C440.714 186.199 443.896 185.489 447.143 184.854C453.681 183.851 460.436 182.621 467.387 182.152C474.31 181.339 481.393 181.33 488.463 181.086C495.533 181.33 502.619 181.333 509.542 182.146C516.493 182.606 523.248 183.844 529.786 184.842C533.036 185.48 536.215 186.184 539.324 186.872C540.876 187.219 542.412 187.56 543.929 187.897C545.434 188.292 546.911 188.717 548.369 189.136C551.278 189.974 554.106 190.79 556.843 191.579C559.556 192.442 562.134 193.414 564.621 194.29C567.092 195.213 569.492 195.998 571.71 196.917C573.912 197.877 575.999 198.79 577.96 199.644C579.915 200.507 581.755 201.283 583.432 202.059C585.096 202.862 586.588 203.682 587.952 204.379C590.677 205.777 592.779 206.95 594.225 207.716C595.657 208.504 596.421 208.927 596.421 208.927C596.421 208.927 595.582 208.673 594.009 208.201C592.448 207.707 590.142 207.031 587.258 206.074C585.809 205.618 584.223 205.061 582.468 204.548C580.691 204.088 578.798 203.525 576.765 202.962C574.738 202.39 572.582 201.783 570.308 201.142C568.027 200.542 565.597 200.01 563.085 199.403C560.563 198.825 557.973 198.112 555.251 197.543C552.523 197.011 549.701 196.457 546.804 195.891C545.359 195.604 543.895 195.313 542.412 195.016C540.917 194.79 539.403 194.565 537.87 194.337C534.804 193.905 531.697 193.339 528.519 192.911C525.328 192.564 522.087 192.207 518.805 191.851C515.533 191.413 512.189 191.31 508.838 191.053C502.131 190.465 495.292 190.487 488.466 190.293C481.64 190.487 474.801 190.459 468.094 191.047C464.74 191.303 461.396 191.397 458.124 191.841C454.845 192.213 451.604 192.576 448.407 192.898C445.228 193.333 442.122 193.89 439.056 194.324C437.526 194.553 436.009 194.781 434.514 195.006C433.031 195.3 431.567 195.594 430.118 195.879C427.218 196.445 424.4 196.995 421.672 197.53C418.95 198.096 416.36 198.815 413.838 199.391C411.326 199.998 408.895 200.532 406.618 201.13C404.353 201.768 402.201 202.375 400.183 202.947C398.155 203.513 396.263 204.07 394.486 204.529C392.725 205.045 391.126 205.608 389.671 206.068C386.774 207.028 384.469 207.707 382.908 208.201C381.337 208.673 380.502 208.923 380.502 208.923H380.508Z" fill="#002147"/>
</g>
<g filter="url(#filter0_d_2053_17266)">
<rect x="47" y="104" width="119.25" height="119.25" rx="26" fill="#002147" shape-rendering="crispEdges"/>
<rect x="47" y="104" width="119.25" height="119.25" rx="26" stroke="#5687B9" stroke-opacity="0.25" stroke-width="3" stroke-linecap="round" stroke-dasharray="8 8" shape-rendering="crispEdges"/>
</g>
<g filter="url(#filter1_d_2053_17266)">
<rect x="59" y="116" width="95.25" height="95.25" rx="16" fill="#F08021"/>
</g>
<g clip-path="url(#clip1_2053_17266)">
<path d="M99.3013 185.997C96.7777 185.997 94.232 185.375 91.922 184.191C88.0394 182.202 85.1585 178.821 83.81 174.67C82.4608 170.518 82.8056 166.087 84.7808 162.192C88.8501 154.17 98.7025 150.924 106.743 154.956C108.387 155.781 109.866 156.862 111.139 158.168C111.875 158.924 112.978 159.197 113.949 158.863L115.354 158.379C117.78 157.544 120.434 158.839 121.27 161.266L121.77 162.72C122.605 165.147 121.31 167.801 118.883 168.636L117.461 169.125C116.5 169.456 115.805 170.34 115.693 171.376C115.477 173.369 114.9 175.291 113.977 177.089C112.606 179.761 110.506 182.005 107.904 183.58C105.376 185.111 102.49 185.946 99.5578 185.995C99.4725 185.996 99.3867 185.997 99.3013 185.997ZM99.4261 156.737C94.7234 156.737 90.1799 159.318 87.9157 163.782C84.7175 170.088 87.2338 177.84 93.5249 181.063C95.4012 182.024 97.4671 182.515 99.499 182.48C104.255 182.4 108.71 179.655 110.85 175.485C111.576 174.07 112.029 172.561 112.199 170.997C112.457 168.613 114.074 166.574 116.318 165.802L117.74 165.312C118.334 165.108 118.651 164.458 118.447 163.864C118.447 163.864 118.447 163.864 118.446 163.864L117.946 162.41C117.742 161.815 117.092 161.498 116.498 161.703L115.093 162.186C112.842 162.961 110.302 162.346 108.621 160.621C107.622 159.596 106.461 158.747 105.167 158.098C103.325 157.175 101.362 156.737 99.4261 156.737ZM126.797 160.738C127.64 159.549 128 158.168 128 156.118C128 153.375 127.1 151.13 125.325 149.444C121.807 146.102 116.112 146.354 115.871 146.366C114.902 146.415 114.154 147.242 114.204 148.211C114.253 149.18 115.076 149.927 116.047 149.876C116.091 149.875 120.502 149.699 122.914 152.001C123.971 153.011 124.485 154.357 124.485 156.118C124.485 157.399 124.324 158.148 123.93 158.703C123.369 159.495 123.555 160.592 124.346 161.154C124.655 161.373 125.01 161.478 125.362 161.478C125.912 161.478 126.454 161.22 126.797 160.738ZM112.71 141.003C113.923 141.003 114.907 141.987 114.907 143.2C114.907 144.413 113.923 145.397 112.71 145.397C111.496 145.397 110.513 144.413 110.513 143.2C110.513 141.987 111.496 141.003 112.71 141.003ZM110.513 152.866C110.513 154.079 111.496 155.063 112.71 155.063C113.923 155.063 114.907 154.079 114.907 152.866C114.907 151.653 113.923 150.669 112.71 150.669C111.496 150.669 110.513 151.653 110.513 152.866ZM105.24 147.945C105.24 149.158 106.224 150.142 107.437 150.142C108.651 150.142 109.634 149.158 109.634 147.945C109.634 146.732 108.651 145.748 107.437 145.748C106.224 145.748 105.24 146.732 105.24 147.945Z" fill="white"/>
</g>
<g filter="url(#filter2_d_2053_17266)">
<rect x="243" y="37" width="119.25" height="119.25" rx="26" fill="#002147" shape-rendering="crispEdges"/>
<rect x="243" y="37" width="119.25" height="119.25" rx="26" stroke="#5687B9" stroke-opacity="0.25" stroke-width="3" stroke-linecap="round" stroke-dasharray="8 8" shape-rendering="crispEdges"/>
</g>
<g filter="url(#filter3_d_2053_17266)">
<rect x="255" y="49" width="95.25" height="95.25" rx="16" fill="#1B518D"/>
</g>
<g clip-path="url(#clip2_2053_17266)">
<path d="M325.126 92.7494C324.09 92.7494 323.251 93.5885 323.251 94.6245C323.251 95.6604 322.41 96.4995 321.376 96.4995H290.212L292.665 81.7167C292.99 79.7601 294.395 78.1626 296.083 77.8316C297.367 77.5794 298.62 77.8991 299.612 78.7317C301.544 80.3526 304.457 80.3517 306.389 78.7317C307.381 77.8991 308.635 77.5794 309.918 77.8316C311.605 78.1626 313.01 79.7601 313.336 81.7167L314.906 91.181C315.076 92.2029 316.041 92.8938 317.063 92.7241C318.085 92.5544 318.775 91.5888 318.606 90.5678L317.036 81.1036C316.452 77.5813 313.881 74.7884 310.641 74.1528C308.258 73.6859 305.83 74.3075 303.979 75.86C303.44 76.3129 302.563 76.3129 302.023 75.86C300.172 74.3066 297.744 73.685 295.361 74.1519C292.121 74.7875 289.551 77.5804 288.966 81.1026L286.411 96.4986H284.625C283.591 96.4986 282.75 95.6576 282.75 94.6235C282.75 93.5895 281.911 92.7485 280.875 92.7485C279.839 92.7485 279 93.5885 279 94.6245C279 97.7258 281.524 100.25 284.625 100.25H321.376C324.477 100.25 327.001 97.7258 327.001 94.6245C327.001 93.5885 326.162 92.7494 325.126 92.7494Z" fill="white"/>
<path d="M321.751 107.75H319.553C318.779 105.567 316.695 104 314.251 104H310.501C309.061 104 307.746 104.543 306.751 105.437C305.755 104.544 304.44 104 303 104C301.56 104 300.246 104.543 299.25 105.437C298.255 104.544 296.939 104 295.5 104H291.75C289.306 104 287.222 105.567 286.448 107.75H284.25C283.214 107.75 282.375 108.589 282.375 109.625C282.375 110.661 283.214 111.5 284.25 111.5H286.125C286.125 115.635 289.49 119 293.625 119C297.761 119 301.125 115.635 301.125 111.5V109.625C301.125 108.591 301.966 107.75 303 107.75C304.035 107.75 304.875 108.591 304.875 109.625V111.5C304.875 115.635 308.24 119 312.376 119C316.511 119 319.876 115.635 319.876 111.5H321.751C322.787 111.5 323.626 110.661 323.626 109.625C323.626 108.589 322.787 107.75 321.751 107.75ZM293.625 115.25C291.557 115.25 289.875 113.568 289.875 111.5V109.625C289.875 108.591 290.716 107.75 291.75 107.75H295.5C296.534 107.75 297.375 108.591 297.375 109.625V111.5C297.375 113.568 295.693 115.25 293.625 115.25ZM316.126 111.5C316.126 113.568 314.444 115.25 312.376 115.25C310.307 115.25 308.626 113.568 308.626 111.5V109.625C308.626 108.591 309.467 107.75 310.501 107.75H314.251C315.285 107.75 316.126 108.591 316.126 109.625V111.5Z" fill="white"/>
<path d="M309.153 92.7495H296.847C295.811 92.7495 294.972 91.9104 294.972 90.8744C294.972 89.8385 295.811 88.9994 296.847 88.9994H309.153C310.189 88.9994 311.028 89.8385 311.028 90.8744C311.028 91.9104 310.189 92.7495 309.153 92.7495Z" fill="white"/>
</g>
<g filter="url(#filter4_d_2053_17266)">
<rect x="231" y="397" width="119.25" height="119.25" rx="26" fill="#002147" shape-rendering="crispEdges"/>
<rect x="231" y="397" width="119.25" height="119.25" rx="26" stroke="#5687B9" stroke-opacity="0.25" stroke-width="3" stroke-linecap="round" stroke-dasharray="8 8" shape-rendering="crispEdges"/>
</g>
<g filter="url(#filter5_d_2053_17266)">
<rect x="243" y="409" width="95.25" height="95.25" rx="16" fill="#5687B9"/>
</g>
<path d="M308.078 475.484H301.047C300.078 475.484 299.289 474.696 299.289 473.727V465.641H301.047C303.955 465.641 306.32 463.275 306.32 460.367C306.32 458.952 305.742 457.618 304.767 456.644C305.787 454.504 306.32 452.174 306.32 449.82C306.32 441.073 299.247 434 290.5 434C281.753 434 274.68 441.073 274.68 449.82C274.68 452.174 275.213 454.504 276.233 456.644C275.258 457.618 274.68 458.952 274.68 460.367C274.68 463.275 277.045 465.641 279.953 465.641H281.711V473.727C281.711 474.696 280.922 475.484 279.953 475.484H272.922C271.951 475.484 271.164 476.271 271.164 477.242C271.164 478.213 271.951 479 272.922 479H279.953C282.861 479 285.227 476.634 285.227 473.727V468.854C285.777 469.049 286.368 469.156 286.984 469.156H288.742V477.242C288.742 478.213 289.529 479 290.5 479C291.471 479 292.258 478.213 292.258 477.242V469.156H294.016C294.632 469.156 295.223 469.049 295.773 468.854V473.727C295.773 476.634 298.139 479 301.047 479H308.078C309.049 479 309.836 478.213 309.836 477.242C309.836 476.271 309.049 475.484 308.078 475.484ZM294.016 465.641H286.984C286.015 465.641 285.227 464.852 285.227 463.883C285.227 462.912 284.44 462.125 283.469 462.125H279.953C278.984 462.125 278.195 461.336 278.195 460.367C278.195 459.686 278.606 459.057 279.243 458.767C279.699 458.558 280.045 458.164 280.192 457.685C280.339 457.205 280.275 456.685 280.015 456.256C278.824 454.294 278.195 452.069 278.195 449.82C278.195 443.036 283.715 437.516 290.5 437.516C297.285 437.516 302.805 443.036 302.805 449.82C302.805 452.069 302.176 454.294 300.985 456.256C300.725 456.685 300.661 457.205 300.808 457.685C300.955 458.164 301.301 458.558 301.757 458.767C302.394 459.057 302.805 459.686 302.805 460.367C302.805 461.336 302.016 462.125 301.047 462.125H297.531C296.56 462.125 295.773 462.912 295.773 463.883C295.773 464.852 294.985 465.641 294.016 465.641Z" fill="white"/>
<path d="M285.741 458.095L282.226 454.579C281.539 453.892 281.539 452.779 282.226 452.093C282.912 451.406 284.025 451.406 284.712 452.093L288.227 455.609C288.914 456.295 288.914 457.408 288.227 458.095C287.541 458.781 286.428 458.781 285.741 458.095Z" fill="white"/>
<path d="M292.773 458.095C292.086 457.408 292.086 456.295 292.773 455.609L296.288 452.093C296.975 451.406 298.088 451.406 298.774 452.093C299.461 452.779 299.461 453.892 298.774 454.579L295.259 458.095C294.572 458.781 293.459 458.781 292.773 458.095Z" fill="white"/>
<defs>
<filter id="filter0_d_2053_17266" x="0.5" y="67.5" width="212.25" height="212.25" filterUnits="userSpaceOnUse" color-interpolation-filters="sRGB">
<feFlood flood-opacity="0" result="BackgroundImageFix"/>
<feColorMatrix in="SourceAlpha" type="matrix" values="0 0 0 0 0 0 0 0 0 0 0 0 0 0 0 0 0 0 127 0" result="hardAlpha"/>
<feOffset dy="10"/>
<feGaussianBlur stdDeviation="22.5"/>
<feComposite in2="hardAlpha" operator="out"/>
<feColorMatrix type="matrix" values="0 0 0 0 0.0108248 0 0 0 0 0.0576239 0 0 0 0 0.111514 0 0 0 0.3 0"/>
<feBlend mode="normal" in2="BackgroundImageFix" result="effect1_dropShadow_2053_17266"/>
<feBlend mode="normal" in="SourceGraphic" in2="effect1_dropShadow_2053_17266" result="shape"/>
</filter>
<filter id="filter1_d_2053_17266" x="14" y="81" width="185.25" height="185.25" filterUnits="userSpaceOnUse" color-interpolation-filters="sRGB">
<feFlood flood-opacity="0" result="BackgroundImageFix"/>
<feColorMatrix in="SourceAlpha" type="matrix" values="0 0 0 0 0 0 0 0 0 0 0 0 0 0 0 0 0 0 127 0" result="hardAlpha"/>
<feOffset dy="10"/>
<feGaussianBlur stdDeviation="22.5"/>
<feComposite in2="hardAlpha" operator="out"/>
<feColorMatrix type="matrix" values="0 0 0 0 0.0108248 0 0 0 0 0.0576239 0 0 0 0 0.111514 0 0 0 0.3 0"/>
<feBlend mode="normal" in2="BackgroundImageFix" result="effect1_dropShadow_2053_17266"/>
<feBlend mode="normal" in="SourceGraphic" in2="effect1_dropShadow_2053_17266" result="shape"/>
</filter>
<filter id="filter2_d_2053_17266" x="196.5" y="0.5" width="212.25" height="212.25" filterUnits="userSpaceOnUse" color-interpolation-filters="sRGB">
<feFlood flood-opacity="0" result="BackgroundImageFix"/>
<feColorMatrix in="SourceAlpha" type="matrix" values="0 0 0 0 0 0 0 0 0 0 0 0 0 0 0 0 0 0 127 0" result="hardAlpha"/>
<feOffset dy="10"/>
<feGaussianBlur stdDeviation="22.5"/>
<feComposite in2="hardAlpha" operator="out"/>
<feColorMatrix type="matrix" values="0 0 0 0 0.0108248 0 0 0 0 0.0576239 0 0 0 0 0.111514 0 0 0 0.3 0"/>
<feBlend mode="normal" in2="BackgroundImageFix" result="effect1_dropShadow_2053_17266"/>
<feBlend mode="normal" in="SourceGraphic" in2="effect1_dropShadow_2053_17266" result="shape"/>
</filter>
<filter id="filter3_d_2053_17266" x="210" y="14" width="185.25" height="185.25" filterUnits="userSpaceOnUse" color-interpolation-filters="sRGB">
<feFlood flood-opacity="0" result="BackgroundImageFix"/>
<feColorMatrix in="SourceAlpha" type="matrix" values="0 0 0 0 0 0 0 0 0 0 0 0 0 0 0 0 0 0 127 0" result="hardAlpha"/>
<feOffset dy="10"/>
<feGaussianBlur stdDeviation="22.5"/>
<feComposite in2="hardAlpha" operator="out"/>
<feColorMatrix type="matrix" values="0 0 0 0 0.0108248 0 0 0 0 0.0576239 0 0 0 0 0.111514 0 0 0 0.3 0"/>
<feBlend mode="normal" in2="BackgroundImageFix" result="effect1_dropShadow_2053_17266"/>
<feBlend mode="normal" in="SourceGraphic" in2="effect1_dropShadow_2053_17266" result="shape"/>
</filter>
<filter id="filter4_d_2053_17266" x="184.5" y="360.5" width="212.25" height="212.25" filterUnits="userSpaceOnUse" color-interpolation-filters="sRGB">
<feFlood flood-opacity="0" result="BackgroundImageFix"/>
<feColorMatrix in="SourceAlpha" type="matrix" values="0 0 0 0 0 0 0 0 0 0 0 0 0 0 0 0 0 0 127 0" result="hardAlpha"/>
<feOffset dy="10"/>
<feGaussianBlur stdDeviation="22.5"/>
<feComposite in2="hardAlpha" operator="out"/>
<feColorMatrix type="matrix" values="0 0 0 0 0.0108248 0 0 0 0 0.0576239 0 0 0 0 0.111514 0 0 0 0.3 0"/>
<feBlend mode="normal" in2="BackgroundImageFix" result="effect1_dropShadow_2053_17266"/>
<feBlend mode="normal" in="SourceGraphic" in2="effect1_dropShadow_2053_17266" result="shape"/>
</filter>
<filter id="filter5_d_2053_17266" x="198" y="374" width="185.25" height="185.25" filterUnits="userSpaceOnUse" color-interpolation-filters="sRGB">
<feFlood flood-opacity="0" result="BackgroundImageFix"/>
<feColorMatrix in="SourceAlpha" type="matrix" values="0 0 0 0 0 0 0 0 0 0 0 0 0 0 0 0 0 0 127 0" result="hardAlpha"/>
<feOffset dy="10"/>
<feGaussianBlur stdDeviation="22.5"/>
<feComposite in2="hardAlpha" operator="out"/>
<feColorMatrix type="matrix" values="0 0 0 0 0.0108248 0 0 0 0 0.0576239 0 0 0 0 0.111514 0 0 0 0.3 0"/>
<feBlend mode="normal" in2="BackgroundImageFix" result="effect1_dropShadow_2053_17266"/>
<feBlend mode="normal" in="SourceGraphic" in2="effect1_dropShadow_2053_17266" result="shape"/>
</filter>
<clipPath id="clip0_2053_17266">
<rect width="498" height="528" fill="white" transform="translate(235 68)"/>
</clipPath>
<clipPath id="clip1_2053_17266">
<rect width="45" height="45" fill="white" transform="translate(83 141)"/>
</clipPath>
<clipPath id="clip2_2053_17266">
<rect width="48.001" height="45" fill="white" transform="translate(279 74)"/>
</clipPath>
</defs>
</svg>
