<svg width="783" height="878" viewBox="0 0 783 878" fill="none" xmlns="http://www.w3.org/2000/svg">
<g clip-path="url(#clip0_2050_635)">
<path d="M1.7597 876.238H935.24" stroke="#5687B9" stroke-width="2.5" stroke-linecap="round" stroke-linejoin="round"/>
<circle cx="469" cy="217" r="74" stroke="#5687B9" stroke-width="2"/>
<circle cx="62.5" cy="62.5" r="62.5" transform="matrix(-1 0 0 1 532 155)" stroke="#5687B9" stroke-opacity="0.35" stroke-width="3" stroke-linecap="round" stroke-dasharray="6 12"/>
<circle opacity="0.25" cx="469" cy="217" r="213.5" stroke="#5687B9"/>
<circle opacity="0.25" cx="469" cy="217" r="357.5" stroke="#5687B9"/>
<path d="M682.901 876.224V402.273L777.347 430.161V876.224H682.901Z" fill="#5687B9"/>
<path d="M777.347 430.147V876.224H760.961V430.147L682.901 407.106V402.273L777.347 430.147Z" fill="#204269"/>
<path d="M682.901 876.224V402.273L777.347 430.161V876.224H682.901Z" stroke="#072D58" stroke-width="2.5" stroke-linecap="round" stroke-linejoin="round"/>
<path d="M707.973 448.03H777.347" stroke="#072D58" stroke-width="2.5" stroke-linecap="round" stroke-linejoin="round"/>
<path d="M707.973 459.755H777.347" stroke="#072D58" stroke-width="2.5" stroke-linecap="round" stroke-linejoin="round"/>
<path d="M707.973 471.48H777.347" stroke="#072D58" stroke-width="2.5" stroke-linecap="round" stroke-linejoin="round"/>
<path d="M707.973 483.205H777.347" stroke="#072D58" stroke-width="2.5" stroke-linecap="round" stroke-linejoin="round"/>
<path d="M707.973 494.944H777.347" stroke="#072D58" stroke-width="2.5" stroke-linecap="round" stroke-linejoin="round"/>
<path d="M707.973 506.668H777.347" stroke="#072D58" stroke-width="2.5" stroke-linecap="round" stroke-linejoin="round"/>
<path d="M707.973 518.393H777.347" stroke="#072D58" stroke-width="2.5" stroke-linecap="round" stroke-linejoin="round"/>
<path d="M707.973 530.118H777.347" stroke="#072D58" stroke-width="2.5" stroke-linecap="round" stroke-linejoin="round"/>
<path d="M707.973 541.843H777.347" stroke="#072D58" stroke-width="2.5" stroke-linecap="round" stroke-linejoin="round"/>
<path d="M707.973 553.567H777.347" stroke="#072D58" stroke-width="2.5" stroke-linecap="round" stroke-linejoin="round"/>
<path d="M707.973 565.306H777.347" stroke="#072D58" stroke-width="2.5" stroke-linecap="round" stroke-linejoin="round"/>
<path d="M707.973 577.031H777.347" stroke="#072D58" stroke-width="2.5" stroke-linecap="round" stroke-linejoin="round"/>
<path d="M707.973 588.756H777.347" stroke="#072D58" stroke-width="2.5" stroke-linecap="round" stroke-linejoin="round"/>
<path d="M707.973 600.481H777.347" stroke="#072D58" stroke-width="2.5" stroke-linecap="round" stroke-linejoin="round"/>
<path d="M707.973 612.205H777.347" stroke="#072D58" stroke-width="2.5" stroke-linecap="round" stroke-linejoin="round"/>
<path d="M707.973 623.93H777.347" stroke="#072D58" stroke-width="2.5" stroke-linecap="round" stroke-linejoin="round"/>
<path d="M707.973 635.655H777.347" stroke="#072D58" stroke-width="2.5" stroke-linecap="round" stroke-linejoin="round"/>
<path d="M707.973 647.394H777.347" stroke="#072D58" stroke-width="2.5" stroke-linecap="round" stroke-linejoin="round"/>
<path d="M707.973 659.119H777.347" stroke="#072D58" stroke-width="2.5" stroke-linecap="round" stroke-linejoin="round"/>
<path d="M707.973 670.843H777.347" stroke="#072D58" stroke-width="2.5" stroke-linecap="round" stroke-linejoin="round"/>
<path d="M707.973 682.568H777.347" stroke="#072D58" stroke-width="2.5" stroke-linecap="round" stroke-linejoin="round"/>
<path d="M707.973 694.293H777.347" stroke="#072D58" stroke-width="2.5" stroke-linecap="round" stroke-linejoin="round"/>
<path d="M707.973 706.018H777.347" stroke="#072D58" stroke-width="2.5" stroke-linecap="round" stroke-linejoin="round"/>
<path d="M707.973 717.757H777.347" stroke="#072D58" stroke-width="2.5" stroke-linecap="round" stroke-linejoin="round"/>
<path d="M707.973 729.481H777.347" stroke="#072D58" stroke-width="2.5" stroke-linecap="round" stroke-linejoin="round"/>
<path d="M707.973 741.206H777.347" stroke="#072D58" stroke-width="2.5" stroke-linecap="round" stroke-linejoin="round"/>
<path d="M707.973 752.931H777.347" stroke="#072D58" stroke-width="2.5" stroke-linecap="round" stroke-linejoin="round"/>
<path d="M707.973 764.656H777.347" stroke="#072D58" stroke-width="2.5" stroke-linecap="round" stroke-linejoin="round"/>
<path d="M707.973 776.381H777.347" stroke="#072D58" stroke-width="2.5" stroke-linecap="round" stroke-linejoin="round"/>
<path d="M707.973 788.119H777.347" stroke="#072D58" stroke-width="2.5" stroke-linecap="round" stroke-linejoin="round"/>
<path d="M707.973 799.844H777.347" stroke="#072D58" stroke-width="2.5" stroke-linecap="round" stroke-linejoin="round"/>
<path d="M707.973 811.569H777.347" stroke="#072D58" stroke-width="2.5" stroke-linecap="round" stroke-linejoin="round"/>
<path d="M707.973 823.294H777.347" stroke="#072D58" stroke-width="2.5" stroke-linecap="round" stroke-linejoin="round"/>
<path d="M707.973 835.019H777.347" stroke="#072D58" stroke-width="2.5" stroke-linecap="round" stroke-linejoin="round"/>
<path d="M707.973 846.743H777.347" stroke="#072D58" stroke-width="2.5" stroke-linecap="round" stroke-linejoin="round"/>
<path d="M707.973 858.482H777.347" stroke="#072D58" stroke-width="2.5" stroke-linecap="round" stroke-linejoin="round"/>
<path d="M707.973 483.219V876.224H649.073V500.58L707.973 483.219Z" fill="#072D58" stroke="#5687B9" stroke-width="2.5" stroke-linecap="round" stroke-linejoin="round"/>
<path d="M686.336 518.393H651.649" stroke="#5687B9" stroke-width="2.5" stroke-linecap="round" stroke-linejoin="round"/>
<path d="M686.336 530.118H651.649" stroke="#5687B9" stroke-width="2.5" stroke-linecap="round" stroke-linejoin="round"/>
<path d="M686.336 541.843H651.649" stroke="#5687B9" stroke-width="2.5" stroke-linecap="round" stroke-linejoin="round"/>
<path d="M686.336 553.567H651.649" stroke="#5687B9" stroke-width="2.5" stroke-linecap="round" stroke-linejoin="round"/>
<path d="M686.336 565.306H651.649" stroke="#5687B9" stroke-width="2.5" stroke-linecap="round" stroke-linejoin="round"/>
<path d="M686.336 577.031H651.649" stroke="#5687B9" stroke-width="2.5" stroke-linecap="round" stroke-linejoin="round"/>
<path d="M686.336 588.756H651.649" stroke="#5687B9" stroke-width="2.5" stroke-linecap="round" stroke-linejoin="round"/>
<path d="M686.336 600.481H651.649" stroke="#5687B9" stroke-width="2.5" stroke-linecap="round" stroke-linejoin="round"/>
<path d="M686.336 612.205H651.649" stroke="#5687B9" stroke-width="2.5" stroke-linecap="round" stroke-linejoin="round"/>
<path d="M686.336 623.93H651.649" stroke="#5687B9" stroke-width="2.5" stroke-linecap="round" stroke-linejoin="round"/>
<path d="M686.336 635.655H651.649" stroke="#5687B9" stroke-width="2.5" stroke-linecap="round" stroke-linejoin="round"/>
<path d="M686.336 647.394H651.649" stroke="#5687B9" stroke-width="2.5" stroke-linecap="round" stroke-linejoin="round"/>
<path d="M686.336 659.119H651.649" stroke="#5687B9" stroke-width="2.5" stroke-linecap="round" stroke-linejoin="round"/>
<path d="M686.336 670.843H651.649" stroke="#5687B9" stroke-width="2.5" stroke-linecap="round" stroke-linejoin="round"/>
<path d="M686.336 682.568H651.649" stroke="#5687B9" stroke-width="2.5" stroke-linecap="round" stroke-linejoin="round"/>
<path d="M686.336 694.293H651.649" stroke="#5687B9" stroke-width="2.5" stroke-linecap="round" stroke-linejoin="round"/>
<path d="M686.336 706.018H651.649" stroke="#5687B9" stroke-width="2.5" stroke-linecap="round" stroke-linejoin="round"/>
<path d="M686.336 717.757H651.649" stroke="#5687B9" stroke-width="2.5" stroke-linecap="round" stroke-linejoin="round"/>
<path d="M686.336 729.481H651.649" stroke="#5687B9" stroke-width="2.5" stroke-linecap="round" stroke-linejoin="round"/>
<path d="M686.336 741.206H651.649" stroke="#5687B9" stroke-width="2.5" stroke-linecap="round" stroke-linejoin="round"/>
<path d="M686.336 752.931H651.649" stroke="#5687B9" stroke-width="2.5" stroke-linecap="round" stroke-linejoin="round"/>
<path d="M686.336 764.656H651.649" stroke="#5687B9" stroke-width="2.5" stroke-linecap="round" stroke-linejoin="round"/>
<path d="M686.336 776.381H651.649" stroke="#5687B9" stroke-width="2.5" stroke-linecap="round" stroke-linejoin="round"/>
<path d="M686.336 788.119H651.649" stroke="#5687B9" stroke-width="2.5" stroke-linecap="round" stroke-linejoin="round"/>
<path d="M686.336 799.844H651.649" stroke="#5687B9" stroke-width="2.5" stroke-linecap="round" stroke-linejoin="round"/>
<path d="M686.336 811.569H651.649" stroke="#5687B9" stroke-width="2.5" stroke-linecap="round" stroke-linejoin="round"/>
<path d="M686.336 823.294H651.649" stroke="#5687B9" stroke-width="2.5" stroke-linecap="round" stroke-linejoin="round"/>
<path d="M686.336 835.019H651.649" stroke="#5687B9" stroke-width="2.5" stroke-linecap="round" stroke-linejoin="round"/>
<path d="M686.336 846.743H651.649" stroke="#5687B9" stroke-width="2.5" stroke-linecap="round" stroke-linejoin="round"/>
<path d="M686.336 858.482H651.649" stroke="#5687B9" stroke-width="2.5" stroke-linecap="round" stroke-linejoin="round"/>
<path d="M716.532 534.205V876.224H694.895V527.821L716.532 534.205Z" fill="#072D58" stroke="#5687B9" stroke-width="2.5" stroke-linecap="round" stroke-linejoin="round"/>
<path d="M480.339 351.963H456.647V398.919H480.339V351.963Z" fill="#072D58" stroke="#5687B9" stroke-width="2.5" stroke-linecap="round" stroke-linejoin="round"/>
<path d="M468.5 378.513C455.169 378.513 444.357 389.336 444.357 402.681V607.682C444.357 608.119 444.709 608.471 445.145 608.471H491.841C492.277 608.471 492.629 608.119 492.629 607.682V402.681C492.629 389.336 481.817 378.513 468.486 378.513H468.5Z" fill="#072D58" stroke="#5687B9" stroke-width="2.5" stroke-linecap="round" stroke-linejoin="round"/>
<path d="M468.5 396.819C449.58 396.819 434.235 412.18 434.235 431.12V628.722C434.235 629.328 434.714 629.807 435.319 629.807H501.695C502.3 629.807 502.779 629.328 502.779 628.722V431.12C502.779 412.18 487.434 396.819 468.514 396.819H468.5Z" fill="#072D58" stroke="#5687B9" stroke-width="2.5" stroke-linecap="round" stroke-linejoin="round"/>
<path d="M468.5 417.295C444.427 417.295 424.93 436.827 424.93 460.911V684.936C424.93 685.697 425.549 686.317 426.31 686.317H510.704C511.465 686.317 512.084 685.697 512.084 684.936V460.911C512.084 436.813 492.573 417.295 468.514 417.295H468.5Z" fill="#072D58" stroke="#5687B9" stroke-width="2.5" stroke-linecap="round" stroke-linejoin="round"/>
<path d="M468.5 440.139C440.204 440.139 417.272 463.095 417.272 491.42V789.303C417.272 790.205 418.004 790.924 418.891 790.924H518.109C519.01 790.924 519.728 790.191 519.728 789.303V491.42C519.728 463.095 496.796 440.139 468.5 440.139Z" fill="#072D58"/>
<path d="M519.728 491.42V790.924H509.916V491.42C509.916 464.772 489.588 442.844 463.601 440.364C465.22 440.209 466.853 440.139 468.5 440.139C496.782 440.139 519.728 463.109 519.728 491.42Z" fill="#204269"/>
<path d="M468.5 440.139C440.204 440.139 417.272 463.095 417.272 491.42V789.388C417.272 790.247 417.962 790.938 418.82 790.938H518.194C519.052 790.938 519.742 790.247 519.742 789.388V491.42C519.742 463.095 496.81 440.139 468.514 440.139H468.5Z" stroke="#5687B9" stroke-width="2.5" stroke-linecap="round" stroke-linejoin="round"/>
<path d="M468.5 462.827C450.129 462.827 435.235 477.737 435.235 496.127V789.867C435.235 790.445 435.699 790.924 436.291 790.924H500.709C501.287 790.924 501.765 790.459 501.765 789.867V496.127C501.765 477.737 486.871 462.827 468.5 462.827Z" fill="#072D58" stroke="#5687B9" stroke-width="2.5" stroke-linecap="round" stroke-linejoin="round"/>
<path d="M475.032 493.971H461.968V516.998H475.032V493.971Z" fill="#204269" stroke="#5687B9" stroke-width="2.5" stroke-linecap="round" stroke-linejoin="round"/>
<path d="M475.032 535.459H461.968V558.486H475.032V535.459Z" fill="#204269" stroke="#5687B9" stroke-width="2.5" stroke-linecap="round" stroke-linejoin="round"/>
<path d="M475.032 576.947H461.968V599.973H475.032V576.947Z" fill="#204269" stroke="#5687B9" stroke-width="2.5" stroke-linecap="round" stroke-linejoin="round"/>
<path d="M475.032 618.293H461.968V641.32H475.032V618.293Z" fill="#204269" stroke="#5687B9" stroke-width="2.5" stroke-linecap="round" stroke-linejoin="round"/>
<path d="M475.032 659.64H461.968V682.667H475.032V659.64Z" fill="#204269" stroke="#5687B9" stroke-width="2.5" stroke-linecap="round" stroke-linejoin="round"/>
<path d="M475.032 700.987H461.968V724.014H475.032V700.987Z" fill="#204269" stroke="#5687B9" stroke-width="2.5" stroke-linecap="round" stroke-linejoin="round"/>
<path d="M468.5 351.963V292.762" stroke="#5687B9" stroke-width="2.5" stroke-linecap="round" stroke-linejoin="round"/>
<path d="M548.981 736.499H388.019V876.224H548.981V736.499Z" fill="#072D58" stroke="#5687B9" stroke-width="2.5" stroke-linecap="round" stroke-linejoin="round"/>
<path d="M406.77 721.562H369.253V876.21H406.77V721.562Z" fill="#072D58" stroke="#5687B9" stroke-width="2.5" stroke-linecap="round" stroke-linejoin="round"/>
<path d="M567.732 721.562H530.216V876.21H567.732V721.562Z" fill="#072D58" stroke="#5687B9" stroke-width="2.5" stroke-linecap="round" stroke-linejoin="round"/>
<path d="M435.545 751.268H422.481V774.295H435.545V751.268Z" fill="#204269" stroke="#5687B9" stroke-width="2.5" stroke-linecap="round" stroke-linejoin="round"/>
<path d="M435.545 792.756H422.481V815.783H435.545V792.756Z" fill="#204269" stroke="#5687B9" stroke-width="2.5" stroke-linecap="round" stroke-linejoin="round"/>
<path d="M435.545 834.243H422.481V857.27H435.545V834.243Z" fill="#204269" stroke="#5687B9" stroke-width="2.5" stroke-linecap="round" stroke-linejoin="round"/>
<path d="M461.869 751.268H448.806V774.295H461.869V751.268Z" fill="#204269" stroke="#5687B9" stroke-width="2.5" stroke-linecap="round" stroke-linejoin="round"/>
<path d="M461.869 792.756H448.806V815.783H461.869V792.756Z" fill="#204269" stroke="#5687B9" stroke-width="2.5" stroke-linecap="round" stroke-linejoin="round"/>
<path d="M488.194 751.268H475.13V774.295H488.194V751.268Z" fill="#204269" stroke="#5687B9" stroke-width="2.5" stroke-linecap="round" stroke-linejoin="round"/>
<path d="M488.194 792.756H475.13V815.783H488.194V792.756Z" fill="#204269" stroke="#5687B9" stroke-width="2.5" stroke-linecap="round" stroke-linejoin="round"/>
<path d="M514.519 751.268H501.455V774.295H514.519V751.268Z" fill="#204269" stroke="#5687B9" stroke-width="2.5" stroke-linecap="round" stroke-linejoin="round"/>
<path d="M514.519 792.756H501.455V815.783H514.519V792.756Z" fill="#204269" stroke="#5687B9" stroke-width="2.5" stroke-linecap="round" stroke-linejoin="round"/>
<path d="M514.519 834.243H501.455V857.27H514.519V834.243Z" fill="#204269" stroke="#5687B9" stroke-width="2.5" stroke-linecap="round" stroke-linejoin="round"/>
<path d="M488.194 836.667H448.806V876.098H488.194V836.667Z" fill="#5687B9"/>
<path d="M254.817 452.018H168.184V876.112H254.817V452.018Z" fill="#072D58" stroke="#5687B9" stroke-width="2.5" stroke-linecap="round" stroke-linejoin="round"/>
<path d="M254.817 452.018L318.462 511.742V876.112H254.817V452.018Z" fill="#072D58" stroke="#5687B9" stroke-width="2.5" stroke-linecap="round" stroke-linejoin="round"/>
<path d="M265.629 479.315L307.946 519.041V876.112H265.629V479.315Z" fill="#204269" stroke="#5687B9" stroke-width="2.5" stroke-linecap="round" stroke-linejoin="round"/>
<path d="M275.596 488.672V876.112" stroke="#5687B9" stroke-width="2.5" stroke-linecap="round" stroke-linejoin="round"/>
<path d="M286.379 499.439V876.112" stroke="#5687B9" stroke-width="2.5" stroke-linecap="round" stroke-linejoin="round"/>
<path d="M297.162 509.712V876.112" stroke="#5687B9" stroke-width="2.5" stroke-linecap="round" stroke-linejoin="round"/>
<path d="M238.952 468.084H184.035V876.112H238.952V468.084Z" fill="#02254C" stroke="#5687B9" stroke-width="2.5" stroke-linecap="round" stroke-linejoin="round"/>
<path d="M209.1 499.622C205.17 499.639 204.125 501.618 204.137 504.389C204.143 505.843 204.364 508.163 205.144 510.099L200.408 510.639C199.625 508.079 199.158 505.588 199.149 503.44C199.124 497.517 201.843 493.107 210.266 493.071C215.495 493.049 220.28 495.8 220.309 502.623C220.335 508.823 216.695 511.124 212.308 511.143C211.22 511.147 210.272 511.013 209.148 510.74L209.1 499.622ZM212.435 499.816L212.46 505.531C214.215 505.524 215.861 504.858 215.852 502.78C215.842 500.287 213.629 499.811 212.435 499.816Z" fill="#5687B9"/>
<path d="M200.506 525.394C199.339 523.39 199.259 521.069 199.256 520.203C199.236 515.597 201.932 514.2 206.039 514.183L227.096 514.093L227.125 520.916L206.419 521.004C204.804 521.011 204.317 521.879 204.321 523.022C204.324 523.611 204.467 524.234 204.715 524.891L200.506 525.394Z" fill="#5687B9"/>
<path d="M206.449 528.139C203.01 528.154 199.289 528.17 199.317 534.716C199.32 535.374 199.399 537.486 200.391 539.629L204.705 538.953C204.421 538.227 204.313 537.5 204.31 536.877C204.305 535.768 204.863 534.935 206.583 534.927L215.533 534.889L215.602 551.168L219.016 545.161L218.972 534.944L225.044 534.918L224.419 528.236L218.909 528.259L218.895 524.9L214.332 524.919L214.346 528.175L206.449 528.208L206.449 528.139Z" fill="#5687B9"/>
<path d="M206.518 544.418C203.079 544.433 199.359 544.448 199.386 550.995C199.389 551.653 199.468 553.765 200.46 555.908L204.774 555.232C204.49 554.506 204.382 553.779 204.379 553.155C204.375 552.047 204.933 551.213 206.652 551.206L214.479 551.173L214.497 555.329L219.099 556.522L219.077 551.188L225.113 551.162L224.488 544.48L218.978 544.504L218.916 529.887L214.353 529.907L214.415 544.384L206.518 544.418Z" fill="#5687B9"/>
<path d="M214.51 558.481L218.974 560.02C220.038 562.614 220.608 564.655 220.619 567.218C220.637 571.513 218.897 575.088 212.896 575.113L200.963 575.164C200.077 573.193 199.326 569.767 199.312 566.442C199.292 561.871 200.502 557.501 205.521 557.48C210.294 557.46 211.923 560.986 211.939 564.726C211.945 566.008 211.845 567.29 211.499 568.469L212.797 568.463C212.797 568.463 217.675 568.269 214.51 558.481ZM203.489 566.598C203.492 567.221 203.565 567.914 203.778 568.502L207.989 568.484C208.232 567.894 208.335 567.235 208.332 566.612C208.326 565.157 207.619 563.879 205.723 563.852C203.933 563.86 203.483 565.212 203.489 566.598Z" fill="#5687B9"/>
<path d="M218.246 578.693C219.131 580.49 220.728 584.674 220.746 588.83C220.755 590.943 220.517 592.884 218.979 594.345C220.215 596.106 220.786 598.32 220.797 600.987C220.815 605.074 219.144 608.407 213.634 608.43L200.122 608.487L200.094 601.872L213.08 601.817C215.185 601.808 215.883 600.87 215.878 599.588C215.874 598.722 215.66 597.788 215.199 596.716C214.708 596.788 214.146 596.825 213.585 596.827L200.073 596.885L200.045 590.338L213.031 590.283C215.312 590.274 215.834 589.232 215.828 587.951C215.824 587.016 215.61 586.185 215.221 585.321L200.024 585.386L199.996 578.77L218.246 578.693Z" fill="#5687B9"/>
<path d="M89.1952 621.013H12.9935V876.21H89.1952V621.013Z" fill="#072D58" stroke="#5687B9" stroke-width="2.5" stroke-linecap="round" stroke-linejoin="round"/>
<path d="M139.508 621.013H89.0967V876.21H139.508V621.013Z" fill="#072D58"/>
<path d="M139.508 621.027H129.443V876.224H139.508V621.027Z" fill="#204269"/>
<path d="M139.508 621.013H89.0967V876.21H139.508V621.013Z" stroke="#5687B9" stroke-width="2.5" stroke-linecap="round" stroke-linejoin="round"/>
<path d="M89.0967 609.598H6.60236V621.013H89.0967V609.598Z" fill="#204269" stroke="#5687B9" stroke-width="2.5" stroke-linecap="round" stroke-linejoin="round"/>
<path d="M89.0967 621.027H145.224V609.612H89.0967V621.027Z" fill="#204269" stroke="#5687B9" stroke-width="2.5" stroke-linecap="round" stroke-linejoin="round"/>
<path d="M63.2644 839.655H38.9384V876.224H63.2644V839.655Z" fill="#5687B9" stroke="#5687B9" stroke-width="2.5" stroke-linecap="round" stroke-linejoin="round"/>
<path d="M40.1913 573.113H24.7483V609.598H40.1913V573.113Z" fill="#072D58" stroke="#5687B9" stroke-width="2.5" stroke-linecap="round" stroke-linejoin="round"/>
<path d="M59.2664 582.654H47.8495V609.612H59.2664V582.654Z" fill="#072D58" stroke="#5687B9" stroke-width="2.5" stroke-linecap="round" stroke-linejoin="round"/>
<path d="M40.7403 635.838H26.6487V663.191H40.7403V635.838Z" fill="#204269" stroke="#5687B9" stroke-width="2.5" stroke-linecap="round" stroke-linejoin="round"/>
<path d="M44.2316 663.191H23.1575V669.885H44.2316V663.191Z" fill="#204269" stroke="#5687B9" stroke-width="2.5" stroke-linecap="round" stroke-linejoin="round"/>
<path d="M26.6487 649.522H40.7403" stroke="#5687B9" stroke-width="2.5" stroke-linecap="round" stroke-linejoin="round"/>
<path d="M75.54 635.838H61.4484V663.191H75.54V635.838Z" fill="#204269" stroke="#5687B9" stroke-width="2.5" stroke-linecap="round" stroke-linejoin="round"/>
<path d="M79.0312 663.191H57.9572V669.885H79.0312V663.191Z" fill="#204269" stroke="#5687B9" stroke-width="2.5" stroke-linecap="round" stroke-linejoin="round"/>
<path d="M61.4484 649.522H75.54" stroke="#5687B9" stroke-width="2.5" stroke-linecap="round" stroke-linejoin="round"/>
<path d="M40.7403 685.753H26.6487V713.106H40.7403V685.753Z" fill="#204269" stroke="#5687B9" stroke-width="2.5" stroke-linecap="round" stroke-linejoin="round"/>
<path d="M44.2316 713.106H23.1575V719.8H44.2316V713.106Z" fill="#204269" stroke="#5687B9" stroke-width="2.5" stroke-linecap="round" stroke-linejoin="round"/>
<path d="M26.6487 699.437H40.7403" stroke="#5687B9" stroke-width="2.5" stroke-linecap="round" stroke-linejoin="round"/>
<path d="M75.54 685.753H61.4484V713.106H75.54V685.753Z" fill="#204269" stroke="#5687B9" stroke-width="2.5" stroke-linecap="round" stroke-linejoin="round"/>
<path d="M79.0312 713.106H57.9572V719.8H79.0312V713.106Z" fill="#204269" stroke="#5687B9" stroke-width="2.5" stroke-linecap="round" stroke-linejoin="round"/>
<path d="M61.4484 699.437H75.54" stroke="#5687B9" stroke-width="2.5" stroke-linecap="round" stroke-linejoin="round"/>
<path d="M40.7403 735.668H26.6487V763.021H40.7403V735.668Z" fill="#204269" stroke="#5687B9" stroke-width="2.5" stroke-linecap="round" stroke-linejoin="round"/>
<path d="M44.2316 763.021H23.1575V769.715H44.2316V763.021Z" fill="#204269" stroke="#5687B9" stroke-width="2.5" stroke-linecap="round" stroke-linejoin="round"/>
<path d="M26.6487 749.352H40.7403" stroke="#5687B9" stroke-width="2.5" stroke-linecap="round" stroke-linejoin="round"/>
<path d="M75.54 735.668H61.4484V763.021H75.54V735.668Z" fill="#204269" stroke="#5687B9" stroke-width="2.5" stroke-linecap="round" stroke-linejoin="round"/>
<path d="M79.0312 763.021H57.9572V769.715H79.0312V763.021Z" fill="#204269" stroke="#5687B9" stroke-width="2.5" stroke-linecap="round" stroke-linejoin="round"/>
<path d="M61.4484 749.352H75.54" stroke="#5687B9" stroke-width="2.5" stroke-linecap="round" stroke-linejoin="round"/>
<path d="M40.7403 785.583H26.6487V812.936H40.7403V785.583Z" fill="#204269" stroke="#5687B9" stroke-width="2.5" stroke-linecap="round" stroke-linejoin="round"/>
<path d="M44.2316 812.936H23.1575V819.616H44.2316V812.936Z" fill="#204269" stroke="#5687B9" stroke-width="2.5" stroke-linecap="round" stroke-linejoin="round"/>
<path d="M26.6487 799.266H40.7403" stroke="#5687B9" stroke-width="2.5" stroke-linecap="round" stroke-linejoin="round"/>
<path d="M124.206 635.838H110.114V663.191H124.206V635.838Z" fill="#204269" stroke="#5687B9" stroke-width="2.5" stroke-linecap="round" stroke-linejoin="round"/>
<path d="M127.697 663.191H106.623V669.885H127.697V663.191Z" fill="#204269" stroke="#5687B9" stroke-width="2.5" stroke-linecap="round" stroke-linejoin="round"/>
<path d="M110.114 649.522H124.206" stroke="#5687B9" stroke-width="2.5" stroke-linecap="round" stroke-linejoin="round"/>
<path d="M124.206 685.753H110.114V713.106H124.206V685.753Z" fill="#204269" stroke="#5687B9" stroke-width="2.5" stroke-linecap="round" stroke-linejoin="round"/>
<path d="M127.697 713.106H106.623V719.8H127.697V713.106Z" fill="#204269" stroke="#5687B9" stroke-width="2.5" stroke-linecap="round" stroke-linejoin="round"/>
<path d="M110.114 699.437H124.206" stroke="#5687B9" stroke-width="2.5" stroke-linecap="round" stroke-linejoin="round"/>
<path d="M124.206 735.668H110.114V763.021H124.206V735.668Z" fill="#204269" stroke="#5687B9" stroke-width="2.5" stroke-linecap="round" stroke-linejoin="round"/>
<path d="M127.697 763.021H106.623V769.715H127.697V763.021Z" fill="#204269" stroke="#5687B9" stroke-width="2.5" stroke-linecap="round" stroke-linejoin="round"/>
<path d="M110.114 749.352H124.206" stroke="#5687B9" stroke-width="2.5" stroke-linecap="round" stroke-linejoin="round"/>
<path d="M124.206 785.583H110.114V812.936H124.206V785.583Z" fill="#204269" stroke="#5687B9" stroke-width="2.5" stroke-linecap="round" stroke-linejoin="round"/>
<path d="M127.697 812.936H106.623V819.616H127.697V812.936Z" fill="#204269" stroke="#5687B9" stroke-width="2.5" stroke-linecap="round" stroke-linejoin="round"/>
<path d="M110.114 799.266H124.206" stroke="#5687B9" stroke-width="2.5" stroke-linecap="round" stroke-linejoin="round"/>
<path d="M124.206 835.498H110.114V862.851H124.206V835.498Z" fill="#204269" stroke="#5687B9" stroke-width="2.5" stroke-linecap="round" stroke-linejoin="round"/>
<path d="M127.697 862.851H106.623V869.545H127.697V862.851Z" fill="#204269" stroke="#5687B9" stroke-width="2.5" stroke-linecap="round" stroke-linejoin="round"/>
<path d="M110.114 849.181H124.206" stroke="#5687B9" stroke-width="2.5" stroke-linecap="round" stroke-linejoin="round"/>
<path d="M75.54 785.583H61.4484V812.936H75.54V785.583Z" fill="#204269" stroke="#5687B9" stroke-width="2.5" stroke-linecap="round" stroke-linejoin="round"/>
<path d="M79.0312 812.936H57.9572V819.616H79.0312V812.936Z" fill="#204269" stroke="#5687B9" stroke-width="2.5" stroke-linecap="round" stroke-linejoin="round"/>
<path d="M61.4484 799.266H75.54" stroke="#5687B9" stroke-width="2.5" stroke-linecap="round" stroke-linejoin="round"/>
<path d="M815.441 653.425H739.239V876.21H815.441V653.425Z" fill="#072D58" stroke="#5687B9" stroke-width="2.5" stroke-linecap="round" stroke-linejoin="round"/>
<path d="M813.54 609.937H748.516V642.011H813.54V609.937Z" fill="#072D58" stroke="#5687B9" stroke-width="2.5" stroke-linecap="round" stroke-linejoin="round"/>
<path d="M815.342 642.011H732.848V653.425H815.342V642.011Z" fill="#204269" stroke="#5687B9" stroke-width="2.5" stroke-linecap="round" stroke-linejoin="round"/>
<path d="M754.232 669.18H756.09C758.511 669.18 760.468 671.139 760.468 673.563V690.432H749.853V673.563C749.853 671.139 751.81 669.18 754.232 669.18Z" fill="#072D58" stroke="#5687B9" stroke-width="2.5" stroke-linecap="round" stroke-linejoin="round"/>
<path d="M776.418 669.18H778.276C780.697 669.18 782.654 671.139 782.654 673.563V690.432H772.04V673.563C772.04 671.139 773.996 669.18 776.418 669.18Z" fill="#072D58" stroke="#5687B9" stroke-width="2.5" stroke-linecap="round" stroke-linejoin="round"/>
<path d="M754.232 704.003H756.09C758.511 704.003 760.468 705.961 760.468 708.385V725.254H749.853V708.385C749.853 705.961 751.81 704.003 754.232 704.003Z" fill="#072D58" stroke="#5687B9" stroke-width="2.5" stroke-linecap="round" stroke-linejoin="round"/>
<path d="M776.418 704.003H778.276C780.697 704.003 782.654 705.961 782.654 708.385V725.254H772.04V708.385C772.04 705.961 773.996 704.003 776.418 704.003Z" fill="#072D58" stroke="#5687B9" stroke-width="2.5" stroke-linecap="round" stroke-linejoin="round"/>
<path d="M754.232 738.825H756.09C758.511 738.825 760.468 740.783 760.468 743.207V760.076H749.853V743.207C749.853 740.783 751.81 738.825 754.232 738.825Z" fill="#072D58" stroke="#5687B9" stroke-width="2.5" stroke-linecap="round" stroke-linejoin="round"/>
<path d="M776.418 738.825H778.276C780.697 738.825 782.654 740.783 782.654 743.207V760.076H772.04V743.207C772.04 740.783 773.996 738.825 776.418 738.825Z" fill="#072D58" stroke="#5687B9" stroke-width="2.5" stroke-linecap="round" stroke-linejoin="round"/>
<path d="M754.232 773.647H756.09C758.511 773.647 760.468 775.605 760.468 778.029V794.898H749.853V778.029C749.853 775.605 751.81 773.647 754.232 773.647Z" fill="#072D58" stroke="#5687B9" stroke-width="2.5" stroke-linecap="round" stroke-linejoin="round"/>
<path d="M776.418 773.647H778.276C780.697 773.647 782.654 775.605 782.654 778.029V794.898H772.04V778.029C772.04 775.605 773.996 773.647 776.418 773.647Z" fill="#072D58" stroke="#5687B9" stroke-width="2.5" stroke-linecap="round" stroke-linejoin="round"/>
<path d="M754.232 808.483H756.09C758.511 808.483 760.468 810.442 760.468 812.865V829.734H749.853V812.865C749.853 810.442 751.81 808.483 754.232 808.483Z" fill="#072D58" stroke="#5687B9" stroke-width="2.5" stroke-linecap="round" stroke-linejoin="round"/>
<path d="M776.418 808.483H778.276C780.697 808.483 782.654 810.442 782.654 812.865V829.734H772.04V812.865C772.04 810.442 773.996 808.483 776.418 808.483Z" fill="#072D58" stroke="#5687B9" stroke-width="2.5" stroke-linecap="round" stroke-linejoin="round"/>
<path d="M789.51 839.655H765.184V876.224H789.51V839.655Z" fill="#072D58" stroke="#5687B9" stroke-width="2.5" stroke-linecap="round" stroke-linejoin="round"/>
<path d="M769.013 625.494H770.871C773.293 625.494 775.249 627.453 775.249 629.877V642.011H764.635V629.877C764.635 627.453 766.592 625.494 769.013 625.494Z" fill="#072D58" stroke="#5687B9" stroke-width="2.5" stroke-linecap="round" stroke-linejoin="round"/>
<path d="M609.43 582.034H527.879V876.14H609.43V582.034Z" fill="#072D58" stroke="#5687B9" stroke-width="2.5" stroke-linecap="round" stroke-linejoin="round"/>
<path d="M654.746 582.034H609.43V876.14H654.746V582.034Z" fill="#072D58"/>
<path d="M654.746 582.048H645.286V876.154H654.746V582.048Z" fill="#204269"/>
<path d="M654.746 582.034H609.43V876.14H654.746V582.034Z" stroke="#5687B9" stroke-width="2.5" stroke-linecap="round" stroke-linejoin="round"/>
<path d="M609.444 572.479H522.234V582.034H609.444V572.479Z" fill="#204269" stroke="#5687B9" stroke-width="2.5" stroke-linecap="round" stroke-linejoin="round"/>
<path d="M609.43 562.925H514.519V572.479H609.43V562.925Z" fill="#204269" stroke="#5687B9" stroke-width="2.5" stroke-linecap="round" stroke-linejoin="round"/>
<path d="M609.444 582.048H662.728V572.493H609.444V582.048Z" fill="#204269" stroke="#5687B9" stroke-width="2.5" stroke-linecap="round" stroke-linejoin="round"/>
<path d="M609.444 572.479H667.444V562.925H609.444V572.479Z" fill="#204269" stroke="#5687B9" stroke-width="2.5" stroke-linecap="round" stroke-linejoin="round"/>
<path d="M551.515 594.985H539.409V622.225H551.515V594.985Z" fill="#072D58" stroke="#5687B9" stroke-width="2.5" stroke-linecap="round" stroke-linejoin="round"/>
<path d="M574.715 594.985H562.608V622.225H574.715V594.985Z" fill="#072D58" stroke="#5687B9" stroke-width="2.5" stroke-linecap="round" stroke-linejoin="round"/>
<path d="M597.901 594.985H585.794V622.225H597.901V594.985Z" fill="#072D58" stroke="#5687B9" stroke-width="2.5" stroke-linecap="round" stroke-linejoin="round"/>
<path d="M638.148 594.985H626.042V622.225H638.148V594.985Z" fill="#072D58" stroke="#5687B9" stroke-width="2.5" stroke-linecap="round" stroke-linejoin="round"/>
<path d="M551.515 641.193H539.409V668.434H551.515V641.193Z" fill="#072D58" stroke="#5687B9" stroke-width="2.5" stroke-linecap="round" stroke-linejoin="round"/>
<path d="M574.715 641.193H562.608V668.434H574.715V641.193Z" fill="#072D58" stroke="#5687B9" stroke-width="2.5" stroke-linecap="round" stroke-linejoin="round"/>
<path d="M597.901 641.193H585.794V668.434H597.901V641.193Z" fill="#072D58" stroke="#5687B9" stroke-width="2.5" stroke-linecap="round" stroke-linejoin="round"/>
<path d="M638.148 641.193H626.042V668.434H638.148V641.193Z" fill="#072D58" stroke="#5687B9" stroke-width="2.5" stroke-linecap="round" stroke-linejoin="round"/>
<path d="M551.515 687.402H539.409V714.642H551.515V687.402Z" fill="#072D58" stroke="#5687B9" stroke-width="2.5" stroke-linecap="round" stroke-linejoin="round"/>
<path d="M574.715 687.402H562.608V714.642H574.715V687.402Z" fill="#072D58" stroke="#5687B9" stroke-width="2.5" stroke-linecap="round" stroke-linejoin="round"/>
<path d="M597.901 687.402H585.794V714.642H597.901V687.402Z" fill="#072D58" stroke="#5687B9" stroke-width="2.5" stroke-linecap="round" stroke-linejoin="round"/>
<path d="M638.148 687.402H626.042V714.642H638.148V687.402Z" fill="#072D58" stroke="#5687B9" stroke-width="2.5" stroke-linecap="round" stroke-linejoin="round"/>
<path d="M551.515 733.61H539.409V760.851H551.515V733.61Z" fill="#072D58" stroke="#5687B9" stroke-width="2.5" stroke-linecap="round" stroke-linejoin="round"/>
<path d="M574.715 733.61H562.608V760.851H574.715V733.61Z" fill="#072D58" stroke="#5687B9" stroke-width="2.5" stroke-linecap="round" stroke-linejoin="round"/>
<path d="M597.901 733.61H585.794V760.851H597.901V733.61Z" fill="#072D58" stroke="#5687B9" stroke-width="2.5" stroke-linecap="round" stroke-linejoin="round"/>
<path d="M638.148 733.61H626.042V760.851H638.148V733.61Z" fill="#072D58" stroke="#5687B9" stroke-width="2.5" stroke-linecap="round" stroke-linejoin="round"/>
<path d="M551.515 779.805H539.409V807.045H551.515V779.805Z" fill="#072D58" stroke="#5687B9" stroke-width="2.5" stroke-linecap="round" stroke-linejoin="round"/>
<path d="M574.715 779.805H562.608V807.045H574.715V779.805Z" fill="#072D58" stroke="#5687B9" stroke-width="2.5" stroke-linecap="round" stroke-linejoin="round"/>
<path d="M597.901 779.805H585.794V807.045H597.901V779.805Z" fill="#072D58" stroke="#5687B9" stroke-width="2.5" stroke-linecap="round" stroke-linejoin="round"/>
<path d="M638.148 779.805H626.042V807.045H638.148V779.805Z" fill="#072D58" stroke="#5687B9" stroke-width="2.5" stroke-linecap="round" stroke-linejoin="round"/>
<path d="M551.515 826.014H539.409V853.254H551.515V826.014Z" fill="#072D58" stroke="#5687B9" stroke-width="2.5" stroke-linecap="round" stroke-linejoin="round"/>
<path d="M597.901 826.014H585.794V853.254H597.901V826.014Z" fill="#072D58" stroke="#5687B9" stroke-width="2.5" stroke-linecap="round" stroke-linejoin="round"/>
<path d="M638.148 826.014H626.042V853.254H638.148V826.014Z" fill="#072D58" stroke="#5687B9" stroke-width="2.5" stroke-linecap="round" stroke-linejoin="round"/>
<path d="M575.926 826.014H561.384V876.534H575.926V826.014Z" fill="#5687B9"/>
<path d="M527.879 631.709H654.746" stroke="#5687B9" stroke-width="2.5" stroke-linecap="round" stroke-linejoin="round"/>
<path d="M527.879 677.918H654.746" stroke="#5687B9" stroke-width="2.5" stroke-linecap="round" stroke-linejoin="round"/>
<path d="M527.879 724.126H654.746" stroke="#5687B9" stroke-width="2.5" stroke-linecap="round" stroke-linejoin="round"/>
<path d="M527.879 770.321H654.746" stroke="#5687B9" stroke-width="2.5" stroke-linecap="round" stroke-linejoin="round"/>
<path d="M527.879 816.529H654.746" stroke="#5687B9" stroke-width="2.5" stroke-linecap="round" stroke-linejoin="round"/>
<path d="M602.87 511.742H532.046V551.256H602.87V511.742Z" fill="#204269" stroke="#5687B9" stroke-width="2.5" stroke-linecap="round" stroke-linejoin="round"/>
<path d="M549.488 551.242H543.209V562.77H549.488V551.242Z" fill="#204269" stroke="#5687B9" stroke-width="2.5" stroke-linecap="round" stroke-linejoin="round"/>
<path d="M591.312 551.242H585.034V562.77H591.312V551.242Z" fill="#204269" stroke="#5687B9" stroke-width="2.5" stroke-linecap="round" stroke-linejoin="round"/>
<path d="M364.495 531.499H275.68V876.126H364.495V531.499Z" fill="#072D58" stroke="#5687B9" stroke-width="2.5" stroke-linecap="round" stroke-linejoin="round"/>
<path d="M364.495 876.112H407.784L407.784 531.485H364.495L364.495 876.112Z" fill="#072D58"/>
<path d="M407.77 531.499H396.634V876.112H407.77V531.499Z" fill="#204269"/>
<path d="M364.495 876.112H407.784L407.784 531.485H364.495L364.495 876.112Z" stroke="#5687B9" stroke-width="2.5" stroke-linecap="round" stroke-linejoin="round"/>
<path d="M353.36 547.578H286.83V559.528H353.36V547.578Z" fill="#072D58" stroke="#5687B9" stroke-width="2.5" stroke-linecap="round" stroke-linejoin="round"/>
<path d="M353.36 572.789H286.83V584.74H353.36V572.789Z" fill="#072D58" stroke="#5687B9" stroke-width="2.5" stroke-linecap="round" stroke-linejoin="round"/>
<path d="M353.36 597.986H286.83V609.937H353.36V597.986Z" fill="#072D58" stroke="#5687B9" stroke-width="2.5" stroke-linecap="round" stroke-linejoin="round"/>
<path d="M353.36 623.197H286.83V635.148H353.36V623.197Z" fill="#072D58" stroke="#5687B9" stroke-width="2.5" stroke-linecap="round" stroke-linejoin="round"/>
<path d="M353.36 648.408H286.83V660.359H353.36V648.408Z" fill="#072D58" stroke="#5687B9" stroke-width="2.5" stroke-linecap="round" stroke-linejoin="round"/>
<path d="M353.36 673.62H286.83V685.57H353.36V673.62Z" fill="#072D58" stroke="#5687B9" stroke-width="2.5" stroke-linecap="round" stroke-linejoin="round"/>
<path d="M353.36 698.831H286.83V710.781H353.36V698.831Z" fill="#072D58" stroke="#5687B9" stroke-width="2.5" stroke-linecap="round" stroke-linejoin="round"/>
<path d="M353.36 724.042H286.83V735.992H353.36V724.042Z" fill="#072D58" stroke="#5687B9" stroke-width="2.5" stroke-linecap="round" stroke-linejoin="round"/>
<path d="M353.36 749.253H286.83V761.203H353.36V749.253Z" fill="#072D58" stroke="#5687B9" stroke-width="2.5" stroke-linecap="round" stroke-linejoin="round"/>
<path d="M353.36 774.464H286.83V786.414H353.36V774.464Z" fill="#072D58" stroke="#5687B9" stroke-width="2.5" stroke-linecap="round" stroke-linejoin="round"/>
<path d="M353.36 799.675H286.83V811.625H353.36V799.675Z" fill="#072D58" stroke="#5687B9" stroke-width="2.5" stroke-linecap="round" stroke-linejoin="round"/>
<path d="M353.36 824.872H286.83V836.822H353.36V824.872Z" fill="#072D58" stroke="#5687B9" stroke-width="2.5" stroke-linecap="round" stroke-linejoin="round"/>
<path d="M407.784 547.578H377.278V559.528H407.784V547.578Z" fill="#5687B9" stroke="#5687B9" stroke-width="2.5" stroke-linecap="round" stroke-linejoin="round"/>
<path d="M407.784 572.789H377.278V584.74H407.784V572.789Z" fill="#5687B9" stroke="#5687B9" stroke-width="2.5" stroke-linecap="round" stroke-linejoin="round"/>
<path d="M407.784 597.986H377.278V609.937H407.784V597.986Z" fill="#5687B9" stroke="#5687B9" stroke-width="2.5" stroke-linecap="round" stroke-linejoin="round"/>
<path d="M407.784 623.197H377.278V635.148H407.784V623.197Z" fill="#5687B9" stroke="#5687B9" stroke-width="2.5" stroke-linecap="round" stroke-linejoin="round"/>
<path d="M407.784 648.408H377.278V660.359H407.784V648.408Z" fill="#5687B9" stroke="#5687B9" stroke-width="2.5" stroke-linecap="round" stroke-linejoin="round"/>
<path d="M407.784 673.62H377.278V685.57H407.784V673.62Z" fill="#5687B9" stroke="#5687B9" stroke-width="2.5" stroke-linecap="round" stroke-linejoin="round"/>
<path d="M407.784 698.831H377.278V710.781H407.784V698.831Z" fill="#5687B9" stroke="#5687B9" stroke-width="2.5" stroke-linecap="round" stroke-linejoin="round"/>
<path d="M407.784 724.042H377.278V735.992H407.784V724.042Z" fill="#5687B9" stroke="#5687B9" stroke-width="2.5" stroke-linecap="round" stroke-linejoin="round"/>
<path d="M407.784 749.253H377.278V761.203H407.784V749.253Z" fill="#5687B9" stroke="#5687B9" stroke-width="2.5" stroke-linecap="round" stroke-linejoin="round"/>
<path d="M407.784 774.464H377.278V786.414H407.784V774.464Z" fill="#5687B9" stroke="#5687B9" stroke-width="2.5" stroke-linecap="round" stroke-linejoin="round"/>
<path d="M407.784 799.675H377.278V811.625H407.784V799.675Z" fill="#5687B9" stroke="#5687B9" stroke-width="2.5" stroke-linecap="round" stroke-linejoin="round"/>
<path d="M407.784 824.872H377.278V836.822H407.784V824.872Z" fill="#5687B9" stroke="#5687B9" stroke-width="2.5" stroke-linecap="round" stroke-linejoin="round"/>
<path d="M206.869 684.668H109.917V876.112H206.869V684.668Z" fill="#072D58" stroke="#5687B9" stroke-width="2.5" stroke-linecap="round" stroke-linejoin="round"/>
<path d="M206.883 876.112H229.323L229.323 684.668H206.883L206.883 876.112Z" fill="#072D58"/>
<path d="M229.323 684.682H224.368V876.112H229.323V684.682Z" fill="#204269"/>
<path d="M206.883 876.112H229.323L229.323 684.668H206.883L206.883 876.112Z" stroke="#5687B9" stroke-width="2.5" stroke-linecap="round" stroke-linejoin="round"/>
<path d="M135.299 703.087H124.079V727.283H135.299V703.087Z" fill="#072D58" stroke="#5687B9" stroke-width="2.5" stroke-linecap="round" stroke-linejoin="round"/>
<path d="M139.663 725.93H119.701V732.328H139.663V725.93Z" fill="#204269" stroke="#5687B9" stroke-width="2.5" stroke-linecap="round" stroke-linejoin="round"/>
<path d="M164.003 703.087H152.783V727.283H164.003V703.087Z" fill="#072D58" stroke="#5687B9" stroke-width="2.5" stroke-linecap="round" stroke-linejoin="round"/>
<path d="M168.381 725.93H148.419V732.328H168.381V725.93Z" fill="#204269" stroke="#5687B9" stroke-width="2.5" stroke-linecap="round" stroke-linejoin="round"/>
<path d="M192.721 703.087H181.502V727.283H192.721V703.087Z" fill="#072D58" stroke="#5687B9" stroke-width="2.5" stroke-linecap="round" stroke-linejoin="round"/>
<path d="M197.099 725.93H177.138V732.328H197.099V725.93Z" fill="#204269" stroke="#5687B9" stroke-width="2.5" stroke-linecap="round" stroke-linejoin="round"/>
<path d="M221.623 703.087H214.584V727.283H221.623V703.087Z" fill="#072D58" stroke="#5687B9" stroke-width="2.5" stroke-linecap="round" stroke-linejoin="round"/>
<path d="M224.368 725.93H211.839V732.328H224.368V725.93Z" fill="#204269" stroke="#5687B9" stroke-width="2.5" stroke-linecap="round" stroke-linejoin="round"/>
<path d="M135.299 745.617H124.079V769.813H135.299V745.617Z" fill="#072D58" stroke="#5687B9" stroke-width="2.5" stroke-linecap="round" stroke-linejoin="round"/>
<path d="M139.663 768.461H119.701V774.859H139.663V768.461Z" fill="#204269" stroke="#5687B9" stroke-width="2.5" stroke-linecap="round" stroke-linejoin="round"/>
<path d="M164.003 745.617H152.783V769.813H164.003V745.617Z" fill="#072D58" stroke="#5687B9" stroke-width="2.5" stroke-linecap="round" stroke-linejoin="round"/>
<path d="M168.381 768.461H148.419V774.859H168.381V768.461Z" fill="#204269" stroke="#5687B9" stroke-width="2.5" stroke-linecap="round" stroke-linejoin="round"/>
<path d="M192.721 745.617H181.502V769.813H192.721V745.617Z" fill="#072D58" stroke="#5687B9" stroke-width="2.5" stroke-linecap="round" stroke-linejoin="round"/>
<path d="M197.099 768.461H177.138V774.859H197.099V768.461Z" fill="#204269" stroke="#5687B9" stroke-width="2.5" stroke-linecap="round" stroke-linejoin="round"/>
<path d="M221.623 745.617H214.584V769.813H221.623V745.617Z" fill="#072D58" stroke="#5687B9" stroke-width="2.5" stroke-linecap="round" stroke-linejoin="round"/>
<path d="M224.368 768.461H211.839V774.859H224.368V768.461Z" fill="#204269" stroke="#5687B9" stroke-width="2.5" stroke-linecap="round" stroke-linejoin="round"/>
<path d="M135.299 788.148H124.079V812.344H135.299V788.148Z" fill="#072D58" stroke="#5687B9" stroke-width="2.5" stroke-linecap="round" stroke-linejoin="round"/>
<path d="M139.663 810.991H119.701V817.389H139.663V810.991Z" fill="#204269" stroke="#5687B9" stroke-width="2.5" stroke-linecap="round" stroke-linejoin="round"/>
<path d="M164.003 788.148H152.783V812.344H164.003V788.148Z" fill="#072D58" stroke="#5687B9" stroke-width="2.5" stroke-linecap="round" stroke-linejoin="round"/>
<path d="M168.381 810.991H148.419V817.389H168.381V810.991Z" fill="#204269" stroke="#5687B9" stroke-width="2.5" stroke-linecap="round" stroke-linejoin="round"/>
<path d="M192.721 788.148H181.502V812.344H192.721V788.148Z" fill="#072D58" stroke="#5687B9" stroke-width="2.5" stroke-linecap="round" stroke-linejoin="round"/>
<path d="M197.099 810.991H177.138V817.389H197.099V810.991Z" fill="#204269" stroke="#5687B9" stroke-width="2.5" stroke-linecap="round" stroke-linejoin="round"/>
<path d="M221.623 788.148H214.584V812.344H221.623V788.148Z" fill="#072D58" stroke="#5687B9" stroke-width="2.5" stroke-linecap="round" stroke-linejoin="round"/>
<path d="M224.368 810.991H211.839V817.389H224.368V810.991Z" fill="#204269" stroke="#5687B9" stroke-width="2.5" stroke-linecap="round" stroke-linejoin="round"/>
<path d="M135.299 830.678H124.079V854.875H135.299V830.678Z" fill="#072D58" stroke="#5687B9" stroke-width="2.5" stroke-linecap="round" stroke-linejoin="round"/>
<path d="M139.663 853.522H119.701V859.92H139.663V853.522Z" fill="#204269" stroke="#5687B9" stroke-width="2.5" stroke-linecap="round" stroke-linejoin="round"/>
<path d="M192.721 830.678H181.502V854.875H192.721V830.678Z" fill="#072D58" stroke="#5687B9" stroke-width="2.5" stroke-linecap="round" stroke-linejoin="round"/>
<path d="M197.099 853.522H177.138V859.92H197.099V853.522Z" fill="#204269" stroke="#5687B9" stroke-width="2.5" stroke-linecap="round" stroke-linejoin="round"/>
<path d="M221.623 830.678H214.584V854.875H221.623V830.678Z" fill="#072D58" stroke="#5687B9" stroke-width="2.5" stroke-linecap="round" stroke-linejoin="round"/>
<path d="M224.368 853.522H211.839V859.92H224.368V853.522Z" fill="#204269" stroke="#5687B9" stroke-width="2.5" stroke-linecap="round" stroke-linejoin="round"/>
<path d="M206.813 675.747H105.877V684.668H206.813V675.747Z" fill="#204269" stroke="#5687B9" stroke-width="2.5" stroke-linecap="round" stroke-linejoin="round"/>
<path d="M206.813 666.841H98.6835V675.762H206.813V666.841Z" fill="#204269" stroke="#5687B9" stroke-width="2.5" stroke-linecap="round" stroke-linejoin="round"/>
<path d="M206.813 684.682H233.87V675.762H206.813V684.682Z" fill="#204269" stroke="#5687B9" stroke-width="2.5" stroke-linecap="round" stroke-linejoin="round"/>
<path d="M206.799 675.747H238.262V666.827H206.799V675.747Z" fill="#204269" stroke="#5687B9" stroke-width="2.5" stroke-linecap="round" stroke-linejoin="round"/>
<path d="M206.813 643.138H124.079V666.841H206.813V643.138Z" fill="#204269" stroke="#5687B9" stroke-width="2.5" stroke-linecap="round" stroke-linejoin="round"/>
<path d="M206.813 666.827H224.368V643.124H206.813V666.827Z" fill="#204269" stroke="#5687B9" stroke-width="2.5" stroke-linecap="round" stroke-linejoin="round"/>
<path d="M164.749 832.609H152.051V876.112H164.749V832.609Z" fill="#5687B9" stroke="#5687B9" stroke-width="2.5" stroke-linecap="round" stroke-linejoin="round"/>
</g>
<g filter="url(#filter0_d_2050_635)">
<rect x="585" y="268" width="119.25" height="119.25" rx="26" fill="#002147"/>
<rect x="585" y="268" width="119.25" height="119.25" rx="26" stroke="#1A4F81" stroke-width="3" stroke-linecap="round" stroke-dasharray="8 8"/>
</g>
<g filter="url(#filter1_d_2050_635)">
<rect x="597" y="280" width="95.25" height="95.25" rx="16" fill="#1B518D"/>
</g>
<g clip-path="url(#clip1_2050_635)">
<path d="M630.789 305H627.273C624.366 305 622 307.366 622 310.273V313.789C622 314.76 622.787 315.547 623.758 315.547C624.729 315.547 625.516 314.76 625.516 313.789V310.273C625.516 309.304 626.304 308.516 627.273 308.516H630.789C631.76 308.516 632.547 307.729 632.547 306.758C632.547 305.787 631.76 305 630.789 305Z" fill="white"/>
<path d="M661.727 305H658.211C657.24 305 656.453 305.787 656.453 306.758C656.453 307.729 657.24 308.516 658.211 308.516H661.727C662.696 308.516 663.484 309.304 663.484 310.273V313.789C663.484 314.76 664.271 315.547 665.242 315.547C666.213 315.547 667 314.76 667 313.789V310.273C667 307.366 664.634 305 661.727 305Z" fill="white"/>
<path d="M665.242 339.453C664.271 339.453 663.484 340.24 663.484 341.211V344.727C663.484 345.696 662.696 346.484 661.727 346.484H658.211C657.24 346.484 656.453 347.271 656.453 348.242C656.453 349.213 657.24 350 658.211 350H661.727C664.634 350 667 347.634 667 344.727V341.211C667 340.24 666.213 339.453 665.242 339.453Z" fill="white"/>
<path d="M630.789 346.484H627.273C626.304 346.484 625.516 345.696 625.516 344.727V341.211C625.516 340.24 624.729 339.453 623.758 339.453C622.787 339.453 622 340.24 622 341.211V344.727C622 347.634 624.366 350 627.273 350H630.789C631.76 350 632.547 349.213 632.547 348.242C632.547 347.271 631.76 346.484 630.789 346.484Z" fill="white"/>
<path d="M644.5 308.164C637.715 308.164 632.195 313.684 632.195 320.469V329.258H626.922C625.951 329.258 625.164 330.045 625.164 331.016C625.164 331.986 625.951 332.773 626.922 332.773H632.195V334.531C632.195 341.316 637.715 346.836 644.5 346.836C647.787 346.836 650.877 345.556 653.201 343.232C653.887 342.546 653.887 341.433 653.201 340.746C652.514 340.06 651.401 340.06 650.715 340.746C649.055 342.406 646.848 343.32 644.5 343.32C639.654 343.32 635.711 339.378 635.711 334.531V332.773H639.227V334.531C639.227 337.439 641.592 339.805 644.5 339.805C647.408 339.805 649.773 337.439 649.773 334.531V332.773H653.289V334.531C653.289 335.502 654.076 336.289 655.047 336.289C656.018 336.289 656.805 335.502 656.805 334.531V332.773H662.078C663.049 332.773 663.836 331.986 663.836 331.016C663.836 330.045 663.049 329.258 662.078 329.258H656.805V320.469C656.805 313.684 651.285 308.164 644.5 308.164ZM646.258 334.531C646.258 335.501 645.469 336.289 644.5 336.289C643.531 336.289 642.742 335.501 642.742 334.531V332.773H646.258V334.531ZM649.773 329.258V320.469C649.773 317.561 647.408 315.195 644.5 315.195C641.592 315.195 639.227 317.561 639.227 320.469V323.984C639.227 324.955 640.014 325.742 640.984 325.742C641.955 325.742 642.742 324.955 642.742 323.984V320.469C642.742 319.499 643.531 318.711 644.5 318.711C645.469 318.711 646.258 319.499 646.258 320.469V329.258H635.711V320.469C635.711 315.622 639.654 311.68 644.5 311.68C649.346 311.68 653.289 315.622 653.289 320.469V329.258H649.773Z" fill="white"/>
</g>
<g filter="url(#filter2_d_2050_635)">
<rect x="220" y="156" width="119.25" height="119.25" rx="26" fill="#002147" shape-rendering="crispEdges"/>
<rect x="220" y="156" width="119.25" height="119.25" rx="26" stroke="#5687B9" stroke-opacity="0.25" stroke-width="3" stroke-linecap="round" stroke-dasharray="8 8" shape-rendering="crispEdges"/>
</g>
<g filter="url(#filter3_d_2050_635)">
<rect x="232" y="168" width="95.25" height="95.25" rx="16" fill="#5687B9"/>
</g>
<path d="M300.242 229.21H298.613C297.83 226.181 295.075 223.937 291.804 223.937H288.289C285.992 223.937 283.949 225.044 282.665 226.753C281.783 226.089 280.687 225.695 279.5 225.695C278.313 225.695 277.217 226.089 276.335 226.753C275.051 225.044 273.008 223.937 270.711 223.937H267.195C263.925 223.937 261.169 226.181 260.387 229.21H258.758C257.787 229.21 257 229.997 257 230.968C257 231.939 257.787 232.726 258.758 232.726H260.387C261.169 235.755 263.925 237.999 267.195 237.999H270.711C274.588 237.999 277.742 234.845 277.742 230.968C277.742 229.999 278.531 229.21 279.5 229.21C280.469 229.21 281.258 229.999 281.258 230.968C281.258 234.845 284.412 237.999 288.289 237.999H291.804C295.075 237.999 297.83 235.755 298.613 232.726H300.242C301.213 232.726 301.999 231.939 301.999 230.968C301.999 229.997 301.213 229.21 300.242 229.21ZM270.711 234.483H267.195C265.257 234.483 263.68 232.906 263.68 230.968C263.68 229.029 265.257 227.452 267.195 227.452H270.711C272.65 227.452 274.227 229.029 274.227 230.968C274.227 232.906 272.65 234.483 270.711 234.483ZM291.804 234.483H288.289C286.35 234.483 284.773 232.906 284.773 230.968C284.773 229.029 286.35 227.452 288.289 227.452H291.804C293.743 227.452 295.32 229.029 295.32 230.968C295.32 232.906 293.743 234.483 291.804 234.483Z" fill="white"/>
<path d="M301.854 214.447C301.467 213.557 300.431 213.149 299.541 213.536C299.463 213.57 291.651 216.906 279.5 216.906C273.087 216.906 267.861 215.967 264.355 215.081C264.355 215.081 267.249 199.414 267.25 199.41C267.548 197.733 269.003 196.515 270.711 196.515C272.138 196.515 273.413 197.367 273.96 198.685L274.628 200.294C275.449 202.27 277.361 203.547 279.5 203.547C281.639 203.547 283.552 202.27 284.372 200.294L285.04 198.685C285.587 197.367 286.862 196.515 288.289 196.515C289.997 196.515 291.453 197.733 291.75 199.41C291.752 199.417 293.717 209.788 293.717 209.788C293.898 210.742 294.818 211.369 295.772 211.187C296.726 211.007 297.352 210.087 297.172 209.133L295.21 198.785C294.609 195.432 291.7 193 288.289 193C285.436 193 282.887 194.702 281.793 197.337L281.125 198.946C280.851 199.605 280.213 200.031 279.5 200.031C278.786 200.031 278.149 199.605 277.875 198.946L277.207 197.337C276.113 194.702 273.563 193 270.711 193C267.298 193 264.388 195.434 263.789 198.79L260.963 214.09C259.999 213.765 259.477 213.544 259.457 213.535C258.567 213.15 257.533 213.557 257.146 214.447C256.759 215.337 257.167 216.373 258.057 216.76C258.401 216.909 266.625 220.421 279.5 220.421C292.375 220.421 300.599 216.909 300.943 216.76C301.833 216.373 302.241 215.337 301.854 214.447Z" fill="white"/>
<g filter="url(#filter4_d_2050_635)">
<rect x="88" y="287" width="119.25" height="119.25" rx="26" fill="#002147" shape-rendering="crispEdges"/>
<rect x="88" y="287" width="119.25" height="119.25" rx="26" stroke="#F08021" stroke-opacity="0.3" stroke-width="3" stroke-linecap="round" stroke-dasharray="8 8" shape-rendering="crispEdges"/>
</g>
<g filter="url(#filter5_d_2050_635)">
<rect x="100" y="299" width="95.25" height="95.25" rx="16" fill="#F08021"/>
</g>
<g clip-path="url(#clip2_2050_635)">
<path d="M143.984 355.289C141.077 355.289 138.711 352.923 138.711 350.016V346.5C138.711 343.592 141.077 341.227 143.984 341.227C146.892 341.227 149.258 343.592 149.258 346.5V350.016C149.258 352.923 146.892 355.289 143.984 355.289ZM143.984 344.742C143.015 344.742 142.227 345.531 142.227 346.5V350.016C142.227 350.985 143.015 351.773 143.984 351.773C144.954 351.773 145.742 350.985 145.742 350.016V346.5C145.742 345.531 144.954 344.742 143.984 344.742Z" fill="white"/>
<path d="M126.758 324C125.787 324 125 324.787 125 325.758V336.305C125 337.276 125.787 338.062 126.758 338.062C127.729 338.062 128.516 337.276 128.516 336.305V325.758C128.516 324.787 127.729 324 126.758 324Z" fill="white"/>
<path d="M149.258 325.758C149.258 324.787 148.471 324 147.5 324C146.529 324 145.742 324.787 145.742 325.758V336.305C145.742 337.276 146.529 338.062 147.5 338.062C148.471 338.062 149.258 337.276 149.258 336.305V325.758Z" fill="white"/>
<path d="M126.758 341.227C125.787 341.227 125 342.014 125 342.984V353.531C125 354.502 125.787 355.289 126.758 355.289C127.729 355.289 128.516 354.502 128.516 353.531V342.984C128.516 342.014 127.729 341.227 126.758 341.227Z" fill="white"/>
<path d="M133.438 341.227C132.467 341.227 131.68 342.014 131.68 342.984V353.531C131.68 354.502 132.467 355.289 133.438 355.289C134.408 355.289 135.195 354.502 135.195 353.531V342.984C135.195 342.014 134.408 341.227 133.438 341.227Z" fill="white"/>
<path d="M154.531 338.062C155.502 338.062 156.289 337.276 156.289 336.305V325.758C156.289 324.787 155.502 324 154.531 324C153.56 324 152.773 324.787 152.773 325.758V336.305C152.773 337.276 153.56 338.062 154.531 338.062Z" fill="white"/>
<path d="M136.953 324C134.045 324 131.68 326.366 131.68 329.273V332.789C131.68 335.697 134.045 338.062 136.953 338.062C139.861 338.062 142.227 335.697 142.227 332.789V329.273C142.227 326.366 139.861 324 136.953 324ZM138.711 332.789C138.711 333.758 137.922 334.547 136.953 334.547C135.984 334.547 135.195 333.758 135.195 332.789V329.273C135.195 328.304 135.984 327.516 136.953 327.516C137.922 327.516 138.711 328.304 138.711 329.273V332.789Z" fill="white"/>
<path d="M164.727 324C161.819 324 159.453 326.366 159.453 329.273V332.789C159.453 335.697 161.819 338.062 164.727 338.062C167.634 338.062 170 335.697 170 332.789V329.273C170 326.366 167.634 324 164.727 324ZM166.484 332.789C166.484 333.758 165.696 334.547 164.727 334.547C163.757 334.547 162.969 333.758 162.969 332.789V329.273C162.969 328.304 163.757 327.516 164.727 327.516C165.696 327.516 166.484 328.304 166.484 329.273V332.789Z" fill="white"/>
<path d="M168.242 358.453C169.213 358.453 170 357.666 170 356.695C170 355.724 169.213 354.937 168.242 354.937H166.182C165.787 353.823 165.026 352.88 164.045 352.252C164.478 351.487 164.727 350.604 164.727 349.664C164.727 347.948 163.902 346.422 162.63 345.458L164.212 343.876C164.898 343.189 164.898 342.076 164.212 341.39C163.525 340.704 162.412 340.703 161.726 341.39L159.453 343.663L157.18 341.39C156.494 340.703 155.381 340.703 154.695 341.39C154.008 342.076 154.008 343.189 154.695 343.876L156.277 345.458C155.004 346.422 154.18 347.948 154.18 349.664C154.18 350.604 154.428 351.487 154.861 352.252C153.88 352.88 153.12 353.823 152.724 354.937H150.664C149.693 354.937 148.906 355.724 148.906 356.695C148.906 357.666 149.693 358.453 150.664 358.453H152.422V361.969H150.664C149.693 361.969 148.906 362.756 148.906 363.727C148.906 364.697 149.693 365.484 150.664 365.484H153.368C154.585 367.584 156.856 369 159.453 369C162.05 369 164.321 367.584 165.538 365.484H168.242C169.213 365.484 170 364.697 170 363.727C170 362.756 169.213 361.969 168.242 361.969H166.484V358.453H168.242ZM157.695 349.664C157.695 348.695 158.484 347.906 159.453 347.906C160.422 347.906 161.211 348.695 161.211 349.664C161.211 350.633 160.422 351.422 159.453 351.422C158.484 351.422 157.695 350.633 157.695 349.664ZM159.453 365.484C157.515 365.484 155.938 363.907 155.938 361.969V356.695C155.938 355.726 156.726 354.937 157.695 354.937H161.211C162.18 354.937 162.969 355.726 162.969 356.695V361.969C162.969 363.907 161.392 365.484 159.453 365.484Z" fill="white"/>
</g>
<path d="M469.5 182C455.51 194.927 441 192.874 441 192.874L441.217 213.443C441.39 229.951 451.655 244.624 467.074 250.214C468.59 250.738 469.5 251 469.5 251C469.5 251 470.41 250.782 471.926 250.214C482.321 246.458 490.334 238.554 494.578 228.772C491.59 230.475 486.522 232.658 479.419 233.575C476.907 235.934 473.658 238.248 469.543 239.995C456.116 234.318 452.045 222.701 452.045 222.701C458.585 225.715 469.543 226.108 469.543 226.108C469.543 226.108 475.607 225.889 481.411 224.535C482.884 224.186 484.443 223.706 486.002 223.138C486.349 223.007 486.695 222.832 487.042 222.701C487.042 222.701 487.042 222.701 487.042 222.745C490.723 221.26 494.535 219.12 497.653 216.063C497.74 215.19 497.783 214.316 497.783 213.443L498 192.874C498 192.874 483.49 194.927 469.5 182ZM488.038 210.342C488.038 210.342 480.805 215.321 470.193 215.321C459.581 215.321 452.305 210.342 452.305 210.342V202.744C462.527 200.778 470.15 194.796 470.15 194.796C470.15 194.796 477.166 200.822 487.995 202.744V210.342H488.038Z" fill="#F08021"/>
<defs>
<filter id="filter0_d_2050_635" x="538.5" y="231.5" width="212.25" height="212.25" filterUnits="userSpaceOnUse" color-interpolation-filters="sRGB">
<feFlood flood-opacity="0" result="BackgroundImageFix"/>
<feColorMatrix in="SourceAlpha" type="matrix" values="0 0 0 0 0 0 0 0 0 0 0 0 0 0 0 0 0 0 127 0" result="hardAlpha"/>
<feOffset dy="10"/>
<feGaussianBlur stdDeviation="22.5"/>
<feComposite in2="hardAlpha" operator="out"/>
<feColorMatrix type="matrix" values="0 0 0 0 0.0108248 0 0 0 0 0.0576239 0 0 0 0 0.111514 0 0 0 0.3 0"/>
<feBlend mode="normal" in2="BackgroundImageFix" result="effect1_dropShadow_2050_635"/>
<feBlend mode="normal" in="SourceGraphic" in2="effect1_dropShadow_2050_635" result="shape"/>
</filter>
<filter id="filter1_d_2050_635" x="552" y="245" width="185.25" height="185.25" filterUnits="userSpaceOnUse" color-interpolation-filters="sRGB">
<feFlood flood-opacity="0" result="BackgroundImageFix"/>
<feColorMatrix in="SourceAlpha" type="matrix" values="0 0 0 0 0 0 0 0 0 0 0 0 0 0 0 0 0 0 127 0" result="hardAlpha"/>
<feOffset dy="10"/>
<feGaussianBlur stdDeviation="22.5"/>
<feComposite in2="hardAlpha" operator="out"/>
<feColorMatrix type="matrix" values="0 0 0 0 0.0108248 0 0 0 0 0.0576239 0 0 0 0 0.111514 0 0 0 0.3 0"/>
<feBlend mode="normal" in2="BackgroundImageFix" result="effect1_dropShadow_2050_635"/>
<feBlend mode="normal" in="SourceGraphic" in2="effect1_dropShadow_2050_635" result="shape"/>
</filter>
<filter id="filter2_d_2050_635" x="173.5" y="119.5" width="212.25" height="212.25" filterUnits="userSpaceOnUse" color-interpolation-filters="sRGB">
<feFlood flood-opacity="0" result="BackgroundImageFix"/>
<feColorMatrix in="SourceAlpha" type="matrix" values="0 0 0 0 0 0 0 0 0 0 0 0 0 0 0 0 0 0 127 0" result="hardAlpha"/>
<feOffset dy="10"/>
<feGaussianBlur stdDeviation="22.5"/>
<feComposite in2="hardAlpha" operator="out"/>
<feColorMatrix type="matrix" values="0 0 0 0 0.0108248 0 0 0 0 0.0576239 0 0 0 0 0.111514 0 0 0 0.3 0"/>
<feBlend mode="normal" in2="BackgroundImageFix" result="effect1_dropShadow_2050_635"/>
<feBlend mode="normal" in="SourceGraphic" in2="effect1_dropShadow_2050_635" result="shape"/>
</filter>
<filter id="filter3_d_2050_635" x="187" y="133" width="185.25" height="185.25" filterUnits="userSpaceOnUse" color-interpolation-filters="sRGB">
<feFlood flood-opacity="0" result="BackgroundImageFix"/>
<feColorMatrix in="SourceAlpha" type="matrix" values="0 0 0 0 0 0 0 0 0 0 0 0 0 0 0 0 0 0 127 0" result="hardAlpha"/>
<feOffset dy="10"/>
<feGaussianBlur stdDeviation="22.5"/>
<feComposite in2="hardAlpha" operator="out"/>
<feColorMatrix type="matrix" values="0 0 0 0 0.0108248 0 0 0 0 0.0576239 0 0 0 0 0.111514 0 0 0 0.3 0"/>
<feBlend mode="normal" in2="BackgroundImageFix" result="effect1_dropShadow_2050_635"/>
<feBlend mode="normal" in="SourceGraphic" in2="effect1_dropShadow_2050_635" result="shape"/>
</filter>
<filter id="filter4_d_2050_635" x="41.5" y="250.5" width="212.25" height="212.25" filterUnits="userSpaceOnUse" color-interpolation-filters="sRGB">
<feFlood flood-opacity="0" result="BackgroundImageFix"/>
<feColorMatrix in="SourceAlpha" type="matrix" values="0 0 0 0 0 0 0 0 0 0 0 0 0 0 0 0 0 0 127 0" result="hardAlpha"/>
<feOffset dy="10"/>
<feGaussianBlur stdDeviation="22.5"/>
<feComposite in2="hardAlpha" operator="out"/>
<feColorMatrix type="matrix" values="0 0 0 0 0.0108248 0 0 0 0 0.0576239 0 0 0 0 0.111514 0 0 0 0.3 0"/>
<feBlend mode="normal" in2="BackgroundImageFix" result="effect1_dropShadow_2050_635"/>
<feBlend mode="normal" in="SourceGraphic" in2="effect1_dropShadow_2050_635" result="shape"/>
</filter>
<filter id="filter5_d_2050_635" x="55" y="264" width="185.25" height="185.25" filterUnits="userSpaceOnUse" color-interpolation-filters="sRGB">
<feFlood flood-opacity="0" result="BackgroundImageFix"/>
<feColorMatrix in="SourceAlpha" type="matrix" values="0 0 0 0 0 0 0 0 0 0 0 0 0 0 0 0 0 0 127 0" result="hardAlpha"/>
<feOffset dy="10"/>
<feGaussianBlur stdDeviation="22.5"/>
<feComposite in2="hardAlpha" operator="out"/>
<feColorMatrix type="matrix" values="0 0 0 0 0.0108248 0 0 0 0 0.0576239 0 0 0 0 0.111514 0 0 0 0.3 0"/>
<feBlend mode="normal" in2="BackgroundImageFix" result="effect1_dropShadow_2050_635"/>
<feBlend mode="normal" in="SourceGraphic" in2="effect1_dropShadow_2050_635" result="shape"/>
</filter>
<clipPath id="clip0_2050_635">
<rect width="937" height="878" fill="white"/>
</clipPath>
<clipPath id="clip1_2050_635">
<rect width="45" height="45" fill="white" transform="translate(622 305)"/>
</clipPath>
<clipPath id="clip2_2050_635">
<rect width="45" height="45" fill="white" transform="translate(125 324)"/>
</clipPath>
</defs>
</svg>
