<svg width="30" height="30" viewBox="0 0 30 30" fill="none" xmlns="http://www.w3.org/2000/svg">
<g clip-path="url(#clip0_2034_4869)">
<path d="M9.38171 30C7.1189 29.9986 4.93297 29.1787 3.22728 27.6918C1.52159 26.2049 0.411256 24.1512 0.101164 21.9098C-0.208928 19.6683 0.302149 17.3903 1.54009 15.4962C2.77803 13.602 4.65928 12.2195 6.83671 11.6038C8.41937 11.1506 10.0946 11.1298 11.688 11.5438L21.573 1.66127C22.0977 1.13288 22.7222 0.713942 23.4101 0.428769C24.0981 0.143596 24.8358 -0.00213725 25.5805 2.3684e-05C26.7524 0.00101672 27.8761 0.467013 28.7048 1.29571C29.5335 2.1244 29.9995 3.24807 30.0005 4.42002C30.0024 5.16476 29.8567 5.9025 29.5718 6.59058C29.2868 7.27865 28.8683 7.90343 28.3405 8.42877L27.5005 9.26877C27.0304 9.73557 26.3954 9.99831 25.733 10H23.7505V11.25C23.7505 11.9131 23.4871 12.5489 23.0182 13.0178C22.5494 13.4866 21.9135 13.75 21.2505 13.75H20.0005V15.7325C20.0014 16.0609 19.9371 16.3863 19.8113 16.6897C19.6856 16.9931 19.5009 17.2685 19.268 17.5L18.4555 18.3125C18.8717 19.9051 18.8514 21.5805 18.3967 23.1625C17.8851 24.965 16.8471 26.5738 15.4156 27.7828C13.9842 28.9918 12.2244 29.746 10.3617 29.9488C10.0361 29.9826 9.70904 29.9997 9.38171 30ZM9.38171 13.75C8.1019 13.7488 6.84714 14.1048 5.75869 14.778C4.67024 15.4512 3.79131 16.4149 3.22084 17.5605C2.65036 18.7061 2.411 19.9883 2.52968 21.2626C2.64836 22.5369 3.12038 23.7527 3.89261 24.7733C4.66483 25.7939 5.70661 26.5787 6.90066 27.0393C8.0947 27.4999 9.39362 27.6181 10.6512 27.3805C11.9088 27.143 13.0751 26.5591 14.0188 25.6947C14.9625 24.8302 15.6462 23.7195 15.993 22.4875C16.383 21.1332 16.3392 19.6908 15.868 18.3625C15.791 18.1407 15.7782 17.9017 15.8308 17.6729C15.8834 17.4441 15.9994 17.2347 16.1655 17.0688L17.5005 15.7325V13.75C17.5005 13.087 17.7639 12.4511 18.2327 11.9823C18.7015 11.5134 19.3374 11.25 20.0005 11.25H21.2505V10C21.2505 9.33698 21.5139 8.7011 21.9827 8.23226C22.4515 7.76342 23.0874 7.50002 23.7505 7.50002H25.733L26.573 6.66002C26.8679 6.36647 27.1017 6.01735 27.2609 5.63287C27.4201 5.24839 27.5015 4.83616 27.5005 4.42002C27.5001 3.91113 27.2979 3.42315 26.9382 3.06319C26.5785 2.70322 26.0906 2.50069 25.5817 2.50002C25.1653 2.499 24.7528 2.58056 24.3681 2.73997C23.9834 2.89939 23.6341 3.13351 23.3405 3.42877L12.9267 13.8413C12.7605 14.0074 12.5509 14.1233 12.3218 14.1757C12.0928 14.2281 11.8536 14.2148 11.6317 14.1375C10.9068 13.8823 10.144 13.7513 9.37546 13.75H9.38171ZM6.25046 22.5C6.25046 22.7472 6.32377 22.9889 6.46112 23.1945C6.59847 23.4 6.7937 23.5603 7.02211 23.6549C7.25051 23.7495 7.50185 23.7742 7.74432 23.726C7.9868 23.6778 8.20953 23.5587 8.38434 23.3839C8.55916 23.2091 8.67821 22.9864 8.72644 22.7439C8.77467 22.5014 8.74992 22.2501 8.65531 22.0217C8.5607 21.7933 8.40048 21.598 8.19492 21.4607C7.98936 21.3233 7.74769 21.25 7.50046 21.25C7.16894 21.25 6.851 21.3817 6.61658 21.6161C6.38216 21.8506 6.25046 22.1685 6.25046 22.5Z" fill="#F08021"/>
</g>
<defs>
<clipPath id="clip0_2034_4869">
<rect width="30" height="30" fill="white"/>
</clipPath>
</defs>
</svg>
