<svg width="369" height="73" viewBox="0 0 369 73" fill="none" xmlns="http://www.w3.org/2000/svg">
<g opacity="0.25" clip-path="url(#clip0_2046_841)">
<path d="M159.337 0H154.173L80.5317 73.4964H85.6957L159.337 0Z" fill="#184A7C"/>
<path d="M182.758 0H177.594L103.952 73.4964H109.116L182.758 0Z" fill="#184A7C"/>
<path d="M206.178 0H201.014L127.373 73.4964H132.537L206.178 0Z" fill="#184A7C"/>
<path d="M229.599 0H224.435L150.794 73.4964H155.943L229.599 0Z" fill="#184A7C"/>
<path d="M253.02 0H247.856L174.214 73.4964H179.364L253.02 0Z" fill="#184A7C"/>
<path d="M10.2695 73.4964H15.4335L89.0749 0H83.9256L10.2695 73.4964Z" fill="#184A7C"/>
<path d="M42.2334 0H37.084L0 37.011V42.1502L42.2334 0Z" fill="#184A7C"/>
<path d="M65.6541 0H60.5047L0 60.3856V65.5248L65.6541 0Z" fill="#184A7C"/>
<path d="M135.916 0H130.752L57.1108 73.4964H62.2748L135.916 0Z" fill="#184A7C"/>
<path d="M112.495 0H107.346L33.6899 73.4964H38.8539L112.495 0Z" fill="#184A7C"/>
<path d="M276.441 0H271.277L197.635 73.4964H202.785L276.441 0Z" fill="#184A7C"/>
<path d="M18.8126 0H13.6633L0 13.6364V18.7756L18.8126 0Z" fill="#184A7C"/>
<path d="M440.371 0H435.221L361.565 73.4964H366.729L440.371 0Z" fill="#184A7C"/>
<path d="M346.688 0H341.538L267.897 73.4964H273.046L346.688 0Z" fill="#184A7C"/>
<path d="M323.282 0H318.118L244.477 73.4964H249.626L323.282 0Z" fill="#184A7C"/>
<path d="M416.95 0H411.801L338.145 73.4964H343.309L416.95 0Z" fill="#184A7C"/>
<path d="M299.862 0H294.698L221.056 73.4964H226.205L299.862 0Z" fill="#184A7C"/>
<path d="M393.53 0H388.38L314.724 73.4964H319.888L393.53 0Z" fill="#184A7C"/>
<path d="M370.109 0H364.959L291.303 73.4964H296.467L370.109 0Z" fill="#184A7C"/>
</g>
<defs>
<clipPath id="clip0_2046_841">
<rect width="369" height="73" fill="white"/>
</clipPath>
</defs>
</svg>
