<svg width="199" height="50" viewBox="0 0 199 50" fill="none" xmlns="http://www.w3.org/2000/svg">
<g clip-path="url(#clip0_2034_3112)">
<path d="M108.92 0H105.39L55.05 50.34H58.58L108.92 0Z" fill="#184A7C"/>
<path d="M124.93 0H121.4L71.06 50.34H74.59L124.93 0Z" fill="#184A7C"/>
<path d="M140.94 0H137.41L87.07 50.34H90.6L140.94 0Z" fill="#184A7C"/>
<path d="M156.95 0H153.42L103.08 50.34H106.6L156.95 0Z" fill="#184A7C"/>
<path d="M172.96 0H169.43L119.09 50.34H122.61L172.96 0Z" fill="#184A7C"/>
<path d="M7.01999 50.34H10.55L60.89 0H57.37L7.01999 50.34Z" fill="#184A7C"/>
<path d="M28.87 0H25.35L0 25.35V28.87L28.87 0Z" fill="#184A7C"/>
<path d="M44.88 0H41.36L0 41.36V44.88L44.88 0Z" fill="#184A7C"/>
<path d="M92.91 0H89.38L39.04 50.34H42.57L92.91 0Z" fill="#184A7C"/>
<path d="M76.9 0H73.38L23.03 50.34H26.56L76.9 0Z" fill="#184A7C"/>
<path d="M188.97 0H185.44L135.1 50.34H138.62L188.97 0Z" fill="#184A7C"/>
<path d="M12.86 0H9.34L0 9.34V12.86L12.86 0Z" fill="#184A7C"/>
<path d="M236.99 0H233.47L183.13 50.34H186.65L236.99 0Z" fill="#184A7C"/>
<path d="M220.99 0H217.46L167.12 50.34H170.64L220.99 0Z" fill="#184A7C"/>
<path d="M204.98 0H201.45L151.11 50.34H154.63L204.98 0Z" fill="#184A7C"/>
</g>
<defs>
<clipPath id="clip0_2034_3112">
<rect width="199" height="50" fill="white"/>
</clipPath>
</defs>
</svg>
