<svg width="65" height="65" viewBox="0 0 65 65" fill="none" xmlns="http://www.w3.org/2000/svg">
<path opacity="0.45" d="M38.3216 16.7398L29.9609 25.1007L26.6782 21.8179C25.6866 20.8263 24.0789 20.8263 23.0874 21.8179C22.0959 22.8096 22.0959 24.4172 23.0874 25.4087L28.1655 30.4868C28.6613 30.9826 29.3111 31.2305 29.9609 31.2305C30.6106 31.2305 31.2605 30.9826 31.7564 30.4868L41.9126 20.3306C42.9041 19.3389 42.9041 17.7313 41.9126 16.7398C40.921 15.7482 39.3133 15.7482 38.3216 16.7398Z" fill="#F08021"/>
<path d="M57.3828 49.7656C54.0728 49.7656 51.2506 51.8885 50.2023 54.8438H47.7344C46.3343 54.8438 45.1953 53.7047 45.1953 52.3047V43.3481L51.9561 38.8409C54.0823 37.4235 55.3516 35.053 55.3516 32.5V12.6953C55.3516 8.4952 51.9345 5.07812 47.7344 5.07812H42.6562C42.1021 5.07812 41.5763 4.90344 41.1355 4.57272L37.068 1.52141C35.7414 0.526094 34.1618 0 32.5 0C30.8382 0 29.2586 0.526094 27.932 1.52141L23.8645 4.57285C23.4237 4.90344 22.8979 5.07812 22.3438 5.07812H17.2656C13.0655 5.07812 9.64844 8.4952 9.64844 12.6953V32.5C9.64844 35.0532 10.9178 37.4236 13.0441 38.8409L19.8047 43.348V52.3047C19.8047 53.7047 18.6657 54.8438 17.2656 54.8438H14.7977C13.7495 51.8885 10.9272 49.7656 7.61719 49.7656C3.41707 49.7656 0 53.1827 0 57.3828C0 61.5829 3.41707 65 7.61719 65C10.9272 65 13.7494 62.8771 14.7977 59.9219H17.2656C21.4657 59.9219 24.8828 56.5048 24.8828 52.3047V46.7335L28.2783 48.9972C29.5306 49.832 30.9904 50.2734 32.5 50.2734C34.0095 50.2734 35.4693 49.8321 36.7217 48.9972L40.1172 46.7335V52.3047C40.1172 56.5048 43.5343 59.9219 47.7344 59.9219H50.2023C51.2505 62.8771 54.0728 65 57.3828 65C61.5829 65 65 61.5829 65 57.3828C65 53.1827 61.5829 49.7656 57.3828 49.7656ZM7.61719 59.9219C6.21715 59.9219 5.07812 58.7829 5.07812 57.3828C5.07812 55.9828 6.21715 54.8438 7.61719 54.8438C9.01723 54.8438 10.1562 55.9828 10.1562 57.3828C10.1562 58.7829 9.01723 59.9219 7.61719 59.9219ZM33.9049 44.7719C33.4895 45.0489 33.0035 45.1953 32.5 45.1953C31.9965 45.1953 31.5107 45.0489 31.0954 44.772H31.0953L15.8609 34.6158C15.1506 34.1423 14.7266 33.3513 14.7266 32.5V12.6953C14.7266 11.2953 15.8656 10.1562 17.2656 10.1562H22.3438C24.0056 10.1562 25.5851 9.63016 26.9118 8.63484L30.9792 5.5834C31.42 5.25281 31.9459 5.07812 32.5 5.07812C33.0541 5.07812 33.58 5.25281 34.0208 5.58353L38.0882 8.63484C39.4149 9.63016 40.9944 10.1562 42.6562 10.1562H47.7344C49.1344 10.1562 50.2734 11.2953 50.2734 12.6953V32.5C50.2734 33.3513 49.8494 34.1423 49.1392 34.6157L33.9049 44.7719ZM57.3828 59.9219C55.9828 59.9219 54.8438 58.7829 54.8438 57.3828C54.8438 55.9828 55.9828 54.8438 57.3828 54.8438C58.7829 54.8438 59.9219 55.9828 59.9219 57.3828C59.9219 58.7829 58.7829 59.9219 57.3828 59.9219Z" fill="#F08021"/>
</svg>
