<svg width="499" height="503" viewBox="0 0 499 503" fill="none" xmlns="http://www.w3.org/2000/svg">
<g clip-path="url(#clip0_2037_8644)">
<path d="M153.837 210.835H16.7794C16.7794 210.835 20.3386 203.297 32.3043 202.484C32.3043 202.484 36.0669 189.443 47.9083 186.392C59.7497 183.341 67.2749 191.081 67.2749 191.081C67.2749 191.081 73.3877 171.938 89.4775 172.345C105.567 172.752 108.618 186.81 108.618 186.81C108.618 186.81 117.985 185.386 120.426 193.534C120.426 193.534 130.199 189.669 136.312 194.551C142.425 199.444 142.628 203.512 142.628 203.512C142.628 203.512 150.165 203.105 153.826 210.846L153.837 210.835Z" fill="white"/>
<path d="M156.888 102.643C159.475 97.9308 167.848 86.9693 185.52 92.337C187.565 87.7942 198.005 75.9851 212.072 84.7204C215.677 79.0589 220.242 73.8719 233.936 77.3977C236.998 69.2952 244.681 63.5319 253.721 63.5319C264.703 63.5319 273.731 72.0299 274.816 82.9236C274.85 82.9236 274.884 82.9236 274.929 82.9236C276.036 82.9236 277.11 83.0028 278.16 83.1384C280.658 77.9401 285.381 74.4143 290.793 74.4143C298.623 74.4143 304.984 81.7484 305.289 90.9132C306.114 90.8001 306.962 90.7437 307.82 90.7437C316.024 90.7437 322.679 95.7724 322.679 101.965C322.679 102.191 322.656 102.417 322.634 102.643H156.876H156.888Z" fill="white"/>
<path d="M262.985 150.241H423.906V501.587H262.985V150.241Z" fill="#E0E6EF" stroke="#94B8DB" stroke-width="2.5" stroke-linecap="round" stroke-linejoin="round"/>
<path d="M226.243 150.741L226.243 501.088H262.485L262.485 150.741H226.243Z" fill="#E0E6EF" stroke="#94B8DB"/>
<path d="M233.469 501.076V150.753H226.243V501.076H233.469Z" fill="#E0E6EF" stroke="#94B8DB"/>
<path d="M262.985 501.588H225.743L225.743 150.241H262.985L262.985 501.588Z" stroke="#94B8DB" stroke-width="2.5" stroke-linecap="round" stroke-linejoin="round"/>
<path d="M263.109 135.46H430.629V150.241H263.109V135.46Z" fill="#E0E6EF" stroke="#94B8DB" stroke-width="2.5" stroke-linecap="round" stroke-linejoin="round"/>
<path d="M263.109 120.668H442.572V135.449H263.109V120.668Z" fill="#E0E6EF" stroke="#94B8DB" stroke-width="2.5" stroke-linecap="round" stroke-linejoin="round"/>
<path d="M263.109 150.241H218.195V135.46H263.109V150.241Z" fill="#E0E6EF" stroke="#94B8DB" stroke-width="2.5" stroke-linecap="round" stroke-linejoin="round"/>
<path d="M263.098 135.46H210.896V120.679H263.098V135.46Z" fill="#E0E6EF" stroke="#94B8DB" stroke-width="2.5" stroke-linecap="round" stroke-linejoin="round"/>
<path d="M288.849 1.4126H398.043V108.237H288.849V1.4126Z" fill="#E0E6EF" stroke="#94B8DB" stroke-width="2.5" stroke-linecap="round" stroke-linejoin="round"/>
<path d="M376.416 108.237H383.195V120.668H376.416V108.237Z" fill="#E0E6EF" stroke="#94B8DB" stroke-width="2.5" stroke-linecap="round" stroke-linejoin="round"/>
<path d="M303.695 108.237H310.475V120.668H303.695V108.237Z" fill="#E0E6EF" stroke="#94B8DB" stroke-width="2.5" stroke-linecap="round" stroke-linejoin="round"/>
<path d="M424.471 136.839V143.947" stroke="#94B8DB" stroke-width="2.5" stroke-linecap="round" stroke-linejoin="round"/>
<path d="M417.726 136.839V143.947" stroke="#94B8DB" stroke-width="2.5" stroke-linecap="round" stroke-linejoin="round"/>
<path d="M410.98 136.839V143.947" stroke="#94B8DB" stroke-width="2.5" stroke-linecap="round" stroke-linejoin="round"/>
<path d="M404.234 136.839V143.947" stroke="#94B8DB" stroke-width="2.5" stroke-linecap="round" stroke-linejoin="round"/>
<path d="M397.478 136.839V143.947" stroke="#94B8DB" stroke-width="2.5" stroke-linecap="round" stroke-linejoin="round"/>
<path d="M390.732 136.839V143.947" stroke="#94B8DB" stroke-width="2.5" stroke-linecap="round" stroke-linejoin="round"/>
<path d="M383.986 136.839V143.947" stroke="#94B8DB" stroke-width="2.5" stroke-linecap="round" stroke-linejoin="round"/>
<path d="M377.241 136.839V143.947" stroke="#94B8DB" stroke-width="2.5" stroke-linecap="round" stroke-linejoin="round"/>
<path d="M370.484 136.839V143.947" stroke="#94B8DB" stroke-width="2.5" stroke-linecap="round" stroke-linejoin="round"/>
<path d="M363.739 136.839V143.947" stroke="#94B8DB" stroke-width="2.5" stroke-linecap="round" stroke-linejoin="round"/>
<path d="M356.993 136.839V143.947" stroke="#94B8DB" stroke-width="2.5" stroke-linecap="round" stroke-linejoin="round"/>
<path d="M350.248 136.839V143.947" stroke="#94B8DB" stroke-width="2.5" stroke-linecap="round" stroke-linejoin="round"/>
<path d="M343.491 136.839V143.947" stroke="#94B8DB" stroke-width="2.5" stroke-linecap="round" stroke-linejoin="round"/>
<path d="M336.745 136.839V143.947" stroke="#94B8DB" stroke-width="2.5" stroke-linecap="round" stroke-linejoin="round"/>
<path d="M330 136.839V143.947" stroke="#94B8DB" stroke-width="2.5" stroke-linecap="round" stroke-linejoin="round"/>
<path d="M323.254 136.839V143.947" stroke="#94B8DB" stroke-width="2.5" stroke-linecap="round" stroke-linejoin="round"/>
<path d="M316.497 136.839V143.947" stroke="#94B8DB" stroke-width="2.5" stroke-linecap="round" stroke-linejoin="round"/>
<path d="M309.752 136.839V143.947" stroke="#94B8DB" stroke-width="2.5" stroke-linecap="round" stroke-linejoin="round"/>
<path d="M303.007 136.839V143.947" stroke="#94B8DB" stroke-width="2.5" stroke-linecap="round" stroke-linejoin="round"/>
<path d="M296.25 136.839V143.947" stroke="#94B8DB" stroke-width="2.5" stroke-linecap="round" stroke-linejoin="round"/>
<path d="M289.504 136.839V143.947" stroke="#94B8DB" stroke-width="2.5" stroke-linecap="round" stroke-linejoin="round"/>
<path d="M282.759 136.839V143.947" stroke="#94B8DB" stroke-width="2.5" stroke-linecap="round" stroke-linejoin="round"/>
<path d="M276.013 136.839V143.947" stroke="#94B8DB" stroke-width="2.5" stroke-linecap="round" stroke-linejoin="round"/>
<path d="M269.256 136.839V143.947" stroke="#94B8DB" stroke-width="2.5" stroke-linecap="round" stroke-linejoin="round"/>
<path d="M257.527 140.218V145.484" stroke="#94B8DB" stroke-width="2.5" stroke-linecap="round" stroke-linejoin="round"/>
<path d="M250.771 140.218V145.484" stroke="#94B8DB" stroke-width="2.5" stroke-linecap="round" stroke-linejoin="round"/>
<path d="M244.025 140.218V145.484" stroke="#94B8DB" stroke-width="2.5" stroke-linecap="round" stroke-linejoin="round"/>
<path d="M237.28 140.218V145.484" stroke="#94B8DB" stroke-width="2.5" stroke-linecap="round" stroke-linejoin="round"/>
<path d="M230.523 140.218V145.484" stroke="#94B8DB" stroke-width="2.5" stroke-linecap="round" stroke-linejoin="round"/>
<path d="M223.777 140.218V145.484" stroke="#94B8DB" stroke-width="2.5" stroke-linecap="round" stroke-linejoin="round"/>
<path d="M423.906 182.47H438.945V212.666H423.906V182.47Z" stroke="#94B8DB" stroke-width="2.5" stroke-linecap="round" stroke-linejoin="round"/>
<path d="M431.42 182.47V212.677" stroke="#94B8DB" stroke-width="2.5" stroke-linecap="round" stroke-linejoin="round"/>
<path d="M423.906 237.335H438.945V267.53H423.906V237.335Z" stroke="#94B8DB" stroke-width="2.5" stroke-linecap="round" stroke-linejoin="round"/>
<path d="M431.42 237.335V267.541" stroke="#94B8DB" stroke-width="2.5" stroke-linecap="round" stroke-linejoin="round"/>
<path d="M423.906 292.21H438.945V322.405H423.906V292.21Z" stroke="#94B8DB" stroke-width="2.5" stroke-linecap="round" stroke-linejoin="round"/>
<path d="M431.42 292.21V322.405" stroke="#94B8DB" stroke-width="2.5" stroke-linecap="round" stroke-linejoin="round"/>
<path d="M423.906 347.075H438.945V377.27H423.906V347.075Z" stroke="#94B8DB" stroke-width="2.5" stroke-linecap="round" stroke-linejoin="round"/>
<path d="M431.42 347.075V377.27" stroke="#94B8DB" stroke-width="2.5" stroke-linecap="round" stroke-linejoin="round"/>
<path d="M423.906 401.939H438.945V432.134H423.906V401.939Z" stroke="#94B8DB" stroke-width="2.5" stroke-linecap="round" stroke-linejoin="round"/>
<path d="M431.42 401.939V432.134" stroke="#94B8DB" stroke-width="2.5" stroke-linecap="round" stroke-linejoin="round"/>
<path d="M389.094 164.276H406.958V201.761H389.094V164.276Z" fill="#E0E6EF" stroke="#94B8DB" stroke-width="2.5" stroke-linecap="round" stroke-linejoin="round"/>
<path d="M389.094 164.276H406.958V175.826H389.094V164.276Z" fill="white" stroke="#94B8DB" stroke-width="2.5" stroke-linecap="round" stroke-linejoin="round"/>
<path d="M385.501 196.223H410.551V201.761H385.501V196.223Z" fill="#E0E6EF" stroke="#94B8DB" stroke-width="2.5" stroke-linecap="round" stroke-linejoin="round"/>
<path d="M401.184 184.742L397.749 181.307" stroke="#94B8DB" stroke-width="2.5" stroke-linecap="round" stroke-linejoin="round"/>
<path d="M400.89 191.579L389.093 179.781" stroke="#94B8DB" stroke-width="2.5" stroke-linecap="round" stroke-linejoin="round"/>
<path d="M352.71 164.276H370.574V201.761H352.71V164.276Z" fill="#E0E6EF" stroke="#94B8DB" stroke-width="2.5" stroke-linecap="round" stroke-linejoin="round"/>
<path d="M352.71 164.276H370.574V175.826H352.71V164.276Z" fill="white" stroke="#94B8DB" stroke-width="2.5" stroke-linecap="round" stroke-linejoin="round"/>
<path d="M349.118 196.223H374.168V201.761H349.118V196.223Z" fill="#E0E6EF" stroke="#94B8DB" stroke-width="2.5" stroke-linecap="round" stroke-linejoin="round"/>
<path d="M364.801 184.742L361.366 181.307" stroke="#94B8DB" stroke-width="2.5" stroke-linecap="round" stroke-linejoin="round"/>
<path d="M364.507 191.579L352.711 179.781" stroke="#94B8DB" stroke-width="2.5" stroke-linecap="round" stroke-linejoin="round"/>
<path d="M316.328 164.276H334.191V201.761H316.328V164.276Z" fill="#E0E6EF" stroke="#94B8DB" stroke-width="2.5" stroke-linecap="round" stroke-linejoin="round"/>
<path d="M316.328 164.276H334.191V175.826H316.328V164.276Z" fill="white" stroke="#94B8DB" stroke-width="2.5" stroke-linecap="round" stroke-linejoin="round"/>
<path d="M312.735 196.223H337.785V201.761H312.735V196.223Z" fill="#E0E6EF" stroke="#94B8DB" stroke-width="2.5" stroke-linecap="round" stroke-linejoin="round"/>
<path d="M328.418 184.742L324.983 181.307" stroke="#94B8DB" stroke-width="2.5" stroke-linecap="round" stroke-linejoin="round"/>
<path d="M328.124 191.579L316.328 179.781" stroke="#94B8DB" stroke-width="2.5" stroke-linecap="round" stroke-linejoin="round"/>
<path d="M279.945 164.276H297.809V201.761H279.945V164.276Z" fill="#E0E6EF" stroke="#94B8DB" stroke-width="2.5" stroke-linecap="round" stroke-linejoin="round"/>
<path d="M279.945 164.276H297.809V175.826H279.945V164.276Z" fill="white" stroke="#94B8DB" stroke-width="2.5" stroke-linecap="round" stroke-linejoin="round"/>
<path d="M276.352 196.223H301.402V201.761H276.352V196.223Z" fill="#E0E6EF" stroke="#94B8DB" stroke-width="2.5" stroke-linecap="round" stroke-linejoin="round"/>
<path d="M292.035 184.742L288.6 181.307" stroke="#94B8DB" stroke-width="2.5" stroke-linecap="round" stroke-linejoin="round"/>
<path d="M291.741 191.579L279.945 179.781" stroke="#94B8DB" stroke-width="2.5" stroke-linecap="round" stroke-linejoin="round"/>
<path d="M389.094 219.152H406.958V256.636H389.094V219.152Z" fill="#E0E6EF" stroke="#94B8DB" stroke-width="2.5" stroke-linecap="round" stroke-linejoin="round"/>
<path d="M389.094 219.152H406.958V230.701H389.094V219.152Z" fill="white" stroke="#94B8DB" stroke-width="2.5" stroke-linecap="round" stroke-linejoin="round"/>
<path d="M385.501 251.088H410.551V256.625H385.501V251.088Z" fill="#E0E6EF" stroke="#94B8DB" stroke-width="2.5" stroke-linecap="round" stroke-linejoin="round"/>
<path d="M401.184 239.606L397.749 236.171" stroke="#94B8DB" stroke-width="2.5" stroke-linecap="round" stroke-linejoin="round"/>
<path d="M400.89 246.454L389.093 234.645" stroke="#94B8DB" stroke-width="2.5" stroke-linecap="round" stroke-linejoin="round"/>
<path d="M352.71 219.152H370.574V256.636H352.71V219.152Z" fill="#E0E6EF" stroke="#94B8DB" stroke-width="2.5" stroke-linecap="round" stroke-linejoin="round"/>
<path d="M352.71 219.152H370.574V230.701H352.71V219.152Z" fill="white" stroke="#94B8DB" stroke-width="2.5" stroke-linecap="round" stroke-linejoin="round"/>
<path d="M349.118 251.088H374.168V256.625H349.118V251.088Z" fill="#E0E6EF" stroke="#94B8DB" stroke-width="2.5" stroke-linecap="round" stroke-linejoin="round"/>
<path d="M364.801 239.606L361.366 236.171" stroke="#94B8DB" stroke-width="2.5" stroke-linecap="round" stroke-linejoin="round"/>
<path d="M364.507 246.454L352.711 234.645" stroke="#94B8DB" stroke-width="2.5" stroke-linecap="round" stroke-linejoin="round"/>
<path d="M316.328 219.152H334.191V256.636H316.328V219.152Z" fill="#E0E6EF" stroke="#94B8DB" stroke-width="2.5" stroke-linecap="round" stroke-linejoin="round"/>
<path d="M316.328 219.152H334.191V230.701H316.328V219.152Z" fill="white" stroke="#94B8DB" stroke-width="2.5" stroke-linecap="round" stroke-linejoin="round"/>
<path d="M312.735 251.088H337.785V256.625H312.735V251.088Z" fill="#E0E6EF" stroke="#94B8DB" stroke-width="2.5" stroke-linecap="round" stroke-linejoin="round"/>
<path d="M328.418 239.606L324.983 236.171" stroke="#94B8DB" stroke-width="2.5" stroke-linecap="round" stroke-linejoin="round"/>
<path d="M328.124 246.454L316.328 234.645" stroke="#94B8DB" stroke-width="2.5" stroke-linecap="round" stroke-linejoin="round"/>
<path d="M279.945 219.152H297.809V256.636H279.945V219.152Z" fill="#E0E6EF" stroke="#94B8DB" stroke-width="2.5" stroke-linecap="round" stroke-linejoin="round"/>
<path d="M279.945 219.152H297.809V230.701H279.945V219.152Z" fill="white" stroke="#94B8DB" stroke-width="2.5" stroke-linecap="round" stroke-linejoin="round"/>
<path d="M276.352 251.088H301.402V256.625H276.352V251.088Z" fill="#E0E6EF" stroke="#94B8DB" stroke-width="2.5" stroke-linecap="round" stroke-linejoin="round"/>
<path d="M292.035 239.606L288.6 236.171" stroke="#94B8DB" stroke-width="2.5" stroke-linecap="round" stroke-linejoin="round"/>
<path d="M291.741 246.454L279.945 234.645" stroke="#94B8DB" stroke-width="2.5" stroke-linecap="round" stroke-linejoin="round"/>
<path d="M389.094 274.016H406.958V311.5H389.094V274.016Z" fill="#E0E6EF" stroke="#94B8DB" stroke-width="2.5" stroke-linecap="round" stroke-linejoin="round"/>
<path d="M389.094 274.016H406.958V285.566H389.094V274.016Z" fill="white" stroke="#94B8DB" stroke-width="2.5" stroke-linecap="round" stroke-linejoin="round"/>
<path d="M385.501 305.952H410.551V311.489H385.501V305.952Z" fill="#E0E6EF" stroke="#94B8DB" stroke-width="2.5" stroke-linecap="round" stroke-linejoin="round"/>
<path d="M401.184 294.482L397.749 291.035" stroke="#94B8DB" stroke-width="2.5" stroke-linecap="round" stroke-linejoin="round"/>
<path d="M400.89 301.319L389.093 289.51" stroke="#94B8DB" stroke-width="2.5" stroke-linecap="round" stroke-linejoin="round"/>
<path d="M352.71 274.016H370.574V311.5H352.71V274.016Z" fill="#E0E6EF" stroke="#94B8DB" stroke-width="2.5" stroke-linecap="round" stroke-linejoin="round"/>
<path d="M352.71 274.016H370.574V285.566H352.71V274.016Z" fill="white" stroke="#94B8DB" stroke-width="2.5" stroke-linecap="round" stroke-linejoin="round"/>
<path d="M349.118 305.952H374.168V311.489H349.118V305.952Z" fill="#E0E6EF" stroke="#94B8DB" stroke-width="2.5" stroke-linecap="round" stroke-linejoin="round"/>
<path d="M364.801 294.482L361.366 291.035" stroke="#94B8DB" stroke-width="2.5" stroke-linecap="round" stroke-linejoin="round"/>
<path d="M364.507 301.319L352.711 289.51" stroke="#94B8DB" stroke-width="2.5" stroke-linecap="round" stroke-linejoin="round"/>
<path d="M316.328 274.016H334.191V311.5H316.328V274.016Z" fill="#E0E6EF" stroke="#94B8DB" stroke-width="2.5" stroke-linecap="round" stroke-linejoin="round"/>
<path d="M316.328 274.016H334.191V285.566H316.328V274.016Z" fill="white" stroke="#94B8DB" stroke-width="2.5" stroke-linecap="round" stroke-linejoin="round"/>
<path d="M312.735 305.952H337.785V311.489H312.735V305.952Z" fill="#E0E6EF" stroke="#94B8DB" stroke-width="2.5" stroke-linecap="round" stroke-linejoin="round"/>
<path d="M328.418 294.482L324.983 291.035" stroke="#94B8DB" stroke-width="2.5" stroke-linecap="round" stroke-linejoin="round"/>
<path d="M328.124 301.319L316.328 289.51" stroke="#94B8DB" stroke-width="2.5" stroke-linecap="round" stroke-linejoin="round"/>
<path d="M279.945 274.016H297.809V311.5H279.945V274.016Z" fill="#E0E6EF" stroke="#94B8DB" stroke-width="2.5" stroke-linecap="round" stroke-linejoin="round"/>
<path d="M279.945 274.016H297.809V285.566H279.945V274.016Z" fill="white" stroke="#94B8DB" stroke-width="2.5" stroke-linecap="round" stroke-linejoin="round"/>
<path d="M276.352 305.952H301.402V311.489H276.352V305.952Z" fill="#E0E6EF" stroke="#94B8DB" stroke-width="2.5" stroke-linecap="round" stroke-linejoin="round"/>
<path d="M292.035 294.482L288.6 291.035" stroke="#94B8DB" stroke-width="2.5" stroke-linecap="round" stroke-linejoin="round"/>
<path d="M291.741 301.319L279.945 289.51" stroke="#94B8DB" stroke-width="2.5" stroke-linecap="round" stroke-linejoin="round"/>
<path d="M235.505 164.276H249.979V201.761H235.505V164.276Z" fill="#E0E6EF" stroke="#94B8DB" stroke-width="2.5" stroke-linecap="round" stroke-linejoin="round"/>
<path d="M235.505 164.276H249.979V175.826H235.505V164.276Z" fill="white" stroke="#94B8DB" stroke-width="2.5" stroke-linecap="round" stroke-linejoin="round"/>
<path d="M231.913 196.223H253.573V201.761H231.913V196.223Z" fill="#E0E6EF" stroke="#94B8DB" stroke-width="2.5" stroke-linecap="round" stroke-linejoin="round"/>
<path d="M235.505 219.152H249.979V256.636H235.505V219.152Z" fill="#E0E6EF" stroke="#94B8DB" stroke-width="2.5" stroke-linecap="round" stroke-linejoin="round"/>
<path d="M235.505 219.152H249.979V230.701H235.505V219.152Z" fill="white" stroke="#94B8DB" stroke-width="2.5" stroke-linecap="round" stroke-linejoin="round"/>
<path d="M231.913 251.088H253.573V256.625H231.913V251.088Z" fill="#E0E6EF" stroke="#94B8DB" stroke-width="2.5" stroke-linecap="round" stroke-linejoin="round"/>
<path d="M235.505 274.016H249.979V311.5H235.505V274.016Z" fill="#E0E6EF" stroke="#94B8DB" stroke-width="2.5" stroke-linecap="round" stroke-linejoin="round"/>
<path d="M235.505 274.016H249.979V285.566H235.505V274.016Z" fill="white" stroke="#94B8DB" stroke-width="2.5" stroke-linecap="round" stroke-linejoin="round"/>
<path d="M231.913 305.952H253.573V311.489H231.913V305.952Z" fill="#E0E6EF" stroke="#94B8DB" stroke-width="2.5" stroke-linecap="round" stroke-linejoin="round"/>
<path d="M389.094 328.881H406.958V366.365H389.094V328.881Z" fill="#E0E6EF" stroke="#94B8DB" stroke-width="2.5" stroke-linecap="round" stroke-linejoin="round"/>
<path d="M389.094 328.881H406.958V340.43H389.094V328.881Z" fill="white" stroke="#94B8DB" stroke-width="2.5" stroke-linecap="round" stroke-linejoin="round"/>
<path d="M385.501 360.816H410.551V366.353H385.501V360.816Z" fill="#E0E6EF" stroke="#94B8DB" stroke-width="2.5" stroke-linecap="round" stroke-linejoin="round"/>
<path d="M401.184 349.346L397.749 345.899" stroke="#94B8DB" stroke-width="2.5" stroke-linecap="round" stroke-linejoin="round"/>
<path d="M400.89 356.183L389.093 344.374" stroke="#94B8DB" stroke-width="2.5" stroke-linecap="round" stroke-linejoin="round"/>
<path d="M352.71 328.881H370.574V366.365H352.71V328.881Z" fill="#E0E6EF" stroke="#94B8DB" stroke-width="2.5" stroke-linecap="round" stroke-linejoin="round"/>
<path d="M352.71 328.881H370.574V340.43H352.71V328.881Z" fill="white" stroke="#94B8DB" stroke-width="2.5" stroke-linecap="round" stroke-linejoin="round"/>
<path d="M349.118 360.816H374.168V366.353H349.118V360.816Z" fill="#E0E6EF" stroke="#94B8DB" stroke-width="2.5" stroke-linecap="round" stroke-linejoin="round"/>
<path d="M364.801 349.346L361.366 345.899" stroke="#94B8DB" stroke-width="2.5" stroke-linecap="round" stroke-linejoin="round"/>
<path d="M364.507 356.183L352.711 344.374" stroke="#94B8DB" stroke-width="2.5" stroke-linecap="round" stroke-linejoin="round"/>
<path d="M316.328 328.881H334.191V366.365H316.328V328.881Z" fill="#E0E6EF" stroke="#94B8DB" stroke-width="2.5" stroke-linecap="round" stroke-linejoin="round"/>
<path d="M316.328 328.881H334.191V340.43H316.328V328.881Z" fill="white" stroke="#94B8DB" stroke-width="2.5" stroke-linecap="round" stroke-linejoin="round"/>
<path d="M312.735 360.816H337.785V366.353H312.735V360.816Z" fill="#E0E6EF" stroke="#94B8DB" stroke-width="2.5" stroke-linecap="round" stroke-linejoin="round"/>
<path d="M328.418 349.346L324.983 345.899" stroke="#94B8DB" stroke-width="2.5" stroke-linecap="round" stroke-linejoin="round"/>
<path d="M328.124 356.183L316.328 344.374" stroke="#94B8DB" stroke-width="2.5" stroke-linecap="round" stroke-linejoin="round"/>
<path d="M279.945 328.881H297.809V366.365H279.945V328.881Z" fill="#E0E6EF" stroke="#94B8DB" stroke-width="2.5" stroke-linecap="round" stroke-linejoin="round"/>
<path d="M279.945 328.881H297.809V340.43H279.945V328.881Z" fill="white" stroke="#94B8DB" stroke-width="2.5" stroke-linecap="round" stroke-linejoin="round"/>
<path d="M276.352 360.816H301.402V366.353H276.352V360.816Z" fill="#E0E6EF" stroke="#94B8DB" stroke-width="2.5" stroke-linecap="round" stroke-linejoin="round"/>
<path d="M292.035 349.346L288.6 345.899" stroke="#94B8DB" stroke-width="2.5" stroke-linecap="round" stroke-linejoin="round"/>
<path d="M291.741 356.183L279.945 344.374" stroke="#94B8DB" stroke-width="2.5" stroke-linecap="round" stroke-linejoin="round"/>
<path d="M389.094 383.745H406.958V421.229H389.094V383.745Z" fill="#E0E6EF" stroke="#94B8DB" stroke-width="2.5" stroke-linecap="round" stroke-linejoin="round"/>
<path d="M389.094 383.745H406.958V395.294H389.094V383.745Z" fill="white" stroke="#94B8DB" stroke-width="2.5" stroke-linecap="round" stroke-linejoin="round"/>
<path d="M385.501 415.692H410.551V421.229H385.501V415.692Z" fill="#E0E6EF" stroke="#94B8DB" stroke-width="2.5" stroke-linecap="round" stroke-linejoin="round"/>
<path d="M401.184 404.21L397.749 400.764" stroke="#94B8DB" stroke-width="2.5" stroke-linecap="round" stroke-linejoin="round"/>
<path d="M400.89 411.047L389.093 399.249" stroke="#94B8DB" stroke-width="2.5" stroke-linecap="round" stroke-linejoin="round"/>
<path d="M352.71 383.745H370.574V421.229H352.71V383.745Z" fill="#E0E6EF" stroke="#94B8DB" stroke-width="2.5" stroke-linecap="round" stroke-linejoin="round"/>
<path d="M352.71 383.745H370.574V395.294H352.71V383.745Z" fill="white" stroke="#94B8DB" stroke-width="2.5" stroke-linecap="round" stroke-linejoin="round"/>
<path d="M349.118 415.692H374.168V421.229H349.118V415.692Z" fill="#E0E6EF" stroke="#94B8DB" stroke-width="2.5" stroke-linecap="round" stroke-linejoin="round"/>
<path d="M364.801 404.21L361.366 400.764" stroke="#94B8DB" stroke-width="2.5" stroke-linecap="round" stroke-linejoin="round"/>
<path d="M364.507 411.047L352.711 399.249" stroke="#94B8DB" stroke-width="2.5" stroke-linecap="round" stroke-linejoin="round"/>
<path d="M316.328 383.745H334.191V421.229H316.328V383.745Z" fill="#E0E6EF" stroke="#94B8DB" stroke-width="2.5" stroke-linecap="round" stroke-linejoin="round"/>
<path d="M316.328 383.745H334.191V395.294H316.328V383.745Z" fill="white" stroke="#94B8DB" stroke-width="2.5" stroke-linecap="round" stroke-linejoin="round"/>
<path d="M312.735 415.692H337.785V421.229H312.735V415.692Z" fill="#E0E6EF" stroke="#94B8DB" stroke-width="2.5" stroke-linecap="round" stroke-linejoin="round"/>
<path d="M328.418 404.21L324.983 400.764" stroke="#94B8DB" stroke-width="2.5" stroke-linecap="round" stroke-linejoin="round"/>
<path d="M328.124 411.047L316.328 399.249" stroke="#94B8DB" stroke-width="2.5" stroke-linecap="round" stroke-linejoin="round"/>
<path d="M279.945 383.745H297.809V421.229H279.945V383.745Z" fill="#E0E6EF" stroke="#94B8DB" stroke-width="2.5" stroke-linecap="round" stroke-linejoin="round"/>
<path d="M279.945 383.745H297.809V395.294H279.945V383.745Z" fill="white" stroke="#94B8DB" stroke-width="2.5" stroke-linecap="round" stroke-linejoin="round"/>
<path d="M276.352 415.692H301.402V421.229H276.352V415.692Z" fill="#E0E6EF" stroke="#94B8DB" stroke-width="2.5" stroke-linecap="round" stroke-linejoin="round"/>
<path d="M292.035 404.21L288.6 400.764" stroke="#94B8DB" stroke-width="2.5" stroke-linecap="round" stroke-linejoin="round"/>
<path d="M291.741 411.047L279.945 399.249" stroke="#94B8DB" stroke-width="2.5" stroke-linecap="round" stroke-linejoin="round"/>
<path d="M389.094 438.609H406.958V476.093H389.094V438.609Z" fill="#E0E6EF" stroke="#94B8DB" stroke-width="2.5" stroke-linecap="round" stroke-linejoin="round"/>
<path d="M389.094 438.609H406.958V450.159H389.094V438.609Z" fill="white" stroke="#94B8DB" stroke-width="2.5" stroke-linecap="round" stroke-linejoin="round"/>
<path d="M385.501 470.556H410.551V476.093H385.501V470.556Z" fill="#E0E6EF" stroke="#94B8DB" stroke-width="2.5" stroke-linecap="round" stroke-linejoin="round"/>
<path d="M401.184 459.075L397.749 455.628" stroke="#94B8DB" stroke-width="2.5" stroke-linecap="round" stroke-linejoin="round"/>
<path d="M400.89 465.912L389.093 454.114" stroke="#94B8DB" stroke-width="2.5" stroke-linecap="round" stroke-linejoin="round"/>
<path d="M279.945 438.609H297.809V476.093H279.945V438.609Z" fill="#E0E6EF" stroke="#94B8DB" stroke-width="2.5" stroke-linecap="round" stroke-linejoin="round"/>
<path d="M279.945 438.609H297.809V450.159H279.945V438.609Z" fill="white" stroke="#94B8DB" stroke-width="2.5" stroke-linecap="round" stroke-linejoin="round"/>
<path d="M276.352 470.556H301.402V476.093H276.352V470.556Z" fill="#E0E6EF" stroke="#94B8DB" stroke-width="2.5" stroke-linecap="round" stroke-linejoin="round"/>
<path d="M292.035 459.075L288.6 455.628" stroke="#94B8DB" stroke-width="2.5" stroke-linecap="round" stroke-linejoin="round"/>
<path d="M291.741 465.912L279.945 454.114" stroke="#94B8DB" stroke-width="2.5" stroke-linecap="round" stroke-linejoin="round"/>
<path d="M316.327 444.384H370.574V501.576H316.327V444.384Z" fill="#E0E6EF" stroke="#94B8DB" stroke-width="2.5" stroke-linecap="round" stroke-linejoin="round"/>
<path d="M343.445 444.384V501.587" stroke="#94B8DB" stroke-width="2.5" stroke-linecap="round" stroke-linejoin="round"/>
<path d="M361.366 466.205L352.508 457.346" stroke="#94B8DB" stroke-width="2.5" stroke-linecap="round" stroke-linejoin="round"/>
<path d="M335.559 478.241L328.519 471.189" stroke="#94B8DB" stroke-width="2.5" stroke-linecap="round" stroke-linejoin="round"/>
<path d="M335.559 486.75L316.316 467.494" stroke="#94B8DB" stroke-width="2.5" stroke-linecap="round" stroke-linejoin="round"/>
<path d="M217.236 182.47H254.816V212.666H217.236V182.47Z" stroke="#94B8DB" stroke-width="2.5" stroke-linecap="round" stroke-linejoin="round"/>
<path d="M247.302 182.47V212.677" stroke="#94B8DB" stroke-width="2.5" stroke-linecap="round" stroke-linejoin="round"/>
<path d="M239.788 182.47V212.677" stroke="#94B8DB" stroke-width="2.5" stroke-linecap="round" stroke-linejoin="round"/>
<path d="M232.263 182.47V212.677" stroke="#94B8DB" stroke-width="2.5" stroke-linecap="round" stroke-linejoin="round"/>
<path d="M224.749 182.47V212.677" stroke="#94B8DB" stroke-width="2.5" stroke-linecap="round" stroke-linejoin="round"/>
<path d="M217.236 237.335H254.816V267.53H217.236V237.335Z" stroke="#94B8DB" stroke-width="2.5" stroke-linecap="round" stroke-linejoin="round"/>
<path d="M247.302 237.335V267.541" stroke="#94B8DB" stroke-width="2.5" stroke-linecap="round" stroke-linejoin="round"/>
<path d="M239.788 237.335V267.541" stroke="#94B8DB" stroke-width="2.5" stroke-linecap="round" stroke-linejoin="round"/>
<path d="M232.263 237.335V267.541" stroke="#94B8DB" stroke-width="2.5" stroke-linecap="round" stroke-linejoin="round"/>
<path d="M224.749 237.335V267.541" stroke="#94B8DB" stroke-width="2.5" stroke-linecap="round" stroke-linejoin="round"/>
<path d="M217.236 292.21H254.816V322.405H217.236V292.21Z" stroke="#94B8DB" stroke-width="2.5" stroke-linecap="round" stroke-linejoin="round"/>
<path d="M247.302 292.21V322.405" stroke="#94B8DB" stroke-width="2.5" stroke-linecap="round" stroke-linejoin="round"/>
<path d="M239.788 292.21V322.405" stroke="#94B8DB" stroke-width="2.5" stroke-linecap="round" stroke-linejoin="round"/>
<path d="M232.263 292.21V322.405" stroke="#94B8DB" stroke-width="2.5" stroke-linecap="round" stroke-linejoin="round"/>
<path d="M224.749 292.21V322.405" stroke="#94B8DB" stroke-width="2.5" stroke-linecap="round" stroke-linejoin="round"/>
<path d="M423.906 432.134H225.743" stroke="#94B8DB" stroke-width="2.5" stroke-linecap="round" stroke-linejoin="round"/>
<path d="M423.906 377.27H225.743" stroke="#94B8DB" stroke-width="2.5" stroke-linecap="round" stroke-linejoin="round"/>
<path d="M423.906 322.406H225.743" stroke="#94B8DB" stroke-width="2.5" stroke-linecap="round" stroke-linejoin="round"/>
<path d="M423.906 267.541H225.743" stroke="#94B8DB" stroke-width="2.5" stroke-linecap="round" stroke-linejoin="round"/>
<path d="M423.906 212.677H225.743" stroke="#94B8DB" stroke-width="2.5" stroke-linecap="round" stroke-linejoin="round"/>
<path d="M102.188 344.25H263.109V501.576H102.188V344.25Z" fill="#E0E6EF" stroke="#94B8DB" stroke-width="2.5" stroke-linecap="round" stroke-linejoin="round"/>
<path d="M65.4463 344.761L65.4463 501.087H101.688L101.688 344.761H65.4463Z" fill="#E0E6EF" stroke="#94B8DB"/>
<path d="M72.6729 501.087V344.761H65.4471V501.087H72.6729Z" fill="#E0E6EF" stroke="#94B8DB"/>
<path d="M102.188 501.587H64.9463L64.9463 344.261H102.188L102.188 501.587Z" stroke="#94B8DB" stroke-width="2.5" stroke-linecap="round" stroke-linejoin="round"/>
<path d="M102.109 329.468H263.109V344.25H102.109V329.468Z" fill="#E0E6EF" stroke="#94B8DB" stroke-width="2.5" stroke-linecap="round" stroke-linejoin="round"/>
<path d="M102.11 344.261H58.9473V329.48H102.11V344.261Z" fill="#E0E6EF" stroke="#94B8DB" stroke-width="2.5" stroke-linecap="round" stroke-linejoin="round"/>
<path d="M118.561 306.969H167.779V329.48H118.561V306.969Z" fill="white" stroke="#94B8DB" stroke-width="2.5" stroke-linecap="round" stroke-linejoin="round"/>
<path d="M118.561 329.468H98.1885V306.958H118.561V329.468Z" fill="white" stroke="#94B8DB" stroke-width="2.5" stroke-linecap="round" stroke-linejoin="round"/>
<path d="M135.78 314.382H124.696" stroke="#94B8DB" stroke-width="2.5" stroke-linecap="round" stroke-linejoin="round"/>
<path d="M135.78 318.789H124.696" stroke="#94B8DB" stroke-width="2.5" stroke-linecap="round" stroke-linejoin="round"/>
<path d="M135.78 323.208H124.696" stroke="#94B8DB" stroke-width="2.5" stroke-linecap="round" stroke-linejoin="round"/>
<path d="M228.297 383.745H246.161V421.229H228.297V383.745Z" fill="#E0E6EF" stroke="#94B8DB" stroke-width="2.5" stroke-linecap="round" stroke-linejoin="round"/>
<path d="M228.297 383.745H246.161V395.294H228.297V383.745Z" fill="white" stroke="#94B8DB" stroke-width="2.5" stroke-linecap="round" stroke-linejoin="round"/>
<path d="M224.692 415.692H249.742V421.229H224.692V415.692Z" fill="#E0E6EF" stroke="#94B8DB" stroke-width="2.5" stroke-linecap="round" stroke-linejoin="round"/>
<path d="M240.387 404.21L236.941 400.764" stroke="#94B8DB" stroke-width="2.5" stroke-linecap="round" stroke-linejoin="round"/>
<path d="M240.094 411.047L228.286 399.249" stroke="#94B8DB" stroke-width="2.5" stroke-linecap="round" stroke-linejoin="round"/>
<path d="M191.915 383.745H209.778V421.229H191.915V383.745Z" fill="#E0E6EF" stroke="#94B8DB" stroke-width="2.5" stroke-linecap="round" stroke-linejoin="round"/>
<path d="M191.915 383.745H209.778V395.294H191.915V383.745Z" fill="white" stroke="#94B8DB" stroke-width="2.5" stroke-linecap="round" stroke-linejoin="round"/>
<path d="M188.309 415.692H213.359V421.229H188.309V415.692Z" fill="#E0E6EF" stroke="#94B8DB" stroke-width="2.5" stroke-linecap="round" stroke-linejoin="round"/>
<path d="M204.004 404.21L200.558 400.764" stroke="#94B8DB" stroke-width="2.5" stroke-linecap="round" stroke-linejoin="round"/>
<path d="M203.71 411.047L191.902 399.249" stroke="#94B8DB" stroke-width="2.5" stroke-linecap="round" stroke-linejoin="round"/>
<path d="M155.531 383.745H173.395V421.229H155.531V383.745Z" fill="#E0E6EF" stroke="#94B8DB" stroke-width="2.5" stroke-linecap="round" stroke-linejoin="round"/>
<path d="M155.531 383.745H173.395V395.294H155.531V383.745Z" fill="white" stroke="#94B8DB" stroke-width="2.5" stroke-linecap="round" stroke-linejoin="round"/>
<path d="M151.927 415.692H176.977V421.229H151.927V415.692Z" fill="#E0E6EF" stroke="#94B8DB" stroke-width="2.5" stroke-linecap="round" stroke-linejoin="round"/>
<path d="M167.621 404.21L164.175 400.764" stroke="#94B8DB" stroke-width="2.5" stroke-linecap="round" stroke-linejoin="round"/>
<path d="M167.327 411.047L155.531 399.249" stroke="#94B8DB" stroke-width="2.5" stroke-linecap="round" stroke-linejoin="round"/>
<path d="M119.148 383.745H137.012V421.229H119.148V383.745Z" fill="#E0E6EF" stroke="#94B8DB" stroke-width="2.5" stroke-linecap="round" stroke-linejoin="round"/>
<path d="M119.148 383.745H137.012V395.294H119.148V383.745Z" fill="white" stroke="#94B8DB" stroke-width="2.5" stroke-linecap="round" stroke-linejoin="round"/>
<path d="M115.544 415.692H140.594V421.229H115.544V415.692Z" fill="#E0E6EF" stroke="#94B8DB" stroke-width="2.5" stroke-linecap="round" stroke-linejoin="round"/>
<path d="M131.238 404.21L127.792 400.764" stroke="#94B8DB" stroke-width="2.5" stroke-linecap="round" stroke-linejoin="round"/>
<path d="M130.944 411.047L119.148 399.249" stroke="#94B8DB" stroke-width="2.5" stroke-linecap="round" stroke-linejoin="round"/>
<path d="M228.297 438.609H246.161V476.093H228.297V438.609Z" fill="#E0E6EF" stroke="#94B8DB" stroke-width="2.5" stroke-linecap="round" stroke-linejoin="round"/>
<path d="M228.297 438.609H246.161V450.159H228.297V438.609Z" fill="white" stroke="#94B8DB" stroke-width="2.5" stroke-linecap="round" stroke-linejoin="round"/>
<path d="M224.692 470.556H249.742V476.093H224.692V470.556Z" fill="#E0E6EF" stroke="#94B8DB" stroke-width="2.5" stroke-linecap="round" stroke-linejoin="round"/>
<path d="M240.387 459.075L236.941 455.628" stroke="#94B8DB" stroke-width="2.5" stroke-linecap="round" stroke-linejoin="round"/>
<path d="M240.094 465.912L228.286 454.114" stroke="#94B8DB" stroke-width="2.5" stroke-linecap="round" stroke-linejoin="round"/>
<path d="M119.148 438.609H137.012V476.093H119.148V438.609Z" fill="#E0E6EF" stroke="#94B8DB" stroke-width="2.5" stroke-linecap="round" stroke-linejoin="round"/>
<path d="M119.148 438.609H137.012V450.159H119.148V438.609Z" fill="white" stroke="#94B8DB" stroke-width="2.5" stroke-linecap="round" stroke-linejoin="round"/>
<path d="M115.544 470.556H140.594V476.093H115.544V470.556Z" fill="#E0E6EF" stroke="#94B8DB" stroke-width="2.5" stroke-linecap="round" stroke-linejoin="round"/>
<path d="M131.238 459.075L127.792 455.628" stroke="#94B8DB" stroke-width="2.5" stroke-linecap="round" stroke-linejoin="round"/>
<path d="M130.944 465.912L119.148 454.114" stroke="#94B8DB" stroke-width="2.5" stroke-linecap="round" stroke-linejoin="round"/>
<path d="M155.532 444.384H209.778V501.576H155.532V444.384Z" fill="#E0E6EF" stroke="#94B8DB" stroke-width="2.5" stroke-linecap="round" stroke-linejoin="round"/>
<path d="M182.648 444.384V501.587" stroke="#94B8DB" stroke-width="2.5" stroke-linecap="round" stroke-linejoin="round"/>
<path d="M200.558 466.205L191.699 457.346" stroke="#94B8DB" stroke-width="2.5" stroke-linecap="round" stroke-linejoin="round"/>
<path d="M174.762 478.241L167.711 471.189" stroke="#94B8DB" stroke-width="2.5" stroke-linecap="round" stroke-linejoin="round"/>
<path d="M174.762 486.75L155.519 467.494" stroke="#94B8DB" stroke-width="2.5" stroke-linecap="round" stroke-linejoin="round"/>
<path d="M228.297 357.132H246.161V366.365H228.297V357.132Z" fill="#E0E6EF" stroke="#94B8DB" stroke-width="2.5" stroke-linecap="round" stroke-linejoin="round"/>
<path d="M191.915 357.132H209.778V366.365H191.915V357.132Z" fill="#E0E6EF" stroke="#94B8DB" stroke-width="2.5" stroke-linecap="round" stroke-linejoin="round"/>
<path d="M155.531 357.132H173.395V366.365H155.531V357.132Z" fill="#E0E6EF" stroke="#94B8DB" stroke-width="2.5" stroke-linecap="round" stroke-linejoin="round"/>
<path d="M119.148 357.132H137.012V366.365H119.148V357.132Z" fill="#E0E6EF" stroke="#94B8DB" stroke-width="2.5" stroke-linecap="round" stroke-linejoin="round"/>
<path d="M74.6978 357.132H89.1719V366.365H74.6978V357.132Z" fill="#E0E6EF" stroke="#94B8DB" stroke-width="2.5" stroke-linecap="round" stroke-linejoin="round"/>
<path d="M74.6978 383.745H89.1719V421.229H74.6978V383.745Z" fill="#E0E6EF" stroke="#94B8DB" stroke-width="2.5" stroke-linecap="round" stroke-linejoin="round"/>
<path d="M74.6978 383.745H89.1719V395.294H74.6978V383.745Z" fill="white" stroke="#94B8DB" stroke-width="2.5" stroke-linecap="round" stroke-linejoin="round"/>
<path d="M71.1044 415.692H92.7646V421.229H71.1044V415.692Z" fill="#E0E6EF" stroke="#94B8DB" stroke-width="2.5" stroke-linecap="round" stroke-linejoin="round"/>
<path d="M74.6978 438.609H89.1719V476.093H74.6978V438.609Z" fill="#E0E6EF" stroke="#94B8DB" stroke-width="2.5" stroke-linecap="round" stroke-linejoin="round"/>
<path d="M74.6978 438.609H89.1719V450.159H74.6978V438.609Z" fill="white" stroke="#94B8DB" stroke-width="2.5" stroke-linecap="round" stroke-linejoin="round"/>
<path d="M71.1044 470.556H92.7646V476.093H71.1044V470.556Z" fill="#E0E6EF" stroke="#94B8DB" stroke-width="2.5" stroke-linecap="round" stroke-linejoin="round"/>
<path d="M56.4389 401.939H94.0195V432.134H56.4389V401.939Z" stroke="#94B8DB" stroke-width="2.5" stroke-linecap="round" stroke-linejoin="round"/>
<path d="M86.5049 401.939V432.134" stroke="#94B8DB" stroke-width="2.5" stroke-linecap="round" stroke-linejoin="round"/>
<path d="M78.9805 401.939V432.134" stroke="#94B8DB" stroke-width="2.5" stroke-linecap="round" stroke-linejoin="round"/>
<path d="M71.4658 401.939V432.134" stroke="#94B8DB" stroke-width="2.5" stroke-linecap="round" stroke-linejoin="round"/>
<path d="M63.9521 401.939V432.134" stroke="#94B8DB" stroke-width="2.5" stroke-linecap="round" stroke-linejoin="round"/>
<path d="M56.4389 456.803H94.0195V486.998H56.4389V456.803Z" stroke="#94B8DB" stroke-width="2.5" stroke-linecap="round" stroke-linejoin="round"/>
<path d="M86.5049 456.803V486.998" stroke="#94B8DB" stroke-width="2.5" stroke-linecap="round" stroke-linejoin="round"/>
<path d="M78.9805 456.803V486.998" stroke="#94B8DB" stroke-width="2.5" stroke-linecap="round" stroke-linejoin="round"/>
<path d="M71.4658 456.803V486.998" stroke="#94B8DB" stroke-width="2.5" stroke-linecap="round" stroke-linejoin="round"/>
<path d="M63.9521 456.803V486.998" stroke="#94B8DB" stroke-width="2.5" stroke-linecap="round" stroke-linejoin="round"/>
<path d="M263.109 432.134H64.9466" stroke="#94B8DB" stroke-width="2.5" stroke-linecap="round" stroke-linejoin="round"/>
<path d="M263.109 377.27H64.9466" stroke="#94B8DB" stroke-width="2.5" stroke-linecap="round" stroke-linejoin="round"/>
<path d="M451.058 488.852H474.267C475.125 488.852 475.769 488.072 475.623 487.236L464.018 422.359C463.747 420.845 461.578 420.845 461.307 422.359L449.703 487.236C449.556 488.083 450.2 488.852 451.058 488.852Z" fill="white" stroke="#94B8DB" stroke-width="2.5" stroke-linecap="round" stroke-linejoin="round"/>
<path d="M462.663 453.854V501.587" stroke="#94B8DB" stroke-width="2.5" stroke-linecap="round" stroke-linejoin="round"/>
<path d="M467.849 466.601L462.821 471.63" stroke="#94B8DB" stroke-width="2.5" stroke-linecap="round" stroke-linejoin="round"/>
<path d="M455.861 475.698L462.663 482.501" stroke="#94B8DB" stroke-width="2.5" stroke-linecap="round" stroke-linejoin="round"/>
<path d="M459.262 458.95L462.663 462.352" stroke="#94B8DB" stroke-width="2.5" stroke-linecap="round" stroke-linejoin="round"/>
<path d="M13.2085 491.236H32.0779C32.7785 491.236 33.2982 490.603 33.174 489.925L23.7392 437.163C23.5246 435.931 21.7506 435.931 21.5359 437.163L12.1012 489.925C11.9769 490.615 12.508 491.236 13.1972 491.236H13.2085Z" fill="white" stroke="#94B8DB" stroke-width="2.5" stroke-linecap="round" stroke-linejoin="round"/>
<path d="M22.6436 462.77V501.587" stroke="#94B8DB" stroke-width="2.5" stroke-linecap="round" stroke-linejoin="round"/>
<path d="M26.8691 473.133L22.7789 477.223" stroke="#94B8DB" stroke-width="2.5" stroke-linecap="round" stroke-linejoin="round"/>
<path d="M17.107 480.534L22.6436 486.06" stroke="#94B8DB" stroke-width="2.5" stroke-linecap="round" stroke-linejoin="round"/>
<path d="M19.8753 466.917L22.6436 469.686" stroke="#94B8DB" stroke-width="2.5" stroke-linecap="round" stroke-linejoin="round"/>
<path d="M497.588 501.587H1.41266" stroke="#94B8DB" stroke-width="2.5" stroke-linecap="round" stroke-linejoin="round"/>
<path d="M343.267 24C330.864 35.4351 318 33.6194 318 33.6194L318.192 51.8151C318.346 66.418 327.446 79.3984 341.117 84.3433C342.461 84.8068 343.267 85.0386 343.267 85.0386C343.267 85.0386 344.074 84.8455 345.418 84.3433C354.634 81.0209 361.738 74.0285 365.501 65.3749C362.851 66.8816 358.358 68.8132 352.061 69.6245C349.834 71.7106 346.954 73.7581 343.306 75.3034C331.402 70.2812 327.792 60.0051 327.792 60.0051C333.59 62.6707 343.306 63.0184 343.306 63.0184C343.306 63.0184 348.682 62.8252 353.827 61.6276C355.133 61.3186 356.515 60.8936 357.898 60.3914C358.205 60.2755 358.512 60.121 358.819 60.0051C358.819 60.0051 358.819 60.0051 358.819 60.0437C362.083 58.7302 365.462 56.8372 368.227 54.133C368.304 53.3604 368.342 52.5877 368.342 51.8151L368.534 33.6194C368.534 33.6194 355.67 35.4351 343.267 24ZM359.702 49.0722C359.702 49.0722 353.29 53.4763 343.882 53.4763C334.474 53.4763 328.022 49.0722 328.022 49.0722V42.3502C337.085 40.6118 343.843 35.3192 343.843 35.3192C343.843 35.3192 350.064 40.6504 359.664 42.3502V49.0722H359.702Z" fill="#F08021"/>
</g>
<defs>
<clipPath id="clip0_2037_8644">
<rect width="499" height="503" fill="white" transform="matrix(-1 0 0 1 499 0)"/>
</clipPath>
</defs>
</svg>
