<svg width="65" height="65" viewBox="0 0 65 65" fill="none" xmlns="http://www.w3.org/2000/svg">
<path d="M22.3438 32.5C22.3438 42.3003 30.3169 50.2734 40.1172 50.2734C49.9175 50.2734 57.8906 42.3003 57.8906 32.5C57.8906 23.5617 51.258 16.1445 42.6562 14.9087V7.61719C42.6562 3.41707 39.2392 0 35.0391 0H14.7266C10.5264 0 7.10938 3.41707 7.10938 7.61719V57.3828C7.10938 61.5829 10.5264 65 14.7266 65H35.0391C38.9719 65 42.2306 62.0515 42.6188 58.1415C42.7573 56.746 41.7384 55.5025 40.343 55.364C38.9478 55.2264 37.7041 56.2444 37.5656 57.6398C37.4363 58.9408 36.3502 59.9219 35.0391 59.9219H27.4219V57.3828C27.4219 55.9805 26.2851 54.8438 24.8828 54.8438C23.4805 54.8438 22.3438 55.9805 22.3438 57.3828V59.9219H14.7266C13.3265 59.9219 12.1875 58.7829 12.1875 57.3828V7.61719C12.1875 6.21715 13.3265 5.07812 14.7266 5.07812H35.0391C36.4391 5.07812 37.5781 6.21715 37.5781 7.61719V14.9087C28.9764 16.1445 22.3438 23.5617 22.3438 32.5ZM37.6511 35.0391H42.5831C42.26 40.5487 40.9364 43.9241 40.1171 44.9649C39.2978 43.9241 37.9742 40.5487 37.6511 35.0391ZM37.6511 29.9609C37.9742 24.4513 39.2978 21.0759 40.1172 20.0351C40.9365 21.0759 42.2602 24.4513 42.5833 29.9609H37.6511ZM33.9591 21.4018C33.1826 23.8996 32.7259 26.8817 32.5658 29.9609H27.6772C28.427 26.2815 30.7738 23.1763 33.9591 21.4018ZM27.6772 35.0391H32.5658C32.726 38.1183 33.1826 41.1004 33.9591 43.5982C30.7738 41.8237 28.427 38.7185 27.6772 35.0391ZM46.2753 43.5982C47.0517 41.1004 47.5085 38.1183 47.6686 35.0391H52.5571C51.8074 38.7185 49.4606 41.8237 46.2753 43.5982ZM52.5572 29.9609H47.6687C47.5085 26.8817 47.0519 23.8996 46.2754 21.4018C49.4606 23.1763 51.8074 26.2815 52.5572 29.9609Z" fill="#072D58"/>
<path d="M24.8828 15.2344C26.2851 15.2344 27.4219 14.0976 27.4219 12.6953C27.4219 11.293 26.2851 10.1562 24.8828 10.1562C23.4805 10.1562 22.3438 11.293 22.3438 12.6953C22.3438 14.0976 23.4805 15.2344 24.8828 15.2344Z" fill="#072D58"/>
</svg>
