<svg width="407" height="387" viewBox="0 0 407 387" fill="none" xmlns="http://www.w3.org/2000/svg">
<g clip-path="url(#clip0_2034_3148)">
<path d="M218.998 309.766C218.998 310.746 218.206 311.533 217.235 311.533C216.263 311.533 215.471 310.739 215.471 309.766C215.471 308.794 216.263 308 217.235 308C218.206 308 218.998 308.794 218.998 309.766Z" fill="#C4D1E0"/>
<path d="M110.687 356.349C110.687 357.328 109.895 358.115 108.924 358.115C107.953 358.115 107.16 357.321 107.16 356.349C107.16 355.376 107.953 354.582 108.924 354.582C109.895 354.582 110.687 355.376 110.687 356.349Z" fill="#C4D1E0"/>
<path d="M21.2072 198.323C21.2072 199.302 20.4149 200.089 19.4436 200.089C18.4724 200.089 17.6801 199.296 17.6801 198.323C17.6801 197.35 18.4724 196.556 19.4436 196.556C20.4149 196.556 21.2072 197.35 21.2072 198.323Z" fill="#C4D1E0"/>
<path d="M27.0984 119.899C27.0984 120.878 26.3061 121.665 25.3349 121.665C24.3636 121.665 23.5713 120.871 23.5713 119.899C23.5713 118.926 24.3636 118.132 25.3349 118.132C26.3061 118.132 27.0984 118.926 27.0984 119.899Z" fill="#C4D1E0"/>
<path d="M67.123 58.57C67.123 59.5492 66.3307 60.3365 65.3595 60.3365C64.3883 60.3365 63.5959 59.5428 63.5959 58.57C63.5959 57.5971 64.3883 56.8035 65.3595 56.8035C66.3307 56.8035 67.123 57.5971 67.123 58.57Z" fill="#C4D1E0"/>
<path d="M133.645 56.8035C133.645 57.7828 132.853 58.57 131.882 58.57C130.911 58.57 130.118 57.7764 130.118 56.8035C130.118 55.8306 130.911 55.037 131.882 55.037C132.853 55.037 133.645 55.8306 133.645 56.8035Z" fill="#C4D1E0"/>
<path d="M152.086 9.04373C152.086 10.023 151.294 10.8102 150.322 10.8102C149.351 10.8102 148.559 10.0166 148.559 9.04373C148.559 8.07087 149.351 7.27722 150.322 7.27722C151.294 7.27722 152.086 8.07087 152.086 9.04373Z" fill="#C4D1E0"/>
<path d="M197.81 1.76651C197.81 2.74577 197.018 3.53302 196.047 3.53302C195.075 3.53302 194.283 2.73937 194.283 1.76651C194.283 0.793649 195.075 0 196.047 0C197.018 0 197.81 0.793649 197.81 1.76651Z" fill="#C4D1E0"/>
<path d="M278.652 10.8102C278.652 11.7895 277.859 12.5767 276.888 12.5767C275.917 12.5767 275.125 11.7831 275.125 10.8102C275.125 9.83735 275.917 9.0437 276.888 9.0437C277.859 9.0437 278.652 9.83735 278.652 10.8102Z" fill="#C4D1E0"/>
<path d="M340.069 52.0865C340.069 53.0657 339.276 53.853 338.305 53.853C337.334 53.853 336.542 53.0593 336.542 52.0865C336.542 51.1136 337.334 50.3199 338.305 50.3199C339.276 50.3199 340.069 51.1136 340.069 52.0865Z" fill="#C4D1E0"/>
<path d="M381.665 113.409C381.665 114.388 380.873 115.175 379.902 115.175C378.93 115.175 378.138 114.381 378.138 113.409C378.138 112.436 378.93 111.642 379.902 111.642C380.873 111.642 381.665 112.436 381.665 113.409Z" fill="#C4D1E0"/>
<path d="M395.601 164.516C395.601 165.495 394.809 166.282 393.837 166.282C392.866 166.282 392.074 165.489 392.074 164.516C392.074 163.543 392.866 162.749 393.837 162.749C394.809 162.749 395.601 163.543 395.601 164.516Z" fill="#C4D1E0"/>
<path d="M359.691 270.257C359.691 271.236 358.899 272.023 357.928 272.023C356.956 272.023 356.164 271.23 356.164 270.257C356.164 269.284 356.956 268.49 357.928 268.49C358.899 268.49 359.691 269.284 359.691 270.257Z" fill="#C4D1E0"/>
<path d="M22.9771 232.52C22.9771 233.499 22.1848 234.287 21.2136 234.287C20.2423 234.287 19.45 233.493 19.45 232.52C19.45 231.547 20.2423 230.754 21.2136 230.754C22.1848 230.754 22.9771 231.547 22.9771 232.52Z" fill="#C4D1E0"/>
<path d="M373.819 279.691C373.819 280.67 373.026 281.457 372.055 281.457C371.084 281.457 370.292 280.664 370.292 279.691C370.292 278.718 371.084 277.924 372.055 277.924C373.026 277.924 373.819 278.718 373.819 279.691Z" fill="#C4D1E0"/>
<path d="M386.969 250.8C386.969 251.779 386.176 252.566 385.205 252.566C384.234 252.566 383.441 251.772 383.441 250.8C383.441 249.827 384.234 249.033 385.205 249.033C386.176 249.033 386.969 249.827 386.969 250.8Z" fill="#C4D1E0"/>
<path d="M327.002 271.441C328.953 271.441 330.535 269.856 330.535 267.901C330.535 265.947 328.953 264.362 327.002 264.362C325.05 264.362 323.468 265.947 323.468 267.901C323.468 269.856 325.05 271.441 327.002 271.441Z" fill="#C4D1E0"/>
<path d="M314.363 351.043C316.315 351.043 317.897 349.458 317.897 347.503C317.897 345.548 316.315 343.964 314.363 343.964C312.412 343.964 310.83 345.548 310.83 347.503C310.83 349.458 312.412 351.043 314.363 351.043Z" fill="#C4D1E0"/>
<path d="M77.7234 321.761C79.6749 321.761 81.2569 320.176 81.2569 318.221C81.2569 316.267 79.6749 314.682 77.7234 314.682C75.7719 314.682 74.1899 316.267 74.1899 318.221C74.1899 320.176 75.7719 321.761 77.7234 321.761Z" fill="#C4D1E0"/>
<path d="M30.6255 223.086C30.6255 225.038 29.0472 226.625 27.092 226.625C25.1368 226.625 23.5585 225.044 23.5585 223.086C23.5585 221.127 25.1368 219.546 27.092 219.546C29.0472 219.546 30.6255 221.127 30.6255 223.086Z" fill="#C4D1E0"/>
<path d="M345.366 182.994C347.317 182.994 348.899 181.409 348.899 179.454C348.899 177.5 347.317 175.915 345.366 175.915C343.414 175.915 341.832 177.5 341.832 179.454C341.832 181.409 343.414 182.994 345.366 182.994Z" fill="#C4D1E0"/>
<path d="M129.326 371.089C129.326 372.068 128.534 372.855 127.562 372.855C126.591 372.855 125.799 372.061 125.799 371.089C125.799 370.116 126.591 369.322 127.562 369.322C128.534 369.322 129.326 370.116 129.326 371.089Z" fill="#C4D1E0"/>
<path d="M79.4869 48.547C79.4869 49.5263 78.6946 50.3135 77.7234 50.3135C76.7522 50.3135 75.9599 49.5199 75.9599 48.547C75.9599 47.5742 76.7522 46.7805 77.7234 46.7805C78.6946 46.7805 79.4869 47.5742 79.4869 48.547Z" fill="#C4D1E0"/>
<path d="M144.629 9.04373C144.629 10.023 143.837 10.8102 142.866 10.8102C141.894 10.8102 141.102 10.0166 141.102 9.04373C141.102 8.07087 141.894 7.27722 142.866 7.27722C143.837 7.27722 144.629 8.07087 144.629 9.04373Z" fill="#C4D1E0"/>
<path d="M199.574 43.5163C199.574 44.4955 198.781 45.2828 197.81 45.2828C196.839 45.2828 196.047 44.4891 196.047 43.5163C196.047 42.5434 196.839 41.7498 197.81 41.7498C198.781 41.7498 199.574 42.5434 199.574 43.5163Z" fill="#C4D1E0"/>
<path d="M127.562 150.397C127.562 151.376 126.77 152.163 125.799 152.163C124.828 152.163 124.035 151.369 124.035 150.397C124.035 149.424 124.828 148.63 125.799 148.63C126.77 148.63 127.562 149.424 127.562 150.397Z" fill="#C4D1E0"/>
<path d="M131.876 226.625C132.849 226.625 133.639 225.834 133.639 224.859C133.639 223.883 132.849 223.092 131.876 223.092C130.902 223.092 130.112 223.883 130.112 224.859C130.112 225.834 130.902 226.625 131.876 226.625Z" fill="#C4D1E0"/>
<path d="M236.071 177.681C236.071 178.661 235.279 179.448 234.308 179.448C233.336 179.448 232.544 178.654 232.544 177.681C232.544 176.709 233.336 175.915 234.308 175.915C235.279 175.915 236.071 176.709 236.071 177.681Z" fill="#C4D1E0"/>
<path d="M248.237 123.438C248.237 124.417 247.445 125.205 246.473 125.205C245.502 125.205 244.71 124.411 244.71 123.438C244.71 122.465 245.502 121.672 246.473 121.672C247.445 121.672 248.237 122.465 248.237 123.438Z" fill="#C4D1E0"/>
<path d="M363.225 91.9865C363.225 92.9657 362.432 93.753 361.461 93.753C360.49 93.753 359.698 92.9593 359.698 91.9865C359.698 91.0136 360.49 90.22 361.461 90.22C362.432 90.22 363.225 91.0136 363.225 91.9865Z" fill="#C4D1E0"/>
<path d="M206.641 384.062C206.641 385.041 205.848 385.829 204.877 385.829C203.906 385.829 203.113 385.035 203.113 384.062C203.113 383.089 203.906 382.296 204.877 382.296C205.848 382.296 206.641 383.089 206.641 384.062Z" fill="#C4D1E0"/>
<path d="M14.9326 166.282C14.9326 167.262 14.1402 168.049 13.169 168.049C12.1978 168.049 11.4055 167.255 11.4055 166.282C11.4055 165.31 12.1978 164.516 13.169 164.516C14.1402 164.516 14.9326 165.31 14.9326 166.282Z" fill="#C4D1E0"/>
<path d="M45.5389 295.615C45.5389 296.594 44.7466 297.382 43.7753 297.382C42.8041 297.382 42.0118 296.588 42.0118 295.615C42.0118 294.642 42.8041 293.849 43.7753 293.849C44.7466 293.849 45.5389 294.642 45.5389 295.615Z" fill="#C4D1E0"/>
<path d="M150.322 374.628C150.322 375.607 149.53 376.395 148.559 376.395C147.588 376.395 146.795 375.601 146.795 374.628C146.795 373.655 147.588 372.862 148.559 372.862C149.53 372.862 150.322 373.655 150.322 374.628Z" fill="#C4D1E0"/>
<path d="M278.652 371.089C278.652 372.068 277.859 372.855 276.888 372.855C275.917 372.855 275.125 372.061 275.125 371.089C275.125 370.116 275.917 369.322 276.888 369.322C277.859 369.322 278.652 370.116 278.652 371.089Z" fill="#C4D1E0"/>
<path d="M341.832 319.988C341.832 320.967 341.04 321.754 340.069 321.754C339.097 321.754 338.305 320.961 338.305 319.988C338.305 319.015 339.097 318.221 340.069 318.221C341.04 318.221 341.832 319.015 341.832 319.988Z" fill="#C4D1E0"/>
<path d="M383.435 263.184C383.435 264.164 382.643 264.951 381.672 264.951C380.7 264.951 379.908 264.157 379.908 263.184C379.908 262.211 380.7 261.418 381.672 261.418C382.643 261.418 383.435 262.211 383.435 263.184Z" fill="#C4D1E0"/>
<path d="M392.067 140.341C392.067 141.321 391.275 142.108 390.304 142.108C389.333 142.108 388.54 141.314 388.54 140.341C388.54 139.369 389.333 138.575 390.304 138.575C391.275 138.575 392.067 139.369 392.067 140.341Z" fill="#C4D1E0"/>
<path d="M330.574 48.5471C330.574 51.3248 328.325 53.5778 325.551 53.5778C322.778 53.5778 320.529 51.3248 320.529 48.5471C320.529 45.7693 322.778 43.5164 325.551 43.5164C328.325 43.5164 330.574 45.7693 330.574 48.5471Z" fill="#C4D1E0"/>
<path d="M47.0276 143.599C47.0276 146.377 44.7785 148.63 42.0054 148.63C39.2323 148.63 36.9832 146.377 36.9832 143.599C36.9832 140.822 39.2323 138.569 42.0054 138.569C44.7785 138.569 47.0276 140.822 47.0276 143.599Z" fill="#C4D1E0"/>
<path d="M156.993 3.53946C156.993 4.51872 156.201 5.30597 155.23 5.30597C154.258 5.30597 153.466 4.51232 153.466 3.53946C153.466 2.5666 154.258 1.77295 155.23 1.77295C156.201 1.77295 156.993 2.5666 156.993 3.53946Z" fill="#C4D1E0"/>
<path d="M289.246 16.705C289.246 17.6842 288.453 18.4715 287.482 18.4715C286.511 18.4715 285.719 17.6778 285.719 16.705C285.719 15.7321 286.511 14.9385 287.482 14.9385C288.453 14.9385 289.246 15.7321 289.246 16.705Z" fill="#C4D1E0"/>
<path d="M192.609 166.084C193.53 166.084 194.277 165.336 194.277 164.413C194.277 163.491 193.53 162.743 192.609 162.743C191.688 162.743 190.941 163.491 190.941 164.413C190.941 165.336 191.688 166.084 192.609 166.084Z" fill="#C4D1E0"/>
<path d="M256.869 237.634C256.869 238.556 256.122 239.304 255.202 239.304C254.282 239.304 253.534 238.556 253.534 237.634C253.534 236.712 254.282 235.963 255.202 235.963C256.122 235.963 256.869 236.712 256.869 237.634Z" fill="#C4D1E0"/>
<path d="M336.535 119.899C336.535 120.82 335.788 121.569 334.868 121.569C333.947 121.569 333.2 120.82 333.2 119.899C333.2 118.977 333.947 118.228 334.868 118.228C335.788 118.228 336.535 118.977 336.535 119.899Z" fill="#C4D1E0"/>
<path d="M267.176 14.9386C267.176 15.8602 266.428 16.6091 265.508 16.6091C264.588 16.6091 263.84 15.8602 263.84 14.9386C263.84 14.0169 264.588 13.2681 265.508 13.2681C266.428 13.2681 267.176 14.0169 267.176 14.9386Z" fill="#C4D1E0"/>
<path d="M276.786 18.478C276.786 19.3997 276.038 20.1485 275.118 20.1485C274.198 20.1485 273.45 19.3997 273.45 18.478C273.45 17.5563 274.198 16.8075 275.118 16.8075C276.038 16.8075 276.786 17.5563 276.786 18.478Z" fill="#C4D1E0"/>
<path d="M256.607 9.0438C256.607 10.7463 255.234 12.1224 253.534 12.1224C251.834 12.1224 250.461 10.7463 250.461 9.0438C250.461 7.3413 251.834 5.96521 253.534 5.96521C255.234 5.96521 256.607 7.3413 256.607 9.0438Z" fill="#C4D1E0"/>
<path d="M185.382 3.63548C185.382 5.33798 184.008 6.71407 182.309 6.71407C180.609 6.71407 179.235 5.33798 179.235 3.63548C179.235 1.93297 180.609 0.556885 182.309 0.556885C184.008 0.556885 185.382 1.93297 185.382 3.63548Z" fill="#C4D1E0"/>
<path d="M393.377 224.859C393.377 226.561 392.004 227.937 390.304 227.937C388.604 227.937 387.231 226.561 387.231 224.859C387.231 223.156 388.604 221.78 390.304 221.78C392.004 221.78 393.377 223.156 393.377 224.859Z" fill="#C4D1E0"/>
<path d="M21.1113 171.787C21.1113 172.708 20.3637 173.457 19.4436 173.457C18.5235 173.457 17.7759 172.708 17.7759 171.787C17.7759 170.865 18.5235 170.116 19.4436 170.116C20.3637 170.116 21.1113 170.865 21.1113 171.787Z" fill="#C4D1E0"/>
<path d="M38.6572 109.972C38.6572 110.893 37.9097 111.642 36.9895 111.642C36.0694 111.642 35.3219 110.893 35.3219 109.972C35.3219 109.05 36.0694 108.301 36.9895 108.301C37.9097 108.301 38.6572 109.05 38.6572 109.972Z" fill="#C4D1E0"/>
<path d="M61.9219 69.5787C61.9219 70.5004 61.1743 71.2492 60.2542 71.2492C59.3341 71.2492 58.5865 70.5004 58.5865 69.5787C58.5865 68.657 59.3341 67.9082 60.2542 67.9082C61.1743 67.9082 61.9219 68.657 61.9219 69.5787Z" fill="#C4D1E0"/>
<path d="M75.8576 62.0134C75.8576 62.9351 75.11 63.6839 74.1899 63.6839C73.2698 63.6839 72.5222 62.9351 72.5222 62.0134C72.5222 61.0917 73.2698 60.3429 74.1899 60.3429C75.11 60.3429 75.8576 61.0917 75.8576 62.0134Z" fill="#C4D1E0"/>
<path d="M109.314 24.3727C109.314 25.2943 108.566 26.0432 107.646 26.0432C106.726 26.0432 105.978 25.2943 105.978 24.3727C105.978 23.451 106.726 22.7021 107.646 22.7021C108.566 22.7021 109.314 23.451 109.314 24.3727Z" fill="#C4D1E0"/>
<path d="M202.909 5.30588C202.909 6.22754 202.161 6.97638 201.241 6.97638C200.321 6.97638 199.574 6.22754 199.574 5.30588C199.574 4.38422 200.321 3.63538 201.241 3.63538C202.161 3.63538 202.909 4.38422 202.909 5.30588Z" fill="#C4D1E0"/>
<path d="M311.418 46.9597C312.339 46.9597 313.085 46.2118 313.085 45.2892C313.085 44.3666 312.339 43.6187 311.418 43.6187C310.497 43.6187 309.75 44.3666 309.75 45.2892C309.75 46.2118 310.497 46.9597 311.418 46.9597Z" fill="#C4D1E0"/>
<path d="M379.806 168.055C379.806 168.977 379.058 169.726 378.138 169.726C377.218 169.726 376.47 168.977 376.47 168.055C376.47 167.134 377.218 166.385 378.138 166.385C379.058 166.385 379.806 167.134 379.806 168.055Z" fill="#C4D1E0"/>
<path d="M368.618 255.914C369.539 255.914 370.285 255.166 370.285 254.243C370.285 253.32 369.539 252.573 368.618 252.573C367.697 252.573 366.95 253.32 366.95 254.243C366.95 255.166 367.697 255.914 368.618 255.914Z" fill="#C4D1E0"/>
<path d="M371.953 266.621C371.953 267.543 371.205 268.292 370.285 268.292C369.365 268.292 368.618 267.543 368.618 266.621C368.618 265.7 369.365 264.951 370.285 264.951C371.205 264.951 371.953 265.7 371.953 266.621Z" fill="#C4D1E0"/>
<path d="M352.235 311.533C352.235 312.455 351.487 313.203 350.567 313.203C349.647 313.203 348.899 312.455 348.899 311.533C348.899 310.611 349.647 309.862 350.567 309.862C351.487 309.862 352.235 310.611 352.235 311.533Z" fill="#C4D1E0"/>
<path d="M338.203 329.812C338.203 330.734 337.455 331.483 336.535 331.483C335.615 331.483 334.868 330.734 334.868 329.812C334.868 328.891 335.615 328.142 336.535 328.142C337.455 328.142 338.203 328.891 338.203 329.812Z" fill="#C4D1E0"/>
<path d="M336.535 318.221C336.535 319.143 335.788 319.892 334.868 319.892C333.947 319.892 333.2 319.143 333.2 318.221C333.2 317.3 333.947 316.551 334.868 316.551C335.788 316.551 336.535 317.3 336.535 318.221Z" fill="#C4D1E0"/>
<path d="M290.817 367.652C290.817 368.573 290.07 369.322 289.15 369.322C288.23 369.322 287.482 368.573 287.482 367.652C287.482 366.73 288.23 365.981 289.15 365.981C290.07 365.981 290.817 366.73 290.817 367.652Z" fill="#C4D1E0"/>
<path d="M304.453 347.503C304.453 348.425 303.705 349.174 302.785 349.174C301.865 349.174 301.118 348.425 301.118 347.503C301.118 346.581 301.865 345.833 302.785 345.833C303.705 345.833 304.453 346.581 304.453 347.503Z" fill="#C4D1E0"/>
<path d="M217.139 380.625C217.139 381.547 216.391 382.296 215.471 382.296C214.551 382.296 213.803 381.547 213.803 380.625C213.803 379.704 214.551 378.955 215.471 378.955C216.391 378.955 217.139 379.704 217.139 380.625Z" fill="#C4D1E0"/>
<path d="M161.606 374.628C161.606 375.55 160.859 376.299 159.939 376.299C159.019 376.299 158.271 375.55 158.271 374.628C158.271 373.706 159.019 372.958 159.939 372.958C160.859 372.958 161.606 373.706 161.606 374.628Z" fill="#C4D1E0"/>
<path d="M155.722 380.625C155.722 381.547 154.974 382.296 154.054 382.296C153.134 382.296 152.386 381.547 152.386 380.625C152.386 379.704 153.134 378.955 154.054 378.955C154.974 378.955 155.722 379.704 155.722 380.625Z" fill="#C4D1E0"/>
<path d="M125.793 365.981C126.714 365.981 127.46 365.233 127.46 364.311C127.46 363.388 126.714 362.64 125.793 362.64C124.872 362.64 124.125 363.388 124.125 364.311C124.125 365.233 124.872 365.981 125.793 365.981Z" fill="#C4D1E0"/>
<path d="M68.7907 318.221C68.7907 319.143 68.0431 319.892 67.123 319.892C66.2029 319.892 65.4553 319.143 65.4553 318.221C65.4553 317.3 66.2029 316.551 67.123 316.551C68.0431 316.551 68.7907 317.3 68.7907 318.221Z" fill="#C4D1E0"/>
<path d="M28.7661 235.963C29.6871 235.963 30.4338 235.216 30.4338 234.293C30.4338 233.37 29.6871 232.622 28.7661 232.622C27.8451 232.622 27.0984 233.37 27.0984 234.293C27.0984 235.216 27.8451 235.963 28.7661 235.963Z" fill="#C4D1E0"/>
<path d="M43.6731 286.571C43.6731 287.493 42.9255 288.242 42.0054 288.242C41.0853 288.242 40.3377 287.493 40.3377 286.571C40.3377 285.65 41.0853 284.901 42.0054 284.901C42.9255 284.901 43.6731 285.65 43.6731 286.571Z" fill="#C4D1E0"/>
<path d="M350.567 88.5495C350.567 89.4712 349.819 90.22 348.899 90.22C347.979 90.22 347.231 89.4712 347.231 88.5495C347.231 87.6279 347.979 86.879 348.899 86.879C349.819 86.879 350.567 87.6279 350.567 88.5495Z" fill="#C4D1E0"/>
<path d="M56.2351 92.5818C57.5373 92.5818 58.5929 91.5244 58.5929 90.22C58.5929 88.9157 57.5373 87.8583 56.2351 87.8583C54.9329 87.8583 53.8773 88.9157 53.8773 90.22C53.8773 91.5244 54.9329 92.5818 56.2351 92.5818Z" fill="#C4D1E0"/>
<path d="M36.4975 166.385C36.4975 167.69 35.4433 168.746 34.1398 168.746C32.8363 168.746 31.782 167.69 31.782 166.385C31.782 165.079 32.8363 164.023 34.1398 164.023C35.4433 164.023 36.4975 165.079 36.4975 166.385Z" fill="#C4D1E0"/>
<path d="M25.9163 145.961C25.9163 147.267 24.862 148.323 23.5585 148.323C22.2551 148.323 21.2008 147.267 21.2008 145.961C21.2008 144.655 22.2551 143.599 23.5585 143.599C24.862 143.599 25.9163 144.655 25.9163 145.961Z" fill="#C4D1E0"/>
<path d="M181.031 365.981C181.031 368.055 179.35 369.738 177.28 369.738C175.21 369.738 173.529 368.055 173.529 365.981C173.529 363.907 175.21 362.224 177.28 362.224C179.35 362.224 181.031 363.907 181.031 365.981Z" fill="#C4D1E0"/>
<path d="M289.469 55.8435C289.469 57.9172 287.789 59.6005 285.719 59.6005C283.648 59.6005 281.968 57.9172 281.968 55.8435C281.968 53.7697 283.648 52.0864 285.719 52.0864C287.789 52.0864 289.469 53.7697 289.469 55.8435Z" fill="#C4D1E0"/>
<path d="M81.4741 219.546C81.4741 221.62 79.7937 223.303 77.7234 223.303C75.6532 223.303 73.9727 221.62 73.9727 219.546C73.9727 217.473 75.6532 215.789 77.7234 215.789C79.7937 215.789 81.4741 217.473 81.4741 219.546Z" fill="#C4D1E0"/>
<path d="M97.9338 39.388C97.9338 40.6937 96.8795 41.7497 95.576 41.7497C94.2726 41.7497 93.2183 40.6937 93.2183 39.388C93.2183 38.0823 94.2726 37.0262 95.576 37.0262C96.8795 37.0262 97.9338 38.0823 97.9338 39.388Z" fill="#C4D1E0"/>
<path d="M135.997 28.405C135.997 29.7106 134.942 30.7667 133.639 30.7667C132.336 30.7667 131.281 29.7106 131.281 28.405C131.281 27.0993 132.336 26.0432 133.639 26.0432C134.942 26.0432 135.997 27.0993 135.997 28.405Z" fill="#C4D1E0"/>
<path d="M211.931 24.8655C211.931 25.5184 211.407 26.0432 210.755 26.0432C210.104 26.0432 209.58 25.5184 209.58 24.8655C209.58 24.2127 210.11 23.6879 210.755 23.6879C211.401 23.6879 211.931 24.2191 211.931 24.8655Z" fill="#C4D1E0"/>
<path d="M229.305 6.97638C229.305 7.62922 228.781 8.15405 228.129 8.15405C227.477 8.15405 226.953 7.62922 226.953 6.97638C226.953 6.32354 227.477 5.79871 228.129 5.79871C228.781 5.79871 229.305 6.32994 229.305 6.97638Z" fill="#C4D1E0"/>
<path d="M262.269 30.7603C262.269 31.4132 261.745 31.938 261.093 31.938C260.441 31.938 259.917 31.4132 259.917 30.7603C259.917 30.1075 260.448 29.5826 261.093 29.5826C261.738 29.5826 262.269 30.1139 262.269 30.7603Z" fill="#C4D1E0"/>
<path d="M301.411 28.405C301.411 29.0578 300.888 29.5826 300.236 29.5826C299.584 29.5826 299.06 29.0578 299.06 28.405C299.06 27.7521 299.584 27.2273 300.236 27.2273C300.888 27.2273 301.411 27.7521 301.411 28.405Z" fill="#C4D1E0"/>
<path d="M193.785 94.9371C193.785 95.5899 193.254 96.1147 192.609 96.1147C191.964 96.1147 191.433 95.5899 191.433 94.9371C191.433 94.2842 191.957 93.7594 192.609 93.7594C193.261 93.7594 193.785 94.2842 193.785 94.9371Z" fill="#C4D1E0"/>
<path d="M339.481 69.5787C339.481 70.2315 338.951 70.7563 338.305 70.7563C337.66 70.7563 337.129 70.2315 337.129 69.5787C337.129 68.9258 337.653 68.401 338.305 68.401C338.957 68.401 339.481 68.9258 339.481 69.5787Z" fill="#C4D1E0"/>
<path d="M355.864 72.4269C355.864 73.0798 355.34 73.6046 354.688 73.6046C354.036 73.6046 353.512 73.0798 353.512 72.4269C353.512 71.7741 354.036 71.2493 354.688 71.2493C355.34 71.2493 355.864 71.7741 355.864 72.4269Z" fill="#C4D1E0"/>
<path d="M357.333 105.453C357.333 106.106 356.81 106.631 356.158 106.631C355.506 106.631 354.982 106.106 354.982 105.453C354.982 104.8 355.506 104.275 356.158 104.275C356.81 104.275 357.333 104.8 357.333 105.453Z" fill="#C4D1E0"/>
<path d="M373.231 104.269C373.231 104.922 372.707 105.447 372.055 105.447C371.403 105.447 370.879 104.915 370.879 104.269C370.879 103.622 371.403 103.091 372.055 103.091C372.707 103.091 373.231 103.616 373.231 104.269Z" fill="#C4D1E0"/>
<path d="M340.657 125.205C340.657 125.857 340.133 126.382 339.481 126.382C338.829 126.382 338.305 125.851 338.305 125.205C338.305 124.558 338.829 124.027 339.481 124.027C340.133 124.027 340.657 124.552 340.657 125.205Z" fill="#C4D1E0"/>
<path d="M350.075 173.553C350.075 174.206 349.551 174.731 348.899 174.731C348.247 174.731 347.723 174.2 347.723 173.553C347.723 172.907 348.247 172.375 348.899 172.375C349.551 172.375 350.075 172.9 350.075 173.553Z" fill="#C4D1E0"/>
<path d="M379.314 162.743C379.314 163.396 378.79 163.921 378.138 163.921C377.486 163.921 376.962 163.396 376.962 162.743C376.962 162.09 377.486 161.565 378.138 161.565C378.79 161.565 379.314 162.09 379.314 162.743Z" fill="#C4D1E0"/>
<path d="M382.847 172.375C382.847 173.028 382.323 173.553 381.672 173.553C381.02 173.553 380.496 173.028 380.496 172.375C380.496 171.723 381.026 171.198 381.672 171.198C382.317 171.198 382.847 171.723 382.847 172.375Z" fill="#C4D1E0"/>
<path d="M379.314 216.602C379.314 217.255 378.79 217.78 378.138 217.78C377.486 217.78 376.962 217.255 376.962 216.602C376.962 215.949 377.486 215.425 378.138 215.425C378.79 215.425 379.314 215.949 379.314 216.602Z" fill="#C4D1E0"/>
<path d="M371.467 245.199C371.467 245.852 370.943 246.377 370.292 246.377C369.64 246.377 369.116 245.852 369.116 245.199C369.116 244.546 369.64 244.021 370.292 244.021C370.943 244.021 371.467 244.546 371.467 245.199Z" fill="#C4D1E0"/>
<path d="M360.867 298.566C360.867 299.219 360.343 299.743 359.691 299.743C359.039 299.743 358.516 299.219 358.516 298.566C358.516 297.913 359.046 297.388 359.691 297.388C360.337 297.388 360.867 297.913 360.867 298.566Z" fill="#C4D1E0"/>
<path d="M325.826 339.247C325.826 339.899 325.302 340.424 324.651 340.424C323.999 340.424 323.475 339.899 323.475 339.247C323.475 338.594 324.005 338.069 324.651 338.069C325.296 338.069 325.826 338.594 325.826 339.247Z" fill="#C4D1E0"/>
<path d="M281.009 302.988C281.009 303.641 280.485 304.166 279.834 304.166C279.182 304.166 278.658 303.641 278.658 302.988C278.658 302.336 279.182 301.811 279.834 301.811C280.485 301.811 281.009 302.336 281.009 302.988Z" fill="#C4D1E0"/>
<path d="M261.681 380.132C262.33 380.132 262.856 379.605 262.856 378.955C262.856 378.304 262.33 377.777 261.681 377.777C261.031 377.777 260.505 378.304 260.505 378.955C260.505 379.605 261.031 380.132 261.681 380.132Z" fill="#C4D1E0"/>
<path d="M291.993 358.121C291.993 358.774 291.469 359.299 290.817 359.299C290.166 359.299 289.642 358.774 289.642 358.121C289.642 357.469 290.166 356.944 290.817 356.944C291.469 356.944 291.993 357.469 291.993 358.121Z" fill="#C4D1E0"/>
<path d="M308.184 318.221C308.184 318.874 307.654 319.399 307.009 319.399C306.363 319.399 305.833 318.874 305.833 318.221C305.833 317.569 306.357 317.044 307.009 317.044C307.66 317.044 308.184 317.569 308.184 318.221Z" fill="#C4D1E0"/>
<path d="M265.208 367.652C265.208 368.304 264.684 368.829 264.032 368.829C263.38 368.829 262.856 368.304 262.856 367.652C262.856 366.999 263.38 366.474 264.032 366.474C264.684 366.474 265.208 367.005 265.208 367.652Z" fill="#C4D1E0"/>
<path d="M240.192 384.062C240.192 384.715 239.668 385.24 239.017 385.24C238.365 385.24 237.841 384.715 237.841 384.062C237.841 383.409 238.365 382.885 239.017 382.885C239.668 382.885 240.192 383.409 240.192 384.062Z" fill="#C4D1E0"/>
<path d="M207.816 371.089C207.816 371.741 207.292 372.266 206.641 372.266C205.989 372.266 205.465 371.741 205.465 371.089C205.465 370.436 205.995 369.911 206.641 369.911C207.286 369.911 207.816 370.436 207.816 371.089Z" fill="#C4D1E0"/>
<path d="M187.21 382.296C187.21 382.949 186.686 383.473 186.034 383.473C185.382 383.473 184.858 382.942 184.858 382.296C184.858 381.649 185.389 381.118 186.034 381.118C186.679 381.118 187.21 381.643 187.21 382.296Z" fill="#C4D1E0"/>
<path d="M134.821 359.299C134.821 359.952 134.297 360.477 133.645 360.477C132.994 360.477 132.47 359.952 132.47 359.299C132.47 358.646 132.994 358.121 133.645 358.121C134.297 358.121 134.821 358.646 134.821 359.299Z" fill="#C4D1E0"/>
<path d="M159.447 345.833C159.447 346.486 158.923 347.01 158.271 347.01C157.619 347.01 157.095 346.486 157.095 345.833C157.095 345.18 157.619 344.655 158.271 344.655C158.923 344.655 159.447 345.186 159.447 345.833Z" fill="#C4D1E0"/>
<path d="M105.978 331.483C105.978 332.136 105.454 332.661 104.803 332.661C104.151 332.661 103.627 332.136 103.627 331.483C103.627 330.83 104.151 330.305 104.803 330.305C105.454 330.305 105.978 330.83 105.978 331.483Z" fill="#C4D1E0"/>
<path d="M98.3236 340.431C98.3236 341.084 97.7996 341.608 97.1479 341.608C96.4961 341.608 95.9722 341.084 95.9722 340.431C95.9722 339.778 96.5025 339.253 97.1479 339.253C97.7932 339.253 98.3236 339.778 98.3236 340.431Z" fill="#C4D1E0"/>
<path d="M85.0779 311.533C85.0779 312.186 84.5539 312.711 83.9022 312.711C83.2504 312.711 82.7265 312.186 82.7265 311.533C82.7265 310.88 83.2504 310.355 83.9022 310.355C84.5539 310.355 85.0779 310.88 85.0779 311.533Z" fill="#C4D1E0"/>
<path d="M56.2351 305.344C56.8844 305.344 57.4108 304.816 57.4108 304.166C57.4108 303.516 56.8844 302.988 56.2351 302.988C55.5858 302.988 55.0594 303.516 55.0594 304.166C55.0594 304.816 55.5858 305.344 56.2351 305.344Z" fill="#C4D1E0"/>
<path d="M51.232 284.901C51.232 285.554 50.7081 286.078 50.0563 286.078C49.4046 286.078 48.8806 285.554 48.8806 284.901C48.8806 284.248 49.4046 283.723 50.0563 283.723C50.7081 283.723 51.232 284.248 51.232 284.901Z" fill="#C4D1E0"/>
<path d="M29.9418 260.234C29.9418 260.887 29.4115 261.411 28.7661 261.411C28.1207 261.411 27.5904 260.88 27.5904 260.234C27.5904 259.587 28.1144 259.056 28.7661 259.056C29.4178 259.056 29.9418 259.581 29.9418 260.234Z" fill="#C4D1E0"/>
<path d="M32.9832 249.033C32.9832 249.686 32.4593 250.211 31.8076 250.211C31.1558 250.211 30.6319 249.686 30.6319 249.033C30.6319 248.38 31.1622 247.855 31.8076 247.855C32.4529 247.855 32.9832 248.38 32.9832 249.033Z" fill="#C4D1E0"/>
<path d="M34.1589 275.275C34.1589 275.927 33.635 276.452 32.9832 276.452C32.3315 276.452 31.8076 275.927 31.8076 275.275C31.8076 274.622 32.3315 274.097 32.9832 274.097C33.635 274.097 34.1589 274.622 34.1589 275.275Z" fill="#C4D1E0"/>
<path d="M125.307 221.774C125.307 222.427 124.777 222.951 124.131 222.951C123.486 222.951 122.956 222.427 122.956 221.774C122.956 221.121 123.48 220.596 124.131 220.596C124.783 220.596 125.307 221.127 125.307 221.774Z" fill="#C4D1E0"/>
<path d="M29.9418 195.372C29.9418 196.025 29.4115 196.55 28.7661 196.55C28.1207 196.55 27.5904 196.025 27.5904 195.372C27.5904 194.719 28.1144 194.194 28.7661 194.194C29.4178 194.194 29.9418 194.719 29.9418 195.372Z" fill="#C4D1E0"/>
<path d="M48.2097 155.274C48.2097 155.926 47.6794 156.451 47.034 156.451C46.3887 156.451 45.8583 155.926 45.8583 155.274C45.8583 154.621 46.3823 154.096 47.034 154.096C47.6858 154.096 48.2097 154.621 48.2097 155.274Z" fill="#C4D1E0"/>
<path d="M44.3632 86.879C44.3632 87.5318 43.8392 88.0566 43.1875 88.0566C42.5357 88.0566 42.0118 87.5318 42.0118 86.879C42.0118 86.2261 42.5357 85.7013 43.1875 85.7013C43.8392 85.7013 44.3632 86.2261 44.3632 86.879Z" fill="#C4D1E0"/>
<path d="M35.3155 124.027C35.3155 124.68 34.7915 125.205 34.1398 125.205C33.488 125.205 32.9641 124.673 32.9641 124.027C32.9641 123.38 33.488 122.849 34.1398 122.849C34.7915 122.849 35.3155 123.374 35.3155 124.027Z" fill="#C4D1E0"/>
<path d="M95.9722 332.667C95.9722 333.32 95.4482 333.845 94.7965 333.845C94.1448 333.845 93.6208 333.32 93.6208 332.667C93.6208 332.014 94.1448 331.489 94.7965 331.489C95.4482 331.489 95.9722 332.014 95.9722 332.667Z" fill="#C4D1E0"/>
<path d="M203.107 246.377C203.107 247.03 202.583 247.555 201.931 247.555C201.28 247.555 200.756 247.03 200.756 246.377C200.756 245.724 201.28 245.199 201.931 245.199C202.583 245.199 203.107 245.724 203.107 246.377Z" fill="#C4D1E0"/>
<path d="M394.553 194.783C394.553 195.436 394.023 195.961 393.377 195.961C392.732 195.961 392.202 195.436 392.202 194.783C392.202 194.13 392.726 193.606 393.377 193.606C394.029 193.606 394.553 194.13 394.553 194.783Z" fill="#C4D1E0"/>
<path d="M132.221 16.8074C132.221 17.9723 131.275 18.9196 130.112 18.9196C128.949 18.9196 128.003 17.9723 128.003 16.8074C128.003 15.6426 128.949 14.6953 130.112 14.6953C131.275 14.6953 132.221 15.6426 132.221 16.8074Z" fill="#C4D1E0"/>
<path d="M78.324 108.743C79.4886 108.743 80.4326 107.797 80.4326 106.631C80.4326 105.464 79.4886 104.518 78.324 104.518C77.1595 104.518 76.2155 105.464 76.2155 106.631C76.2155 107.797 77.1595 108.743 78.324 108.743Z" fill="#C4D1E0"/>
<path d="M347.474 113.409C347.474 114.574 346.529 115.521 345.366 115.521C344.203 115.521 343.257 114.574 343.257 113.409C343.257 112.244 344.203 111.297 345.366 111.297C346.529 111.297 347.474 112.244 347.474 113.409Z" fill="#C4D1E0"/>
<path d="M318.58 316.544C318.58 317.709 317.635 318.657 316.472 318.657C315.309 318.657 314.363 317.709 314.363 316.544C314.363 315.38 315.309 314.432 316.472 314.432C317.635 314.432 318.58 315.38 318.58 316.544Z" fill="#C4D1E0"/>
<path d="M171.517 353.411C171.517 355.504 169.823 357.193 167.74 357.193C165.657 357.193 163.964 355.497 163.964 353.411C163.964 351.324 165.657 349.628 167.74 349.628C169.823 349.628 171.517 351.324 171.517 353.411Z" fill="#C4D1E0"/>
<path d="M238.18 24.8655C238.18 26.0304 237.234 26.9777 236.071 26.9777C234.908 26.9777 233.963 26.0304 233.963 24.8655C233.963 23.7007 234.908 22.7534 236.071 22.7534C237.234 22.7534 238.18 23.7007 238.18 24.8655Z" fill="#C4D1E0"/>
<path d="M365.442 142.543C365.442 143.19 364.918 143.708 364.279 143.708C363.64 143.708 363.116 143.183 363.116 142.543C363.116 141.903 363.64 141.378 364.279 141.378C364.918 141.378 365.442 141.903 365.442 142.543Z" fill="#C4D1E0"/>
<path d="M380.477 235.963C380.477 236.61 379.953 237.128 379.314 237.128C378.675 237.128 378.151 236.604 378.151 235.963C378.151 235.323 378.675 234.799 379.314 234.799C379.953 234.799 380.477 235.323 380.477 235.963Z" fill="#C4D1E0"/>
<path d="M351.73 289.413C351.73 290.06 351.206 290.578 350.567 290.578C349.928 290.578 349.404 290.053 349.404 289.413C349.404 288.773 349.928 288.248 350.567 288.248C351.206 288.248 351.73 288.773 351.73 289.413Z" fill="#C4D1E0"/>
<path d="M320.223 326.977C320.223 327.624 319.699 328.142 319.06 328.142C318.421 328.142 317.897 327.617 317.897 326.977C317.897 326.337 318.421 325.812 319.06 325.812C319.699 325.812 320.223 326.337 320.223 326.977Z" fill="#C4D1E0"/>
<path d="M319.06 264.349C319.702 264.349 320.223 263.828 320.223 263.184C320.223 262.541 319.702 262.019 319.06 262.019C318.417 262.019 317.897 262.541 317.897 263.184C317.897 263.828 318.417 264.349 319.06 264.349Z" fill="#C4D1E0"/>
<path d="M250.493 318.221C250.493 318.868 249.969 319.386 249.33 319.386C248.691 319.386 248.167 318.861 248.167 318.221C248.167 317.581 248.691 317.056 249.33 317.056C249.969 317.056 250.493 317.581 250.493 318.221Z" fill="#C4D1E0"/>
<path d="M249.33 376.299C249.33 376.945 248.806 377.463 248.167 377.463C247.528 377.463 247.004 376.939 247.004 376.299C247.004 375.659 247.528 375.134 248.167 375.134C248.806 375.134 249.33 375.659 249.33 376.299Z" fill="#C4D1E0"/>
<path d="M276.281 362.64C276.281 363.287 275.757 363.805 275.118 363.805C274.479 363.805 273.955 363.28 273.955 362.64C273.955 362 274.479 361.475 275.118 361.475C275.757 361.475 276.281 362 276.281 362.64Z" fill="#C4D1E0"/>
<path d="M265.208 378.628C265.85 378.628 266.371 378.107 266.371 377.463C266.371 376.82 265.85 376.299 265.208 376.299C264.566 376.299 264.045 376.82 264.045 377.463C264.045 378.107 264.566 378.628 265.208 378.628Z" fill="#C4D1E0"/>
<path d="M208.985 387C209.628 387 210.148 386.479 210.148 385.835C210.148 385.192 209.628 384.67 208.985 384.67C208.343 384.67 207.823 385.192 207.823 385.835C207.823 386.479 208.343 387 208.985 387Z" fill="#C4D1E0"/>
<path d="M184.858 362.224C184.858 362.871 184.334 363.389 183.695 363.389C183.056 363.389 182.532 362.864 182.532 362.224C182.532 361.584 183.056 361.059 183.695 361.059C184.334 361.059 184.858 361.584 184.858 362.224Z" fill="#C4D1E0"/>
<path d="M172.175 328.142C172.175 328.788 171.651 329.307 171.012 329.307C170.373 329.307 169.849 328.782 169.849 328.142C169.849 327.502 170.373 326.977 171.012 326.977C171.651 326.977 172.175 327.502 172.175 328.142Z" fill="#C4D1E0"/>
<path d="M135.984 371.089C135.984 371.735 135.46 372.253 134.821 372.253C134.182 372.253 133.658 371.729 133.658 371.089C133.658 370.449 134.182 369.924 134.821 369.924C135.46 369.924 135.984 370.449 135.984 371.089Z" fill="#C4D1E0"/>
<path d="M126.962 358.121C126.962 358.768 126.438 359.286 125.799 359.286C125.16 359.286 124.636 358.761 124.636 358.121C124.636 357.481 125.16 356.957 125.799 356.957C126.438 356.957 126.962 357.481 126.962 358.121Z" fill="#C4D1E0"/>
<path d="M115.397 355.747C116.039 355.747 116.56 355.225 116.56 354.582C116.56 353.939 116.039 353.417 115.397 353.417C114.754 353.417 114.234 353.939 114.234 354.582C114.234 355.225 114.754 355.747 115.397 355.747Z" fill="#C4D1E0"/>
<path d="M91.5314 332.667C91.5314 333.314 91.0074 333.832 90.3685 333.832C89.7295 333.832 89.2056 333.307 89.2056 332.667C89.2056 332.027 89.7295 331.502 90.3685 331.502C91.0074 331.502 91.5314 332.027 91.5314 332.667Z" fill="#C4D1E0"/>
<path d="M78.8863 308C78.8863 308.646 78.3624 309.165 77.7234 309.165C77.0845 309.165 76.5605 308.64 76.5605 308C76.5605 307.36 77.0845 306.835 77.7234 306.835C78.3624 306.835 78.8863 307.36 78.8863 308Z" fill="#C4D1E0"/>
<path d="M56.2223 295.615C56.2223 296.262 55.6984 296.78 55.0594 296.78C54.4204 296.78 53.8965 296.255 53.8965 295.615C53.8965 294.975 54.4204 294.45 55.0594 294.45C55.6984 294.45 56.2223 294.975 56.2223 295.615Z" fill="#C4D1E0"/>
<path d="M55.0594 279.691C55.0594 280.337 54.5355 280.856 53.8965 280.856C53.2575 280.856 52.7336 280.331 52.7336 279.691C52.7336 279.051 53.2575 278.526 53.8965 278.526C54.5355 278.526 55.0594 279.051 55.0594 279.691Z" fill="#C4D1E0"/>
<path d="M34.1462 268.49C34.1462 269.137 33.6222 269.655 32.9833 269.655C32.3443 269.655 31.8203 269.13 31.8203 268.49C31.8203 267.85 32.3443 267.325 32.9833 267.325C33.6222 267.325 34.1462 267.85 34.1462 268.49Z" fill="#C4D1E0"/>
<path d="M36.4848 260.234C36.4848 260.88 35.9608 261.399 35.3218 261.399C34.6829 261.399 34.1589 260.874 34.1589 260.234C34.1589 259.594 34.6829 259.069 35.3218 259.069C35.9608 259.069 36.4848 259.594 36.4848 260.234Z" fill="#C4D1E0"/>
<path d="M74.19 211.559C74.8322 211.559 75.3529 211.037 75.3529 210.394C75.3529 209.751 74.8322 209.229 74.19 209.229C73.5477 209.229 73.027 209.751 73.027 210.394C73.027 211.037 73.5477 211.559 74.19 211.559Z" fill="#C4D1E0"/>
<path d="M32.9832 177.681C32.9832 178.328 32.4593 178.846 31.8203 178.846C31.1814 178.846 30.6574 178.321 30.6574 177.681C30.6574 177.041 31.1814 176.517 31.8203 176.517C32.4593 176.517 32.9832 177.041 32.9832 177.681Z" fill="#C4D1E0"/>
<path d="M48.1969 159.978C48.1969 160.624 47.673 161.143 47.034 161.143C46.3951 161.143 45.8711 160.618 45.8711 159.978C45.8711 159.338 46.3951 158.813 47.034 158.813C47.673 158.813 48.1969 159.338 48.1969 159.978Z" fill="#C4D1E0"/>
<path d="M52.3949 138.569C52.3949 139.215 51.871 139.733 51.232 139.733C50.5931 139.733 50.0691 139.209 50.0691 138.569C50.0691 137.929 50.5931 137.404 51.232 137.404C51.871 137.404 52.3949 137.929 52.3949 138.569Z" fill="#C4D1E0"/>
<path d="M52.3949 96.1148C52.3949 96.7613 51.871 97.2797 51.232 97.2797C50.5931 97.2797 50.0691 96.7549 50.0691 96.1148C50.0691 95.4748 50.5931 94.95 51.232 94.95C51.871 94.95 52.3949 95.4748 52.3949 96.1148Z" fill="#C4D1E0"/>
<path d="M116.853 56.8035C116.853 57.45 116.33 57.9684 115.691 57.9684C115.052 57.9684 114.528 57.4436 114.528 56.8035C114.528 56.1635 115.052 55.6387 115.691 55.6387C116.33 55.6387 116.853 56.1635 116.853 56.8035Z" fill="#C4D1E0"/>
<path d="M134.808 64.8488C135.451 64.8488 135.971 64.3273 135.971 63.6839C135.971 63.0406 135.451 62.519 134.808 62.519C134.166 62.519 133.645 63.0406 133.645 63.6839C133.645 64.3273 134.166 64.8488 134.808 64.8488Z" fill="#C4D1E0"/>
<path d="M80.6499 62.0135C80.6499 62.6599 80.1259 63.1784 79.4869 63.1784C78.848 63.1784 78.324 62.6535 78.324 62.0135C78.324 61.3735 78.848 60.8486 79.4869 60.8486C80.1259 60.8486 80.6499 61.3735 80.6499 62.0135Z" fill="#C4D1E0"/>
<path d="M113.013 250.211C113.013 250.857 112.489 251.376 111.85 251.376C111.211 251.376 110.688 250.851 110.688 250.211C110.688 249.571 111.211 249.046 111.85 249.046C112.489 249.046 113.013 249.571 113.013 250.211Z" fill="#C4D1E0"/>
<path d="M281.009 155.261C281.652 155.261 282.172 154.739 282.172 154.096C282.172 153.453 281.652 152.931 281.009 152.931C280.367 152.931 279.846 153.453 279.846 154.096C279.846 154.739 280.367 155.261 281.009 155.261Z" fill="#C4D1E0"/>
<path d="M233.707 73.6109C233.707 74.2574 233.183 74.7758 232.544 74.7758C231.905 74.7758 231.381 74.251 231.381 73.6109C231.381 72.9709 231.905 72.446 232.544 72.446C233.183 72.446 233.707 72.9709 233.707 73.6109Z" fill="#C4D1E0"/>
<path d="M347.723 187.704C348.366 187.704 348.886 187.183 348.886 186.54C348.886 185.896 348.366 185.375 347.723 185.375C347.081 185.375 346.561 185.896 346.561 186.54C346.561 187.183 347.081 187.704 347.723 187.704Z" fill="#C4D1E0"/>
<path d="M368.113 121.665C368.113 122.312 367.589 122.83 366.95 122.83C366.311 122.83 365.787 122.305 365.787 121.665C365.787 121.025 366.311 120.5 366.95 120.5C367.589 120.5 368.113 121.025 368.113 121.665Z" fill="#C4D1E0"/>
<path d="M25.1623 277.041C25.7118 278.686 26.4658 280.888 27.2837 282.417L26.1911 280.561C25.5138 279.025 24.5681 276.971 24.1656 275.339L25.1623 277.041Z" fill="#C4D1E0"/>
<path d="M10.4151 245.666L11.0924 248.105L10.3704 246.05L9.75696 243.785L10.4215 245.666" fill="#C4D1E0"/>
<path d="M60.6312 320.487C61.8899 324.212 62.5225 326.081 67.04 330.164L65.3914 328.705C61.858 325.07 60.0817 323.246 59.1679 319.143L60.6312 320.487Z" fill="#C4D1E0"/>
<path d="M42.1907 301.215L40.9319 299.686C42.4591 304.236 42.5166 304.416 44.7913 307.264L46.1842 308.928C45.475 307.917 44.3887 306.649 43.8201 305.555C43.1811 304.32 42.8105 302.464 42.1971 301.222" fill="#C4D1E0"/>
<path d="M124.93 95.4555L125.563 93.6314C108.144 90.6168 55.1361 81.4514 48.1394 58.698L46.8104 60.2085C48.7145 65.956 54.5035 83.4483 124.93 95.4555ZM195.293 101.043L195.312 99.1741C179.031 98.8413 156.738 98.3805 126.93 93.849L126.304 95.6731C140.271 97.6508 161.389 100.633 195.293 101.043ZM220.851 98.9181C207.228 99.1613 203.573 99.2253 196.871 99.1805V101.049C212.091 100.985 212.685 100.985 221.062 100.665C220.979 100.339 220.832 99.7373 220.851 98.9117" fill="#C4D1E0"/>
<path d="M36.0056 102.176L36.9832 100.371C31.4306 95.3596 29.1303 93.2858 27.3029 86.8278L26.2678 88.5495C27.9993 93.7531 28.715 95.9036 36.0119 102.176M68.4393 117.87L69.2188 115.969C57.6153 111.873 48.4525 108.634 37.6157 100.864L36.6445 102.669C44.1715 107.776 49.6027 111.463 68.4457 117.863M195.484 79.2818L195.497 77.5345C180.929 77.2336 160.974 76.8176 133.697 72.6125C131.179 78.8849 127.876 87.2759 125.556 93.6251L124.924 95.4492C119.211 113.044 118.745 114.478 115.582 126.638C98.7581 123.733 87.327 121.588 70.4137 116.353L69.6405 118.254C84.8095 122.734 94.3876 125.237 116.643 128.846C121.48 110.593 121.984 108.685 126.297 95.6668L126.924 93.8427C129.051 88.0183 131.907 80.261 134.208 74.5007C146.616 76.2608 165.364 78.9169 195.484 79.2818ZM257.112 74.027C234.474 76.5232 223.42 77.4769 196.884 77.5537V79.301C222.206 79.205 234.723 78.4497 257.758 75.6271C257.572 75.2687 257.323 74.7823 257.112 74.027Z" fill="#C4D1E0"/>
<path d="M161.159 175.902C133.582 173.675 95.8061 170.628 56.8868 158.602C58.7079 151.683 61.1935 142.473 63.3148 135.644L62.0497 135.234C59.8197 142.684 56.9699 152.656 55.0914 160.202C71.9728 165.297 100.228 173.816 161.057 177.861C161.019 177.201 160.993 176.677 161.153 175.902M70.4201 116.353L76.1707 103.322C61.6918 98.3165 54.0626 95.0907 44.2546 88.0631L36.9768 100.365L35.9992 102.17C26.485 121.518 26.1144 122.273 19.8781 140.905C13.7313 135.362 11.1818 133.064 9.15633 125.915L8.53015 127.835C10.6579 134.223 11.6419 136.373 19.9931 143.42C26.9834 122.344 27.1176 121.94 36.6317 102.662L37.603 100.858L43.7689 90.2585C52.1841 95.9676 57.9284 99.2638 74.1452 104.781L69.206 115.962L68.4265 117.863C66.6949 122.478 64.286 128.597 62.695 133.263L63.9538 133.666C65.647 129.038 67.8003 122.824 69.6342 118.247L70.4073 116.346" fill="#C4D1E0"/>
<path d="M103.819 36.0342L105.314 34.735C97.2373 30.2291 93.5952 27.4257 91.9595 21.7166L90.2407 22.8046C91.8573 27.8097 94.1 30.7539 103.819 36.0342ZM308.261 126.389C280.658 131.887 251.355 136.834 196.756 136.956C196.8 125.576 196.864 101.203 196.864 101.056V99.187C196.877 93.2218 196.884 85.2661 196.884 79.3009V77.5536C196.877 68.4907 196.864 59.4277 196.839 50.3647C156.367 49.6223 125.761 44.4636 105.876 35.023L104.394 36.3287C131.441 48.5406 168.986 51.536 195.721 51.9072C195.65 60.4518 195.574 68.9963 195.503 77.5472L195.491 79.2945C195.44 85.2597 195.363 93.2154 195.312 99.1806L195.293 101.049C195.178 113.684 195.056 126.318 194.941 138.953C240.716 138.895 272.658 135.887 308.862 128.219C308.651 127.682 308.389 126.958 308.261 126.395" fill="#C4D1E0"/>
<path d="M176.916 37.0199C176.801 37.3335 176.686 37.7623 176.609 38.0887C170.558 37.8263 139.249 36.0086 117.333 25.704C113.895 28.4945 109.218 32.1108 105.883 35.0165L104.4 36.3222C98.56 41.8714 90.9308 49.4558 85.4293 55.3442C75.1803 49.7951 70.5287 46.3068 68.2732 39.036L69.8195 37.7367C71.4935 42.8506 73.5318 46.7101 86.0747 53.5009C91.2822 48.1374 98.33 41.0905 103.825 36.0278L105.32 34.7285C109.237 31.5731 114.387 27.2785 118.425 24.2831C133.045 31.0675 150.552 34.8501 176.961 36.9303C176.948 36.9559 176.935 36.9879 176.929 37.0135" fill="#C4D1E0"/>
<path d="M129.422 147.107C129.185 147.926 129.16 148.432 129.128 149.014C102.4 145.462 87.3462 142.818 63.3148 135.637L62.0497 135.228C51.0212 131.33 49.3215 130.734 41.7562 127.157C35.2388 145.743 31.9673 155.075 28.2166 179.23C12.6834 170.839 5.62926 165.553 2.15331 154.544L2.49196 152.521C5.09892 160.343 8.24262 166.25 27.4498 176.638C30.8619 158.039 32.7404 147.792 41.539 124.75C50.9764 129.09 52.4269 129.755 62.7078 133.263L63.9665 133.666C84.2792 139.663 97.8699 142.838 129.46 146.979C129.447 147.017 129.435 147.062 129.422 147.1" fill="#C4D1E0"/>
<path d="M114.068 317.133L113.595 315.668C93.6911 312.231 40.8105 303.11 26.1847 280.555L27.2773 282.411C31.5584 288.184 44.5932 305.74 114.068 317.133ZM193.657 323.431V322.004C174.986 321.626 149.415 321.108 115.16 315.911L115.62 317.376C131.435 319.61 155.338 322.977 193.65 323.431M222.857 321.665C206.423 322.01 203.899 322.068 195.452 322.017L195.439 323.444C212.602 323.367 213.273 323.367 222.71 323.002C222.691 322.753 222.659 322.292 222.857 321.658" fill="#C4D1E0"/>
<path d="M266.697 333.838C241.228 336.776 227.643 337.979 195.305 338.095L195.293 339.323C224.819 339.195 239.394 338.306 266.179 335.022C266.262 334.747 266.39 334.331 266.697 333.838ZM21.041 260.515L20.4149 258.685C14.9964 253.801 12.2809 251.35 10.364 246.044L11.086 248.099C13.5077 252.924 14.8431 255.587 21.041 260.515ZM56.3757 277.617L55.8773 275.851C43.1172 271.345 33.0408 267.786 21.1113 259.235L21.7311 261.059C29.929 266.621 35.8522 270.641 56.3693 277.617M193.663 339.317V338.088C177.414 337.762 152.865 337.262 121.275 332.481C119.505 327.982 117.173 321.966 115.627 317.383L115.167 315.917C111.211 301.721 110.7 299.903 108.496 287.839C87.1864 284.242 75.3465 281.841 57.1999 276.28L57.6919 278.046C73.9919 282.859 84.1769 285.535 107.109 289.298C110.502 305.357 110.707 306.323 113.601 315.68L114.074 317.146C115.869 322.1 118.336 328.692 120.406 333.537C135.907 335.778 157.14 338.843 193.67 339.323" fill="#C4D1E0"/>
<path d="M57.1999 276.273C56.1712 271.902 54.676 266.103 53.8134 261.699L52.4652 261.264C53.4812 265.642 54.7016 271.511 55.8837 275.851L56.382 277.617L59.6791 287.96C44.0181 282.43 35.8586 278.961 25.8716 271.806L21.7439 261.066L21.1241 259.242C15.2265 238.837 15.1115 238.453 12.5173 217.505C5.12448 211.072 2.88811 208.883 0.581451 201.267L0.785919 203.328C2.77948 209.306 3.60374 211.776 11.9742 218.977C14.8942 239.88 15.0092 240.693 20.4276 258.698L21.0538 260.528L25.9547 273.034C36.8106 280.632 44.1331 284.133 61.5576 290.053L57.6983 278.052L57.2063 276.286M159.159 253.462C130.259 251.152 90.6752 247.983 49.0276 234.965C49.7816 242.313 50.9317 252.099 52.1074 259.389L53.462 259.824C52.4652 253.123 51.2128 244.175 50.5611 237.435C66.9952 242.293 97.5887 251.331 159.21 255.344C159.134 254.793 159.063 254.275 159.166 253.462" fill="#C4D1E0"/>
<path d="M78.0493 337.25L76.7714 336.091C69.9664 332.328 69.4105 332.014 65.3914 328.699L67.04 330.158C71.9727 333.928 72.4903 334.325 78.0493 337.25ZM314.747 280.005C286.096 285.618 253.157 291.09 193.765 291.02C193.695 308.345 193.689 309.382 193.663 322.004V323.431C193.663 327.828 193.663 333.691 193.663 338.082V339.311C193.695 348.489 193.702 350.959 193.746 356.156C129.134 354.864 94.8796 344.732 77.5253 336.456L78.7969 337.614C106.451 350.006 145.6 356.56 195.158 357.11C195.203 351.183 195.254 345.257 195.305 339.323L195.318 338.094C195.356 333.697 195.408 327.841 195.446 323.444L195.459 322.017C195.542 312.263 195.631 302.515 195.714 292.761C219.26 292.664 263.08 292.479 314.37 281.656C314.465 281.157 314.587 280.485 314.753 280.005" fill="#C4D1E0"/>
<path d="M168.284 362.602C168.335 362.787 168.45 363.018 168.52 363.197C135.121 361.046 108.489 355.401 89.3653 346.409C85.9532 343.682 81.3144 340.143 78.0493 337.243L76.7714 336.078C72.19 331.477 66.2029 325.211 61.973 320.282C54.9316 316.378 51.0467 314.227 46.1842 308.922L44.7913 307.257C49.6218 312.186 51.7943 314.151 61.7238 319.335C66.2732 324.641 72.5606 331.534 77.5189 336.456L78.7905 337.615C81.7553 340.053 85.6018 343.432 88.6688 345.73C103.058 352.169 123.773 359.203 168.271 362.55C168.271 362.563 168.271 362.582 168.277 362.595" fill="#C4D1E0"/>
<path d="M123.773 274.231C123.754 274.647 123.812 275.204 123.869 275.614C97.0776 272.727 78.0876 268.957 53.807 261.699L52.4588 261.264C40.7658 257.136 38.6572 256.387 29.7501 252.131C26.3636 233.646 24.664 224.366 25.2646 199.577C14.1722 193.42 3.6932 187.602 0 175.153L0.115013 173.06C3.22676 182.398 7.57171 187.928 26.4403 198.009C26.14 217.146 25.9738 227.688 30.3827 250.761C40.7594 255.421 42.0949 256.022 52.101 259.402L53.4556 259.837C75.2762 266.282 89.8701 269.693 123.78 274.135C123.78 274.167 123.773 274.212 123.773 274.244" fill="#C4D1E0"/>
<path d="M181.734 38.364C180.89 41.513 177.964 42.9275 176.839 40.7322C175.715 38.5304 177.6 33.967 180.2 33.9478C182.008 34.2102 182.181 36.6871 181.734 38.364Z" fill="#C4D1E0"/>
<path d="M264.665 74.2254C265.911 77.6624 263.808 80.037 260.786 78.6097C257.119 76.8752 255.515 71.0316 258.377 69.8091C258.543 69.7387 258.786 69.6811 258.965 69.6427C261.674 69.4379 263.93 72.1965 264.665 74.2254Z" fill="#C4D1E0"/>
<path d="M229.586 99.859C229.854 103.968 225.905 106.183 222.883 103.616C219.714 100.921 220.174 94.9115 224.525 94.4698C227.777 94.5083 229.439 97.6444 229.586 99.859Z" fill="#C4D1E0"/>
<path d="M316.146 125.973C317.251 130.101 314.651 133.064 311.507 131.259C307.833 129.147 306.542 122.273 310.459 121.044C313.341 120.564 315.52 123.636 316.146 125.973Z" fill="#C4D1E0"/>
<path d="M171.574 177.957C170.884 182.936 164.84 184.613 162.066 180.6C159.6 177.029 161.651 171.364 166.635 171.383C170.616 171.812 171.919 175.486 171.581 177.957" fill="#C4D1E0"/>
<path d="M138.642 149.616C137.575 154.256 132.31 155.773 129.978 152.112C127.722 148.572 130.157 142.71 134.834 142.985C138.374 143.593 139.192 147.228 138.642 149.616Z" fill="#C4D1E0"/>
<path d="M170.092 255.472C169.638 260.208 163.6 261.751 160.45 257.942C157.607 254.505 159.344 249.078 164.552 249.116C168.75 249.552 170.315 253.097 170.092 255.472Z" fill="#C4D1E0"/>
<path d="M133.99 276.676C133.895 280.805 128.885 282.046 125.614 278.757C122.291 275.415 123.729 270.391 127.984 270.481C128.125 270.481 128.31 270.5 128.451 270.513C132.361 271.14 134.048 274.494 133.997 276.676" fill="#C4D1E0"/>
<path d="M322.561 279.358C321.098 283.717 316.261 286.386 314.715 283.685C313.335 281.265 315.884 276.062 319.833 274.929C322.925 274.372 323.29 277.188 322.555 279.358" fill="#C4D1E0"/>
<path d="M232.429 322.234C231.343 326.017 225.094 327.368 223.139 324.244C221.675 321.908 223.899 318.433 228.174 318.081C231.937 318.055 232.927 320.493 232.429 322.234Z" fill="#C4D1E0"/>
<path d="M274.543 333.544C272.524 336.885 266.888 338.581 266.173 336.066C265.623 334.145 268.524 330.926 272.23 330.26C275.399 329.928 275.489 331.982 274.537 333.55" fill="#C4D1E0"/>
<path d="M175.267 363.581C175.587 365.501 172.009 365.904 169.549 364.227C167.728 362.986 167.855 361.386 169.798 360.995C170.258 360.906 170.603 360.918 170.974 360.925C173.67 361.174 175.108 362.627 175.267 363.581Z" fill="#C4D1E0"/>
<path d="M381.838 277.041L382.834 275.339C382.432 276.971 381.486 279.025 380.809 280.561L379.716 282.417C380.534 280.888 381.288 278.686 381.838 277.041Z" fill="#C4D1E0"/>
<path d="M396.585 245.666L397.249 243.785L396.636 246.05L395.914 248.105L396.591 245.666" fill="#C4D1E0"/>
<path d="M346.369 320.487L347.832 319.143C346.912 323.239 345.142 325.063 341.602 328.705L339.954 330.164C344.477 326.081 345.11 324.212 346.362 320.487" fill="#C4D1E0"/>
<path d="M364.803 301.215L366.062 299.686C364.535 304.236 364.477 304.416 362.202 307.264L360.809 308.928C361.519 307.917 362.605 306.649 363.174 305.555C363.813 304.32 364.183 302.464 364.797 301.222" fill="#C4D1E0"/>
<path d="M282.07 95.4555C352.497 83.4483 358.286 65.956 360.183 60.2085L358.854 58.698C351.858 81.4514 298.849 90.6168 281.431 93.6314L282.064 95.4555M211.707 101.043C245.611 100.633 266.722 97.6444 280.696 95.6731L280.07 93.849C250.262 98.3805 227.969 98.8413 211.688 99.1741L211.707 101.043ZM186.149 98.9181C186.168 99.7373 186.021 100.345 185.938 100.672C194.315 100.992 194.909 100.992 210.136 101.056V99.1869C203.433 99.2253 199.772 99.1613 186.149 98.9245" fill="#C4D1E0"/>
<path d="M370.994 102.176C378.291 95.9036 379.007 93.7531 380.739 88.5495L379.704 86.8278C377.876 93.2858 375.576 95.3596 370.023 100.371L371.001 102.176M338.554 117.87C357.391 111.463 362.829 107.776 370.355 102.675L369.384 100.87C358.541 108.64 349.378 111.879 337.781 115.975L338.561 117.876M211.509 79.2818C241.63 78.9105 260.377 76.2544 272.786 74.5007C275.086 80.261 277.936 88.0183 280.07 93.8427L280.696 95.6668C285.009 108.685 285.514 110.593 290.351 128.846C312.606 125.237 322.184 122.734 337.353 118.254L336.58 116.353C319.667 121.588 308.236 123.733 291.412 126.638C288.242 114.484 287.776 113.044 282.07 95.4492L281.437 93.6251C279.118 87.2759 275.815 78.8849 273.297 72.6125C246.026 76.8176 226.071 77.2272 211.497 77.5345L211.509 79.2818ZM149.888 74.027C149.677 74.7823 149.421 75.2687 149.242 75.6271C172.277 78.4433 184.794 79.1986 210.116 79.301V77.5537C183.58 77.4769 172.526 76.5232 149.888 74.027Z" fill="#C4D1E0"/>
<path d="M245.841 175.902C246.007 176.677 245.975 177.201 245.937 177.861C306.766 173.816 335.021 165.29 351.902 160.202C350.024 152.656 347.174 142.684 344.944 135.234L343.679 135.644C345.8 142.473 348.286 151.689 350.107 158.602C311.188 170.628 273.418 173.681 245.834 175.902M336.58 116.353L337.353 118.254C339.181 122.83 341.34 129.045 343.033 133.672L344.292 133.269C342.701 128.603 340.292 122.484 338.561 117.87L337.781 115.969L332.842 104.787C349.065 99.2701 354.803 95.9739 363.218 90.2648L369.384 100.864L370.355 102.669C379.87 121.947 380.004 122.35 386.994 143.426C395.345 136.38 396.329 134.223 398.457 127.842L397.831 125.921C395.805 133.071 393.256 135.368 387.109 140.911C380.873 122.28 380.502 121.524 370.988 102.176L370.01 100.371L362.733 88.0695C352.931 95.0971 345.295 98.3229 330.816 103.328L336.567 116.359" fill="#C4D1E0"/>
<path d="M303.181 36.0342C312.894 30.7539 315.143 27.8097 316.759 22.8046L315.04 21.7166C313.405 27.4257 309.769 30.2291 301.686 34.735L303.181 36.0342ZM98.7389 126.389C98.6111 126.952 98.3491 127.675 98.1383 128.213C134.348 135.88 166.29 138.889 212.059 138.946C211.944 126.312 211.822 113.677 211.707 101.043L211.688 99.1742C211.631 93.209 211.561 85.2533 211.509 79.2881L211.497 77.5408C211.42 68.9963 211.35 60.4518 211.279 51.9008C238.014 51.536 275.559 48.5342 302.606 36.3223L301.124 35.0166C281.239 44.4508 250.633 49.6159 210.161 50.3583C210.129 59.4213 210.123 68.4843 210.116 77.5472V79.2945C210.116 85.2597 210.129 93.2154 210.136 99.1806V101.049C210.136 101.197 210.206 125.569 210.251 136.949C155.651 136.828 126.355 131.88 98.7453 126.382" fill="#C4D1E0"/>
<path d="M230.084 37.0199C230.199 37.3335 230.314 37.7623 230.391 38.0887C236.442 37.8263 267.751 36.0086 289.667 25.704C293.105 28.4945 297.782 32.1108 301.118 35.0165L302.6 36.3222C308.44 41.8714 316.069 49.4558 321.571 55.3442C331.82 49.7951 336.471 46.3068 338.727 39.036L337.181 37.7367C335.506 42.8506 333.468 46.7101 320.925 53.5009C315.718 48.1374 308.67 41.0905 303.175 36.0278L301.68 34.7285C297.763 31.5731 292.613 27.2785 288.575 24.2831C273.955 31.0675 256.448 34.8501 230.039 36.9303C230.052 36.9559 230.065 36.9879 230.071 37.0135" fill="#C4D1E0"/>
<path d="M277.578 147.107C277.815 147.926 277.84 148.432 277.872 149.014C304.6 145.462 319.654 142.818 343.685 135.637L344.95 135.228C355.979 131.33 357.679 130.734 365.244 127.157C371.761 145.743 375.033 155.075 378.783 179.23C394.317 170.839 401.371 165.553 404.847 154.544L404.508 152.521C401.901 160.343 398.757 166.25 379.55 176.638C376.138 158.039 374.26 147.792 365.461 124.75C356.024 129.09 354.573 129.755 344.292 133.263L343.033 133.666C322.721 139.663 309.13 142.838 277.54 146.979C277.553 147.017 277.565 147.062 277.578 147.1" fill="#C4D1E0"/>
<path d="M292.926 317.133C362.4 305.747 375.435 288.184 379.716 282.411L380.809 280.555C366.183 303.11 313.309 312.231 293.399 315.668L292.926 317.133ZM213.337 323.431C251.649 322.977 275.553 319.61 291.367 317.376L291.827 315.911C257.579 321.101 232.001 321.62 213.33 322.004V323.431M184.143 321.665C184.341 322.292 184.309 322.759 184.29 323.009C193.733 323.374 194.398 323.374 211.561 323.45L211.548 322.023C203.101 322.074 200.577 322.023 184.143 321.671" fill="#C4D1E0"/>
<path d="M140.303 333.838C140.61 334.325 140.738 334.747 140.821 335.022C167.606 338.312 182.175 339.195 211.707 339.323L211.695 338.095C179.357 337.979 165.772 336.776 140.303 333.838ZM385.953 260.515C392.151 255.587 393.48 252.931 395.908 248.099L396.63 246.044C394.713 251.35 391.997 253.801 386.579 258.685L385.953 260.515ZM350.618 277.617C371.135 270.641 377.058 266.621 385.256 261.059L385.876 259.235C373.946 267.786 363.87 271.345 351.11 275.851L350.612 277.617M213.337 339.317C249.86 338.837 271.093 335.771 286.6 333.531C288.671 328.686 291.137 322.094 292.932 317.14L293.405 315.674C296.3 306.317 296.504 305.357 299.897 289.292C322.823 285.535 333.015 282.853 349.314 278.04L349.806 276.273C331.66 281.835 319.82 284.235 298.511 287.832C296.306 299.897 295.795 301.721 291.84 315.911L291.38 317.376C289.833 321.959 287.501 327.976 285.731 332.475C254.141 337.263 229.592 337.755 213.343 338.082V339.311" fill="#C4D1E0"/>
<path d="M349.8 276.273L349.308 278.04L345.449 290.04C362.88 284.114 370.196 280.619 381.052 273.022L385.953 260.515L386.579 258.685C391.997 240.681 392.106 239.868 395.032 218.964C403.403 211.764 404.227 209.293 406.22 203.315L406.425 201.254C404.118 208.871 401.882 211.06 394.489 217.492C391.895 238.44 391.78 238.831 385.882 259.229L385.262 261.053L381.135 271.793C371.148 278.955 362.988 282.418 347.327 287.948L350.624 277.604L351.123 275.838C352.305 271.505 353.525 265.629 354.541 261.251L353.193 261.687C352.33 266.09 350.835 271.895 349.806 276.26M247.834 253.462C247.937 254.275 247.866 254.793 247.79 255.344C309.411 251.331 340.005 242.293 356.439 237.436C355.794 244.175 354.535 253.129 353.538 259.824L354.893 259.389C356.068 252.099 357.212 242.313 357.972 234.965C316.325 247.983 276.741 251.152 247.841 253.462" fill="#C4D1E0"/>
<path d="M328.944 337.25C334.503 334.325 335.021 333.928 339.954 330.158L341.602 328.699C337.583 332.014 337.027 332.321 330.222 336.091L328.944 337.25ZM92.247 280.005C92.4132 280.485 92.5346 281.157 92.6304 281.656C143.92 292.479 187.746 292.658 211.286 292.761C211.369 302.515 211.458 312.263 211.541 322.017L211.554 323.444C211.592 327.841 211.644 333.697 211.682 338.094L211.695 339.323C211.746 345.25 211.797 351.177 211.842 357.11C261.4 356.566 300.549 350.006 328.203 337.614L329.475 336.456C312.114 344.732 277.866 354.864 213.254 356.156C213.299 350.959 213.305 348.495 213.337 339.311V338.082C213.343 333.685 213.337 327.822 213.337 323.431V322.004C213.305 309.389 213.305 308.352 213.235 291.02C153.843 291.09 120.898 285.618 92.2534 280.005" fill="#C4D1E0"/>
<path d="M238.716 362.602C238.665 362.787 238.55 363.018 238.48 363.197C271.879 361.046 298.511 355.401 317.635 346.409C321.047 343.682 325.686 340.143 328.951 337.243L330.229 336.078C334.81 331.477 340.797 325.211 345.027 320.282C352.068 316.378 355.953 314.227 360.816 308.922L362.209 307.257C357.378 312.186 355.206 314.151 345.276 319.335C340.727 324.641 334.439 331.534 329.481 336.456L328.21 337.615C325.245 340.053 321.398 343.432 318.331 345.73C303.942 352.169 283.227 359.203 238.729 362.55C238.729 362.563 238.729 362.582 238.723 362.595" fill="#C4D1E0"/>
<path d="M283.22 274.231C283.239 274.647 283.182 275.204 283.124 275.614C309.916 272.727 328.906 268.957 353.187 261.699L354.535 261.264C366.228 257.136 368.336 256.387 377.244 252.131C380.63 233.646 382.33 224.366 381.729 199.577C392.821 193.42 403.3 187.602 406.994 175.153L406.879 173.06C403.767 182.398 399.422 187.928 380.553 198.009C380.854 217.146 381.02 227.688 376.611 250.761C366.234 255.421 364.899 256.022 354.893 259.402L353.538 259.837C331.717 266.282 317.124 269.693 283.214 274.135C283.214 274.167 283.22 274.212 283.22 274.244" fill="#C4D1E0"/>
<path d="M225.266 38.364C226.11 41.513 229.036 42.9275 230.161 40.7322C231.285 38.5304 229.4 33.967 226.8 33.9478C224.992 34.2102 224.819 36.6871 225.266 38.364Z" fill="#C4D1E0"/>
<path d="M142.335 74.2254C141.089 77.6624 143.192 80.037 146.214 78.6097C149.881 76.8752 151.485 71.0316 148.623 69.8091C148.457 69.7387 148.214 69.6811 148.035 69.6427C145.326 69.4379 143.07 72.1965 142.335 74.2254Z" fill="#C4D1E0"/>
<path d="M177.414 99.859C177.146 103.968 181.095 106.183 184.117 103.616C187.286 100.921 186.826 94.9115 182.475 94.4698C179.223 94.5083 177.561 97.6444 177.414 99.859Z" fill="#C4D1E0"/>
<path d="M90.8541 125.973C89.7487 130.101 92.3493 133.064 95.4929 131.259C99.167 129.147 100.458 122.273 96.5408 121.044C93.6591 120.564 91.4803 123.636 90.8541 125.973Z" fill="#C4D1E0"/>
<path d="M235.419 177.957C236.109 182.936 242.154 184.613 244.927 180.6C247.394 177.029 245.342 171.364 240.359 171.383C236.378 171.812 235.074 175.486 235.413 177.957" fill="#C4D1E0"/>
<path d="M268.352 149.616C269.419 154.256 274.684 155.773 277.016 152.112C279.271 148.572 276.837 142.71 272.166 142.985C268.626 143.593 267.808 147.228 268.358 149.616" fill="#C4D1E0"/>
<path d="M236.908 255.472C237.362 260.208 243.4 261.751 246.55 257.942C249.393 254.505 247.656 249.078 242.448 249.116C238.25 249.552 236.685 253.097 236.908 255.472Z" fill="#C4D1E0"/>
<path d="M273.01 276.676C273.105 280.805 278.115 282.046 281.386 278.757C284.709 275.415 283.271 270.391 279.016 270.481C278.875 270.481 278.69 270.5 278.549 270.513C274.639 271.14 272.952 274.494 273.003 276.676" fill="#C4D1E0"/>
<path d="M84.4389 279.358C85.9021 283.717 90.7391 286.386 92.2854 283.685C93.6655 281.265 91.1161 276.062 87.1673 274.929C84.0747 274.372 83.7105 277.188 84.4453 279.358" fill="#C4D1E0"/>
<path d="M174.571 322.234C175.657 326.017 181.906 327.368 183.861 324.244C185.325 321.908 183.101 318.433 178.826 318.081C175.063 318.055 174.073 320.493 174.571 322.234Z" fill="#C4D1E0"/>
<path d="M132.451 333.544C134.47 336.885 140.105 338.581 140.821 336.066C141.37 334.145 138.47 330.926 134.764 330.26C131.594 329.928 131.505 331.982 132.457 333.55" fill="#C4D1E0"/>
<path d="M231.733 363.581C231.413 365.501 234.991 365.904 237.451 364.227C239.272 362.986 239.145 361.386 237.202 360.995C236.742 360.906 236.397 360.918 236.026 360.925C233.33 361.174 231.892 362.627 231.733 363.581Z" fill="#C4D1E0"/>
</g>
<circle cx="203.5" cy="212.5" r="77.5" fill="#EEF2F8"/>
<circle cx="203.5" cy="212.5" r="76" stroke="#1A4F81" stroke-opacity="0.15" stroke-width="3" stroke-linecap="round" stroke-dasharray="6 12"/>
<g filter="url(#filter0_d_2034_3148)">
<circle cx="203.5" cy="212.5" r="66.5" fill="white"/>
</g>
<path d="M203 174C187.292 188.425 171 186.135 171 186.135L171.243 209.089C171.438 227.51 182.964 243.885 200.277 250.123C201.979 250.708 203 251 203 251C203 251 204.021 250.756 205.723 250.123C217.395 245.932 226.392 237.111 231.158 226.194C227.802 228.095 222.112 230.532 214.137 231.555C211.316 234.187 207.669 236.77 203.049 238.719C187.973 232.384 183.401 219.42 183.401 219.42C190.745 222.783 203.049 223.222 203.049 223.222C203.049 223.222 209.857 222.978 216.374 221.467C218.027 221.077 219.778 220.541 221.529 219.908C221.918 219.761 222.307 219.566 222.696 219.42C222.696 219.42 222.696 219.42 222.696 219.469C226.83 217.812 231.109 215.424 234.611 212.013C234.708 211.038 234.757 210.063 234.757 209.089L235 186.135C235 186.135 218.708 188.425 203 174ZM223.815 205.628C223.815 205.628 215.693 211.184 203.778 211.184C191.863 211.184 183.693 205.628 183.693 205.628V197.149C195.17 194.956 203.729 188.279 203.729 188.279C203.729 188.279 211.608 195.004 223.766 197.149V205.628H223.815Z" fill="#F08021"/>
<defs>
<filter id="filter0_d_2034_3148" x="113" y="126" width="181" height="181" filterUnits="userSpaceOnUse" color-interpolation-filters="sRGB">
<feFlood flood-opacity="0" result="BackgroundImageFix"/>
<feColorMatrix in="SourceAlpha" type="matrix" values="0 0 0 0 0 0 0 0 0 0 0 0 0 0 0 0 0 0 127 0" result="hardAlpha"/>
<feOffset dy="4"/>
<feGaussianBlur stdDeviation="12"/>
<feComposite in2="hardAlpha" operator="out"/>
<feColorMatrix type="matrix" values="0 0 0 0 0.101961 0 0 0 0 0.309804 0 0 0 0 0.505882 0 0 0 0.08 0"/>
<feBlend mode="normal" in2="BackgroundImageFix" result="effect1_dropShadow_2034_3148"/>
<feBlend mode="normal" in="SourceGraphic" in2="effect1_dropShadow_2034_3148" result="shape"/>
</filter>
<clipPath id="clip0_2034_3148">
<rect width="407" height="387" fill="white"/>
</clipPath>
</defs>
</svg>
