<svg width="65" height="65" viewBox="0 0 65 65" fill="none" xmlns="http://www.w3.org/2000/svg">
<g clip-path="url(#clip0_2046_536)">
<path d="M65 26.9141C65 22.7139 61.5829 19.2969 57.3828 19.2969H54.7798C53.3774 19.2969 52.2407 20.4336 52.2407 21.8359C52.2407 23.2383 53.3774 24.375 54.7798 24.375H57.3828C58.7829 24.375 59.9219 25.514 59.9219 26.9141V37.0703C59.9219 38.4704 58.7829 39.6094 57.3828 39.6094H7.61719C6.21715 39.6094 5.07812 38.4704 5.07812 37.0703V26.9141C5.07812 25.514 6.21715 24.375 7.61719 24.375H10.2204C11.6227 24.375 12.7594 23.2383 12.7594 21.8359C12.7594 20.4336 11.6227 19.2969 10.2204 19.2969H7.61719C3.41707 19.2969 0 22.7139 0 26.9141V37.0703C0 39.0198 0.736963 40.7997 1.94581 42.1484C0.736963 43.4972 0 45.2771 0 47.2266V57.3828C0 61.5829 3.41707 65 7.61719 65H57.3828C61.5829 65 65 61.5829 65 57.3828V47.2266C65 45.2771 64.263 43.4972 63.0542 42.1484C64.263 40.7997 65 39.0198 65 37.0703V26.9141ZM59.9219 57.3828C59.9219 58.7829 58.7829 59.9219 57.3828 59.9219H7.61719C6.21715 59.9219 5.07812 58.7829 5.07812 57.3828V47.2266C5.07812 45.8265 6.21715 44.6875 7.61719 44.6875H57.3828C58.7829 44.6875 59.9219 45.8265 59.9219 47.2266V57.3828Z" fill="#072D58"/>
<path d="M52.8125 49.7656H47.7344C46.3321 49.7656 45.1953 50.9024 45.1953 52.3047C45.1953 53.707 46.3321 54.8438 47.7344 54.8438H52.8125C54.2148 54.8438 55.3516 53.707 55.3516 52.3047C55.3516 50.9024 54.2148 49.7656 52.8125 49.7656Z" fill="#072D58"/>
<path d="M47.7344 34.5312H52.8125C54.2148 34.5312 55.3516 33.3945 55.3516 31.9922C55.3516 30.5899 54.2148 29.4531 52.8125 29.4531H47.7344C46.3321 29.4531 45.1953 30.5899 45.1953 31.9922C45.1953 33.3945 46.3321 34.5312 47.7344 34.5312Z" fill="#072D58"/>
<path d="M12.1875 54.8438C13.5898 54.8438 14.7266 53.707 14.7266 52.3047C14.7266 50.9024 13.5898 49.7656 12.1875 49.7656C10.7852 49.7656 9.64844 50.9024 9.64844 52.3047C9.64844 53.707 10.7852 54.8438 12.1875 54.8438Z" fill="#072D58"/>
<path d="M22.3438 54.8438C23.746 54.8438 24.8828 53.707 24.8828 52.3047C24.8828 50.9024 23.746 49.7656 22.3438 49.7656C20.9415 49.7656 19.8047 50.9024 19.8047 52.3047C19.8047 53.707 20.9415 54.8438 22.3438 54.8438Z" fill="#072D58"/>
<path d="M12.1875 34.5312C13.5898 34.5312 14.7266 33.3945 14.7266 31.9922C14.7266 30.5899 13.5898 29.4531 12.1875 29.4531C10.7852 29.4531 9.64844 30.5899 9.64844 31.9922C9.64844 33.3945 10.7852 34.5312 12.1875 34.5312Z" fill="#072D58"/>
<path d="M32.5 34.5312C30.6434 34.5312 28.8545 33.8555 27.4631 32.6283L22.4288 28.1884C19.1476 25.2959 17.2656 21.1296 17.2656 16.7578V10.1562C17.2656 8.27658 18.2964 6.55929 19.9555 5.67417L28.9185 0.893369C30.0143 0.308877 31.2527 0 32.5 0C33.7473 0 34.9857 0.308877 36.0815 0.893369L45.0446 5.67417C46.7036 6.55916 47.7344 8.27658 47.7344 10.1562V16.7578C47.7344 21.1286 45.8531 25.2944 42.5728 28.1871L37.5369 32.6283C36.1455 33.8555 34.3567 34.5312 32.5 34.5312ZM22.3455 10.1547L22.3438 16.7578C22.3438 19.6724 23.5989 22.4504 25.7872 24.3796L30.8219 28.8198C31.2852 29.2282 31.8811 29.4531 32.5 29.4531C33.1189 29.4531 33.7148 29.2282 34.1781 28.8198L39.214 24.3784C41.4016 22.4492 42.6562 19.6718 42.6562 16.7578V10.1562L33.6916 5.37393C33.3235 5.17766 32.9226 5.07812 32.5 5.07812C32.0774 5.07812 31.6765 5.17766 31.3083 5.37393L22.3455 10.1547Z" fill="#072D58"/>
</g>
<defs>
<clipPath id="clip0_2046_536">
<rect width="65" height="65" fill="white"/>
</clipPath>
</defs>
</svg>
