<svg width="65" height="65" viewBox="0 0 65 65" fill="none" xmlns="http://www.w3.org/2000/svg">
<g clip-path="url(#clip0_2046_508)">
<path d="M54.8438 0H22.8516C21.4492 0 20.3125 1.13674 20.3125 2.53906V7.61719C20.3125 11.8173 23.7296 15.2344 27.9297 15.2344H59.9219V54.8438C59.9219 57.6438 57.6438 59.9219 54.8438 59.9219H10.1562C7.35617 59.9219 5.07812 57.6438 5.07812 54.8438V10.1562C5.07812 7.35617 7.35617 5.07812 10.1562 5.07812H12.6953C14.0976 5.07812 15.2344 3.94139 15.2344 2.53906C15.2344 1.13674 14.0976 0 12.6953 0H10.1562C4.55609 0 0 4.55609 0 10.1562V54.8438C0 60.4439 4.55609 65 10.1562 65H54.8438C60.4439 65 65 60.4439 65 54.8438V10.1562C65 4.55609 60.4439 0 54.8438 0ZM27.9297 10.1562C26.5296 10.1562 25.3906 9.01723 25.3906 7.61719V5.07812H54.8438C57.6438 5.07812 59.9219 7.35617 59.9219 10.1562H27.9297Z" fill="#F08021"/>
<path d="M22.3438 19.8047C18.1436 19.8047 14.7266 23.2218 14.7266 27.4219C14.7266 31.622 18.1436 35.0391 22.3438 35.0391C26.5439 35.0391 29.9609 31.622 29.9609 27.4219C29.9609 23.2218 26.5439 19.8047 22.3438 19.8047ZM22.3438 29.9609C20.9437 29.9609 19.8047 28.8219 19.8047 27.4219C19.8047 26.0218 20.9437 24.8828 22.3438 24.8828C23.7438 24.8828 24.8828 26.0218 24.8828 27.4219C24.8828 28.8219 23.7438 29.9609 22.3438 29.9609Z" fill="#F08021"/>
<path d="M50.2734 27.4219C50.2734 23.2218 46.8564 19.8047 42.6562 19.8047C38.4561 19.8047 35.0391 23.2218 35.0391 27.4219C35.0391 31.622 38.4561 35.0391 42.6562 35.0391C46.8564 35.0391 50.2734 31.622 50.2734 27.4219ZM40.1172 27.4219C40.1172 26.0218 41.2562 24.8828 42.6562 24.8828C44.0563 24.8828 45.1953 26.0218 45.1953 27.4219C45.1953 28.8219 44.0563 29.9609 42.6562 29.9609C41.2562 29.9609 40.1172 28.8219 40.1172 27.4219Z" fill="#F08021"/>
<path d="M50.2734 47.7344C50.2734 43.5343 46.8564 40.1172 42.6562 40.1172C38.4561 40.1172 35.0391 43.5343 35.0391 47.7344C35.0391 51.9345 38.4561 55.3516 42.6562 55.3516C46.8564 55.3516 50.2734 51.9345 50.2734 47.7344ZM40.1172 47.7344C40.1172 46.3343 41.2562 45.1953 42.6562 45.1953C44.0563 45.1953 45.1953 46.3343 45.1953 47.7344C45.1953 49.1344 44.0563 50.2734 42.6562 50.2734C41.2562 50.2734 40.1172 49.1344 40.1172 47.7344Z" fill="#F08021"/>
<path d="M22.3438 40.1172C18.1436 40.1172 14.7266 43.5343 14.7266 47.7344C14.7266 51.9345 18.1436 55.3516 22.3438 55.3516C26.5439 55.3516 29.9609 51.9345 29.9609 47.7344C29.9609 43.5343 26.5439 40.1172 22.3438 40.1172ZM22.3438 50.2734C20.9437 50.2734 19.8047 49.1344 19.8047 47.7344C19.8047 46.3343 20.9437 45.1953 22.3438 45.1953C23.7438 45.1953 24.8828 46.3343 24.8828 47.7344C24.8828 49.1344 23.7438 50.2734 22.3438 50.2734Z" fill="#F08021"/>
</g>
<defs>
<clipPath id="clip0_2046_508">
<rect width="65" height="65" fill="white"/>
</clipPath>
</defs>
</svg>
