<svg width="65" height="65" viewBox="0 0 65 65" fill="none" xmlns="http://www.w3.org/2000/svg">
<g clip-path="url(#clip0_2046_534)">
<path d="M41.513 65C40.1108 65 38.9742 63.8633 38.9742 62.4611V55.86H24.5026V62.4611C24.3778 65.8261 19.5485 65.8236 19.4248 62.4611V55.86H5.08019V62.4611C4.9554 65.8261 0.126085 65.8236 0.00244141 62.4611V19.8156C0.00244141 15.8813 1.87004 12.108 4.99831 9.72197L14.3287 2.60564C18.3831 -0.486838 23.8657 -0.857894 28.2959 1.66003C29.5149 2.35289 29.9415 3.90275 29.2486 5.12192C28.5558 6.34083 27.0058 6.76736 25.7867 6.07463C23.1297 4.56451 19.841 4.78755 17.4079 6.64321L8.07758 13.7595C6.20059 15.1911 5.08006 17.4551 5.08006 19.8158V50.7824H38.974V29.7098C39.0988 26.3447 43.9281 26.3473 44.0518 29.7098V40.6269H47.8601C51.3599 40.6269 54.2073 43.4743 54.2073 46.9741V48.2435C54.0825 51.6086 49.2532 51.606 49.1295 48.2435V46.9741C49.1295 46.2741 48.5601 45.7047 47.8601 45.7047H44.0518V62.4612C44.0519 63.8633 42.9153 65 41.513 65ZM22.0906 41.2615C17.5409 41.2615 13.8393 37.5374 13.8393 32.9598C13.8393 32.1789 13.8393 29.8028 18.3798 23.999C20.1696 21.6029 24.0119 21.6033 25.8016 23.999C30.3421 29.8028 30.3421 32.1789 30.3421 32.9598C30.342 37.5374 26.6404 41.2615 22.0906 41.2615ZM22.0906 27.4998C18.9851 31.5461 18.9174 32.9472 18.9171 32.9613C19.0787 37.2321 25.1052 37.2286 25.2642 32.9597C25.2639 32.9472 25.1961 31.5461 22.0906 27.4998ZM42.0071 17.7769C41.3568 17.7769 40.7067 17.5288 40.2108 17.0323C39.2199 16.0403 39.2208 14.4327 40.213 13.4418C42.4755 11.182 45.8441 9.77859 49.0047 9.77948C52.077 9.77948 55.3904 11.1826 57.652 13.4419C58.644 14.4329 58.6448 16.0405 57.6539 17.0324C56.6629 18.0242 55.0554 18.0252 54.0634 17.0343C51.1283 14.1224 46.7125 14.2196 43.8014 17.0344C43.3057 17.5294 42.6564 17.7769 42.0071 17.7769ZM35.5467 11.0489C33.3209 11.0625 32.1526 8.3129 33.7462 6.71988C42.15 -2.04736 55.8548 -1.93628 64.2588 6.71988C65.2476 7.71385 65.2433 9.32134 64.249 10.3101C63.2549 11.299 61.6472 11.2944 60.6586 10.3003C54.1486 3.617 43.8607 3.52039 37.347 10.3003C36.8509 10.7991 36.1988 11.0489 35.5467 11.0489ZM48.8758 20.3158C47.4735 20.3158 46.3369 21.4525 46.3369 22.8547C46.4613 26.2188 51.2906 26.2179 51.4146 22.8547C51.4146 21.4525 50.278 20.3158 48.8758 20.3158Z" fill="#F08021"/>
</g>
<defs>
<clipPath id="clip0_2046_534">
<rect width="65" height="65" fill="white"/>
</clipPath>
</defs>
</svg>
