<svg width="65" height="65" viewBox="0 0 65 65" fill="none" xmlns="http://www.w3.org/2000/svg">
<g clip-path="url(#clip0_2046_529)">
<path d="M57.3828 49.7656C54.7157 49.7656 52.3658 51.1447 51.0047 53.2261C51.0047 53.2261 47.1623 52.2406 47.1465 52.2368C45.9977 51.9656 45.1953 50.9493 45.1953 49.7656V40.625H52.3047C59.3049 40.625 65 34.9299 65 27.9297C65 24.539 63.792 21.3742 61.5985 19.018C59.8578 17.1479 57.6181 15.9218 55.1388 15.4511C54.0446 9.55602 48.8635 5.07812 42.6562 5.07812C41.7672 5.07812 40.9185 5.16407 40.0943 5.33876C36.7913 1.92639 32.2618 0 27.4219 0C22.6667 0 18.2014 1.84653 14.8482 5.19962C12.0444 8.00338 10.2937 11.5854 9.79545 15.4638C7.34233 15.9437 5.12687 17.1646 3.40133 19.0181C1.20796 21.3743 0 24.5392 0 27.9297C0 34.9299 5.69512 40.625 12.6953 40.625H19.8047V49.7656C19.8047 50.9493 19.0023 51.9656 17.8535 52.2368C17.8377 52.2406 13.9953 53.2261 13.9953 53.2261C12.6342 51.1447 10.2843 49.7656 7.61719 49.7656C3.41707 49.7656 0 53.1827 0 57.3828C0 61.5829 3.41707 65 7.61719 65C11.5546 65 14.8039 61.9969 15.1949 58.1609L19.047 57.1727C22.4844 56.3484 24.8828 53.3065 24.8828 49.7656V40.625H32.5C33.9023 40.625 35.0391 39.4883 35.0391 38.0859C35.0391 36.6836 33.9023 35.5469 32.5 35.5469H12.6953C8.4952 35.5469 5.07812 32.1298 5.07812 27.9297C5.07812 23.5871 8.13452 20.3125 12.1875 20.3125C13.5898 20.3125 14.7266 19.1758 14.7266 17.7734C14.7266 10.7732 20.4217 5.07812 27.4219 5.07812C31.2917 5.07812 34.8796 6.80126 37.2657 9.8056C37.9539 10.6722 39.1243 10.9931 40.1582 10.5991C40.9402 10.3011 41.7573 10.1562 42.6562 10.1562C46.8564 10.1562 50.2734 13.5733 50.2734 17.7734C50.2734 19.1758 51.4102 20.3125 52.8125 20.3125C56.8655 20.3125 59.9219 23.5871 59.9219 27.9297C59.9219 32.1298 56.5048 35.5469 52.3047 35.5469H42.6562C41.2539 35.5469 40.1172 36.6836 40.1172 38.0859V49.7656C40.1172 53.3065 42.5156 56.3484 45.953 57.1727L49.8051 58.1609C50.1961 61.9969 53.4454 65 57.3828 65C61.5829 65 65 61.5829 65 57.3828C65 53.1827 61.5829 49.7656 57.3828 49.7656ZM7.61719 59.9219C6.21715 59.9219 5.07812 58.7829 5.07812 57.3828C5.07812 55.9828 6.21715 54.8438 7.61719 54.8438C9.01723 54.8438 10.1562 55.9828 10.1562 57.3828C10.1562 58.7829 9.01723 59.9219 7.61719 59.9219ZM57.3828 59.9219C55.9828 59.9219 54.8438 58.7829 54.8438 57.3828C54.8438 55.9828 55.9828 54.8438 57.3828 54.8438C58.7829 54.8438 59.9219 55.9828 59.9219 57.3828C59.9219 58.7829 58.7829 59.9219 57.3828 59.9219Z" fill="#072D58"/>
<path d="M32.5 65C31.0977 65 29.9609 63.8633 29.9609 62.4609V47.2266C29.9609 45.8242 31.0977 44.6875 32.5 44.6875C33.9023 44.6875 35.0391 45.8242 35.0391 47.2266V62.4609C35.0391 63.8633 33.9023 65 32.5 65Z" fill="#072D58"/>
</g>
<defs>
<clipPath id="clip0_2046_529">
<rect width="65" height="65" fill="white"/>
</clipPath>
</defs>
</svg>
