<svg width="65" height="65" viewBox="0 0 65 65" fill="none" xmlns="http://www.w3.org/2000/svg">
<g clip-path="url(#clip0_2046_520)">
<path d="M42.6562 14.7266C44.0585 14.7266 45.1953 13.5898 45.1953 12.1875C45.1953 10.7852 44.0585 9.64844 42.6562 9.64844C41.254 9.64844 40.1172 10.7852 40.1172 12.1875C40.1172 13.5898 41.254 14.7266 42.6562 14.7266Z" fill="#F08021"/>
<path d="M52.8125 14.7266C54.2148 14.7266 55.3516 13.5898 55.3516 12.1875C55.3516 10.7852 54.2148 9.64844 52.8125 9.64844C51.4102 9.64844 50.2734 10.7852 50.2734 12.1875C50.2734 13.5898 51.4102 14.7266 52.8125 14.7266Z" fill="#F08021"/>
<path d="M57.3828 0H7.61719C3.41707 0 0 3.41707 0 7.61719V57.3828C0 61.5829 3.41707 65 7.61719 65H57.3828C61.5829 65 65 61.5829 65 57.3828V32.5C65 31.0977 63.8633 29.9609 62.4609 29.9609C61.0586 29.9609 59.9219 31.0977 59.9219 32.5V57.3828C59.9219 58.7829 58.7829 59.9219 57.3828 59.9219H7.61719C6.21715 59.9219 5.07812 58.7829 5.07812 57.3828V14.7266H22.3438C23.3182 14.7266 24.2638 15.0026 25.0784 15.5247L37.1813 23.2818C38.8153 24.3292 40.7085 24.8828 42.6562 24.8828H62.4609C63.8633 24.8828 65 23.7461 65 22.3438V7.61719C65 3.41707 61.5829 0 57.3828 0ZM59.9219 19.8047H42.6562C41.6818 19.8047 40.7362 19.5287 39.9216 19.0065L27.8187 11.2494C26.1847 10.2021 24.2915 9.64844 22.3438 9.64844H5.07812V7.61719C5.07812 6.21715 6.21715 5.07812 7.61719 5.07812H57.3828C58.7829 5.07812 59.9219 6.21715 59.9219 7.61719V19.8047Z" fill="#F08021"/>
<path d="M22.8516 22.3438C15.8512 22.3438 10.1562 28.0389 10.1562 35.0391C10.1562 37.6471 10.9418 40.1535 12.4278 42.2873L20.768 54.2634C21.2427 54.9452 22.0209 55.3514 22.8516 55.3514C23.6822 55.3514 24.4604 54.9451 24.9351 54.2634L33.2753 42.2873C34.7613 40.1535 35.5469 37.6471 35.5469 35.0391C35.5469 28.0389 29.8519 22.3438 22.8516 22.3438ZM29.1082 39.3853L22.8516 48.3695L16.5949 39.3853C15.7049 38.1071 15.2344 36.6043 15.2344 35.0391C15.2344 30.8389 18.6514 27.4219 22.8516 27.4219C27.0517 27.4219 30.4688 30.8389 30.4688 35.0391C30.4688 36.6043 29.9983 38.1071 29.1082 39.3853Z" fill="#F08021"/>
<path d="M22.8516 37.5781C24.2538 37.5781 25.3906 36.4413 25.3906 35.0391C25.3906 33.6368 24.2538 32.5 22.8516 32.5C21.4493 32.5 20.3125 33.6368 20.3125 35.0391C20.3125 36.4413 21.4493 37.5781 22.8516 37.5781Z" fill="#F08021"/>
<path d="M35.228 55.3516H42.6562C46.8563 55.3516 50.2734 51.9345 50.2734 47.7344C50.2734 46.3321 49.1366 45.1953 47.7343 45.1953C46.332 45.1953 45.1952 46.3321 45.1952 47.7344C45.1952 49.1344 44.0562 50.2734 42.6562 50.2734H35.228C33.8257 50.2734 32.689 51.4102 32.689 52.8125C32.689 54.2148 33.8257 55.3516 35.228 55.3516Z" fill="#F08021"/>
<path d="M52.0689 30.7047C51.0772 29.713 49.4695 29.713 48.478 30.7047L47.7343 31.4482L46.9907 30.7047C45.9991 29.713 44.3914 29.713 43.3999 30.7047C42.4084 31.6963 42.4084 33.3039 43.3999 34.2954L44.1436 35.0391L43.3999 35.7828C42.4084 36.7744 42.4084 38.382 43.3999 39.3735C44.3914 40.365 45.9992 40.365 46.9907 39.3735L47.7343 38.63L48.4779 39.3735C49.4694 40.365 51.0772 40.365 52.0687 39.3735C53.0602 38.3819 53.0602 36.7743 52.0687 35.7828L51.3252 35.0391L52.0689 34.2954C53.0602 33.3039 53.0602 31.6962 52.0689 30.7047Z" fill="#F08021"/>
</g>
<defs>
<clipPath id="clip0_2046_520">
<rect width="65" height="65" fill="white"/>
</clipPath>
</defs>
</svg>
