<svg width="20" height="20" viewBox="0 0 20 20" fill="none" xmlns="http://www.w3.org/2000/svg">
<mask id="mask0_2049_2237" style="mask-type:alpha" maskUnits="userSpaceOnUse" x="0" y="0" width="20" height="20">
<rect width="20" height="20" fill="#D9D9D9"/>
</mask>
<g mask="url(#mask0_2049_2237)">
<path d="M10.0004 9.19021C10.8899 9.19021 11.644 8.88091 12.2627 8.26229C12.8813 7.64354 13.1906 6.88945 13.1906 6V3.55979H6.81022V6C6.81022 6.88945 7.11953 7.64354 7.73814 8.26229C8.35689 8.88091 9.11099 9.19021 10.0004 9.19021ZM4.70168 18.1694C4.45946 18.1694 4.25376 18.0863 4.0846 17.9202C3.91557 17.754 3.83105 17.5503 3.83105 17.3092C3.83105 17.0681 3.91453 16.8629 4.08147 16.6938C4.24855 16.5247 4.45328 16.4402 4.69564 16.4402H5.08105V14C5.08105 13.1939 5.26633 12.4418 5.63689 11.7438C6.00758 11.0456 6.52522 10.4643 7.1898 10C6.53911 9.5357 6.02494 8.95445 5.6473 8.25625C5.2698 7.5582 5.08105 6.80611 5.08105 6V3.55979H4.69564C4.45328 3.55979 4.24855 3.47674 4.08147 3.31063C3.91453 3.14438 3.83105 2.9407 3.83105 2.69959C3.83105 2.45848 3.91453 2.25334 4.08147 2.08417C4.24842 1.91514 4.453 1.83063 4.69522 1.83063H15.2992C15.5414 1.83063 15.7471 1.91368 15.9163 2.07979C16.0853 2.24604 16.1698 2.44972 16.1698 2.69084C16.1698 2.93195 16.0863 3.13709 15.9194 3.30625C15.7523 3.47528 15.5476 3.55979 15.3052 3.55979H14.9198V6C14.9198 6.80611 14.7319 7.5582 14.3561 8.25625C13.9801 8.95445 13.4651 9.5357 12.8111 10C13.479 10.4643 13.9974 11.0456 14.3665 11.7438C14.7354 12.4418 14.9198 13.1939 14.9198 14V16.4402H15.3052C15.5476 16.4402 15.7523 16.5233 15.9194 16.6894C16.0863 16.8556 16.1698 17.0593 16.1698 17.3004C16.1698 17.5415 16.0863 17.7467 15.9194 17.9158C15.7524 18.0849 15.5479 18.1694 15.3056 18.1694H4.70168Z" fill="#667A91"/>
</g>
</svg>
