<svg width="435" height="564" viewBox="0 0 435 564" fill="none" xmlns="http://www.w3.org/2000/svg">
<circle opacity="0.5" cx="217" cy="492" r="70" stroke="#5687B9" stroke-width="3" stroke-linecap="round" stroke-dasharray="4 12"/>
<circle opacity="0.5" cx="217" cy="492" r="59" stroke="#5687B9" stroke-width="3" stroke-linecap="round"/>
<circle opacity="0.5" cx="72" cy="72" r="70" stroke="#5687B9" stroke-width="3" stroke-linecap="round" stroke-dasharray="4 12"/>
<circle opacity="0.5" cx="363" cy="72" r="70" stroke="#5687B9" stroke-width="3" stroke-linecap="round" stroke-dasharray="4 12"/>
<path d="M217 459C203.255 471.552 189 469.559 189 469.559L189.213 489.532C189.383 505.561 199.468 519.809 214.617 525.237C216.106 525.746 217 526 217 526C217 526 217.894 525.788 219.383 525.237C229.596 521.59 237.468 513.915 241.638 504.416C238.702 506.07 233.723 508.19 226.745 509.08C224.277 511.37 221.085 513.618 217.043 515.314C203.851 509.801 199.851 498.522 199.851 498.522C206.277 501.447 217.043 501.829 217.043 501.829C217.043 501.829 223 501.617 228.702 500.303C230.149 499.963 231.681 499.497 233.213 498.946C233.553 498.818 233.894 498.649 234.234 498.522C234.234 498.522 234.234 498.522 234.234 498.564C237.851 497.122 241.596 495.044 244.66 492.076C244.745 491.228 244.787 490.38 244.787 489.532L245 469.559C245 469.559 230.745 471.552 217 459ZM235.213 486.521C235.213 486.521 228.106 491.355 217.681 491.355C207.255 491.355 200.106 486.521 200.106 486.521V479.142C210.149 477.234 217.638 471.425 217.638 471.425C217.638 471.425 224.532 477.277 235.17 479.142V486.521H235.213Z" fill="#F08021"/>
<path fill-rule="evenodd" clip-rule="evenodd" d="M145.417 58C145.417 58.8284 144.745 59.5 143.917 59.5H142V58V56.5H143.917C144.745 56.5 145.417 57.1716 145.417 58ZM155.417 56.5C154.588 56.5 153.917 57.1716 153.917 58C153.917 58.8284 154.588 59.5 155.417 59.5H159.25C160.078 59.5 160.75 58.8284 160.75 58C160.75 57.1716 160.078 56.5 159.25 56.5H155.417ZM170.75 56.5C169.922 56.5 169.25 57.1716 169.25 58C169.25 58.8284 169.922 59.5 170.75 59.5H174.583C175.412 59.5 176.083 58.8284 176.083 58C176.083 57.1716 175.412 56.5 174.583 56.5H170.75ZM186.083 56.5C185.255 56.5 184.583 57.1716 184.583 58C184.583 58.8284 185.255 59.5 186.083 59.5H188C188.392 59.5 188.783 59.5079 189.171 59.5236C189.404 59.533 189.636 59.5452 189.867 59.5601C190.694 59.6136 191.407 58.9867 191.461 58.16C191.514 57.3333 190.887 56.6198 190.061 56.5664C189.864 56.5537 189.668 56.5428 189.47 56.5337C188.983 56.5113 188.493 56.5 188 56.5H186.083ZM199.927 60.4233C200.294 59.6806 201.193 59.376 201.936 59.743C203.173 60.3543 204.364 61.0444 205.503 61.8066C206.191 62.2675 206.376 63.1991 205.915 63.8875C205.454 64.5759 204.522 64.7604 203.834 64.2995C202.804 63.6097 201.726 62.9855 200.607 62.4326C199.864 62.0656 199.56 61.1661 199.927 60.4233ZM212.112 70.0851C212.801 69.6242 213.733 69.8087 214.193 70.4971C214.956 71.6356 215.646 72.8268 216.257 74.064C216.624 74.8067 216.319 75.7063 215.577 76.0733C214.834 76.4402 213.934 76.1356 213.567 75.3929C213.015 74.2739 212.39 73.1963 211.701 72.166C211.24 71.4776 211.424 70.5459 212.112 70.0851ZM217.84 84.5392C218.667 84.4857 219.38 85.1126 219.434 85.9393C219.439 86.0245 219.444 86.1097 219.449 86.1951C219.483 86.7926 219.5 87.3944 219.5 88V89.9881C219.5 90.8165 218.828 91.4881 218 91.4881C217.172 91.4881 216.5 90.8165 216.5 89.9881V88C216.5 87.3724 216.48 86.7498 216.44 86.1328C216.386 85.3061 217.013 84.5926 217.84 84.5392ZM216.5 101.917C216.5 101.088 217.172 100.417 218 100.417C218.828 100.417 219.5 101.088 219.5 101.917V105.893C219.5 106.721 218.828 107.393 218 107.393C217.172 107.393 216.5 106.721 216.5 105.893V101.917ZM216.5 117.821C216.5 116.993 217.172 116.321 218 116.321C218.828 116.321 219.5 116.993 219.5 117.821V121.798C219.5 122.626 218.828 123.298 218 123.298C217.172 123.298 216.5 122.626 216.5 121.798V117.821ZM216.5 133.726C216.5 132.898 217.172 132.226 218 132.226C218.828 132.226 219.5 132.898 219.5 133.726V137.702C219.5 138.531 218.828 139.202 218 139.202C217.172 139.202 216.5 138.531 216.5 137.702V133.726ZM216.5 149.631C216.5 148.803 217.172 148.131 218 148.131C218.828 148.131 219.5 148.803 219.5 149.631V153.607C219.5 154.436 218.828 155.107 218 155.107C217.172 155.107 216.5 154.436 216.5 153.607V149.631ZM216.5 165.536C216.5 164.707 217.172 164.036 218 164.036C218.828 164.036 219.5 164.707 219.5 165.536V169.512C219.5 170.34 218.828 171.012 218 171.012C217.172 171.012 216.5 170.34 216.5 169.512V165.536ZM216.5 181.44C216.5 180.612 217.172 179.94 218 179.94C218.828 179.94 219.5 180.612 219.5 181.44V185.417C219.5 186.245 218.828 186.917 218 186.917C217.172 186.917 216.5 186.245 216.5 185.417V181.44ZM216.5 197.345C216.5 196.517 217.172 195.845 218 195.845C218.828 195.845 219.5 196.517 219.5 197.345V201.321C219.5 202.15 218.828 202.821 218 202.821C217.172 202.821 216.5 202.15 216.5 201.321V197.345ZM216.5 213.25C216.5 212.422 217.172 211.75 218 211.75C218.828 211.75 219.5 212.422 219.5 213.25V217.226C219.5 218.055 218.828 218.726 218 218.726C217.172 218.726 216.5 218.055 216.5 217.226V213.25ZM216.5 229.155C216.5 228.326 217.172 227.655 218 227.655C218.828 227.655 219.5 228.326 219.5 229.155V233.131C219.5 233.959 218.828 234.631 218 234.631C217.172 234.631 216.5 233.959 216.5 233.131V229.155ZM216.5 245.06C216.5 244.231 217.172 243.56 218 243.56C218.828 243.56 219.5 244.231 219.5 245.06V249.036C219.5 249.864 218.828 250.536 218 250.536C217.172 250.536 216.5 249.864 216.5 249.036V245.06ZM216.5 260.964C216.5 260.136 217.172 259.464 218 259.464C218.828 259.464 219.5 260.136 219.5 260.964V264.941C219.5 265.769 218.828 266.441 218 266.441C217.172 266.441 216.5 265.769 216.5 264.941V260.964ZM216.5 276.869C216.5 276.041 217.172 275.369 218 275.369C218.828 275.369 219.5 276.041 219.5 276.869V280.845C219.5 281.674 218.828 282.345 218 282.345C217.172 282.345 216.5 281.674 216.5 280.845V276.869ZM216.5 292.774C216.5 291.945 217.172 291.274 218 291.274C218.828 291.274 219.5 291.945 219.5 292.774V296.75C219.5 297.578 218.828 298.25 218 298.25C217.172 298.25 216.5 297.578 216.5 296.75V292.774ZM216.5 308.679C216.5 307.85 217.172 307.179 218 307.179C218.828 307.179 219.5 307.85 219.5 308.679V312.655C219.5 313.483 218.828 314.155 218 314.155C217.172 314.155 216.5 313.483 216.5 312.655V308.679ZM216.5 324.583C216.5 323.755 217.172 323.083 218 323.083C218.828 323.083 219.5 323.755 219.5 324.583V328.56C219.5 329.388 218.828 330.06 218 330.06C217.172 330.06 216.5 329.388 216.5 328.56V324.583ZM216.5 340.488C216.5 339.66 217.172 338.988 218 338.988C218.828 338.988 219.5 339.66 219.5 340.488V344.464C219.5 345.293 218.828 345.964 218 345.964C217.172 345.964 216.5 345.293 216.5 344.464V340.488ZM216.5 356.393C216.5 355.564 217.172 354.893 218 354.893C218.828 354.893 219.5 355.564 219.5 356.393V360.369C219.5 361.198 218.828 361.869 218 361.869C217.172 361.869 216.5 361.198 216.5 360.369V356.393ZM216.5 372.298C216.5 371.469 217.172 370.798 218 370.798C218.828 370.798 219.5 371.469 219.5 372.298V376.274C219.5 377.102 218.828 377.774 218 377.774C217.172 377.774 216.5 377.102 216.5 376.274V372.298ZM216.5 388.202C216.5 387.374 217.172 386.702 218 386.702C218.828 386.702 219.5 387.374 219.5 388.202V392.179C219.5 393.007 218.828 393.679 218 393.679C217.172 393.679 216.5 393.007 216.5 392.179V388.202ZM216.5 404.107C216.5 403.279 217.172 402.607 218 402.607C218.828 402.607 219.5 403.279 219.5 404.107V408.083C219.5 408.912 218.828 409.583 218 409.583C217.172 409.583 216.5 408.912 216.5 408.083V404.107ZM216.5 420.012C216.5 419.184 217.172 418.512 218 418.512C218.828 418.512 219.5 419.184 219.5 420.012V422H218H216.5V420.012Z" fill="#2B5480"/>
<path fill-rule="evenodd" clip-rule="evenodd" d="M218 418.512C218.828 418.512 219.5 419.183 219.5 420.012V422H218H216.5V420.012C216.5 419.183 217.172 418.512 218 418.512ZM216.5 408.083C216.5 408.912 217.172 409.583 218 409.583C218.828 409.583 219.5 408.912 219.5 408.083V404.107C219.5 403.279 218.828 402.607 218 402.607C217.172 402.607 216.5 403.279 216.5 404.107V408.083ZM216.5 392.179C216.5 393.007 217.172 393.679 218 393.679C218.828 393.679 219.5 393.007 219.5 392.179V388.202C219.5 387.374 218.828 386.702 218 386.702C217.172 386.702 216.5 387.374 216.5 388.202V392.179ZM216.5 376.274C216.5 377.102 217.172 377.774 218 377.774C218.828 377.774 219.5 377.102 219.5 376.274V372.298C219.5 371.469 218.828 370.798 218 370.798C217.172 370.798 216.5 371.469 216.5 372.298V376.274ZM216.5 360.369C216.5 361.197 217.172 361.869 218 361.869C218.828 361.869 219.5 361.197 219.5 360.369V356.393C219.5 355.564 218.828 354.893 218 354.893C217.172 354.893 216.5 355.564 216.5 356.393V360.369ZM216.5 344.464C216.5 345.293 217.172 345.964 218 345.964C218.828 345.964 219.5 345.293 219.5 344.464V340.488C219.5 339.66 218.828 338.988 218 338.988C217.172 338.988 216.5 339.66 216.5 340.488V344.464ZM216.5 328.56C216.5 329.388 217.172 330.06 218 330.06C218.828 330.06 219.5 329.388 219.5 328.56V324.583C219.5 323.755 218.828 323.083 218 323.083C217.172 323.083 216.5 323.755 216.5 324.583V328.56ZM216.5 312.655C216.5 313.483 217.172 314.155 218 314.155C218.828 314.155 219.5 313.483 219.5 312.655V308.679C219.5 307.85 218.828 307.179 218 307.179C217.172 307.179 216.5 307.85 216.5 308.679V312.655ZM216.5 296.75C216.5 297.578 217.172 298.25 218 298.25C218.828 298.25 219.5 297.578 219.5 296.75V292.774C219.5 291.945 218.828 291.274 218 291.274C217.172 291.274 216.5 291.945 216.5 292.774V296.75ZM216.5 280.845C216.5 281.674 217.172 282.345 218 282.345C218.828 282.345 219.5 281.674 219.5 280.845V276.869C219.5 276.041 218.828 275.369 218 275.369C217.172 275.369 216.5 276.041 216.5 276.869V280.845ZM216.5 264.94C216.5 265.769 217.172 266.44 218 266.44C218.828 266.44 219.5 265.769 219.5 264.94V260.964C219.5 260.136 218.828 259.464 218 259.464C217.172 259.464 216.5 260.136 216.5 260.964V264.94ZM216.5 249.036C216.5 249.864 217.172 250.536 218 250.536C218.828 250.536 219.5 249.864 219.5 249.036V245.06C219.5 244.231 218.828 243.56 218 243.56C217.172 243.56 216.5 244.231 216.5 245.06V249.036ZM216.5 233.131C216.5 233.959 217.172 234.631 218 234.631C218.828 234.631 219.5 233.959 219.5 233.131V229.155C219.5 228.326 218.828 227.655 218 227.655C217.172 227.655 216.5 228.326 216.5 229.155V233.131ZM216.5 217.226C216.5 218.055 217.172 218.726 218 218.726C218.828 218.726 219.5 218.055 219.5 217.226V213.25C219.5 212.422 218.828 211.75 218 211.75C217.172 211.75 216.5 212.422 216.5 213.25V217.226ZM216.5 201.321C216.5 202.15 217.172 202.821 218 202.821C218.828 202.821 219.5 202.15 219.5 201.321V197.345C219.5 196.517 218.828 195.845 218 195.845C217.172 195.845 216.5 196.517 216.5 197.345V201.321ZM216.5 185.417C216.5 186.245 217.172 186.917 218 186.917C218.828 186.917 219.5 186.245 219.5 185.417V181.44C219.5 180.612 218.828 179.94 218 179.94C217.172 179.94 216.5 180.612 216.5 181.44V185.417ZM216.5 169.512C216.5 170.34 217.172 171.012 218 171.012C218.828 171.012 219.5 170.34 219.5 169.512V165.536C219.5 164.707 218.828 164.036 218 164.036C217.172 164.036 216.5 164.707 216.5 165.536V169.512ZM216.5 153.607C216.5 154.436 217.172 155.107 218 155.107C218.828 155.107 219.5 154.436 219.5 153.607V149.631C219.5 148.802 218.828 148.131 218 148.131C217.172 148.131 216.5 148.802 216.5 149.631V153.607ZM216.5 137.702C216.5 138.531 217.172 139.202 218 139.202C218.828 139.202 219.5 138.531 219.5 137.702V133.726C219.5 132.898 218.828 132.226 218 132.226C217.172 132.226 216.5 132.898 216.5 133.726V137.702ZM216.5 121.798C216.5 122.626 217.172 123.298 218 123.298C218.828 123.298 219.5 122.626 219.5 121.798V117.821C219.5 116.993 218.828 116.321 218 116.321C217.172 116.321 216.5 116.993 216.5 117.821V121.798ZM216.5 105.893C216.5 106.721 217.172 107.393 218 107.393C218.828 107.393 219.5 106.721 219.5 105.893V101.917C219.5 101.088 218.828 100.417 218 100.417C217.172 100.417 216.5 101.088 216.5 101.917V105.893ZM216.5 89.9881C216.5 90.8165 217.172 91.4881 218 91.4881C218.828 91.4881 219.5 90.8165 219.5 89.9881V88C219.5 87.7647 219.503 87.53 219.509 87.2961C219.518 86.9063 219.535 86.5184 219.56 86.1328C219.614 85.3061 218.987 84.5926 218.16 84.5392C217.333 84.4857 216.62 85.1126 216.566 85.9393C216.543 86.2976 216.526 86.6575 216.515 87.0189C216.506 87.3018 216.501 87.5856 216.5 87.8703C216.5 87.9135 216.5 87.9568 216.5 88V89.9881ZM220.423 76.0733C219.681 75.7063 219.376 74.8067 219.743 74.064C220.354 72.8268 221.044 71.6356 221.807 70.4971C222.267 69.8087 223.199 69.6242 223.888 70.0851C224.576 70.546 224.76 71.4776 224.299 72.166C223.61 73.1963 222.985 74.2739 222.433 75.3929C222.066 76.1356 221.166 76.4402 220.423 76.0733ZM230.085 63.8875C229.624 63.1991 229.809 62.2675 230.497 61.8066C231.636 61.0444 232.827 60.3543 234.064 59.743C234.807 59.376 235.706 59.6806 236.073 60.4233C236.44 61.1661 236.136 62.0656 235.393 62.4326C234.274 62.9855 233.196 63.6097 232.166 64.2995C231.478 64.7604 230.546 64.5759 230.085 63.8875ZM244.539 58.16C244.486 57.3333 245.113 56.6198 245.939 56.5664C246.365 56.5389 246.793 56.5198 247.223 56.5094C247.482 56.5031 247.74 56.5 248 56.5H249.917C250.745 56.5 251.417 57.1716 251.417 58C251.417 58.8284 250.745 59.5 249.917 59.5H248C247.698 59.5 247.397 59.5047 247.097 59.514C246.774 59.5241 246.453 59.5395 246.133 59.5601C245.306 59.6136 244.593 58.9867 244.539 58.16ZM261.417 59.5C260.588 59.5 259.917 58.8284 259.917 58C259.917 57.1716 260.588 56.5 261.417 56.5H265.25C266.078 56.5 266.75 57.1716 266.75 58C266.75 58.8284 266.078 59.5 265.25 59.5H261.417ZM276.75 59.5C275.922 59.5 275.25 58.8284 275.25 58C275.25 57.1716 275.922 56.5 276.75 56.5H280.583C281.412 56.5 282.083 57.1716 282.083 58C282.083 58.8284 281.412 59.5 280.583 59.5H276.75ZM292.083 59.5C291.255 59.5 290.583 58.8284 290.583 58C290.583 57.1716 291.255 56.5 292.083 56.5H294V58V59.5H292.083Z" fill="#2B5480"/>
<g clip-path="url(#clip0_5_1266)">
<path d="M41.5391 95.8438C42.9414 95.8438 44.0781 94.707 44.0781 93.3047C44.0781 89.1046 47.4952 85.6875 51.6953 85.6875H81.1484C88.1486 85.6875 93.8438 79.9924 93.8438 72.9922V53.6953C93.8438 46.6951 88.1486 41 81.1484 41H51.6953C44.6951 41 39 46.6951 39 53.6953V93.3047C39 94.707 40.1367 95.8438 41.5391 95.8438ZM44.0781 53.6953C44.0781 49.4952 47.4952 46.0781 51.6953 46.0781H81.1484C85.3486 46.0781 88.7656 49.4952 88.7656 53.6953V72.9922C88.7656 77.1923 85.3486 80.6094 81.1484 80.6094H51.6953C48.8399 80.6094 46.2013 81.5572 44.0781 83.1544V53.6953Z" fill="#F08021"/>
<path d="M101.461 60.2969C100.059 60.2969 98.9219 61.4336 98.9219 62.8359V93.3107C96.7987 91.7135 94.1601 90.7656 91.3047 90.7656H61.3438C59.9414 90.7656 58.8047 91.9024 58.8047 93.3047C58.8047 94.707 59.9414 95.8438 61.3438 95.8438H91.3047C95.5048 95.8438 98.9219 99.2608 98.9219 103.461C98.9219 104.863 100.059 106 101.461 106C102.863 106 104 104.863 104 103.461V62.8359C104 61.4336 102.863 60.2969 101.461 60.2969Z" fill="#F08021"/>
<path d="M54.4703 70.2172C55.4619 71.2089 57.0695 71.2089 58.061 70.2172C59.0527 69.2256 59.0527 67.618 58.061 66.6265L54.7783 63.3437L58.061 60.061C59.0527 59.0693 59.0527 57.4617 58.061 56.4702C57.0694 55.4787 55.4618 55.4786 54.4703 56.4702L49.3922 61.5484C48.4005 62.54 48.4005 64.1476 49.3922 65.1391L54.4703 70.2172Z" fill="#F08021"/>
<path d="M74.7828 70.2173C75.7744 71.2089 77.382 71.2089 78.3735 70.2173L83.4517 65.1392C84.4433 64.1475 84.4433 62.5399 83.4517 61.5484L78.3735 56.4703C77.3819 55.4787 75.7743 55.4787 74.7828 56.4703C73.7913 57.4619 73.7912 59.0695 74.7828 60.061L78.0655 63.3438L74.7828 66.6265C73.7912 67.618 73.7912 69.2258 74.7828 70.2173Z" fill="#F08021"/>
<path d="M66.4978 52.5717L61.4197 72.8842C61.0796 74.2446 61.9067 75.623 63.2671 75.9632C64.6274 76.3034 66.006 75.476 66.3461 74.1157L71.4242 53.8032C71.7643 52.4428 70.9372 51.0643 69.5768 50.7242C68.2166 50.3841 66.8379 51.2114 66.4978 52.5717Z" fill="#F08021"/>
</g>
<g clip-path="url(#clip1_5_1266)">
<path d="M393.461 75.0391C394.863 75.0391 396 73.9023 396 72.5C396 71.0977 394.863 69.9609 393.461 69.9609H390.922V67.4219C390.922 66.0196 389.785 64.8828 388.383 64.8828C386.98 64.8828 385.844 66.0196 385.844 67.4219V92.3047C385.844 93.7047 384.705 94.8438 383.305 94.8438H343.695C342.295 94.8438 341.156 93.7047 341.156 92.3047V52.6953C341.156 51.2953 342.295 50.1562 343.695 50.1562H383.305C384.705 50.1562 385.844 51.2953 385.844 52.6953V57.2656C385.844 58.6679 386.98 59.8047 388.383 59.8047H393.461C394.863 59.8047 396 58.6679 396 57.2656C396 55.8633 394.863 54.7266 393.461 54.7266H390.922V52.6953C390.922 48.4952 387.505 45.0781 383.305 45.0781H381.273V42.5391C381.273 41.1367 380.137 40 378.734 40C377.332 40 376.195 41.1367 376.195 42.5391V45.0781H366.039V42.5391C366.039 41.1367 364.902 40 363.5 40C362.098 40 360.961 41.1367 360.961 42.5391V45.0781H350.805V42.5391C350.805 41.1367 349.668 40 348.266 40C346.863 40 345.727 41.1367 345.727 42.5391V45.0781H343.695C339.495 45.0781 336.078 48.4952 336.078 52.6953V54.7266H333.539C332.137 54.7266 331 55.8633 331 57.2656C331 58.6679 332.137 59.8047 333.539 59.8047H336.078V69.9609H333.539C332.137 69.9609 331 71.0977 331 72.5C331 73.9023 332.137 75.0391 333.539 75.0391H336.078V85.1953H333.539C332.137 85.1953 331 86.3321 331 87.7344C331 89.1367 332.137 90.2734 333.539 90.2734H336.078V92.3047C336.078 96.5048 339.495 99.9219 343.695 99.9219H345.727V102.461C345.727 103.863 346.863 105 348.266 105C349.668 105 350.805 103.863 350.805 102.461V99.9219H360.961V102.461C360.961 103.863 362.098 105 363.5 105C364.902 105 366.039 103.863 366.039 102.461V99.9219H376.195V102.461C376.195 103.863 377.332 105 378.734 105C380.137 105 381.273 103.863 381.273 102.461V99.9219H383.305C387.505 99.9219 390.922 96.5048 390.922 92.3047V90.2734H393.461C394.863 90.2734 396 89.1367 396 87.7344C396 86.3321 394.863 85.1953 393.461 85.1953H390.922V75.0391H393.461Z" fill="#F08021"/>
<path d="M373.656 54.7266H353.344C349.144 54.7266 345.727 58.1436 345.727 62.3438V82.6562C345.727 86.8564 349.144 90.2734 353.344 90.2734H373.656C377.856 90.2734 381.273 86.8564 381.273 82.6562V62.3438C381.273 58.1436 377.856 54.7266 373.656 54.7266ZM373.656 85.1953H366.039V77.5781C366.039 76.1758 364.902 75.0391 363.5 75.0391H358.422C357.02 75.0391 355.883 76.1758 355.883 77.5781C355.883 78.9804 357.02 80.1172 358.422 80.1172H360.961V85.1953H353.344C351.944 85.1953 350.805 84.0563 350.805 82.6562V69.9609H353.344C354.746 69.9609 355.883 68.8242 355.883 67.4219C355.883 66.0196 354.746 64.8828 353.344 64.8828H350.805V62.3438C350.805 60.9437 351.944 59.8047 353.344 59.8047H360.961V67.4219C360.961 68.8242 362.098 69.9609 363.5 69.9609H368.578C369.98 69.9609 371.117 68.8242 371.117 67.4219C371.117 66.0196 369.98 64.8828 368.578 64.8828H366.039V59.8047H373.656C375.056 59.8047 376.195 60.9437 376.195 62.3438V75.0391H373.656C372.254 75.0391 371.117 76.1758 371.117 77.5781C371.117 78.9804 372.254 80.1172 373.656 80.1172H376.195V82.6562C376.195 84.0563 375.056 85.1953 373.656 85.1953Z" fill="#F08021"/>
</g>
<defs>
<clipPath id="clip0_5_1266">
<rect width="65" height="65" fill="white" transform="translate(39 41)"/>
</clipPath>
<clipPath id="clip1_5_1266">
<rect width="65" height="65" fill="white" transform="translate(331 40)"/>
</clipPath>
</defs>
</svg>
