<svg width="1440" height="932" viewBox="0 0 1440 932" fill="none" xmlns="http://www.w3.org/2000/svg">
<g opacity="0.5" filter="url(#filter0_f_2034_2782)">
<ellipse cx="719" cy="466" rx="805" ry="216" fill="#0C3462"/>
</g>
<g opacity="0.35">
<path d="M-64.0214 262.684C75.6894 246.683 208.81 151.253 351.295 164.594C477.401 176.393 591.482 256.823 719.592 254.818C842.037 252.89 948.641 173.27 1066.85 150.829C1216.27 122.451 1374.59 196.982 1523.71 207.123M-45.0978 282.734C93.5338 269.123 224.033 193.82 364.168 198.409C486.304 202.419 596.608 269.085 719.592 268.853C842.692 268.622 956.657 210.4 1078.06 197.561C1225.94 181.906 1376.14 233.381 1523.71 240.398M-29.373 297.231C113.19 288.132 249.586 229.525 392.92 232.494C504.11 234.807 608.286 279.456 719.901 280.96C840.572 282.618 958.777 253.662 1079.06 249.459C1227.72 244.254 1375.21 271.09 1523.71 273.712M-18.6201 313.734C127.835 308.336 270.205 265.036 417.046 266.54C518.987 267.581 617.998 294.031 720.132 296.383C987.413 302.629 1256.47 307.989 1523.75 306.987M-14.6504 339.837C133.424 334.478 279.185 299.082 427.491 300.509C525.385 301.434 621.968 319.595 719.939 321.754C988.299 327.615 1254.93 340.377 1523.71 340.339M-21.9732 373.189C123.249 368.331 264.617 326.381 410.186 328.154C515.518 329.427 615.262 365.825 720.98 368.177C984.175 374.076 1249.99 377.662 1513.19 376.544M-39.3552 406.58C101.82 399.293 240.143 339.22 381.897 350.479C499.755 359.849 602.505 427.517 722.02 430.563C839.107 433.57 952.456 396.131 1068.66 388.612C1209.37 379.513 1347.96 413.598 1488.25 416.759M-60.0131 440.009C72.6061 429.869 202.797 353.332 336.226 370.914C471.928 388.767 584.892 497.768 724.024 499.272C843.81 500.583 952.533 428.558 1068.77 409.433C1199.77 387.88 1328.54 450.266 1458.54 458.401M-77.3179 473.438C49.2889 461.293 169.652 372.071 297.724 393.123C447.686 417.8 570.863 561.503 725.72 562.159C849.205 562.699 952.456 460.059 1068.89 431.758C1193.88 401.336 1311.04 487.165 1433.72 498.617M-84.5636 506.79C40.7714 495.146 153.195 399.64 280.611 420.808C438.167 446.95 563.424 607.734 726.414 607.888C855.14 608.042 949.219 489.633 1068.85 458.748C1195.03 426.167 1301.06 524.026 1423.23 534.822M-84.5636 506.79C-74.5815 452.116 -17.9265 406.079 -15.8067 352.33C-13.6869 298.735 -56.0434 271.629 -84.2553 229.525C60.196 216.107 193.201 116.243 340.234 130.509C470.772 143.156 586.742 231.414 719.554 229.409C845.313 227.481 946.328 134.635 1066.42 109.766C1216.54 78.6884 1374.09 164.209 1523.71 173.848C1523.71 232.956 1535.04 307.989 1516.04 364.283C1497.27 419.882 1422.19 472.976 1426.39 533.935C1430.63 594.971 1508.06 611.705 1523.59 670.39C1542.44 741.644 1523.71 842.047 1523.71 915.962M-84.5636 506.79C-107.226 631.022 -75.1212 769.597 -28.3711 882.493M-84.5636 540.065C41.6193 528.267 156.972 433.994 285.005 455.239C440.363 480.996 565.043 637.192 725.72 637.384C851.787 637.539 950.799 527.65 1068.89 498.077C1193.07 466.999 1311.73 553.792 1433.72 565.205M-84.5636 573.379C41.4266 562.467 155.276 476.446 283.039 488.939C441.982 504.516 561.998 657.935 723.716 660.365C852.211 662.292 956.734 562.159 1080.45 541.377C1206.09 520.247 1333.51 583.944 1458.54 591.578M-84.5636 606.654C44.8953 596.205 163.909 513.075 294.871 524.835C448.765 538.639 565.506 678.834 721.866 683.306C847.818 686.892 957.505 604.803 1080.33 589.612C1214.92 572.994 1353.44 613.633 1488.21 616.564M-84.5251 639.968C49.5586 629.981 180.328 541.993 316.184 560.501C460.25 580.127 572.481 702.546 720.324 708.407C840.264 713.15 952.302 651.227 1069.89 637.346C1215.34 620.149 1367.04 643.631 1513.15 642.937M-84.5637 673.243C50.5221 663.102 183.951 576.348 320.694 595.01C462.409 614.366 574.177 732.12 719.554 737.826C838.144 742.453 952.957 689.051 1069.85 676.597C1218.47 660.75 1374.36 673.281 1523.67 673.243M-82.7908 707.52C52.7575 698.922 181.407 610.317 318.69 629.441C459.557 649.067 575.449 758.763 719.592 764.508C838.645 769.251 954.075 715.27 1071.35 702.431C1221.24 686.044 1373.48 715.656 1523.71 714.345M-77.0482 744.497C57.7293 736.862 177.052 647.872 314.065 664.22C454.778 681.031 576.336 777.964 719.592 781.859C840.264 785.136 955.732 730.963 1074.59 717.892C1226.44 701.158 1372.74 761.038 1523.71 766.475M-66.5651 785.29C65.7844 777.425 173.236 686.815 308.553 699.192C449.498 712.07 576.798 794.737 719.592 796.086C842.114 797.243 957.698 743.186 1078.45 729.845C1234.61 712.61 1371.05 807.114 1523.75 822.306M-50.5707 830.904C77.9632 821.072 171.232 724.91 303.929 733.971C445.219 743.648 577.068 813.784 719.592 813.283C843.578 812.859 959.509 758.686 1081.68 745.114C1243.79 727.107 1368.24 851.841 1523.71 874.512M-28.3326 882.493C91.6067 868.266 166.453 766.089 290.401 768.325C436.008 770.947 573.291 839.502 719.476 839.194C847.856 838.885 967.102 780.895 1093.94 769.058C1255.16 754.059 1369.24 894.099 1523.71 916M-50.956 227.481C-23.5534 269.547 20.6145 298.349 18.4562 351.713C16.2979 405.577 -42.3228 449.996 -52.4591 504.94C-75.0055 627.282 -41.6676 768.672 3.07835 880.141M-17.8879 221.967C8.66676 264.188 56.1106 296.19 53.2586 349.592C50.368 403.727 -12.0682 444.482 -22.744 500.004C-45.3675 617.874 -9.94847 766.012 30.9049 873.895M14.9876 213.639C41.9277 257.17 101.897 299.429 85.633 356.841C70.6021 409.857 16.6833 435.691 6.43138 492.447C-14.3422 607.695 19.2269 757.413 55.9949 864.333M47.7088 203.267C73.5697 246.644 139.552 295.496 120.821 352.407C103.323 405.577 44.5484 425.357 33.2559 483.271C24.3144 529.231 39.7693 582.633 42.0432 628.94C45.9358 708.176 55.5709 775.998 78.9267 852.457M80.2758 191.507C105.096 234.807 177.553 291.062 156.086 347.279C135.736 400.565 71.7197 413.597 59.1554 472.86C49.4045 518.898 68.8676 573.148 71.9124 619.378C76.9612 696.107 80.8153 763.66 100.317 838.962M112.843 179.053C136.7 222.276 215.747 286.474 191.466 341.881C168.11 395.206 98.6213 401.143 84.6695 461.91C74.0707 508.101 97.8503 563.046 101.589 609.315C107.524 683.306 105.751 751.128 121.091 824.696M145.41 166.599C168.38 209.822 253.748 281.963 226.885 336.444C200.562 389.73 125.6 388.612 110.261 450.959C98.8525 497.383 126.949 552.944 131.342 599.29C138.087 670.466 130.957 738.944 141.903 810.468M177.977 154.839C200.138 198.139 291.364 277.837 262.15 331.316C233.09 384.525 152.81 376.775 136.199 440.549C124.02 487.203 156.24 543.304 161.25 589.727C168.65 658.36 156.702 727.57 163.408 796.935M210.698 144.506C232.127 187.96 328.402 274.367 297.338 326.882C265.927 380.014 180.752 366.249 163.023 431.411C150.227 478.374 186.109 534.822 191.659 581.399C199.598 647.988 183.604 717.776 186.34 785.136M243.574 136.254C264.347 179.94 364.669 271.745 332.295 323.412C298.995 376.544 209.658 357.689 191.081 424.085C177.861 471.356 216.672 528.074 222.723 574.767C231.163 639.968 212.124 709.988 211.392 775.69M276.642 130.818C296.76 174.773 400.088 270.357 367.02 321.253C332.449 374.5 240.028 351.674 220.873 419.15C207.384 466.652 248.276 523.602 254.75 570.372C263.653 634.878 242.841 704.821 239.373 769.443M309.98 128.851C329.443 173.115 434.428 270.318 401.36 320.713C366.172 374.308 272.094 348.898 252.785 417.299C239.296 464.994 281.151 522.059 287.934 568.868C297.261 633.336 276.295 703.009 270.938 767.245M343.626 130.856C363.359 175.66 464.336 269.316 432.231 320.366C398.778 373.613 306.896 354.952 288.204 421.579C274.946 468.812 314.99 525.105 321.696 571.567C330.946 635.726 310.635 704.783 305.277 768.672M377.58 136.331C397.352 182.639 490.736 268.815 460.79 321.6C430.304 375.387 342.855 366.905 325.897 432.028C313.641 479.068 350.37 533.164 356.768 579.471C365.478 642.512 346.478 709.795 341.39 772.605M411.689 144.621C431.268 193.281 513.977 268.892 487.422 324.144C460.944 379.243 379.777 383.446 365.286 447.489C354.648 494.375 386.83 545.464 392.727 591.655C400.551 652.923 383.361 717.545 378.736 778.581M445.952 154.993C464.798 206.429 534.634 269.817 512.589 327.615C490.852 384.641 417.586 403.148 405.946 466.652C397.352 513.461 424.677 560.771 429.379 606.963C435.469 666.225 421.054 727.03 417.008 786.062M480.33 166.715C500.988 228.098 558.684 277.22 530.511 344.657C508.658 396.902 454.007 429.329 444.719 488.322C438.398 528.421 460.328 572.801 465.029 612.631C472.16 673.281 459.749 734.048 455.972 794.544M514.786 179.169C532.361 241.67 576.22 282.464 555.716 350.479C538.527 407.467 493.974 450.921 487.653 512.073C483.529 551.671 499.292 592.234 502.877 631.447C508.118 688.936 498.29 746.155 495.284 803.489M549.203 191.584C562.654 253.199 594.141 290.06 580.845 356.263C568.396 418.224 534.365 471.588 530.472 535.786C524.999 626.357 538.219 720.591 534.519 812.473M583.581 203.344C583.736 262.453 613.952 298.35 606.398 361.699C598.42 428.558 574.871 490.365 572.828 558.188C570.208 644.903 573.484 734.086 573.484 820.956M617.883 213.678C615.378 265.614 635.843 311.999 632.76 366.288C628.713 437.542 615.108 506.405 614.144 577.929C613.027 661.213 611.177 745.191 611.793 828.398M651.991 221.929C648.561 269.817 660.894 321.214 660.278 369.681C659.314 444.443 654.419 518.898 653.841 593.66C653.263 673.86 648.253 754.136 649.139 834.335M685.908 227.404C674.846 428.018 683.479 636.652 685.137 838.307M719.592 229.409L719.592 839.733M753.007 226.903C752.622 430.948 754.703 634.377 753.354 838.307M786.345 220.04C785.921 425.049 789.891 629.48 787.655 834.335M819.529 209.668C819.336 416.065 825.04 622.116 822.304 828.359M852.674 196.674C853.714 404.729 860.343 613.016 857.26 820.84M885.742 181.945C887.129 391.813 896.456 602.914 892.371 812.358M918.81 166.329C920.544 378.009 932.107 592.272 927.636 803.335M951.84 150.713C953.882 364.167 967.757 581.823 962.862 794.313M984.946 135.985C986.218 255.165 989.224 374.346 989.378 493.527C989.494 590.306 1000.48 690.247 998.012 785.792M1018.05 122.991C1019.44 241.362 1022.02 359.771 1022.22 478.181C1022.29 537.868 1020.87 597.516 1021.14 657.203C1021.33 698.151 1034.16 738.019 1032.97 778.35M1051.28 112.58C1052.7 230.296 1055.09 347.973 1055.21 465.689C1055.28 527.612 1054.2 589.535 1054.63 651.458C1054.9 692.329 1069 732.236 1067.65 772.335M1084.57 105.679C1086.04 222.854 1088.27 339.953 1088.31 457.129C1088.31 520.71 1087.62 584.33 1088.12 647.872C1088.47 688.511 1103.54 728.534 1101.92 768.325M1118.03 103.134C1119.49 219.924 1121.69 336.637 1121.69 453.427C1121.69 517.934 1121.19 582.479 1121.69 646.985C1122 687.316 1137.68 727.493 1135.72 766.86M1151.6 104.522C1153.06 221.621 1153.41 338.372 1152.79 455.394C1152.44 519.168 1155.1 582.864 1155.61 646.638C1155.95 688.704 1169.6 728.457 1168.9 769.79M1185.28 108.339C1186.71 226.247 1182.66 342.729 1180.81 459.905C1179.12 566.516 1200.66 672.51 1201.66 777.849M1219.08 114.161C1219.93 192.51 1227.72 273.48 1222.47 351.636C1219.89 390.155 1207.75 425.435 1206.56 464.223C1203.2 572.917 1232.07 681.725 1234.04 790.11M1252.96 121.41C1253.69 196.79 1263.1 276.835 1255.7 351.867C1251.53 394.01 1232.15 430.139 1229.76 472.822C1223.71 580.937 1263.71 695.568 1266.1 805.417M1286.91 129.661C1287.53 201.802 1297.94 280.613 1288.8 352.214C1282.91 398.522 1254.12 435.267 1251.53 482.577C1248.26 542.379 1281.71 601.295 1288.8 660.172C1295.2 713.188 1295.7 769.405 1297.94 822.807M1320.87 138.375C1321.33 207.2 1332.24 284.392 1321.87 352.561C1314.16 402.994 1274.62 440.819 1272.62 492.91C1270.38 550.708 1312.7 604.302 1321.87 660.557C1331.24 718.124 1328 782.939 1329.73 841.237M1354.82 147.128C1355.17 212.791 1366.23 288.055 1354.94 352.908C1345.53 406.966 1294.31 446.911 1293.7 503.243C1293.08 560.655 1345.42 605.613 1354.94 660.905C1365.81 723.984 1360.26 795.74 1361.53 859.668M1388.74 155.379C1388.93 220.657 1400.92 299.699 1383.61 362.933C1369.39 414.831 1317.55 456.859 1318.29 512.343C1319.06 571.953 1378.8 612.129 1389.47 670.428C1401.26 734.973 1392.59 811.355 1393.33 877.057M1422.62 162.666C1422.73 225.091 1435.1 303.748 1416.22 363.704C1399.53 416.567 1339.99 463.337 1341.91 520.594C1343.92 580.165 1410.36 612.708 1422.96 670.505C1437.65 737.826 1425.08 823.462 1425.43 892.441M1456.42 168.527C1456.42 229.448 1468.29 306.061 1449.06 364.244C1431.21 418.302 1364.27 468.349 1367.35 527.303C1370.47 587.183 1442.2 612.824 1456.42 670.505C1473.45 739.639 1457.65 833.372 1457.73 904.741M1490.14 172.383C1490.14 232.185 1501.59 307.488 1482.35 364.437C1463.82 419.343 1391.48 471.781 1395.37 531.892C1399.3 592.311 1474.72 612.477 1490.02 670.467C1508.56 740.834 1490.56 839.965 1490.53 912.915" stroke="url(#paint0_linear_2034_2782)" stroke-width="0.25" stroke-miterlimit="10"/>
</g>
<defs>
<filter id="filter0_f_2034_2782" x="-336" y="0" width="2110" height="932" filterUnits="userSpaceOnUse" color-interpolation-filters="sRGB">
<feFlood flood-opacity="0" result="BackgroundImageFix"/>
<feBlend mode="normal" in="SourceGraphic" in2="BackgroundImageFix" result="shape"/>
<feGaussianBlur stdDeviation="125" result="effect1_foregroundBlur_2034_2782"/>
</filter>
<linearGradient id="paint0_linear_2034_2782" x1="720" y1="772" x2="720" y2="214" gradientUnits="userSpaceOnUse">
<stop stop-color="#002147"/>
<stop offset="0.5" stop-color="white"/>
<stop offset="1" stop-color="#002147"/>
</linearGradient>
</defs>
</svg>
