<svg width="1173" height="721" viewBox="0 0 1173 721" fill="none" xmlns="http://www.w3.org/2000/svg">
<path d="M574 104H552C535.431 104 522 117.431 522 134V330C522 346.569 508.569 360 492 360H318" stroke="#C4D1E0" stroke-width="2" stroke-dasharray="4 12"/>
<path d="M576 608H493.5C478.312 608 466 620.312 466 635.5V635.5C466 650.688 453.688 663 438.5 663H338" stroke="#C4D1E0" stroke-width="2" stroke-linecap="round" stroke-dasharray="4 12"/>
<path d="M576 402H511C494.431 402 481 415.431 481 432V458C481 474.569 467.569 488 451 488H407" stroke="#C4D1E0" stroke-width="2" stroke-linecap="round" stroke-dasharray="4 12"/>
<rect x="543" y="250" width="630" height="220" rx="26" fill="#EEF2F8"/>
<rect x="544" y="251" width="628" height="218" rx="25" stroke="#1A4F81" stroke-opacity="0.15" stroke-width="2" stroke-linecap="round" stroke-dasharray="4 12"/>
<rect x="543" width="630" height="220" rx="26" fill="#EEF2F8"/>
<rect x="544" y="1" width="628" height="218" rx="25" stroke="#1A4F81" stroke-opacity="0.15" stroke-width="2" stroke-linecap="round" stroke-dasharray="4 12"/>
<rect x="543" y="500" width="630" height="220" rx="26" fill="#EEF2F8"/>
<rect x="544" y="501" width="628" height="218" rx="25" stroke="#1A4F81" stroke-opacity="0.15" stroke-width="2" stroke-linecap="round" stroke-dasharray="4 12"/>
<g clip-path="url(#clip0_2034_3139)">
<path d="M218.998 643.766C218.998 644.746 218.206 645.533 217.235 645.533C216.263 645.533 215.471 644.739 215.471 643.766C215.471 642.794 216.263 642 217.235 642C218.206 642 218.998 642.794 218.998 643.766Z" fill="#C4D1E0"/>
<path d="M110.687 690.349C110.687 691.328 109.895 692.115 108.924 692.115C107.953 692.115 107.16 691.321 107.16 690.349C107.16 689.376 107.953 688.582 108.924 688.582C109.895 688.582 110.687 689.376 110.687 690.349Z" fill="#C4D1E0"/>
<path d="M21.2072 532.323C21.2072 533.302 20.4149 534.089 19.4436 534.089C18.4724 534.089 17.6801 533.296 17.6801 532.323C17.6801 531.35 18.4724 530.556 19.4436 530.556C20.4149 530.556 21.2072 531.35 21.2072 532.323Z" fill="#C4D1E0"/>
<path d="M27.0984 453.899C27.0984 454.878 26.3061 455.665 25.3349 455.665C24.3636 455.665 23.5713 454.871 23.5713 453.899C23.5713 452.926 24.3636 452.132 25.3349 452.132C26.3061 452.132 27.0984 452.926 27.0984 453.899Z" fill="#C4D1E0"/>
<path d="M67.123 392.57C67.123 393.549 66.3307 394.336 65.3595 394.336C64.3883 394.336 63.5959 393.543 63.5959 392.57C63.5959 391.597 64.3883 390.803 65.3595 390.803C66.3307 390.803 67.123 391.597 67.123 392.57Z" fill="#C4D1E0"/>
<path d="M133.645 390.803C133.645 391.783 132.853 392.57 131.882 392.57C130.911 392.57 130.118 391.776 130.118 390.803C130.118 389.831 130.911 389.037 131.882 389.037C132.853 389.037 133.645 389.831 133.645 390.803Z" fill="#C4D1E0"/>
<path d="M152.086 343.044C152.086 344.023 151.294 344.81 150.322 344.81C149.351 344.81 148.559 344.017 148.559 343.044C148.559 342.071 149.351 341.277 150.322 341.277C151.294 341.277 152.086 342.071 152.086 343.044Z" fill="#C4D1E0"/>
<path d="M197.81 335.767C197.81 336.746 197.018 337.533 196.047 337.533C195.075 337.533 194.283 336.739 194.283 335.767C194.283 334.794 195.075 334 196.047 334C197.018 334 197.81 334.794 197.81 335.767Z" fill="#C4D1E0"/>
<path d="M278.652 344.81C278.652 345.789 277.859 346.577 276.888 346.577C275.917 346.577 275.125 345.783 275.125 344.81C275.125 343.837 275.917 343.044 276.888 343.044C277.859 343.044 278.652 343.837 278.652 344.81Z" fill="#C4D1E0"/>
<path d="M340.069 386.086C340.069 387.066 339.276 387.853 338.305 387.853C337.334 387.853 336.542 387.059 336.542 386.086C336.542 385.114 337.334 384.32 338.305 384.32C339.276 384.32 340.069 385.114 340.069 386.086Z" fill="#C4D1E0"/>
<path d="M381.665 447.409C381.665 448.388 380.873 449.175 379.902 449.175C378.93 449.175 378.138 448.381 378.138 447.409C378.138 446.436 378.93 445.642 379.902 445.642C380.873 445.642 381.665 446.436 381.665 447.409Z" fill="#C4D1E0"/>
<path d="M395.601 498.516C395.601 499.495 394.809 500.282 393.837 500.282C392.866 500.282 392.074 499.489 392.074 498.516C392.074 497.543 392.866 496.749 393.837 496.749C394.809 496.749 395.601 497.543 395.601 498.516Z" fill="#C4D1E0"/>
<path d="M359.691 604.257C359.691 605.236 358.899 606.023 357.928 606.023C356.956 606.023 356.164 605.23 356.164 604.257C356.164 603.284 356.956 602.49 357.928 602.49C358.899 602.49 359.691 603.284 359.691 604.257Z" fill="#C4D1E0"/>
<path d="M22.9771 566.52C22.9771 567.499 22.1848 568.287 21.2136 568.287C20.2423 568.287 19.45 567.493 19.45 566.52C19.45 565.547 20.2423 564.754 21.2136 564.754C22.1848 564.754 22.9771 565.547 22.9771 566.52Z" fill="#C4D1E0"/>
<path d="M373.819 613.691C373.819 614.67 373.026 615.457 372.055 615.457C371.084 615.457 370.292 614.664 370.292 613.691C370.292 612.718 371.084 611.924 372.055 611.924C373.026 611.924 373.819 612.718 373.819 613.691Z" fill="#C4D1E0"/>
<path d="M386.969 584.8C386.969 585.779 386.176 586.566 385.205 586.566C384.234 586.566 383.441 585.772 383.441 584.8C383.441 583.827 384.234 583.033 385.205 583.033C386.176 583.033 386.969 583.827 386.969 584.8Z" fill="#C4D1E0"/>
<path d="M327.002 605.441C328.953 605.441 330.535 603.856 330.535 601.901C330.535 599.947 328.953 598.362 327.002 598.362C325.05 598.362 323.468 599.947 323.468 601.901C323.468 603.856 325.05 605.441 327.002 605.441Z" fill="#C4D1E0"/>
<path d="M314.363 685.043C316.315 685.043 317.897 683.458 317.897 681.503C317.897 679.548 316.315 677.964 314.363 677.964C312.412 677.964 310.83 679.548 310.83 681.503C310.83 683.458 312.412 685.043 314.363 685.043Z" fill="#C4D1E0"/>
<path d="M77.7234 655.761C79.6749 655.761 81.2569 654.176 81.2569 652.221C81.2569 650.267 79.6749 648.682 77.7234 648.682C75.7719 648.682 74.1899 650.267 74.1899 652.221C74.1899 654.176 75.7719 655.761 77.7234 655.761Z" fill="#C4D1E0"/>
<path d="M30.6255 557.086C30.6255 559.038 29.0472 560.625 27.092 560.625C25.1368 560.625 23.5585 559.044 23.5585 557.086C23.5585 555.127 25.1368 553.546 27.092 553.546C29.0472 553.546 30.6255 555.127 30.6255 557.086Z" fill="#C4D1E0"/>
<path d="M345.366 516.994C347.317 516.994 348.899 515.409 348.899 513.454C348.899 511.5 347.317 509.915 345.366 509.915C343.414 509.915 341.832 511.5 341.832 513.454C341.832 515.409 343.414 516.994 345.366 516.994Z" fill="#C4D1E0"/>
<path d="M129.326 705.089C129.326 706.068 128.534 706.855 127.562 706.855C126.591 706.855 125.799 706.061 125.799 705.089C125.799 704.116 126.591 703.322 127.562 703.322C128.534 703.322 129.326 704.116 129.326 705.089Z" fill="#C4D1E0"/>
<path d="M79.4869 382.547C79.4869 383.526 78.6946 384.314 77.7234 384.314C76.7522 384.314 75.9599 383.52 75.9599 382.547C75.9599 381.574 76.7522 380.781 77.7234 380.781C78.6946 380.781 79.4869 381.574 79.4869 382.547Z" fill="#C4D1E0"/>
<path d="M144.629 343.044C144.629 344.023 143.837 344.81 142.866 344.81C141.894 344.81 141.102 344.017 141.102 343.044C141.102 342.071 141.894 341.277 142.866 341.277C143.837 341.277 144.629 342.071 144.629 343.044Z" fill="#C4D1E0"/>
<path d="M199.574 377.516C199.574 378.496 198.781 379.283 197.81 379.283C196.839 379.283 196.047 378.489 196.047 377.516C196.047 376.543 196.839 375.75 197.81 375.75C198.781 375.75 199.574 376.543 199.574 377.516Z" fill="#C4D1E0"/>
<path d="M127.562 484.397C127.562 485.376 126.77 486.163 125.799 486.163C124.828 486.163 124.035 485.369 124.035 484.397C124.035 483.424 124.828 482.63 125.799 482.63C126.77 482.63 127.562 483.424 127.562 484.397Z" fill="#C4D1E0"/>
<path d="M131.876 560.625C132.849 560.625 133.639 559.834 133.639 558.859C133.639 557.883 132.849 557.092 131.876 557.092C130.902 557.092 130.112 557.883 130.112 558.859C130.112 559.834 130.902 560.625 131.876 560.625Z" fill="#C4D1E0"/>
<path d="M236.071 511.681C236.071 512.661 235.279 513.448 234.308 513.448C233.336 513.448 232.544 512.654 232.544 511.681C232.544 510.709 233.336 509.915 234.308 509.915C235.279 509.915 236.071 510.709 236.071 511.681Z" fill="#C4D1E0"/>
<path d="M248.237 457.438C248.237 458.417 247.445 459.205 246.473 459.205C245.502 459.205 244.71 458.411 244.71 457.438C244.71 456.465 245.502 455.672 246.473 455.672C247.445 455.672 248.237 456.465 248.237 457.438Z" fill="#C4D1E0"/>
<path d="M363.225 425.986C363.225 426.966 362.432 427.753 361.461 427.753C360.49 427.753 359.698 426.959 359.698 425.986C359.698 425.014 360.49 424.22 361.461 424.22C362.432 424.22 363.225 425.014 363.225 425.986Z" fill="#C4D1E0"/>
<path d="M206.641 718.062C206.641 719.041 205.848 719.829 204.877 719.829C203.906 719.829 203.113 719.035 203.113 718.062C203.113 717.089 203.906 716.296 204.877 716.296C205.848 716.296 206.641 717.089 206.641 718.062Z" fill="#C4D1E0"/>
<path d="M14.9326 500.282C14.9326 501.262 14.1402 502.049 13.169 502.049C12.1978 502.049 11.4055 501.255 11.4055 500.282C11.4055 499.31 12.1978 498.516 13.169 498.516C14.1402 498.516 14.9326 499.31 14.9326 500.282Z" fill="#C4D1E0"/>
<path d="M45.5389 629.615C45.5389 630.594 44.7466 631.382 43.7753 631.382C42.8041 631.382 42.0118 630.588 42.0118 629.615C42.0118 628.642 42.8041 627.849 43.7753 627.849C44.7466 627.849 45.5389 628.642 45.5389 629.615Z" fill="#C4D1E0"/>
<path d="M150.322 708.628C150.322 709.607 149.53 710.395 148.559 710.395C147.588 710.395 146.795 709.601 146.795 708.628C146.795 707.655 147.588 706.862 148.559 706.862C149.53 706.862 150.322 707.655 150.322 708.628Z" fill="#C4D1E0"/>
<path d="M278.652 705.089C278.652 706.068 277.859 706.855 276.888 706.855C275.917 706.855 275.125 706.061 275.125 705.089C275.125 704.116 275.917 703.322 276.888 703.322C277.859 703.322 278.652 704.116 278.652 705.089Z" fill="#C4D1E0"/>
<path d="M341.832 653.988C341.832 654.967 341.04 655.754 340.069 655.754C339.097 655.754 338.305 654.961 338.305 653.988C338.305 653.015 339.097 652.221 340.069 652.221C341.04 652.221 341.832 653.015 341.832 653.988Z" fill="#C4D1E0"/>
<path d="M383.435 597.184C383.435 598.164 382.643 598.951 381.672 598.951C380.7 598.951 379.908 598.157 379.908 597.184C379.908 596.211 380.7 595.418 381.672 595.418C382.643 595.418 383.435 596.211 383.435 597.184Z" fill="#C4D1E0"/>
<path d="M392.067 474.341C392.067 475.321 391.275 476.108 390.304 476.108C389.333 476.108 388.54 475.314 388.54 474.341C388.54 473.369 389.333 472.575 390.304 472.575C391.275 472.575 392.067 473.369 392.067 474.341Z" fill="#C4D1E0"/>
<path d="M330.574 382.547C330.574 385.325 328.325 387.578 325.551 387.578C322.778 387.578 320.529 385.325 320.529 382.547C320.529 379.769 322.778 377.516 325.551 377.516C328.325 377.516 330.574 379.769 330.574 382.547Z" fill="#C4D1E0"/>
<path d="M47.0276 477.599C47.0276 480.377 44.7785 482.63 42.0054 482.63C39.2323 482.63 36.9832 480.377 36.9832 477.599C36.9832 474.822 39.2323 472.569 42.0054 472.569C44.7785 472.569 47.0276 474.822 47.0276 477.599Z" fill="#C4D1E0"/>
<path d="M156.993 337.539C156.993 338.519 156.201 339.306 155.23 339.306C154.258 339.306 153.466 338.512 153.466 337.539C153.466 336.567 154.258 335.773 155.23 335.773C156.201 335.773 156.993 336.567 156.993 337.539Z" fill="#C4D1E0"/>
<path d="M289.246 350.705C289.246 351.684 288.453 352.471 287.482 352.471C286.511 352.471 285.719 351.678 285.719 350.705C285.719 349.732 286.511 348.938 287.482 348.938C288.453 348.938 289.246 349.732 289.246 350.705Z" fill="#C4D1E0"/>
<path d="M192.609 500.084C193.53 500.084 194.277 499.336 194.277 498.413C194.277 497.491 193.53 496.743 192.609 496.743C191.688 496.743 190.941 497.491 190.941 498.413C190.941 499.336 191.688 500.084 192.609 500.084Z" fill="#C4D1E0"/>
<path d="M256.869 571.634C256.869 572.556 256.122 573.304 255.202 573.304C254.282 573.304 253.534 572.556 253.534 571.634C253.534 570.712 254.282 569.963 255.202 569.963C256.122 569.963 256.869 570.712 256.869 571.634Z" fill="#C4D1E0"/>
<path d="M336.535 453.899C336.535 454.82 335.788 455.569 334.868 455.569C333.947 455.569 333.2 454.82 333.2 453.899C333.2 452.977 333.947 452.228 334.868 452.228C335.788 452.228 336.535 452.977 336.535 453.899Z" fill="#C4D1E0"/>
<path d="M267.176 348.939C267.176 349.86 266.428 350.609 265.508 350.609C264.588 350.609 263.84 349.86 263.84 348.939C263.84 348.017 264.588 347.268 265.508 347.268C266.428 347.268 267.176 348.017 267.176 348.939Z" fill="#C4D1E0"/>
<path d="M276.786 352.478C276.786 353.4 276.038 354.149 275.118 354.149C274.198 354.149 273.45 353.4 273.45 352.478C273.45 351.556 274.198 350.807 275.118 350.807C276.038 350.807 276.786 351.556 276.786 352.478Z" fill="#C4D1E0"/>
<path d="M256.607 343.044C256.607 344.746 255.234 346.122 253.534 346.122C251.834 346.122 250.461 344.746 250.461 343.044C250.461 341.341 251.834 339.965 253.534 339.965C255.234 339.965 256.607 341.341 256.607 343.044Z" fill="#C4D1E0"/>
<path d="M185.382 337.635C185.382 339.338 184.008 340.714 182.309 340.714C180.609 340.714 179.235 339.338 179.235 337.635C179.235 335.933 180.609 334.557 182.309 334.557C184.008 334.557 185.382 335.933 185.382 337.635Z" fill="#C4D1E0"/>
<path d="M393.377 558.859C393.377 560.561 392.004 561.937 390.304 561.937C388.604 561.937 387.231 560.561 387.231 558.859C387.231 557.156 388.604 555.78 390.304 555.78C392.004 555.78 393.377 557.156 393.377 558.859Z" fill="#C4D1E0"/>
<path d="M21.1113 505.787C21.1113 506.708 20.3637 507.457 19.4436 507.457C18.5235 507.457 17.7759 506.708 17.7759 505.787C17.7759 504.865 18.5235 504.116 19.4436 504.116C20.3637 504.116 21.1113 504.865 21.1113 505.787Z" fill="#C4D1E0"/>
<path d="M38.6572 443.972C38.6572 444.893 37.9097 445.642 36.9895 445.642C36.0694 445.642 35.3219 444.893 35.3219 443.972C35.3219 443.05 36.0694 442.301 36.9895 442.301C37.9097 442.301 38.6572 443.05 38.6572 443.972Z" fill="#C4D1E0"/>
<path d="M61.9219 403.579C61.9219 404.5 61.1743 405.249 60.2542 405.249C59.3341 405.249 58.5865 404.5 58.5865 403.579C58.5865 402.657 59.3341 401.908 60.2542 401.908C61.1743 401.908 61.9219 402.657 61.9219 403.579Z" fill="#C4D1E0"/>
<path d="M75.8576 396.013C75.8576 396.935 75.11 397.684 74.1899 397.684C73.2698 397.684 72.5222 396.935 72.5222 396.013C72.5222 395.092 73.2698 394.343 74.1899 394.343C75.11 394.343 75.8576 395.092 75.8576 396.013Z" fill="#C4D1E0"/>
<path d="M109.314 358.373C109.314 359.294 108.566 360.043 107.646 360.043C106.726 360.043 105.978 359.294 105.978 358.373C105.978 357.451 106.726 356.702 107.646 356.702C108.566 356.702 109.314 357.451 109.314 358.373Z" fill="#C4D1E0"/>
<path d="M202.909 339.306C202.909 340.228 202.161 340.976 201.241 340.976C200.321 340.976 199.574 340.228 199.574 339.306C199.574 338.384 200.321 337.635 201.241 337.635C202.161 337.635 202.909 338.384 202.909 339.306Z" fill="#C4D1E0"/>
<path d="M311.418 380.96C312.339 380.96 313.085 380.212 313.085 379.289C313.085 378.367 312.339 377.619 311.418 377.619C310.497 377.619 309.75 378.367 309.75 379.289C309.75 380.212 310.497 380.96 311.418 380.96Z" fill="#C4D1E0"/>
<path d="M379.806 502.055C379.806 502.977 379.058 503.726 378.138 503.726C377.218 503.726 376.47 502.977 376.47 502.055C376.47 501.134 377.218 500.385 378.138 500.385C379.058 500.385 379.806 501.134 379.806 502.055Z" fill="#C4D1E0"/>
<path d="M368.618 589.914C369.539 589.914 370.285 589.166 370.285 588.243C370.285 587.32 369.539 586.573 368.618 586.573C367.697 586.573 366.95 587.32 366.95 588.243C366.95 589.166 367.697 589.914 368.618 589.914Z" fill="#C4D1E0"/>
<path d="M371.953 600.621C371.953 601.543 371.205 602.292 370.285 602.292C369.365 602.292 368.618 601.543 368.618 600.621C368.618 599.7 369.365 598.951 370.285 598.951C371.205 598.951 371.953 599.7 371.953 600.621Z" fill="#C4D1E0"/>
<path d="M352.235 645.533C352.235 646.455 351.487 647.203 350.567 647.203C349.647 647.203 348.899 646.455 348.899 645.533C348.899 644.611 349.647 643.862 350.567 643.862C351.487 643.862 352.235 644.611 352.235 645.533Z" fill="#C4D1E0"/>
<path d="M338.203 663.812C338.203 664.734 337.455 665.483 336.535 665.483C335.615 665.483 334.868 664.734 334.868 663.812C334.868 662.891 335.615 662.142 336.535 662.142C337.455 662.142 338.203 662.891 338.203 663.812Z" fill="#C4D1E0"/>
<path d="M336.535 652.221C336.535 653.143 335.788 653.892 334.868 653.892C333.947 653.892 333.2 653.143 333.2 652.221C333.2 651.3 333.947 650.551 334.868 650.551C335.788 650.551 336.535 651.3 336.535 652.221Z" fill="#C4D1E0"/>
<path d="M290.817 701.652C290.817 702.573 290.07 703.322 289.15 703.322C288.23 703.322 287.482 702.573 287.482 701.652C287.482 700.73 288.23 699.981 289.15 699.981C290.07 699.981 290.817 700.73 290.817 701.652Z" fill="#C4D1E0"/>
<path d="M304.453 681.503C304.453 682.425 303.705 683.174 302.785 683.174C301.865 683.174 301.118 682.425 301.118 681.503C301.118 680.581 301.865 679.833 302.785 679.833C303.705 679.833 304.453 680.581 304.453 681.503Z" fill="#C4D1E0"/>
<path d="M217.139 714.625C217.139 715.547 216.391 716.296 215.471 716.296C214.551 716.296 213.803 715.547 213.803 714.625C213.803 713.704 214.551 712.955 215.471 712.955C216.391 712.955 217.139 713.704 217.139 714.625Z" fill="#C4D1E0"/>
<path d="M161.606 708.628C161.606 709.55 160.859 710.299 159.939 710.299C159.019 710.299 158.271 709.55 158.271 708.628C158.271 707.706 159.019 706.958 159.939 706.958C160.859 706.958 161.606 707.706 161.606 708.628Z" fill="#C4D1E0"/>
<path d="M155.722 714.625C155.722 715.547 154.974 716.296 154.054 716.296C153.134 716.296 152.386 715.547 152.386 714.625C152.386 713.704 153.134 712.955 154.054 712.955C154.974 712.955 155.722 713.704 155.722 714.625Z" fill="#C4D1E0"/>
<path d="M125.793 699.981C126.714 699.981 127.46 699.233 127.46 698.311C127.46 697.388 126.714 696.64 125.793 696.64C124.872 696.64 124.125 697.388 124.125 698.311C124.125 699.233 124.872 699.981 125.793 699.981Z" fill="#C4D1E0"/>
<path d="M68.7907 652.221C68.7907 653.143 68.0431 653.892 67.123 653.892C66.2029 653.892 65.4553 653.143 65.4553 652.221C65.4553 651.3 66.2029 650.551 67.123 650.551C68.0431 650.551 68.7907 651.3 68.7907 652.221Z" fill="#C4D1E0"/>
<path d="M28.7661 569.963C29.6871 569.963 30.4338 569.216 30.4338 568.293C30.4338 567.37 29.6871 566.622 28.7661 566.622C27.8451 566.622 27.0984 567.37 27.0984 568.293C27.0984 569.216 27.8451 569.963 28.7661 569.963Z" fill="#C4D1E0"/>
<path d="M43.6731 620.571C43.6731 621.493 42.9255 622.242 42.0054 622.242C41.0853 622.242 40.3377 621.493 40.3377 620.571C40.3377 619.65 41.0853 618.901 42.0054 618.901C42.9255 618.901 43.6731 619.65 43.6731 620.571Z" fill="#C4D1E0"/>
<path d="M350.567 422.55C350.567 423.471 349.819 424.22 348.899 424.22C347.979 424.22 347.231 423.471 347.231 422.55C347.231 421.628 347.979 420.879 348.899 420.879C349.819 420.879 350.567 421.628 350.567 422.55Z" fill="#C4D1E0"/>
<path d="M56.2351 426.582C57.5373 426.582 58.5929 425.524 58.5929 424.22C58.5929 422.916 57.5373 421.858 56.2351 421.858C54.9329 421.858 53.8773 422.916 53.8773 424.22C53.8773 425.524 54.9329 426.582 56.2351 426.582Z" fill="#C4D1E0"/>
<path d="M36.4975 500.385C36.4975 501.69 35.4433 502.746 34.1398 502.746C32.8363 502.746 31.782 501.69 31.782 500.385C31.782 499.079 32.8363 498.023 34.1398 498.023C35.4433 498.023 36.4975 499.079 36.4975 500.385Z" fill="#C4D1E0"/>
<path d="M25.9163 479.961C25.9163 481.267 24.862 482.323 23.5585 482.323C22.2551 482.323 21.2008 481.267 21.2008 479.961C21.2008 478.655 22.2551 477.599 23.5585 477.599C24.862 477.599 25.9163 478.655 25.9163 479.961Z" fill="#C4D1E0"/>
<path d="M181.031 699.981C181.031 702.055 179.35 703.738 177.28 703.738C175.21 703.738 173.529 702.055 173.529 699.981C173.529 697.907 175.21 696.224 177.28 696.224C179.35 696.224 181.031 697.907 181.031 699.981Z" fill="#C4D1E0"/>
<path d="M289.469 389.843C289.469 391.917 287.789 393.6 285.719 393.6C283.648 393.6 281.968 391.917 281.968 389.843C281.968 387.77 283.648 386.086 285.719 386.086C287.789 386.086 289.469 387.77 289.469 389.843Z" fill="#C4D1E0"/>
<path d="M81.4741 553.546C81.4741 555.62 79.7937 557.303 77.7234 557.303C75.6532 557.303 73.9727 555.62 73.9727 553.546C73.9727 551.473 75.6532 549.789 77.7234 549.789C79.7937 549.789 81.4741 551.473 81.4741 553.546Z" fill="#C4D1E0"/>
<path d="M97.9338 373.388C97.9338 374.694 96.8795 375.75 95.576 375.75C94.2726 375.75 93.2183 374.694 93.2183 373.388C93.2183 372.082 94.2726 371.026 95.576 371.026C96.8795 371.026 97.9338 372.082 97.9338 373.388Z" fill="#C4D1E0"/>
<path d="M135.997 362.405C135.997 363.711 134.942 364.767 133.639 364.767C132.336 364.767 131.281 363.711 131.281 362.405C131.281 361.099 132.336 360.043 133.639 360.043C134.942 360.043 135.997 361.099 135.997 362.405Z" fill="#C4D1E0"/>
<path d="M211.931 358.866C211.931 359.518 211.407 360.043 210.755 360.043C210.104 360.043 209.58 359.518 209.58 358.866C209.58 358.213 210.11 357.688 210.755 357.688C211.401 357.688 211.931 358.219 211.931 358.866Z" fill="#C4D1E0"/>
<path d="M229.305 340.976C229.305 341.629 228.781 342.154 228.129 342.154C227.477 342.154 226.953 341.629 226.953 340.976C226.953 340.324 227.477 339.799 228.129 339.799C228.781 339.799 229.305 340.33 229.305 340.976Z" fill="#C4D1E0"/>
<path d="M262.269 364.76C262.269 365.413 261.745 365.938 261.093 365.938C260.441 365.938 259.917 365.413 259.917 364.76C259.917 364.107 260.448 363.583 261.093 363.583C261.738 363.583 262.269 364.114 262.269 364.76Z" fill="#C4D1E0"/>
<path d="M301.411 362.405C301.411 363.058 300.888 363.583 300.236 363.583C299.584 363.583 299.06 363.058 299.06 362.405C299.06 361.752 299.584 361.227 300.236 361.227C300.888 361.227 301.411 361.752 301.411 362.405Z" fill="#C4D1E0"/>
<path d="M193.785 428.937C193.785 429.59 193.254 430.115 192.609 430.115C191.964 430.115 191.433 429.59 191.433 428.937C191.433 428.284 191.957 427.759 192.609 427.759C193.261 427.759 193.785 428.284 193.785 428.937Z" fill="#C4D1E0"/>
<path d="M339.481 403.579C339.481 404.232 338.951 404.756 338.305 404.756C337.66 404.756 337.129 404.232 337.129 403.579C337.129 402.926 337.653 402.401 338.305 402.401C338.957 402.401 339.481 402.926 339.481 403.579Z" fill="#C4D1E0"/>
<path d="M355.864 406.427C355.864 407.08 355.34 407.605 354.688 407.605C354.036 407.605 353.512 407.08 353.512 406.427C353.512 405.774 354.036 405.249 354.688 405.249C355.34 405.249 355.864 405.774 355.864 406.427Z" fill="#C4D1E0"/>
<path d="M357.333 439.453C357.333 440.106 356.81 440.631 356.158 440.631C355.506 440.631 354.982 440.106 354.982 439.453C354.982 438.8 355.506 438.275 356.158 438.275C356.81 438.275 357.333 438.8 357.333 439.453Z" fill="#C4D1E0"/>
<path d="M373.231 438.269C373.231 438.922 372.707 439.447 372.055 439.447C371.403 439.447 370.879 438.915 370.879 438.269C370.879 437.622 371.403 437.091 372.055 437.091C372.707 437.091 373.231 437.616 373.231 438.269Z" fill="#C4D1E0"/>
<path d="M340.657 459.205C340.657 459.857 340.133 460.382 339.481 460.382C338.829 460.382 338.305 459.851 338.305 459.205C338.305 458.558 338.829 458.027 339.481 458.027C340.133 458.027 340.657 458.552 340.657 459.205Z" fill="#C4D1E0"/>
<path d="M350.075 507.553C350.075 508.206 349.551 508.731 348.899 508.731C348.247 508.731 347.723 508.2 347.723 507.553C347.723 506.907 348.247 506.375 348.899 506.375C349.551 506.375 350.075 506.9 350.075 507.553Z" fill="#C4D1E0"/>
<path d="M379.314 496.743C379.314 497.396 378.79 497.921 378.138 497.921C377.486 497.921 376.962 497.396 376.962 496.743C376.962 496.09 377.486 495.565 378.138 495.565C378.79 495.565 379.314 496.09 379.314 496.743Z" fill="#C4D1E0"/>
<path d="M382.847 506.375C382.847 507.028 382.323 507.553 381.672 507.553C381.02 507.553 380.496 507.028 380.496 506.375C380.496 505.723 381.026 505.198 381.672 505.198C382.317 505.198 382.847 505.723 382.847 506.375Z" fill="#C4D1E0"/>
<path d="M379.314 550.602C379.314 551.255 378.79 551.78 378.138 551.78C377.486 551.78 376.962 551.255 376.962 550.602C376.962 549.949 377.486 549.425 378.138 549.425C378.79 549.425 379.314 549.949 379.314 550.602Z" fill="#C4D1E0"/>
<path d="M371.467 579.199C371.467 579.852 370.943 580.377 370.292 580.377C369.64 580.377 369.116 579.852 369.116 579.199C369.116 578.546 369.64 578.021 370.292 578.021C370.943 578.021 371.467 578.546 371.467 579.199Z" fill="#C4D1E0"/>
<path d="M360.867 632.566C360.867 633.219 360.343 633.743 359.691 633.743C359.039 633.743 358.516 633.219 358.516 632.566C358.516 631.913 359.046 631.388 359.691 631.388C360.337 631.388 360.867 631.913 360.867 632.566Z" fill="#C4D1E0"/>
<path d="M325.826 673.247C325.826 673.899 325.302 674.424 324.651 674.424C323.999 674.424 323.475 673.899 323.475 673.247C323.475 672.594 324.005 672.069 324.651 672.069C325.296 672.069 325.826 672.594 325.826 673.247Z" fill="#C4D1E0"/>
<path d="M281.009 636.988C281.009 637.641 280.485 638.166 279.834 638.166C279.182 638.166 278.658 637.641 278.658 636.988C278.658 636.336 279.182 635.811 279.834 635.811C280.485 635.811 281.009 636.336 281.009 636.988Z" fill="#C4D1E0"/>
<path d="M261.681 714.132C262.33 714.132 262.856 713.605 262.856 712.955C262.856 712.304 262.33 711.777 261.681 711.777C261.031 711.777 260.505 712.304 260.505 712.955C260.505 713.605 261.031 714.132 261.681 714.132Z" fill="#C4D1E0"/>
<path d="M291.993 692.121C291.993 692.774 291.469 693.299 290.817 693.299C290.166 693.299 289.642 692.774 289.642 692.121C289.642 691.469 290.166 690.944 290.817 690.944C291.469 690.944 291.993 691.469 291.993 692.121Z" fill="#C4D1E0"/>
<path d="M308.184 652.221C308.184 652.874 307.654 653.399 307.009 653.399C306.363 653.399 305.833 652.874 305.833 652.221C305.833 651.569 306.357 651.044 307.009 651.044C307.66 651.044 308.184 651.569 308.184 652.221Z" fill="#C4D1E0"/>
<path d="M265.208 701.652C265.208 702.304 264.684 702.829 264.032 702.829C263.38 702.829 262.856 702.304 262.856 701.652C262.856 700.999 263.38 700.474 264.032 700.474C264.684 700.474 265.208 701.005 265.208 701.652Z" fill="#C4D1E0"/>
<path d="M240.192 718.062C240.192 718.715 239.668 719.24 239.017 719.24C238.365 719.24 237.841 718.715 237.841 718.062C237.841 717.409 238.365 716.885 239.017 716.885C239.668 716.885 240.192 717.409 240.192 718.062Z" fill="#C4D1E0"/>
<path d="M207.816 705.089C207.816 705.741 207.292 706.266 206.641 706.266C205.989 706.266 205.465 705.741 205.465 705.089C205.465 704.436 205.995 703.911 206.641 703.911C207.286 703.911 207.816 704.436 207.816 705.089Z" fill="#C4D1E0"/>
<path d="M187.21 716.296C187.21 716.949 186.686 717.473 186.034 717.473C185.382 717.473 184.858 716.942 184.858 716.296C184.858 715.649 185.389 715.118 186.034 715.118C186.679 715.118 187.21 715.643 187.21 716.296Z" fill="#C4D1E0"/>
<path d="M134.821 693.299C134.821 693.952 134.297 694.477 133.645 694.477C132.994 694.477 132.47 693.952 132.47 693.299C132.47 692.646 132.994 692.121 133.645 692.121C134.297 692.121 134.821 692.646 134.821 693.299Z" fill="#C4D1E0"/>
<path d="M159.447 679.833C159.447 680.486 158.923 681.01 158.271 681.01C157.619 681.01 157.095 680.486 157.095 679.833C157.095 679.18 157.619 678.655 158.271 678.655C158.923 678.655 159.447 679.186 159.447 679.833Z" fill="#C4D1E0"/>
<path d="M105.978 665.483C105.978 666.136 105.454 666.661 104.803 666.661C104.151 666.661 103.627 666.136 103.627 665.483C103.627 664.83 104.151 664.305 104.803 664.305C105.454 664.305 105.978 664.83 105.978 665.483Z" fill="#C4D1E0"/>
<path d="M98.3236 674.431C98.3236 675.084 97.7996 675.608 97.1479 675.608C96.4961 675.608 95.9722 675.084 95.9722 674.431C95.9722 673.778 96.5025 673.253 97.1479 673.253C97.7932 673.253 98.3236 673.778 98.3236 674.431Z" fill="#C4D1E0"/>
<path d="M85.0779 645.533C85.0779 646.186 84.5539 646.711 83.9022 646.711C83.2504 646.711 82.7265 646.186 82.7265 645.533C82.7265 644.88 83.2504 644.355 83.9022 644.355C84.5539 644.355 85.0779 644.88 85.0779 645.533Z" fill="#C4D1E0"/>
<path d="M56.2351 639.344C56.8844 639.344 57.4108 638.816 57.4108 638.166C57.4108 637.516 56.8844 636.988 56.2351 636.988C55.5858 636.988 55.0594 637.516 55.0594 638.166C55.0594 638.816 55.5858 639.344 56.2351 639.344Z" fill="#C4D1E0"/>
<path d="M51.232 618.901C51.232 619.554 50.7081 620.078 50.0563 620.078C49.4046 620.078 48.8806 619.554 48.8806 618.901C48.8806 618.248 49.4046 617.723 50.0563 617.723C50.7081 617.723 51.232 618.248 51.232 618.901Z" fill="#C4D1E0"/>
<path d="M29.9418 594.234C29.9418 594.887 29.4115 595.411 28.7661 595.411C28.1207 595.411 27.5904 594.88 27.5904 594.234C27.5904 593.587 28.1144 593.056 28.7661 593.056C29.4178 593.056 29.9418 593.581 29.9418 594.234Z" fill="#C4D1E0"/>
<path d="M32.9832 583.033C32.9832 583.686 32.4593 584.211 31.8076 584.211C31.1558 584.211 30.6319 583.686 30.6319 583.033C30.6319 582.38 31.1622 581.855 31.8076 581.855C32.4529 581.855 32.9832 582.38 32.9832 583.033Z" fill="#C4D1E0"/>
<path d="M34.1589 609.275C34.1589 609.927 33.635 610.452 32.9832 610.452C32.3315 610.452 31.8076 609.927 31.8076 609.275C31.8076 608.622 32.3315 608.097 32.9832 608.097C33.635 608.097 34.1589 608.622 34.1589 609.275Z" fill="#C4D1E0"/>
<path d="M125.307 555.774C125.307 556.427 124.777 556.951 124.131 556.951C123.486 556.951 122.956 556.427 122.956 555.774C122.956 555.121 123.48 554.596 124.131 554.596C124.783 554.596 125.307 555.127 125.307 555.774Z" fill="#C4D1E0"/>
<path d="M29.9418 529.372C29.9418 530.025 29.4115 530.55 28.7661 530.55C28.1207 530.55 27.5904 530.025 27.5904 529.372C27.5904 528.719 28.1144 528.194 28.7661 528.194C29.4178 528.194 29.9418 528.719 29.9418 529.372Z" fill="#C4D1E0"/>
<path d="M48.2097 489.274C48.2097 489.926 47.6794 490.451 47.034 490.451C46.3887 490.451 45.8583 489.926 45.8583 489.274C45.8583 488.621 46.3823 488.096 47.034 488.096C47.6858 488.096 48.2097 488.621 48.2097 489.274Z" fill="#C4D1E0"/>
<path d="M44.3632 420.879C44.3632 421.532 43.8392 422.057 43.1875 422.057C42.5357 422.057 42.0118 421.532 42.0118 420.879C42.0118 420.226 42.5357 419.701 43.1875 419.701C43.8392 419.701 44.3632 420.226 44.3632 420.879Z" fill="#C4D1E0"/>
<path d="M35.3155 458.027C35.3155 458.68 34.7915 459.205 34.1398 459.205C33.488 459.205 32.9641 458.673 32.9641 458.027C32.9641 457.38 33.488 456.849 34.1398 456.849C34.7915 456.849 35.3155 457.374 35.3155 458.027Z" fill="#C4D1E0"/>
<path d="M95.9722 666.667C95.9722 667.32 95.4482 667.845 94.7965 667.845C94.1448 667.845 93.6208 667.32 93.6208 666.667C93.6208 666.014 94.1448 665.489 94.7965 665.489C95.4482 665.489 95.9722 666.014 95.9722 666.667Z" fill="#C4D1E0"/>
<path d="M203.107 580.377C203.107 581.03 202.583 581.555 201.931 581.555C201.28 581.555 200.756 581.03 200.756 580.377C200.756 579.724 201.28 579.199 201.931 579.199C202.583 579.199 203.107 579.724 203.107 580.377Z" fill="#C4D1E0"/>
<path d="M394.553 528.783C394.553 529.436 394.023 529.961 393.377 529.961C392.732 529.961 392.202 529.436 392.202 528.783C392.202 528.13 392.726 527.606 393.377 527.606C394.029 527.606 394.553 528.13 394.553 528.783Z" fill="#C4D1E0"/>
<path d="M132.221 350.807C132.221 351.972 131.275 352.92 130.112 352.92C128.949 352.92 128.003 351.972 128.003 350.807C128.003 349.643 128.949 348.695 130.112 348.695C131.275 348.695 132.221 349.643 132.221 350.807Z" fill="#C4D1E0"/>
<path d="M78.324 442.743C79.4886 442.743 80.4326 441.797 80.4326 440.631C80.4326 439.464 79.4886 438.518 78.324 438.518C77.1595 438.518 76.2155 439.464 76.2155 440.631C76.2155 441.797 77.1595 442.743 78.324 442.743Z" fill="#C4D1E0"/>
<path d="M347.474 447.409C347.474 448.574 346.529 449.521 345.366 449.521C344.203 449.521 343.257 448.574 343.257 447.409C343.257 446.244 344.203 445.297 345.366 445.297C346.529 445.297 347.474 446.244 347.474 447.409Z" fill="#C4D1E0"/>
<path d="M318.58 650.544C318.58 651.709 317.635 652.657 316.472 652.657C315.309 652.657 314.363 651.709 314.363 650.544C314.363 649.38 315.309 648.432 316.472 648.432C317.635 648.432 318.58 649.38 318.58 650.544Z" fill="#C4D1E0"/>
<path d="M171.517 687.411C171.517 689.504 169.823 691.193 167.74 691.193C165.657 691.193 163.964 689.497 163.964 687.411C163.964 685.324 165.657 683.628 167.74 683.628C169.823 683.628 171.517 685.324 171.517 687.411Z" fill="#C4D1E0"/>
<path d="M238.18 358.866C238.18 360.03 237.234 360.978 236.071 360.978C234.908 360.978 233.963 360.03 233.963 358.866C233.963 357.701 234.908 356.753 236.071 356.753C237.234 356.753 238.18 357.701 238.18 358.866Z" fill="#C4D1E0"/>
<path d="M365.442 476.543C365.442 477.19 364.918 477.708 364.279 477.708C363.64 477.708 363.116 477.183 363.116 476.543C363.116 475.903 363.64 475.378 364.279 475.378C364.918 475.378 365.442 475.903 365.442 476.543Z" fill="#C4D1E0"/>
<path d="M380.477 569.963C380.477 570.61 379.953 571.128 379.314 571.128C378.675 571.128 378.151 570.604 378.151 569.963C378.151 569.323 378.675 568.799 379.314 568.799C379.953 568.799 380.477 569.323 380.477 569.963Z" fill="#C4D1E0"/>
<path d="M351.73 623.413C351.73 624.06 351.206 624.578 350.567 624.578C349.928 624.578 349.404 624.053 349.404 623.413C349.404 622.773 349.928 622.248 350.567 622.248C351.206 622.248 351.73 622.773 351.73 623.413Z" fill="#C4D1E0"/>
<path d="M320.223 660.977C320.223 661.624 319.699 662.142 319.06 662.142C318.421 662.142 317.897 661.617 317.897 660.977C317.897 660.337 318.421 659.812 319.06 659.812C319.699 659.812 320.223 660.337 320.223 660.977Z" fill="#C4D1E0"/>
<path d="M319.06 598.349C319.702 598.349 320.223 597.828 320.223 597.184C320.223 596.541 319.702 596.019 319.06 596.019C318.417 596.019 317.897 596.541 317.897 597.184C317.897 597.828 318.417 598.349 319.06 598.349Z" fill="#C4D1E0"/>
<path d="M250.493 652.221C250.493 652.868 249.969 653.386 249.33 653.386C248.691 653.386 248.167 652.861 248.167 652.221C248.167 651.581 248.691 651.056 249.33 651.056C249.969 651.056 250.493 651.581 250.493 652.221Z" fill="#C4D1E0"/>
<path d="M249.33 710.299C249.33 710.945 248.806 711.463 248.167 711.463C247.528 711.463 247.004 710.939 247.004 710.299C247.004 709.659 247.528 709.134 248.167 709.134C248.806 709.134 249.33 709.659 249.33 710.299Z" fill="#C4D1E0"/>
<path d="M276.281 696.64C276.281 697.287 275.757 697.805 275.118 697.805C274.479 697.805 273.955 697.28 273.955 696.64C273.955 696 274.479 695.475 275.118 695.475C275.757 695.475 276.281 696 276.281 696.64Z" fill="#C4D1E0"/>
<path d="M265.208 712.628C265.85 712.628 266.371 712.107 266.371 711.463C266.371 710.82 265.85 710.299 265.208 710.299C264.566 710.299 264.045 710.82 264.045 711.463C264.045 712.107 264.566 712.628 265.208 712.628Z" fill="#C4D1E0"/>
<path d="M208.985 721C209.628 721 210.148 720.479 210.148 719.835C210.148 719.192 209.628 718.67 208.985 718.67C208.343 718.67 207.823 719.192 207.823 719.835C207.823 720.479 208.343 721 208.985 721Z" fill="#C4D1E0"/>
<path d="M184.858 696.224C184.858 696.871 184.334 697.389 183.695 697.389C183.056 697.389 182.532 696.864 182.532 696.224C182.532 695.584 183.056 695.059 183.695 695.059C184.334 695.059 184.858 695.584 184.858 696.224Z" fill="#C4D1E0"/>
<path d="M172.175 662.142C172.175 662.788 171.651 663.307 171.012 663.307C170.373 663.307 169.849 662.782 169.849 662.142C169.849 661.502 170.373 660.977 171.012 660.977C171.651 660.977 172.175 661.502 172.175 662.142Z" fill="#C4D1E0"/>
<path d="M135.984 705.089C135.984 705.735 135.46 706.253 134.821 706.253C134.182 706.253 133.658 705.729 133.658 705.089C133.658 704.449 134.182 703.924 134.821 703.924C135.46 703.924 135.984 704.449 135.984 705.089Z" fill="#C4D1E0"/>
<path d="M126.962 692.121C126.962 692.768 126.438 693.286 125.799 693.286C125.16 693.286 124.636 692.761 124.636 692.121C124.636 691.481 125.16 690.957 125.799 690.957C126.438 690.957 126.962 691.481 126.962 692.121Z" fill="#C4D1E0"/>
<path d="M115.397 689.747C116.039 689.747 116.56 689.225 116.56 688.582C116.56 687.939 116.039 687.417 115.397 687.417C114.754 687.417 114.234 687.939 114.234 688.582C114.234 689.225 114.754 689.747 115.397 689.747Z" fill="#C4D1E0"/>
<path d="M91.5314 666.667C91.5314 667.314 91.0074 667.832 90.3685 667.832C89.7295 667.832 89.2056 667.307 89.2056 666.667C89.2056 666.027 89.7295 665.502 90.3685 665.502C91.0074 665.502 91.5314 666.027 91.5314 666.667Z" fill="#C4D1E0"/>
<path d="M78.8863 642C78.8863 642.646 78.3624 643.165 77.7234 643.165C77.0845 643.165 76.5605 642.64 76.5605 642C76.5605 641.36 77.0845 640.835 77.7234 640.835C78.3624 640.835 78.8863 641.36 78.8863 642Z" fill="#C4D1E0"/>
<path d="M56.2223 629.615C56.2223 630.262 55.6984 630.78 55.0594 630.78C54.4204 630.78 53.8965 630.255 53.8965 629.615C53.8965 628.975 54.4204 628.45 55.0594 628.45C55.6984 628.45 56.2223 628.975 56.2223 629.615Z" fill="#C4D1E0"/>
<path d="M55.0594 613.691C55.0594 614.337 54.5355 614.856 53.8965 614.856C53.2575 614.856 52.7336 614.331 52.7336 613.691C52.7336 613.051 53.2575 612.526 53.8965 612.526C54.5355 612.526 55.0594 613.051 55.0594 613.691Z" fill="#C4D1E0"/>
<path d="M34.1462 602.49C34.1462 603.137 33.6222 603.655 32.9833 603.655C32.3443 603.655 31.8203 603.13 31.8203 602.49C31.8203 601.85 32.3443 601.325 32.9833 601.325C33.6222 601.325 34.1462 601.85 34.1462 602.49Z" fill="#C4D1E0"/>
<path d="M36.4848 594.234C36.4848 594.88 35.9608 595.399 35.3218 595.399C34.6829 595.399 34.1589 594.874 34.1589 594.234C34.1589 593.594 34.6829 593.069 35.3218 593.069C35.9608 593.069 36.4848 593.594 36.4848 594.234Z" fill="#C4D1E0"/>
<path d="M74.19 545.559C74.8322 545.559 75.3529 545.037 75.3529 544.394C75.3529 543.751 74.8322 543.229 74.19 543.229C73.5477 543.229 73.027 543.751 73.027 544.394C73.027 545.037 73.5477 545.559 74.19 545.559Z" fill="#C4D1E0"/>
<path d="M32.9832 511.681C32.9832 512.328 32.4593 512.846 31.8203 512.846C31.1814 512.846 30.6574 512.321 30.6574 511.681C30.6574 511.041 31.1814 510.517 31.8203 510.517C32.4593 510.517 32.9832 511.041 32.9832 511.681Z" fill="#C4D1E0"/>
<path d="M48.1969 493.978C48.1969 494.624 47.673 495.143 47.034 495.143C46.3951 495.143 45.8711 494.618 45.8711 493.978C45.8711 493.338 46.3951 492.813 47.034 492.813C47.673 492.813 48.1969 493.338 48.1969 493.978Z" fill="#C4D1E0"/>
<path d="M52.3949 472.569C52.3949 473.215 51.871 473.733 51.232 473.733C50.5931 473.733 50.0691 473.209 50.0691 472.569C50.0691 471.929 50.5931 471.404 51.232 471.404C51.871 471.404 52.3949 471.929 52.3949 472.569Z" fill="#C4D1E0"/>
<path d="M52.3949 430.115C52.3949 430.761 51.871 431.28 51.232 431.28C50.5931 431.28 50.0691 430.755 50.0691 430.115C50.0691 429.475 50.5931 428.95 51.232 428.95C51.871 428.95 52.3949 429.475 52.3949 430.115Z" fill="#C4D1E0"/>
<path d="M116.853 390.804C116.853 391.45 116.33 391.968 115.691 391.968C115.052 391.968 114.528 391.444 114.528 390.804C114.528 390.164 115.052 389.639 115.691 389.639C116.33 389.639 116.853 390.164 116.853 390.804Z" fill="#C4D1E0"/>
<path d="M134.808 398.849C135.451 398.849 135.971 398.327 135.971 397.684C135.971 397.041 135.451 396.519 134.808 396.519C134.166 396.519 133.645 397.041 133.645 397.684C133.645 398.327 134.166 398.849 134.808 398.849Z" fill="#C4D1E0"/>
<path d="M80.6499 396.014C80.6499 396.66 80.1259 397.178 79.4869 397.178C78.848 397.178 78.324 396.654 78.324 396.014C78.324 395.373 78.848 394.849 79.4869 394.849C80.1259 394.849 80.6499 395.373 80.6499 396.014Z" fill="#C4D1E0"/>
<path d="M113.013 584.211C113.013 584.857 112.489 585.376 111.85 585.376C111.211 585.376 110.688 584.851 110.688 584.211C110.688 583.571 111.211 583.046 111.85 583.046C112.489 583.046 113.013 583.571 113.013 584.211Z" fill="#C4D1E0"/>
<path d="M281.009 489.261C281.652 489.261 282.172 488.739 282.172 488.096C282.172 487.453 281.652 486.931 281.009 486.931C280.367 486.931 279.846 487.453 279.846 488.096C279.846 488.739 280.367 489.261 281.009 489.261Z" fill="#C4D1E0"/>
<path d="M233.707 407.611C233.707 408.257 233.183 408.776 232.544 408.776C231.905 408.776 231.381 408.251 231.381 407.611C231.381 406.971 231.905 406.446 232.544 406.446C233.183 406.446 233.707 406.971 233.707 407.611Z" fill="#C4D1E0"/>
<path d="M347.723 521.704C348.366 521.704 348.886 521.183 348.886 520.54C348.886 519.896 348.366 519.375 347.723 519.375C347.081 519.375 346.561 519.896 346.561 520.54C346.561 521.183 347.081 521.704 347.723 521.704Z" fill="#C4D1E0"/>
<path d="M368.113 455.665C368.113 456.312 367.589 456.83 366.95 456.83C366.311 456.83 365.787 456.305 365.787 455.665C365.787 455.025 366.311 454.5 366.95 454.5C367.589 454.5 368.113 455.025 368.113 455.665Z" fill="#C4D1E0"/>
<path d="M25.1623 611.041C25.7118 612.686 26.4658 614.888 27.2837 616.417L26.1911 614.561C25.5138 613.025 24.5681 610.971 24.1656 609.339L25.1623 611.041Z" fill="#C4D1E0"/>
<path d="M10.4151 579.666L11.0924 582.105L10.3704 580.05L9.75696 577.785L10.4215 579.666" fill="#C4D1E0"/>
<path d="M60.6312 654.487C61.8899 658.212 62.5225 660.081 67.04 664.164L65.3914 662.705C61.858 659.07 60.0817 657.246 59.1679 653.143L60.6312 654.487Z" fill="#C4D1E0"/>
<path d="M42.1907 635.215L40.9319 633.686C42.4591 638.236 42.5166 638.416 44.7913 641.264L46.1842 642.928C45.475 641.917 44.3887 640.649 43.8201 639.555C43.1811 638.32 42.8105 636.464 42.1971 635.222" fill="#C4D1E0"/>
<path d="M124.93 429.455L125.563 427.631C108.144 424.617 55.1361 415.451 48.1394 392.698L46.8104 394.208C48.7145 399.956 54.5035 417.448 124.93 429.455ZM195.293 435.043L195.312 433.174C179.031 432.841 156.738 432.38 126.93 427.849L126.304 429.673C140.271 431.651 161.389 434.633 195.293 435.043ZM220.851 432.918C207.228 433.161 203.573 433.225 196.871 433.181V435.049C212.091 434.985 212.685 434.985 221.062 434.665C220.979 434.339 220.832 433.737 220.851 432.912" fill="#C4D1E0"/>
<path d="M36.0056 436.176L36.9832 434.371C31.4306 429.36 29.1303 427.286 27.3029 420.828L26.2678 422.55C27.9993 427.753 28.715 429.904 36.0119 436.176M68.4393 451.87L69.2188 449.969C57.6153 445.873 48.4525 442.634 37.6157 434.864L36.6445 436.669C44.1715 441.776 49.6027 445.463 68.4457 451.863M195.484 413.282L195.497 411.534C180.929 411.234 160.974 410.818 133.697 406.613C131.179 412.885 127.876 421.276 125.556 427.625L124.924 429.449C119.211 447.044 118.745 448.478 115.582 460.638C98.7581 457.733 87.327 455.588 70.4137 450.353L69.6405 452.254C84.8095 456.734 94.3876 459.237 116.643 462.846C121.48 444.593 121.984 442.685 126.297 429.667L126.924 427.843C129.051 422.018 131.907 414.261 134.208 408.501C146.616 410.261 165.364 412.917 195.484 413.282ZM257.112 408.027C234.474 410.523 223.42 411.477 196.884 411.554V413.301C222.206 413.205 234.723 412.45 257.758 409.627C257.572 409.269 257.323 408.782 257.112 408.027Z" fill="#C4D1E0"/>
<path d="M161.159 509.902C133.582 507.675 95.8061 504.628 56.8868 492.602C58.7079 485.683 61.1935 476.473 63.3148 469.644L62.0497 469.234C59.8197 476.684 56.9699 486.656 55.0914 494.202C71.9728 499.297 100.228 507.816 161.057 511.861C161.019 511.201 160.993 510.677 161.153 509.902M70.4201 450.353L76.1707 437.322C61.6918 432.317 54.0626 429.091 44.2546 422.063L36.9768 434.365L35.9992 436.17C26.485 455.518 26.1144 456.273 19.8781 474.905C13.7313 469.362 11.1818 467.064 9.15633 459.915L8.53015 461.835C10.6579 468.223 11.6419 470.373 19.9931 477.42C26.9834 456.344 27.1176 455.94 36.6317 436.662L37.603 434.858L43.7689 424.258C52.1841 429.968 57.9284 433.264 74.1452 438.781L69.206 449.962L68.4265 451.863C66.6949 456.478 64.286 462.597 62.695 467.263L63.9538 467.666C65.647 463.038 67.8003 456.824 69.6342 452.247L70.4073 450.346" fill="#C4D1E0"/>
<path d="M103.819 370.034L105.314 368.735C97.2373 364.229 93.5952 361.426 91.9595 355.717L90.2407 356.805C91.8573 361.81 94.1 364.754 103.819 370.034ZM308.261 460.389C280.658 465.887 251.355 470.834 196.756 470.956C196.8 459.576 196.864 435.203 196.864 435.056V433.187C196.877 427.222 196.884 419.266 196.884 413.301V411.554C196.877 402.491 196.864 393.428 196.839 384.365C156.367 383.622 125.761 378.464 105.876 369.023L104.394 370.329C131.441 382.541 168.986 385.536 195.721 385.907C195.65 394.452 195.574 402.996 195.503 411.547L195.491 413.295C195.44 419.26 195.363 427.215 195.312 433.181L195.293 435.049C195.178 447.684 195.056 460.318 194.941 472.953C240.716 472.895 272.658 469.887 308.862 462.219C308.651 461.682 308.389 460.958 308.261 460.395" fill="#C4D1E0"/>
<path d="M176.916 371.02C176.801 371.333 176.686 371.762 176.609 372.089C170.558 371.826 139.249 370.009 117.333 359.704C113.895 362.495 109.218 366.111 105.883 369.017L104.4 370.322C98.56 375.871 90.9308 383.456 85.4293 389.344C75.1803 383.795 70.5287 380.307 68.2732 373.036L69.8195 371.737C71.4935 376.851 73.5318 380.71 86.0747 387.501C91.2822 382.137 98.33 375.091 103.825 370.028L105.32 368.729C109.237 365.573 114.387 361.278 118.425 358.283C133.045 365.068 150.552 368.85 176.961 370.93C176.948 370.956 176.935 370.988 176.929 371.013" fill="#C4D1E0"/>
<path d="M129.422 481.107C129.185 481.926 129.16 482.432 129.128 483.014C102.4 479.462 87.3462 476.818 63.3148 469.637L62.0497 469.228C51.0212 465.33 49.3215 464.734 41.7562 461.157C35.2388 479.743 31.9673 489.075 28.2166 513.23C12.6834 504.839 5.62926 499.553 2.15331 488.544L2.49196 486.521C5.09892 494.343 8.24262 500.25 27.4498 510.638C30.8619 492.039 32.7404 481.792 41.539 458.75C50.9764 463.09 52.4269 463.755 62.7078 467.263L63.9665 467.666C84.2792 473.663 97.8699 476.838 129.46 480.979C129.447 481.017 129.435 481.062 129.422 481.1" fill="#C4D1E0"/>
<path d="M114.068 651.133L113.595 649.668C93.6911 646.231 40.8105 637.11 26.1847 614.555L27.2773 616.411C31.5584 622.184 44.5932 639.74 114.068 651.133ZM193.657 657.431V656.004C174.986 655.626 149.415 655.108 115.16 649.911L115.62 651.376C131.435 653.61 155.338 656.977 193.65 657.431M222.857 655.665C206.423 656.01 203.899 656.068 195.452 656.017L195.439 657.444C212.602 657.367 213.273 657.367 222.71 657.002C222.691 656.753 222.659 656.292 222.857 655.658" fill="#C4D1E0"/>
<path d="M266.697 667.838C241.228 670.776 227.643 671.979 195.305 672.095L195.293 673.323C224.819 673.195 239.394 672.306 266.179 669.022C266.262 668.747 266.39 668.331 266.697 667.838ZM21.041 594.515L20.4149 592.685C14.9964 587.801 12.2809 585.35 10.364 580.044L11.086 582.099C13.5077 586.924 14.8431 589.587 21.041 594.515ZM56.3757 611.617L55.8773 609.851C43.1172 605.345 33.0408 601.786 21.1113 593.235L21.7311 595.059C29.929 600.621 35.8522 604.641 56.3693 611.617M193.663 673.317V672.088C177.414 671.762 152.865 671.262 121.275 666.481C119.505 661.982 117.173 655.966 115.627 651.383L115.167 649.917C111.211 635.721 110.7 633.903 108.496 621.839C87.1864 618.242 75.3465 615.841 57.1999 610.28L57.6919 612.046C73.9919 616.859 84.1769 619.535 107.109 623.298C110.502 639.357 110.707 640.323 113.601 649.68L114.074 651.146C115.869 656.1 118.336 662.692 120.406 667.537C135.907 669.778 157.14 672.843 193.67 673.323" fill="#C4D1E0"/>
<path d="M57.1999 610.273C56.1712 605.902 54.676 600.103 53.8134 595.699L52.4652 595.264C53.4812 599.642 54.7016 605.511 55.8837 609.851L56.382 611.617L59.6791 621.96C44.0181 616.43 35.8586 612.961 25.8716 605.806L21.7439 595.066L21.1241 593.242C15.2265 572.837 15.1115 572.453 12.5173 551.505C5.12448 545.072 2.88811 542.883 0.581451 535.267L0.785919 537.328C2.77948 543.306 3.60374 545.776 11.9742 552.977C14.8942 573.88 15.0092 574.693 20.4276 592.698L21.0538 594.528L25.9547 607.034C36.8106 614.632 44.1331 618.133 61.5576 624.053L57.6983 612.052L57.2063 610.286M159.159 587.462C130.259 585.152 90.6752 581.983 49.0276 568.965C49.7816 576.313 50.9317 586.099 52.1074 593.389L53.462 593.824C52.4652 587.123 51.2128 578.175 50.5611 571.435C66.9952 576.293 97.5887 585.331 159.21 589.344C159.134 588.793 159.063 588.275 159.166 587.462" fill="#C4D1E0"/>
<path d="M78.0493 671.25L76.7714 670.091C69.9664 666.328 69.4105 666.014 65.3914 662.699L67.04 664.158C71.9727 667.928 72.4903 668.325 78.0493 671.25ZM314.747 614.005C286.096 619.618 253.157 625.09 193.765 625.02C193.695 642.345 193.689 643.382 193.663 656.004V657.431C193.663 661.828 193.663 667.691 193.663 672.082V673.311C193.695 682.489 193.702 684.959 193.746 690.156C129.134 688.864 94.8796 678.732 77.5253 670.456L78.7969 671.614C106.451 684.006 145.6 690.56 195.158 691.11C195.203 685.183 195.254 679.257 195.305 673.323L195.318 672.094C195.356 667.697 195.408 661.841 195.446 657.444L195.459 656.017C195.542 646.263 195.631 636.515 195.714 626.761C219.26 626.664 263.08 626.479 314.37 615.656C314.465 615.157 314.587 614.485 314.753 614.005" fill="#C4D1E0"/>
<path d="M168.284 696.602C168.335 696.787 168.45 697.018 168.52 697.197C135.121 695.046 108.489 689.401 89.3653 680.409C85.9532 677.682 81.3144 674.143 78.0493 671.243L76.7714 670.078C72.19 665.477 66.2029 659.211 61.973 654.282C54.9316 650.378 51.0467 648.227 46.1842 642.922L44.7913 641.257C49.6218 646.186 51.7943 648.151 61.7238 653.335C66.2732 658.641 72.5606 665.534 77.5189 670.456L78.7905 671.615C81.7553 674.053 85.6018 677.432 88.6688 679.73C103.058 686.169 123.773 693.203 168.271 696.55C168.271 696.563 168.271 696.582 168.277 696.595" fill="#C4D1E0"/>
<path d="M123.773 608.231C123.754 608.647 123.812 609.204 123.869 609.614C97.0776 606.727 78.0876 602.957 53.807 595.699L52.4588 595.264C40.7658 591.136 38.6572 590.387 29.7501 586.131C26.3636 567.646 24.664 558.366 25.2646 533.577C14.1722 527.42 3.6932 521.602 0 509.153L0.115013 507.06C3.22676 516.398 7.57171 521.928 26.4403 532.009C26.14 551.146 25.9738 561.688 30.3827 584.761C40.7594 589.421 42.0949 590.022 52.101 593.402L53.4556 593.837C75.2762 600.282 89.8701 603.693 123.78 608.135C123.78 608.167 123.773 608.212 123.773 608.244" fill="#C4D1E0"/>
<path d="M181.734 372.364C180.89 375.513 177.964 376.928 176.839 374.732C175.715 372.53 177.6 367.967 180.2 367.948C182.008 368.21 182.181 370.687 181.734 372.364Z" fill="#C4D1E0"/>
<path d="M264.665 408.225C265.911 411.662 263.808 414.037 260.786 412.61C257.119 410.875 255.515 405.032 258.377 403.809C258.543 403.739 258.786 403.681 258.965 403.643C261.674 403.438 263.93 406.196 264.665 408.225Z" fill="#C4D1E0"/>
<path d="M229.586 433.859C229.854 437.968 225.905 440.183 222.883 437.616C219.714 434.921 220.174 428.911 224.525 428.47C227.777 428.508 229.439 431.644 229.586 433.859Z" fill="#C4D1E0"/>
<path d="M316.146 459.973C317.251 464.101 314.651 467.064 311.507 465.259C307.833 463.147 306.542 456.273 310.459 455.044C313.341 454.564 315.52 457.636 316.146 459.973Z" fill="#C4D1E0"/>
<path d="M171.574 511.957C170.884 516.936 164.84 518.613 162.066 514.6C159.6 511.029 161.651 505.364 166.635 505.383C170.616 505.812 171.919 509.486 171.581 511.957" fill="#C4D1E0"/>
<path d="M138.642 483.616C137.575 488.256 132.31 489.773 129.978 486.112C127.722 482.572 130.157 476.71 134.834 476.985C138.374 477.593 139.192 481.228 138.642 483.616Z" fill="#C4D1E0"/>
<path d="M170.092 589.472C169.638 594.208 163.6 595.751 160.45 591.942C157.607 588.505 159.344 583.078 164.552 583.116C168.75 583.552 170.315 587.097 170.092 589.472Z" fill="#C4D1E0"/>
<path d="M133.99 610.676C133.895 614.805 128.885 616.046 125.614 612.757C122.291 609.415 123.729 604.391 127.984 604.481C128.125 604.481 128.31 604.5 128.451 604.513C132.361 605.14 134.048 608.494 133.997 610.676" fill="#C4D1E0"/>
<path d="M322.561 613.358C321.098 617.717 316.261 620.386 314.715 617.685C313.335 615.265 315.884 610.062 319.833 608.929C322.925 608.372 323.29 611.188 322.555 613.358" fill="#C4D1E0"/>
<path d="M232.429 656.234C231.343 660.017 225.094 661.368 223.139 658.244C221.675 655.908 223.899 652.433 228.174 652.081C231.937 652.055 232.927 654.493 232.429 656.234Z" fill="#C4D1E0"/>
<path d="M274.543 667.544C272.524 670.885 266.888 672.581 266.173 670.066C265.623 668.145 268.524 664.926 272.23 664.26C275.399 663.928 275.489 665.982 274.537 667.55" fill="#C4D1E0"/>
<path d="M175.267 697.581C175.587 699.501 172.009 699.904 169.549 698.227C167.728 696.986 167.855 695.386 169.798 694.995C170.258 694.906 170.603 694.918 170.974 694.925C173.67 695.174 175.108 696.627 175.267 697.581Z" fill="#C4D1E0"/>
<path d="M381.838 611.041L382.834 609.339C382.432 610.971 381.486 613.025 380.809 614.561L379.716 616.417C380.534 614.888 381.288 612.686 381.838 611.041Z" fill="#C4D1E0"/>
<path d="M396.585 579.666L397.249 577.785L396.636 580.05L395.914 582.105L396.591 579.666" fill="#C4D1E0"/>
<path d="M346.369 654.487L347.832 653.143C346.912 657.239 345.142 659.063 341.602 662.705L339.954 664.164C344.477 660.081 345.11 658.212 346.362 654.487" fill="#C4D1E0"/>
<path d="M364.803 635.215L366.062 633.686C364.535 638.236 364.477 638.416 362.202 641.264L360.809 642.928C361.519 641.917 362.605 640.649 363.174 639.555C363.813 638.32 364.183 636.464 364.797 635.222" fill="#C4D1E0"/>
<path d="M282.07 429.455C352.497 417.448 358.286 399.956 360.183 394.208L358.854 392.698C351.858 415.451 298.849 424.617 281.431 427.631L282.064 429.455M211.707 435.043C245.611 434.633 266.722 431.644 280.696 429.673L280.07 427.849C250.262 432.38 227.969 432.841 211.688 433.174L211.707 435.043ZM186.149 432.918C186.168 433.737 186.021 434.345 185.938 434.672C194.315 434.992 194.909 434.992 210.136 435.056V433.187C203.433 433.225 199.772 433.161 186.149 432.924" fill="#C4D1E0"/>
<path d="M370.994 436.176C378.291 429.904 379.007 427.753 380.739 422.55L379.704 420.828C377.876 427.286 375.576 429.36 370.023 434.371L371.001 436.176M338.554 451.87C357.391 445.463 362.829 441.776 370.355 436.675L369.384 434.87C358.541 442.64 349.378 445.879 337.781 449.975L338.561 451.876M211.509 413.282C241.63 412.911 260.377 410.254 272.786 408.501C275.086 414.261 277.936 422.018 280.07 427.843L280.696 429.667C285.009 442.685 285.514 444.593 290.351 462.846C312.606 459.237 322.184 456.734 337.353 452.254L336.58 450.353C319.667 455.588 308.236 457.733 291.412 460.638C288.242 448.484 287.776 447.044 282.07 429.449L281.437 427.625C279.118 421.276 275.815 412.885 273.297 406.613C246.026 410.818 226.071 411.227 211.497 411.534L211.509 413.282ZM149.888 408.027C149.677 408.782 149.421 409.269 149.242 409.627C172.277 412.443 184.794 413.199 210.116 413.301V411.554C183.58 411.477 172.526 410.523 149.888 408.027Z" fill="#C4D1E0"/>
<path d="M245.841 509.902C246.007 510.677 245.975 511.201 245.937 511.861C306.766 507.816 335.021 499.29 351.902 494.202C350.024 486.656 347.174 476.684 344.944 469.234L343.679 469.644C345.8 476.473 348.286 485.689 350.107 492.602C311.188 504.628 273.418 507.681 245.834 509.902M336.58 450.353L337.353 452.254C339.181 456.83 341.34 463.045 343.033 467.672L344.292 467.269C342.701 462.603 340.292 456.484 338.561 451.87L337.781 449.969L332.842 438.787C349.065 433.27 354.803 429.974 363.218 424.265L369.384 434.864L370.355 436.669C379.87 455.947 380.004 456.35 386.994 477.426C395.345 470.38 396.329 468.223 398.457 461.842L397.831 459.921C395.805 467.071 393.256 469.368 387.109 474.911C380.873 456.28 380.502 455.524 370.988 436.176L370.01 434.371L362.733 422.069C352.931 429.097 345.295 432.323 330.816 437.328L336.567 450.359" fill="#C4D1E0"/>
<path d="M303.181 370.034C312.894 364.754 315.143 361.81 316.759 356.805L315.04 355.717C313.405 361.426 309.769 364.229 301.686 368.735L303.181 370.034ZM98.7389 460.389C98.6111 460.952 98.3491 461.675 98.1383 462.213C134.348 469.88 166.29 472.889 212.059 472.946C211.944 460.312 211.822 447.677 211.707 435.043L211.688 433.174C211.631 427.209 211.561 419.253 211.509 413.288L211.497 411.541C211.42 402.996 211.35 394.452 211.279 385.901C238.014 385.536 275.559 382.534 302.606 370.322L301.124 369.017C281.239 378.451 250.633 383.616 210.161 384.358C210.129 393.421 210.123 402.484 210.116 411.547V413.295C210.116 419.26 210.129 427.215 210.136 433.181V435.049C210.136 435.197 210.206 459.569 210.251 470.949C155.651 470.828 126.355 465.88 98.7453 460.382" fill="#C4D1E0"/>
<path d="M230.084 371.02C230.199 371.333 230.314 371.762 230.391 372.089C236.442 371.826 267.751 370.009 289.667 359.704C293.105 362.495 297.782 366.111 301.118 369.017L302.6 370.322C308.44 375.871 316.069 383.456 321.571 389.344C331.82 383.795 336.471 380.307 338.727 373.036L337.181 371.737C335.506 376.851 333.468 380.71 320.925 387.501C315.718 382.137 308.67 375.091 303.175 370.028L301.68 368.729C297.763 365.573 292.613 361.278 288.575 358.283C273.955 365.068 256.448 368.85 230.039 370.93C230.052 370.956 230.065 370.988 230.071 371.013" fill="#C4D1E0"/>
<path d="M277.578 481.107C277.815 481.926 277.84 482.432 277.872 483.014C304.6 479.462 319.654 476.818 343.685 469.637L344.95 469.228C355.979 465.33 357.679 464.734 365.244 461.157C371.761 479.743 375.033 489.075 378.783 513.23C394.317 504.839 401.371 499.553 404.847 488.544L404.508 486.521C401.901 494.343 398.757 500.25 379.55 510.638C376.138 492.039 374.26 481.792 365.461 458.75C356.024 463.09 354.573 463.755 344.292 467.263L343.033 467.666C322.721 473.663 309.13 476.838 277.54 480.979C277.553 481.017 277.565 481.062 277.578 481.1" fill="#C4D1E0"/>
<path d="M292.926 651.133C362.4 639.747 375.435 622.184 379.716 616.411L380.809 614.555C366.183 637.11 313.309 646.231 293.399 649.668L292.926 651.133ZM213.337 657.431C251.649 656.977 275.553 653.61 291.367 651.376L291.827 649.911C257.579 655.101 232.001 655.62 213.33 656.004V657.431M184.143 655.665C184.341 656.292 184.309 656.759 184.29 657.009C193.733 657.374 194.398 657.374 211.561 657.45L211.548 656.023C203.101 656.074 200.577 656.023 184.143 655.671" fill="#C4D1E0"/>
<path d="M140.303 667.838C140.61 668.325 140.738 668.747 140.821 669.022C167.606 672.312 182.175 673.195 211.707 673.323L211.695 672.095C179.357 671.979 165.772 670.776 140.303 667.838ZM385.953 594.515C392.151 589.587 393.48 586.931 395.908 582.099L396.63 580.044C394.713 585.35 391.997 587.801 386.579 592.685L385.953 594.515ZM350.618 611.617C371.135 604.641 377.058 600.621 385.256 595.059L385.876 593.235C373.946 601.786 363.87 605.345 351.11 609.851L350.612 611.617M213.337 673.317C249.86 672.837 271.093 669.771 286.6 667.531C288.671 662.686 291.137 656.094 292.932 651.14L293.405 649.674C296.3 640.317 296.504 639.357 299.897 623.292C322.823 619.535 333.015 616.853 349.314 612.04L349.806 610.273C331.66 615.835 319.82 618.235 298.511 621.832C296.306 633.897 295.795 635.721 291.84 649.911L291.38 651.376C289.833 655.959 287.501 661.976 285.731 666.475C254.141 671.263 229.592 671.755 213.343 672.082V673.311" fill="#C4D1E0"/>
<path d="M349.8 610.273L349.308 612.04L345.449 624.04C362.88 618.114 370.196 614.619 381.052 607.022L385.953 594.515L386.579 592.685C391.997 574.681 392.106 573.868 395.032 552.964C403.403 545.764 404.227 543.293 406.22 537.315L406.425 535.254C404.118 542.871 401.882 545.06 394.489 551.492C391.895 572.44 391.78 572.831 385.882 593.229L385.262 595.053L381.135 605.793C371.148 612.955 362.988 616.418 347.327 621.948L350.624 611.604L351.123 609.838C352.305 605.505 353.525 599.629 354.541 595.251L353.193 595.687C352.33 600.09 350.835 605.895 349.806 610.26M247.834 587.462C247.937 588.275 247.866 588.793 247.79 589.344C309.411 585.331 340.005 576.293 356.439 571.436C355.794 578.175 354.535 587.129 353.538 593.824L354.893 593.389C356.068 586.099 357.212 576.313 357.972 568.965C316.325 581.983 276.741 585.152 247.841 587.462" fill="#C4D1E0"/>
<path d="M328.944 671.25C334.503 668.325 335.021 667.928 339.954 664.158L341.602 662.699C337.583 666.014 337.027 666.321 330.222 670.091L328.944 671.25ZM92.247 614.005C92.4132 614.485 92.5346 615.157 92.6304 615.656C143.92 626.479 187.746 626.658 211.286 626.761C211.369 636.515 211.458 646.263 211.541 656.017L211.554 657.444C211.592 661.841 211.644 667.697 211.682 672.094L211.695 673.323C211.746 679.25 211.797 685.177 211.842 691.11C261.4 690.566 300.549 684.006 328.203 671.614L329.475 670.456C312.114 678.732 277.866 688.864 213.254 690.156C213.299 684.959 213.305 682.495 213.337 673.311V672.082C213.343 667.685 213.337 661.822 213.337 657.431V656.004C213.305 643.389 213.305 642.352 213.235 625.02C153.843 625.09 120.898 619.618 92.2534 614.005" fill="#C4D1E0"/>
<path d="M238.716 696.602C238.665 696.787 238.55 697.018 238.48 697.197C271.879 695.046 298.511 689.401 317.635 680.409C321.047 677.682 325.686 674.143 328.951 671.243L330.229 670.078C334.81 665.477 340.797 659.211 345.027 654.282C352.068 650.378 355.953 648.227 360.816 642.922L362.209 641.257C357.378 646.186 355.206 648.151 345.276 653.335C340.727 658.641 334.439 665.534 329.481 670.456L328.21 671.615C325.245 674.053 321.398 677.432 318.331 679.73C303.942 686.169 283.227 693.203 238.729 696.55C238.729 696.563 238.729 696.582 238.723 696.595" fill="#C4D1E0"/>
<path d="M283.22 608.231C283.239 608.647 283.182 609.204 283.124 609.614C309.916 606.727 328.906 602.957 353.187 595.699L354.535 595.264C366.228 591.136 368.336 590.387 377.244 586.131C380.63 567.646 382.33 558.366 381.729 533.577C392.821 527.42 403.3 521.602 406.994 509.153L406.879 507.06C403.767 516.398 399.422 521.928 380.553 532.009C380.854 551.146 381.02 561.688 376.611 584.761C366.234 589.421 364.899 590.022 354.893 593.402L353.538 593.837C331.717 600.282 317.124 603.693 283.214 608.135C283.214 608.167 283.22 608.212 283.22 608.244" fill="#C4D1E0"/>
<path d="M225.266 372.364C226.11 375.513 229.036 376.928 230.161 374.732C231.285 372.53 229.4 367.967 226.8 367.948C224.992 368.21 224.819 370.687 225.266 372.364Z" fill="#C4D1E0"/>
<path d="M142.335 408.225C141.089 411.662 143.192 414.037 146.214 412.61C149.881 410.875 151.485 405.032 148.623 403.809C148.457 403.739 148.214 403.681 148.035 403.643C145.326 403.438 143.07 406.196 142.335 408.225Z" fill="#C4D1E0"/>
<path d="M177.414 433.859C177.146 437.968 181.095 440.183 184.117 437.616C187.286 434.921 186.826 428.911 182.475 428.47C179.223 428.508 177.561 431.644 177.414 433.859Z" fill="#C4D1E0"/>
<path d="M90.8541 459.973C89.7487 464.101 92.3493 467.064 95.4929 465.259C99.167 463.147 100.458 456.273 96.5408 455.044C93.6591 454.564 91.4803 457.636 90.8541 459.973Z" fill="#C4D1E0"/>
<path d="M235.419 511.957C236.109 516.936 242.154 518.613 244.927 514.6C247.394 511.029 245.342 505.364 240.359 505.383C236.378 505.812 235.074 509.486 235.413 511.957" fill="#C4D1E0"/>
<path d="M268.352 483.616C269.419 488.256 274.684 489.773 277.016 486.112C279.271 482.572 276.837 476.71 272.166 476.985C268.626 477.593 267.808 481.228 268.358 483.616" fill="#C4D1E0"/>
<path d="M236.908 589.472C237.362 594.208 243.4 595.751 246.55 591.942C249.393 588.505 247.656 583.078 242.448 583.116C238.25 583.552 236.685 587.097 236.908 589.472Z" fill="#C4D1E0"/>
<path d="M273.01 610.676C273.105 614.805 278.115 616.046 281.386 612.757C284.709 609.415 283.271 604.391 279.016 604.481C278.875 604.481 278.69 604.5 278.549 604.513C274.639 605.14 272.952 608.494 273.003 610.676" fill="#C4D1E0"/>
<path d="M84.4389 613.358C85.9021 617.717 90.7391 620.386 92.2854 617.685C93.6655 615.265 91.1161 610.062 87.1673 608.929C84.0747 608.372 83.7105 611.188 84.4453 613.358" fill="#C4D1E0"/>
<path d="M174.571 656.234C175.657 660.017 181.906 661.368 183.861 658.244C185.325 655.908 183.101 652.433 178.826 652.081C175.063 652.055 174.073 654.493 174.571 656.234Z" fill="#C4D1E0"/>
<path d="M132.451 667.544C134.47 670.885 140.105 672.581 140.821 670.066C141.37 668.145 138.47 664.926 134.764 664.26C131.594 663.928 131.505 665.982 132.457 667.55" fill="#C4D1E0"/>
<path d="M231.733 697.581C231.413 699.501 234.991 699.904 237.451 698.227C239.272 696.986 239.145 695.386 237.202 694.995C236.742 694.906 236.397 694.918 236.026 694.925C233.33 695.174 231.892 696.627 231.733 697.581Z" fill="#C4D1E0"/>
</g>
<circle cx="203.5" cy="546.5" r="77.5" fill="#EEF2F8"/>
<circle cx="203.5" cy="546.5" r="76" stroke="#1A4F81" stroke-opacity="0.15" stroke-width="3" stroke-linecap="round" stroke-dasharray="6 12"/>
<g filter="url(#filter0_d_2034_3139)">
<circle cx="203.5" cy="546.5" r="66.5" fill="white"/>
</g>
<path d="M203 508C187.292 522.425 171 520.135 171 520.135L171.243 543.089C171.438 561.51 182.964 577.885 200.277 584.123C201.979 584.708 203 585 203 585C203 585 204.021 584.756 205.723 584.123C217.395 579.932 226.392 571.111 231.158 560.194C227.802 562.095 222.112 564.532 214.137 565.555C211.316 568.187 207.669 570.77 203.049 572.719C187.973 566.384 183.401 553.42 183.401 553.42C190.745 556.783 203.049 557.222 203.049 557.222C203.049 557.222 209.857 556.978 216.374 555.467C218.027 555.077 219.778 554.541 221.529 553.908C221.918 553.761 222.307 553.566 222.696 553.42C222.696 553.42 222.696 553.42 222.696 553.469C226.83 551.812 231.109 549.424 234.611 546.013C234.708 545.038 234.757 544.063 234.757 543.089L235 520.135C235 520.135 218.708 522.425 203 508ZM223.815 539.628C223.815 539.628 215.693 545.184 203.778 545.184C191.863 545.184 183.693 539.628 183.693 539.628V531.149C195.17 528.956 203.729 522.279 203.729 522.279C203.729 522.279 211.608 529.004 223.766 531.149V539.628H223.815Z" fill="#F08021"/>
<defs>
<filter id="filter0_d_2034_3139" x="113" y="460" width="181" height="181" filterUnits="userSpaceOnUse" color-interpolation-filters="sRGB">
<feFlood flood-opacity="0" result="BackgroundImageFix"/>
<feColorMatrix in="SourceAlpha" type="matrix" values="0 0 0 0 0 0 0 0 0 0 0 0 0 0 0 0 0 0 127 0" result="hardAlpha"/>
<feOffset dy="4"/>
<feGaussianBlur stdDeviation="12"/>
<feComposite in2="hardAlpha" operator="out"/>
<feColorMatrix type="matrix" values="0 0 0 0 0.101961 0 0 0 0 0.309804 0 0 0 0 0.505882 0 0 0 0.08 0"/>
<feBlend mode="normal" in2="BackgroundImageFix" result="effect1_dropShadow_2034_3139"/>
<feBlend mode="normal" in="SourceGraphic" in2="effect1_dropShadow_2034_3139" result="shape"/>
</filter>
<clipPath id="clip0_2034_3139">
<rect width="407" height="387" fill="white" transform="translate(0 334)"/>
</clipPath>
</defs>
</svg>
